<svg xmlns="http://www.w3.org/2000/svg" viewBox="0 0 23.629 29.666">
  <defs>
    <style>
      .cls-1 {
        fill: #b649d6;
      }
    </style>
  </defs>
  <path id="Path_4949" data-name="Path 4949" class="cls-1" d="M23.629,19.747V11.335a1.48,1.48,0,0,0-1.476-1.476h-1.4V4.974A4.976,4.976,0,0,0,15.777,0H7.867A4.976,4.976,0,0,0,2.893,4.974V9.859H1.476A1.48,1.48,0,0,0,0,11.335v8.413H1.4v9.918H22.227V19.747h1.4Zm-8.118,0v8.442H8.118V19.747ZM1.476,18.272v-2.7H22.153v2.7Zm20.677-6.937v2.76H1.476v-2.76ZM2.878,19.747H6.642v8.442H2.878Zm17.873,8.442H16.988V19.747h3.764Z" transform="translate(0)"/>
</svg>
