<svg xmlns="http://www.w3.org/2000/svg" viewBox="0 0 16.01 20.09">
  <defs>
    <style>
      .cls-1 {
        fill: #b649d6;
      }
    </style>
  </defs>
  <path id="Path_4913" data-name="Path 4913" class="cls-1" d="M16.01,7.39a4.737,4.737,0,0,0-2.55-4.2A6.233,6.233,0,0,0,8.01,0a2.437,2.437,0,0,0-.27.01A6.252,6.252,0,0,0,1.88,5.04a4.73,4.73,0,0,0,1.91,8.41,3.236,3.236,0,0,0,2.71,2.8v3.84h3V16.18a4.734,4.734,0,0,0,4.25-4.69c0-.03-.01-.06-.01-.1A4.641,4.641,0,0,0,16.01,7.39ZM13.58,10.3h0c-.01.01-.03.02-.04.03a3.084,3.084,0,0,1-.48.32l-.07.04v.01a.47.47,0,0,0-.26.43.433.433,0,0,0,.01.05l-.01.01a2.962,2.962,0,0,1,.03.31,3.737,3.737,0,0,1-3.25,3.68V13.6h0a.5.5,0,0,0-1,0h0v5.5h-1V10.61a.5.5,0,0,0-1,0v4.64a2.251,2.251,0,0,1-1.75-2.19c0-.02.01-.04.01-.06l-.01-.01v-.01a.489.489,0,0,0-.44-.49s-.32-.04-.5-.08a3.737,3.737,0,0,1,.93-7.36,1.477,1.477,0,0,1,.21.01h.01V5.05c.01,0,.02.01.04.01a.5.5,0,0,0,.05-.99V4.06H5.05c-.1-.01-.2-.01-.29-.01a4.73,4.73,0,0,0-1.64.31A5.219,5.219,0,0,1,7.78,1h.23a5.237,5.237,0,0,1,5.24,5.03c.01.23-.04.8-.04.81a.5.5,0,0,0,.5.5.5.5,0,0,0,.49-.43l.01-.08a6.12,6.12,0,0,0,.04-.85,5.363,5.363,0,0,0-.13-.99,3.678,3.678,0,0,1-.54,5.31Z"/>
</svg>
