<svg xmlns="http://www.w3.org/2000/svg" viewBox="0 0 16.01 20.1">
  <defs>
    <style>
      .cls-1 {
        fill: #989898;
      }
    </style>
  </defs>
  <path id="Path_4924" data-name="Path 4924" class="cls-1" d="M16.01,13.38V7.68a1,1,0,0,0-1-1h-.95V3.37A3.372,3.372,0,0,0,10.69,0H5.33A3.372,3.372,0,0,0,1.96,3.37V6.68H1a1,1,0,0,0-1,1v5.7H.95V20.1H15.06V13.38h.95Zm-5.5,0V19.1H5.5V13.38h5.01ZM1,12.38V10.55H15.01v1.83Zm14.01-4.7V9.55H1V7.68ZM1.95,13.38H4.5V19.1H1.95ZM14.06,19.1H11.51V13.38h2.55Z"/>
</svg>
