<svg xmlns="http://www.w3.org/2000/svg" viewBox="0 0 41.493 40">
  <defs>
    <style>
      .cls-1 {
        fill: #989898;
      }
    </style>
  </defs>
  <g id="caneta" transform="translate(-72 -471)">
    <path id="Path_4898" data-name="Path 4898" class="cls-1" d="M38.225,39.3H17.17a.97.97,0,1,0,0,1.941H38.225a.97.97,0,1,0,0-1.941Z" transform="translate(71.557 469.759)"/>
    <path id="Path_4899" data-name="Path 4899" class="cls-1" d="M39.781,1.749a5.917,5.917,0,0,0-8.247,0h0l-.388.388h0L7.567,25.618h0c-.1.1-.194.291-.291.388L6.015,29.887l-2.62,2.62a.938.938,0,0,0,0,1.358l-3.2,3.2A.931.931,0,0,0,0,37.94a.959.959,0,0,0,.679.679l4.075,1.358a1.06,1.06,0,0,0,.97-.194L7.47,38.037a.938.938,0,0,0,1.358,0l2.62-2.62,3.881-1.261c.194-.1.291-.1.388-.291h0L39.781,9.9h0A5.8,5.8,0,0,0,39.781,1.749ZM4.85,38.037l-2.038-.679L4.85,35.321l1.358,1.358ZM8.246,36,5.529,33.283l1.358-1.358L9.6,34.641Zm6.889-4.172-.582.485-1.261.388h0l-2.038.679-3.3-3.3.679-1.941h0l.388-1.261.485-.485L31.824,4.174l5.531,5.531ZM38.616,8.25,33.183,2.816a3.758,3.758,0,0,1,5.143.291A3.758,3.758,0,0,1,38.616,8.25Z" transform="translate(72.039 470.925)"/>
  </g>
</svg>
