<svg xmlns="http://www.w3.org/2000/svg" viewBox="0 0 16.017 20.1">
  <defs>
    <style>
      .cls-1 {
        fill: none;
      }

      .cls-2 {
        fill: #989898;
      }
    </style>
  </defs>
  <g id="Group_2415" data-name="Group 2415" transform="translate(0.007)">
    <rect id="Rectangle_998" data-name="Rectangle 998" class="cls-1" width="16.01" height="20.1"/>
    <g id="Group_2414" data-name="Group 2414">
      <path id="Path_4898_1_" class="cls-2" d="M15.55,19.1H5.47a.475.475,0,0,0-.46.5.481.481,0,0,0,.46.5H15.54a.5.5,0,0,0,.01-1Z"/>
      <path id="Path_4912" data-name="Path 4912" class="cls-2" d="M2.26,20.08.44,19.81a.509.509,0,0,1-.4-.28.5.5,0,0,1,.02-.46l1.07-1.53a.477.477,0,0,1-.06-.63L2,15.62l.23-1.69.05-.11a1.091,1.091,0,0,1,.06-.11L10.68,1.92A2.634,2.634,0,0,1,12.79.84a2.684,2.684,0,0,1,1.48.45,2.566,2.566,0,0,1,.62,3.54L6.51,16.68a.276.276,0,0,1-.12.14l-1.6.85-.88,1.27a.489.489,0,0,1-.4.21h0a.545.545,0,0,1-.22-.05l-.56.8a.548.548,0,0,1-.41.19Zm1.17-2.12.38-.54L2.6,16.57l-.38.54Zm-.25-3.73-.06.52-.14.87,1.6,1.07.72-.44.5-.26.18-.23L13.66,4.9l-2.6-1.83Zm11-10.17a1.523,1.523,0,0,0-.52-1.96,1.534,1.534,0,0,0-.92-.3,1.475,1.475,0,0,0-1.1.48Z"/>
    </g>
  </g>
</svg>
