<svg xmlns="http://www.w3.org/2000/svg" viewBox="0 0 213.21 159.905">
  <defs>
    <style>
      .cls-1 {
        fill: #eeb673;
      }

      .cls-2 {
        fill: #161413;
      }

      .cls-3 {
        fill: #383232;
      }

      .cls-4 {
        fill: #f5e67c;
      }

      .cls-5 {
        fill: #fae844;
      }

      .cls-6 {
        fill: #049904;
      }

      .cls-7 {
        fill: #3f2302;
      }

      .cls-8 {
        fill: #17c417;
      }

      .cls-9 {
        fill: #a86622;
      }

      .cls-10 {
        fill: #7c4411;
      }

      .cls-11 {
        fill: #8e0d16;
      }

      .cls-12 {
        fill: #d50008;
      }

      .cls-13 {
        fill: #f0bf44;
      }

      .cls-14 {
        fill: #42210b;
      }

      .cls-15 {
        fill: #8a3900;
      }

      .cls-16 {
        fill: #f3c8cf;
      }

      .cls-17 {
        fill: #debbc2;
      }

      .cls-18 {
        fill: #030814;
      }

      .cls-19 {
        fill: #871d1d;
      }

      .cls-20 {
        fill: #45662f;
      }

      .cls-21 {
        fill: #0b1823;
      }

      .cls-22 {
        fill: #03080c;
      }

      .cls-23 {
        fill: #1c0f0c;
      }

      .cls-24 {
        fill: #0a294b;
      }

      .cls-25 {
        fill: #72594b;
      }

      .cls-26 {
        fill: #1a1615;
      }

      .cls-27 {
        fill: #171010;
      }

      .cls-28 {
        fill: #0b1f51;
      }

      .cls-29 {
        fill: #096eb0;
      }

      .cls-30 {
        fill: #686868;
      }

      .cls-31 {
        fill: #a8a8a8;
      }

      .cls-32 {
        fill: #4b2818;
      }

      .cls-33 {
        fill: #caa8b0;
      }
    </style>
  </defs>
  <g id="composicao" transform="translate(-72 -64)">
    <path id="Path_4906" data-name="Path 4906" class="cls-1" d="M207.8,21.1C186.6,15.1,165.6,8.2,145,.5c-5.5-2-9.1,2.5-9.1,7.1a268.188,268.188,0,0,0-32.2-3.3c-5-.2-8.3,5.3-7.3,9.7q-10.95-1.95-21.9-3.3A30.457,30.457,0,0,0,62.9,9.5c-9.6,1-9.7,14.2,0,15,2.5.2,5,.5,7.4.7a57.831,57.831,0,0,1,7.5,2.9c4.9,2.1,9.8,4.2,14.8,6.3-14.2-2.7-28.5-5.2-42.8-7.2-9.4-1.4-13.3,11.1-4,14.5,2,.7,4,1.5,5.9,2.3-14.9-2-29.6-3.4-44.5-4.3-8.8-.5-9.7,12.2-2,14.7Q33.4,63.7,61.4,73c7.2,2.4,11.2-6.1,8.1-11.3,12.9,2.1,25.7,4.7,38.5,7.7,9.4,2.2,13.3-11.7,4-14.5-3.2-1-6.3-2.1-9.4-3.3,29.4,6,58.6,13,87.7,20.4,9.4,2.4,13-11.3,4-14.5q-25.65-9-51.1-18.7c16.5,3.7,33.1,7.4,49.7,10.2,9.3,1.5,13.6-12.3,4-14.5-1-.2-1.9-.5-2.9-.7,3.3.6,6.5,1.1,9.8,1.6C213.1,36.9,217.3,23.8,207.8,21.1Z" transform="translate(72.035 150.488)"/>
    <g id="Group_2373" data-name="Group 2373" transform="translate(246.495 84.759)">
      <path id="Path_4141" data-name="Path 4141" class="cls-2" d="M343.724,727.756H330L332.339,706h9.045Z" transform="translate(-327.583 -637.301)"/>
      <g id="Group_1951" data-name="Group 1951" transform="translate(2.339 86.478)">
        <ellipse id="Ellipse_178" data-name="Ellipse 178" class="cls-2" cx="6.862" cy="3.743" rx="6.862" ry="3.743" transform="translate(0.078)"/>
        <path id="Path_4142" data-name="Path 4142" class="cls-3" d="M329.978,734.034v.234c.078,2.027,3.119,3.587,6.862,3.587s6.706-1.637,6.862-3.587v-.312a3.708,3.708,0,0,1-2.417,2.573h0l-.468.234h0c-.078,0-.078.078-.156.078h0c-.078,0-.078,0-.156.078h0c-.078,0-.234.078-.312.078h0c-.078,0-.078,0-.156.078h-.156c-.156,0-.234.078-.39.078H335.28a.584.584,0,0,1-.39-.078h-.234a.286.286,0,0,1-.234-.078h-.312a.287.287,0,0,1-.234-.078h0c-.078,0-.156,0-.156-.078h-.078c-.156,0-.234-.078-.39-.078h0c-.078,0-.078,0-.156-.078h0c-1.793-.624-3.041-1.637-3.2-2.885C329.978,733.956,329.978,733.956,329.978,734.034Z" transform="translate(-329.9 -729.901)"/>
      </g>
      <ellipse id="Ellipse_179" data-name="Ellipse 179" class="cls-3" cx="4.523" cy="0.936" rx="4.523" ry="0.936" transform="translate(4.757 67.763)"/>
      <path id="Path_4143" data-name="Path 4143" class="cls-2" d="M338.205,691.1a9.766,9.766,0,0,1-2.105-.234V639.4h4.133v51.466A5.579,5.579,0,0,1,338.205,691.1Z" transform="translate(-328.926 -622.635)"/>
      <ellipse id="Ellipse_180" data-name="Ellipse 180" class="cls-4" cx="9.279" cy="9.279" rx="9.279" ry="9.279" transform="translate(0 0)"/>
      <ellipse id="Ellipse_181" data-name="Ellipse 181" class="cls-4" cx="9.279" cy="9.279" rx="9.279" ry="9.279" transform="translate(0 0)"/>
      <path id="Path_4144" data-name="Path 4144" class="cls-5" d="M343.478,634.578a9.272,9.272,0,0,0,0-13.178L330.3,634.578A9.414,9.414,0,0,0,343.478,634.578Z" transform="translate(-327.649 -618.671)"/>
    </g>
    <path id="Subtraction_1" data-name="Subtraction 1" class="cls-6" d="M228.651,184.845h0a1.925,1.925,0,0,1-1.717-.756c.135-.157.271-.31.4-.458l0,0a9.023,9.023,0,0,0,1.133-1.461c0-.094-.369-.465-.384-.481-.332.166-.622.346-.878.5a2.67,2.67,0,0,1-1.335.554,53.548,53.548,0,0,1-5.46-.67l-.022,0c-.3-.1-.77-.589-.77-.866.2-1.494-.78-2.071-1.731-2.629a5.226,5.226,0,0,1-1.059-.738,3.123,3.123,0,0,0-2.27-.867,5.615,5.615,0,0,0-1.962.386,2.836,2.836,0,0,1-1.012.217c-.746,0-1.28-.436-1.682-1.372a4.442,4.442,0,0,1,2.338-.757,3.329,3.329,0,0,1,2.088.757c1.394-.766,2.71-1.567,4.1-2.415l0,0c.51-.31,1.038-.632,1.566-.948a8.184,8.184,0,0,0-.552-1.213c-.071-.136-.144-.276-.217-.422a3.256,3.256,0,0,0-2.789,2.116,1.341,1.341,0,0,1-.673.769,29.266,29.266,0,0,1-3.078.481,5.341,5.341,0,0,1-.756.06,1.743,1.743,0,0,1-1.938-1.791,4.714,4.714,0,0,0-.673.288l-1.923-2.309c-.6-1.509-1.1-2.023-2.02-2.116a5.528,5.528,0,0,0-1.154.1c.049.1.1.221.146.341s.095.238.142.333l-3.559,2.885a5.937,5.937,0,0,1-1.346.1c-.18,0-.4.225-.629.463a3.916,3.916,0,0,1-.43.4c.165.083.333.182.5.279a2.64,2.64,0,0,0,1.237.491h.289l.192,1.539h-.288a2.906,2.906,0,0,0-.1,1.635l-.481.673a1.057,1.057,0,0,0-.578-.673.214.214,0,0,0-.1-.019,1.356,1.356,0,0,0-.865.5,1.872,1.872,0,0,0-.1,1.251,3.786,3.786,0,0,0,.461.791l0,.006.112.164a2.276,2.276,0,0,1-1.145.286,4.12,4.12,0,0,1-3.279-1.921c-.207-.289-.4-.612-.586-.924-.7-1.174-1.428-2.387-3.165-2.538h-1.635a1.668,1.668,0,0,0-.1.24,1.651,1.651,0,0,1-.1.24,18.33,18.33,0,0,0,1.25,1.635l-.008.008a7.374,7.374,0,0,0-.665.761c.478.106.9.243,1.308.375.339.11.657.213,1,.3-1.268,2.05-1.84,2.309-5.1,2.309.048.192.1.411.144.623s.1.435.145.628c-.32.16-.646.334-.961.5a20.134,20.134,0,0,1-1.925.941.979.979,0,0,1-.235.025,1.565,1.565,0,0,1-1.111-.41c-.294-.441-.562-.638-.87-.638a1.7,1.7,0,0,0-.957.446,3.411,3.411,0,0,1-2.172.852,3.31,3.31,0,0,1-1.483-.372,1.129,1.129,0,0,0-.588-.128,5.762,5.762,0,0,0-.716.064,5.763,5.763,0,0,1-.716.064c-.21,0-.43,0-.643.008h-.007c-.223,0-.453.008-.682.008a6.967,6.967,0,0,1-1.939-.208,1.123,1.123,0,0,1-.813-.9,2.552,2.552,0,0,1,1.1-2.278l.041-.029c.646-.46,1.2-.858.921-1.894-.251-1.005-.873-1.063-1.53-1.124-.1-.009-.2-.018-.3-.031a2.459,2.459,0,0,0-.481-.042c-.161,0-.324.011-.481.021s-.321.021-.481.021c-2.24-.089-4.37-.26-6.625-.441l-.493-.04a1.225,1.225,0,0,1-.1-.577c.747-.48,1.532-.935,2.362-1.417.682-.4,1.387-.8,2.158-1.276a7.789,7.789,0,0,0-.912-.276,2.931,2.931,0,0,1-.627-.2l0,0c-.279-.187-.861-.575-.861-.863-.107-1.389-1.085-1.655-1.924-1.732-2.166-.188-4.4-.382-6.637-.673a4.238,4.238,0,0,1-1.04-.381,6.726,6.726,0,0,0-.692-.292c.169-.281.371-.563.585-.862.154-.215.313-.437.473-.677-.176-.2-.355-.4-.545-.608a19.049,19.049,0,0,1-1.571-1.893,1.744,1.744,0,0,1-.1-1.539,1.093,1.093,0,0,0,.172-.9c-.1-.26-.356-.457-.845-.641a16.353,16.353,0,0,1-2.02-.673,2.716,2.716,0,0,1-1.64-2.066,2.891,2.891,0,0,1,1.159-2.551,1.6,1.6,0,0,1,1.026-.434,2.377,2.377,0,0,1,1.308.577c.118.083.239.168.359.243a3.312,3.312,0,0,0,1.848.682,2.885,2.885,0,0,0,1.518-.49c.662-.473,1.346-.963,1.25-1.732a5.525,5.525,0,0,0-1.344-.385,3.193,3.193,0,0,1-.483.24,3.017,3.017,0,0,0-.481.241,2.636,2.636,0,0,1-.673-1.732c-.026-.051-.051-.095-.075-.137a.634.634,0,0,1-.117-.344h.193c.039-.353.111-.694.181-1.024a7,7,0,0,0,.2-1.477,5.566,5.566,0,0,0,.628.054,2.658,2.658,0,0,1,1.2.235c.171.085.268.481.353.831l.032.131a2.81,2.81,0,0,0,.481-1.346c.224.032.438.064.652.1.42.063.853.128,1.368.193q-.058-.193-.111-.375a7.148,7.148,0,0,0-.754-1.934c-.084-.251-.537-.358-.9-.444l-.158-.038a2.453,2.453,0,0,0-.4-.029c-.124,0-.249.006-.36.011s-.236.011-.347.011a1.172,1.172,0,0,1-.524-.089,3.432,3.432,0,0,1-.674-.814c-.121-.179-.246-.362-.383-.533.136-.055.287-.132.447-.214a2.661,2.661,0,0,1,1.054-.376.681.681,0,0,1,.133.013,2.738,2.738,0,0,1,1.365.831c.118.107.24.217.367.322.643-.786.18-1.3-.311-1.838a4.185,4.185,0,0,1-.458-.566c.376.1.74.181,1.092.256a9.024,9.024,0,0,1,1.793.513,3.141,3.141,0,0,1,.651.759c.07.1.143.2.215.3a4,4,0,0,0-.529.337,4.007,4.007,0,0,1-.529.337l-.025.016-.841.561c.1.05.194.1.284.148a3.3,3.3,0,0,0,.773.332,1.636,1.636,0,0,0,.3.029c.71,0,1.071-.545,1.421-1.073a2.241,2.241,0,0,1,.973-.976,5.448,5.448,0,0,0,1.154-.385,2.7,2.7,0,0,1-1.057-.481c-1.011-.867-1.894-1.767-2.829-2.721l-.005-.005c-.3-.3-.607-.619-.917-.93a1.385,1.385,0,0,1-.523-1.356,1.057,1.057,0,0,1,1-.567h.289c-.336-.191-.7-.386-1.054-.574s-.725-.387-1.063-.58a2.226,2.226,0,0,1-1.057-1.058,4.166,4.166,0,0,1,.576.177,2.652,2.652,0,0,0,.867.208,6.678,6.678,0,0,0,1.023.1,1.189,1.189,0,0,0,.8-.192l.042-.059a1.984,1.984,0,0,0,.559-1.417,1.339,1.339,0,0,0-.7-.832,2.515,2.515,0,0,1-.626-.9c-.076-.149-.154-.3-.24-.446a.945.945,0,0,1,.192-.24.945.945,0,0,0,.192-.24c.946.63,1.694,1.091,2.5,1.539l.011.008a15.794,15.794,0,0,0,2.1,1.339,1.53,1.53,0,0,0,.453.063c.269,0,.46-.06.509-.16a2.292,2.292,0,0,1,.962-.961,1.907,1.907,0,0,0,.078-.183.506.506,0,0,1,.114-.2l.193.193a6.676,6.676,0,0,1,1.657-.214,5.152,5.152,0,0,0,2.287-.46c-.061,1.593.074,2.411.47,2.822a1.377,1.377,0,0,0,1.069.352c.1-1.251.1-2.571.1-3.848a1.789,1.789,0,0,1-.673-.192c-.676-.145-1.363-.268-2.028-.386s-1.341-.239-2.012-.383a2.944,2.944,0,0,0-.275-2.32,1.413,1.413,0,0,0-1.142-.427,5.585,5.585,0,0,0-1.468.245,1.923,1.923,0,0,1-.376.036,2.3,2.3,0,0,1-1.163-.324,5.593,5.593,0,0,1-.728-.624l-.015-.015-.09-.086h52.234a1.958,1.958,0,0,0,.635,1.4,4.529,4.529,0,0,1,.962-.481c-.23-.322-.444-.622-.657-.916h27.14a1.769,1.769,0,0,1-1.089.916c-1.029.258-2.076.432-3.088.6-.5.084-1.021.17-1.529.265h-.1a11.422,11.422,0,0,1,.918.7,4.723,4.723,0,0,0,1.1.747.524.524,0,0,0,.3.08,2.184,2.184,0,0,0,.859-.272,3.535,3.535,0,0,0,.491-.384,1.441,1.441,0,0,1,.855-.482,2.711,2.711,0,0,1,1.017.321,6.584,6.584,0,0,0,.619.256c-.055.092-.109.188-.166.29a2.248,2.248,0,0,1-.892,1.056,15.032,15.032,0,0,1,1.828,1.251,5,5,0,0,1,1.209,1.536c.144.243.28.471.426.676a1.723,1.723,0,0,1,.337-.241,1.721,1.721,0,0,0,.337-.241,5.616,5.616,0,0,1-.219-1.227c-.02-.194-.041-.393-.07-.6a9.726,9.726,0,0,1-1.032.2c-.186.027-.347.051-.507.091l-.018-.065c-.183-.642-.372-1.306-.558-2.051h.007a.751.751,0,0,0,.111-.015,1.285,1.285,0,0,1,.217-.026.2.2,0,0,1,.146.043,3.665,3.665,0,0,0,1.953.6,3.888,3.888,0,0,0,2.664-1.178l.015-.014a4.255,4.255,0,0,1,2.685-1.461,2.411,2.411,0,0,1,.763.129c.383.191.962.48.577,1.539a1.3,1.3,0,0,1-.577,1.058,5.664,5.664,0,0,0-2.982,2.79,4.349,4.349,0,0,1-1.808,1.323c-.2.1-.4.2-.6.311-.24.336-.459.677-.671,1.007s-.434.676-.675,1.013c.43.239.963.505,1.527.787s1.208.6,1.839.944c.4.2.863.778.77,1.057-.361,1.085-.684,1.635-.961,1.635a2.913,2.913,0,0,0-2.694,1.828,7.737,7.737,0,0,1-1.7,1.934c-.262.24-.533.488-.8.759a9.4,9.4,0,0,1,1,.514c.245.139.5.283.828.448-.507.355-.968.634-1.375.88-.366.222-.712.431-1.03.659-.17.113-.362.216-.564.325a2.623,2.623,0,0,0-1.167.925.126.126,0,0,1-.048.1.126.126,0,0,0-.048.1,1.115,1.115,0,0,0,.441.092c.569,0,1.212-.439,1.964-1.342a2.414,2.414,0,0,1,1.443-.578,1.645,1.645,0,0,1,.23-.015,4.347,4.347,0,0,1,.826.111,4.374,4.374,0,0,0,.83.112,1.661,1.661,0,0,0,.23-.015,5.306,5.306,0,0,0,1.141-.4c.241-.1.468-.2.686-.275a19.137,19.137,0,0,1,.954,2l.008.019a1.458,1.458,0,0,1,.1,1.251c-.188.292-.365.6-.536.893a6.594,6.594,0,0,1-2.542,2.858,4.282,4.282,0,0,0-1.5,1.944,9.6,9.6,0,0,1-.714,1.23,1.962,1.962,0,0,1-1.346.77c-.806,0-1.618-.046-2.477-.094s-1.744-.1-2.622-.1a1.983,1.983,0,0,0-1.346.77,3.659,3.659,0,0,1,2.1.872,3.86,3.86,0,0,0,2.21.906,2.826,2.826,0,0,0,.5-.047.715.715,0,0,1,.079,0c.766,0,1.79,1.154,2.612,2.082.1.114.2.224.291.326a4.22,4.22,0,0,1,.8,1.533,8.629,8.629,0,0,0,.355.872c.754-.335,1.7-.751,2.5-1.154.047.095.12.215.189.331s.147.244.2.342l-.029.03c-.885.884-1.887,1.887-2.857,2.759.317.278.687.574,1.078.888.556.446,1.186.952,1.807,1.517a1.414,1.414,0,0,1,.482,1.155c-.121.242-.748,1.449-1.2,1.449a.228.228,0,0,1-.055-.007,3.954,3.954,0,0,0-.556-.042,3.124,3.124,0,0,0-2.427,1.292,8.808,8.808,0,0,1-1.845,1.272c-.4.231-.815.47-1.233.748a13.557,13.557,0,0,1,1.19.96c.133.116.277.242.445.386-.493.18-.936.335-1.364.486-.474.166-.918.323-1.329.476-.228.086-.465.154-.694.221a2.609,2.609,0,0,0-1.326.645c-1.245,1.493-2.9,1.7-4.65,1.912-.272.034-.554.068-.833.108a21.159,21.159,0,0,1-2.308.214c-.379.021-.77.043-1.155.075l-.232.022C229.278,184.814,228.958,184.845,228.651,184.845Zm-42.38-9.834a3.69,3.69,0,0,0-1.755.516,4.718,4.718,0,0,0,3.911,1.649c.164,0,.337,0,.513-.014C188.292,175.736,187.394,175.011,186.271,175.011Zm-9.066-4.485h0a7.5,7.5,0,0,1-.461.839c-.281.466-.524.869-.405.988a9.267,9.267,0,0,0,1.974,1.182l.334.165a2.819,2.819,0,0,0,.682.141,1.793,1.793,0,0,1,.857.244,2.582,2.582,0,0,0,1.437.444,5.578,5.578,0,0,0,1.547-.3,7.179,7.179,0,0,1,1.633-.337,9.931,9.931,0,0,1-.641-.842c-.312-.443-.558-.793-.8-.793-1.385,0-1.974-.841-2.6-1.731a3.268,3.268,0,0,0-.872-.83c-.226-.172-.482-.367-.763-.613-.182.544-.287.972-.388,1.386-.061.248-.118.48-.189.73h1.539v1.732a3.693,3.693,0,0,1-1.188.247c-.993,0-1.469-.743-1.7-2.652Zm13.178-.962a5.37,5.37,0,0,0-1.143.151l-.2.042A6.791,6.791,0,0,0,190,171.1a7.636,7.636,0,0,0,1.355.845c.185.1.377.2.568.309l.289.578a4.41,4.41,0,0,1,.388-.6,2.256,2.256,0,0,0,.573-1.232c0-.5-.844-1-1.346-1.25A3.522,3.522,0,0,0,190.383,169.564ZM215.09,163.5c-.458,0-.9.557-1.718,1.739a2.06,2.06,0,0,0,1.314.62,2.385,2.385,0,0,0,1.529-.887c.108-.1.22-.211.331-.31C215.909,163.937,215.492,163.5,215.09,163.5Zm15.055.47a1.962,1.962,0,0,0-.554.208c-.138.064-.293.136-.445.2a3.843,3.843,0,0,0,2.79.9,7.429,7.429,0,0,0,4.231-1.285,3.068,3.068,0,0,0-3.282-.019,3.712,3.712,0,0,1-1.5.447,1.923,1.923,0,0,1-1.178-.428A.081.081,0,0,0,230.145,163.967Zm-23.025-1.424h0a2.553,2.553,0,0,0-.481.578l0,0c.867.577,1.439.959,1.919,1.344.591-.394,1.3-.9,1.924-1.346-.065-.022-.14-.048-.223-.078a7.605,7.605,0,0,0-1.028-.307c.1-.1.1-.1.1-.193a4.91,4.91,0,0,1-.7.043c-.239,0-.479-.01-.734-.021S207.38,162.543,207.12,162.543Zm-46.169-2.309a3.383,3.383,0,0,0-1.859.956c-.291.223-.592.453-.931.679.145.231.282.5.416.761.321.628.624,1.221,1.027,1.355a3.326,3.326,0,0,0,.843.117c1.194,0,2.075-.784,2.621-2.329a8.425,8.425,0,0,1-.737-.652C161.852,160.665,161.4,160.234,160.951,160.234Zm61.752-5.771h0c-.146.1-.319.221-.487.341s-.332.237-.475.333a7.627,7.627,0,0,1-.643.466,2.871,2.871,0,0,0-.9.784c-.77,1.347-1.438,2.684-2.212,4.233a3.149,3.149,0,0,0,.631.236c.7.209,1.485.446,1.485,1.591a1.115,1.115,0,0,1,1.25,1.058c.162-.121.357-.242.529-.349.242-.15.433-.268.433-.324a5.193,5.193,0,0,0-1.058-1.732,1.327,1.327,0,0,1-.537-.967,1.474,1.474,0,0,1,.634-1.053,19.26,19.26,0,0,1,3.174-2.308,3.735,3.735,0,0,0,1.443-1.539h-.037c-.42,0-.823.024-1.213.047s-.818.048-1.25.048a1.377,1.377,0,0,1-.578-.193l-.192-.673Zm-29.914,6.156a3.986,3.986,0,0,1-.336.527,3.955,3.955,0,0,0-.337.53,2.026,2.026,0,0,1,.287.192,2.022,2.022,0,0,0,.29.193,2.449,2.449,0,0,1,.874-.808l.088-.058a1.8,1.8,0,0,0-.432-.285,3.858,3.858,0,0,1-.337-.2.093.093,0,0,0-.025-.067.112.112,0,0,0-.071-.029Zm-28.472-2.885c-.1.1-.193.191-.292.287a5.325,5.325,0,0,0-1.247,1.54c-.06.12.257.43.592.757a7.321,7.321,0,0,1,.563.59c.484-.582.973-1.07,1.539-1.635l-.689-.919-.007-.01-.017-.022Zm53.229-3.642a10.893,10.893,0,0,0-1.38.119c-.169.022-.327.042-.486.06v.962c.229.076.455.137.674.2a4.908,4.908,0,0,1,.865.285c.1,0,.1.2.1.289a.864.864,0,0,0,.481.1v.77c-.614.131-1.234.244-1.833.353-.737.134-1.431.26-2.111.417a9.047,9.047,0,0,0,.385,1.25h.961c.032.193.065.377.1.554.063.358.129.727.193,1.177a3.136,3.136,0,0,1,.445-.18.576.576,0,0,0,.229-.108,25.816,25.816,0,0,1,6.349-7.406l-.289-1.346-.136-.017a11.278,11.278,0,0,0-1.386-.119,4.158,4.158,0,0,0-.594.04c-.286.1-.577,1.143-.577,1.827-.07.633-.187.934-.657.934a2.347,2.347,0,0,1-.5-.068A3.785,3.785,0,0,0,217.546,154.092Zm-39.9.019a1.547,1.547,0,0,0-.637.16l-2.79,4.328a5.7,5.7,0,0,0,3.01-1.272c.19-.128.369-.248.549-.362.12-.12.016-.5-.1-.938a6.746,6.746,0,0,1-.185-.794h.022a15.129,15.129,0,0,1,1.71.1c-.088-.1-.171-.2-.251-.289C178.51,154.5,178.176,154.111,177.651,154.111Zm-19.682,2.276c.056,1.48.08,2.092.455,2.092a3.809,3.809,0,0,0,1.372-.745c-.155-.111-.306-.218-.452-.32-.48-.339-.932-.657-1.375-1.027Zm2.4,0a.126.126,0,0,1-.048.1.126.126,0,0,0-.048.1,2.642,2.642,0,0,0,.481,1.539,1.645,1.645,0,0,0,.52.078,3.293,3.293,0,0,0,1.4-.366c.448-.256.816-.516,1.173-.768.18-.127.366-.258.559-.387a1.763,1.763,0,0,0-1.28-.493,3.951,3.951,0,0,0-1.894.59,3.435,3.435,0,0,1-.432-.192A3.431,3.431,0,0,0,160.373,156.387Zm17.314-4.039a.1.1,0,0,1,.1.1l.144.144.144.144-.1.1a1.715,1.715,0,0,0,1.5.794,5.79,5.79,0,0,0,1.191-.175l.007,0a5.808,5.808,0,0,1,1.205-.177,2.136,2.136,0,0,1,.425.04,2.094,2.094,0,0,1,.144-.24,2.127,2.127,0,0,0,.144-.24c-.1-.075-.2-.154-.3-.238a3.777,3.777,0,0,0-.95-.628c-.193-.064-.389-.119-.579-.171a6.192,6.192,0,0,1-1.153-.405c-1.019-.371-2.149-.748-3.241-1.113l-.125-.042a1.357,1.357,0,0,1,.143.191,1.348,1.348,0,0,0,.145.194.951.951,0,0,1-.193.241.951.951,0,0,0-.192.24l-3.933-.843-.107-.023c.093.834.373,1.732.77,1.732.77.048,1.552.048,2.308.048s1.443,0,2.02.048a1.335,1.335,0,0,1,.385.289ZM212,145.326a5.333,5.333,0,0,0-.841.1,3.244,3.244,0,0,1,1.188,1.683l.006.015.055.13.1.082a4.008,4.008,0,0,1,1.052,1.073,3.227,3.227,0,0,0,2.5,1.077,4.746,4.746,0,0,1,1.825.462.059.059,0,0,0,.044.015,1.246,1.246,0,0,0,.629-.5,5.863,5.863,0,0,0,.481-1.154,1.354,1.354,0,0,1-.288.1,1.364,1.364,0,0,0-.289.1,1.992,1.992,0,0,1-.721.134,1.377,1.377,0,0,1-.818-.23c-.883-.53-1.747-1.144-2.584-1.739-.535-.38-1.088-.773-1.648-1.146A1.127,1.127,0,0,0,212,145.326Zm-30.179-.769A2.381,2.381,0,0,0,180,145.9a11.081,11.081,0,0,0-.673,2.885.205.205,0,0,0,.192.193,1.192,1.192,0,0,0,.623.162,2.833,2.833,0,0,0,2.359-1.8c.481.288.97.557,1.443.818s.962.529,1.443.818a.89.89,0,0,0,.293-.275,1.123,1.123,0,0,1,.091-.109c-.119-.317-.252-.628-.392-.958-.2-.461-.4-.938-.57-1.447a9.072,9.072,0,0,1-.769-.481,3.187,3.187,0,0,0-.385-1.443l-.866,1.347a1.123,1.123,0,0,0-.257-.823A.948.948,0,0,0,181.823,144.556Zm39.341,2.693a5.889,5.889,0,0,0-1.149.479l-.005,0c.194.516.541,1.133,1.1,1.133a.873.873,0,0,0,.344-.076l-.288-1.539Zm-45.411-.521a1.007,1.007,0,0,0-.374.136,2.651,2.651,0,0,1,.176.2.974.974,0,0,0,.3.282l.1.1a.755.755,0,0,0,.193-.048.745.745,0,0,1,.191-.048,2.6,2.6,0,0,1-.239-.287,2.576,2.576,0,0,0-.242-.29A.143.143,0,0,0,175.752,146.729Zm-10.185-2.365a1.34,1.34,0,0,0-.144.192,1.345,1.345,0,0,1-.145.193.63.63,0,0,0,.06.258.346.346,0,0,1,.036.127.755.755,0,0,0,.384-.384v-.289a.125.125,0,0,1-.1-.048A.124.124,0,0,0,165.568,144.364Zm5.482-5h0a3.649,3.649,0,0,0-.1.961c.074.1.148.2.226.315a7.418,7.418,0,0,0,.832,1.033l.577.288c0-1.526-.46-2.3-1.539-2.6Zm22.027-1.635a1.679,1.679,0,0,1-1.634,1.057c.095.191.191.289.288.289.962.1,2.037.1,3.174.1a3.268,3.268,0,0,1-.577-1.155c-.192-.048-.412-.1-.625-.144s-.434-.1-.626-.144Zm3.847-.193h0a1.139,1.139,0,0,1-.093.763l0,.007c.127,0,.3.011.467.021s.345.022.473.022a.941.941,0,0,0,.155-.009c.04-.007.059-.018.059-.033a2.855,2.855,0,0,0,.1-.481,2.857,2.857,0,0,1,.1-.481c-.1-.1-.1-.1-.193-.1a.355.355,0,0,0-.1.289h-.962Zm1.155-1.25a1.874,1.874,0,0,1-.048.384,1.881,1.881,0,0,0-.048.386.307.307,0,0,0,.193-.1,1.76,1.76,0,0,0-.055-.406A1.243,1.243,0,0,1,198.078,136.284Zm-4.04-2.309h0a3.856,3.856,0,0,1-.337.2,1.8,1.8,0,0,0-.433.285c.144.192.29.411.431.622s.29.435.435.628v-.865a2.119,2.119,0,0,0-.1-.866Zm7.022-2.308a4.7,4.7,0,0,0-1.154.1,2.132,2.132,0,0,0-1.251,1.154.633.633,0,0,1-.06.259.347.347,0,0,0-.036.127,2.629,2.629,0,0,1,.385.673,1.632,1.632,0,0,1-.673.769.354.354,0,0,0-.1.288,2.049,2.049,0,0,1,1.057-.384c1.135-.095,2.309-.193,3.463-.193.685-.391,1.5-.8,2.211-1.153a3.542,3.542,0,0,1-.48,1.057,3.983,3.983,0,0,0,1.827-1.539,2.367,2.367,0,0,0-1.443-1.154,4.1,4.1,0,0,1-1.871.789,2.056,2.056,0,0,1-1.11-.405l-.385.577a1.122,1.122,0,0,0-.384-.961Z" transform="translate(-47 -65.5)"/>
    <g id="Group_1535" data-name="Group 1535" transform="translate(149.732 102.718)">
      <path id="Path_2869" data-name="Path 2869" class="cls-7" d="M61.039,539.578a8.171,8.171,0,0,1-2.4-6.06c-.192-4.328-.192-8.561-.289-12.889-.1-5.675-.192-11.446-.192-17.121,0-3.848-.1-7.695,0-11.446.1-4.425.289-8.849.481-13.274.192-4.04.192-8.176.769-12.216a6.376,6.376,0,0,1,2.982-4.617l-1.924-2.308c-1.443.577-2.308.289-2.982-1.347l-3.559,2.886a4.382,4.382,0,0,0,2.116-1.635c.1-.192.481-.192,1.058-.288-.289,1.443-.577,2.6-.769,3.462-1.058.1-2.02.289-2.789.289l.192,1.539c.673,0,1.443-.1,2.5-.1-.192,1.347-.385,2.693-.673,3.944,0,.192-.77.481-1.058.385-.577-.289-.962-1.443-1.154-2.5l-.481.673c.1.1.1.192.192.288.192.481.1.962.289,1.443a30.438,30.438,0,0,1,1.635,10.581c0,6.348-.1,12.6-.192,18.949-.192,10.292-.481,20.488-.577,30.78,0,4.232-1.25,7.7-4.809,10.2C53.247,538.039,57,538.9,61.039,539.578ZM58.73,462.725c.481-.673,1.058-1.347,2.212-.77a3.1,3.1,0,0,1-.385.673c-.577.385-1.154.673-1.635,1.058C58.922,463.3,58.634,462.821,58.73,462.725Z" transform="translate(-49.4 -457.627)"/>
      <path id="Path_2870" data-name="Path 2870" class="cls-7" d="M58.8,457.6Z" transform="translate(-49.758 -457.6)"/>
    </g>
    <path id="Subtraction_3" data-name="Subtraction 3" class="cls-8" d="M30.272,39.279a1.7,1.7,0,0,1-1.123-.688A3.185,3.185,0,0,1,28.523,35H34.89c-.049.066-.1.139-.161.224a3.03,3.03,0,0,0-.193,1.346,6.024,6.024,0,0,0,.29,1.083,5.493,5.493,0,0,1,.192.648l-.84.2a34.334,34.334,0,0,1-3.777.762A.528.528,0,0,1,30.272,39.279Z" transform="translate(105 29.5)"/>
    <path id="Subtraction_2" data-name="Subtraction 2" class="cls-8" d="M70.414,46.285h0a5.8,5.8,0,0,0-1.711-.4,3.569,3.569,0,0,1-2.713-1.23,5.2,5.2,0,0,0-1.176-1.076c-.285-.214-.609-.457-.94-.751-.077.385-.123.7-.163.988a4.538,4.538,0,0,1-.222,1.032c-.071.214-.359.378-.614.522-.091.052-.178.1-.252.151-.064-.1-.14-.194-.214-.289a2.165,2.165,0,0,1-.363-.577,7.508,7.508,0,0,1-.193-1.06,7.539,7.539,0,0,0-.191-1.056,2.4,2.4,0,0,1,2.4-3.174,3.143,3.143,0,0,0,.878-.182,2.94,2.94,0,0,1,.818-.172c.437,0,.723.266.9.836a8.23,8.23,0,0,0,1.539-.962l.005,0c.092.093.187.19.187.284l-.482.482a3.145,3.145,0,0,0,.931.155,1.366,1.366,0,0,0,1.474-1.694c-.006-.058-.013-.116-.02-.174-.1-.823-.2-1.673.79-1.942a2.141,2.141,0,0,1,.519-.061,5.148,5.148,0,0,1,1.982.542,10.9,10.9,0,0,0,.894-.852c.2-.209.415-.426.629-.623h4.016l.04.031-.119.046c-1.192.458-2.424.931-3.728,1.4a1.211,1.211,0,0,1-.048.288,1.209,1.209,0,0,0-.048.288c.574.239,1.157.507,1.722.766s1.16.532,1.741.773c-.366.942-.745,1.361-1.227,1.361-.447,0-1-.371-1.755-1.169a2.178,2.178,0,0,0-1.475-.8,1.7,1.7,0,0,0-1.122.513c.18.413.362.814.538,1.2a32.617,32.617,0,0,1,1.289,3.127,2.6,2.6,0,0,1-.384,2.02.663.663,0,0,1-.622.378,1.656,1.656,0,0,1-1.4-1.147c-.2-.541-.459-1.094-.918-1.094-.3,0-.661.232-1.1.71.242.048.438.073.629.1s.382.048.621.1a10.331,10.331,0,0,1-.673,1.828C70.986,45.91,70.6,46.285,70.414,46.285Z" transform="translate(105 29.5)"/>
    <path id="Path_2883" data-name="Path 2883" class="cls-8" d="M53.333,436.439c-.192-.769-.289-1.347-.385-1.731-1.635,0-3.367.1-5,0-.481,0-.866-.481-1.347-.769.385-.577.673-1.154,1.058-1.635a3.242,3.242,0,0,1,1.154-.577,5.594,5.594,0,0,1-.481-1.058,16.015,16.015,0,0,1,1.731-.481c1.154-.289,2.02.1,2.116,1.346.1,1.347,1.25,1.058,2.02,1.347.1.1.577-.673.866-.962-.481-.289-.962-.577-1.635-.962v-.866a17.517,17.517,0,0,0,3.174.1c.192,0,.385-.577.577-.962.192-.673.289-1.731.577-1.828a9.306,9.306,0,0,1,2.789.192s.1.962-.1,1.058a19.154,19.154,0,0,0-6.156,7.118C54.1,436.054,53.814,436.15,53.333,436.439Z" transform="translate(100.438 -353.728)"/>
    <path id="Path_2884" data-name="Path 2884" class="cls-8" d="M56,446.013c.769-1.539,1.443-2.886,2.212-4.232a4.957,4.957,0,0,1,1.539-1.154,12.017,12.017,0,0,0,1.154-.866,3.1,3.1,0,0,1,3.367-.77c-.192,1.25-.385,2.4-1.635,3.174a19.153,19.153,0,0,0-3.174,2.309c-.673.577-.962,1.25-.1,2.02a5.238,5.238,0,0,1,1.058,1.731c0,.1-.577.385-.962.673a1.12,1.12,0,0,0-1.25-1.058C58.116,446.3,56.577,446.4,56,446.013Z" transform="translate(100.08 -354.165)"/>
    <path id="Path_2885" data-name="Path 2885" class="cls-8" d="M17.354,441.644v-1.635c-.481-.192-1.154-.192-1.347-.481s.192-.962.385-1.827a6.358,6.358,0,0,1,1.635,1.443c.673.866,1.154,1.828,2.6,1.732.385,0,.769.866,1.539,1.635-1.828.192-3.078,1.251-4.617.289-.481-.289-1.154-.192-1.731-.385a6.659,6.659,0,0,1-2.116-1.347c-.192-.289.577-1.25,1.058-1.828C14.853,441.74,15.43,442.221,17.354,441.644Z" transform="translate(101.694 -354.124)"/>
    <path id="Path_2886" data-name="Path 2886" class="cls-8" d="M17.813,426.143c-.577,1.828-1.924,2.693-3.559,2.212-.481-.192-.769-1.347-1.154-2.02.962-.673,1.731-1.635,2.6-1.635C16.37,424.6,17.14,425.565,17.813,426.143Z" transform="translate(101.716 -353.627)"/>
    <path id="Subtraction_4" data-name="Subtraction 4" class="cls-8" d="M18.376,37.436h0a5.264,5.264,0,0,0-.714-.372,2.237,2.237,0,0,1-1.015-.685c-.1-.211-.209-.422-.319-.625-.131-.245-.267-.5-.375-.753h2.63a2.875,2.875,0,0,1,.179.9,4.393,4.393,0,0,1-.385,1.538Z" transform="translate(105 29.5)"/>
    <path id="Path_2888" data-name="Path 2888" class="cls-8" d="M41.1,447.467c-1.347.1-2.212.288-3.078.288a4.532,4.532,0,0,1-1.635-.385c-.1-.1-.289-.577-.192-.673.481-.289.962-.673,1.443-.577,1.347.192,2.02-.673,2.886-1.347a5.844,5.844,0,0,1,.962-.673l.289.289A26.076,26.076,0,0,0,41.1,447.467Z" transform="translate(100.836 -354.368)"/>
    <path id="Path_2889" data-name="Path 2889" class="cls-8" d="M39.9,448.3c.866,0,1.635-.1,2.789-.1-.192,1.347-.385,2.693-.673,4.04,0,.192-.866.385-1.058.192C40.088,451.855,39.51,449.354,39.9,448.3Z" transform="translate(100.699 -354.524)"/>
    <path id="Path_2890" data-name="Path 2890" class="cls-8" d="M86.4,436.949c-2.6-.385-4.809,2.212-7.5-.193.673-.192,1.25-.577,1.539-.481,1.25.962,2.116.1,3.27-.288C84.479,435.7,85.633,435.122,86.4,436.949Z" transform="translate(99.207 -354.046)"/>
    <path id="Path_2891" data-name="Path 2891" class="cls-8" d="M22.086,453.593a12.739,12.739,0,0,1-1.924-1.154,6.827,6.827,0,0,1-.962-1.346,5.631,5.631,0,0,1,1.25-.192,3.507,3.507,0,0,1,1.443.192c.577.288,1.347.77,1.347,1.25,0,.577-.577,1.154-.962,1.731A1.627,1.627,0,0,0,22.086,453.593Z" transform="translate(101.483 -354.627)"/>
    <path id="Path_2892" data-name="Path 2892" class="cls-8" d="M46.328,438.274a20.425,20.425,0,0,1-1.828-1.347c.385-.481.866-1.154,1.443-1.828a6.626,6.626,0,0,0,1.25,1.058c-.1.1-.1.192-.192.289a10.9,10.9,0,0,0,1.443.385C47.578,437.408,46.9,437.889,46.328,438.274Z" transform="translate(100.519 -354.024)"/>
    <path id="Path_2893" data-name="Path 2893" class="cls-8" d="M21.3,449.78c2.02-.962,3.174-.577,4.521,1.635A4.768,4.768,0,0,1,21.3,449.78Z" transform="translate(101.403 -354.565)"/>
    <path id="Path_2894" data-name="Path 2894" class="cls-8" d="M21.793,438.443c-.577.673-1.058,1.154-1.539,1.731-.385-.481-1.25-1.154-1.154-1.346A6.776,6.776,0,0,1,20.639,437,10.7,10.7,0,0,1,21.793,438.443Z" transform="translate(101.487 -354.097)"/>
    <path id="Path_2895" data-name="Path 2895" class="cls-8" d="M45.374,444.413c-1.924.385-2.693-.1-3.174-2.02C43.835,441.912,44.7,442.393,45.374,444.413Z" transform="translate(100.606 -354.296)"/>
    <path id="Path_2896" data-name="Path 2896" class="cls-8" d="M51.4,439.13c1.443-2.212,1.635-2.212,3.174-.673C53.708,439.323,52.843,440.381,51.4,439.13Z" transform="translate(100.255 -354.111)"/>
    <path id="Path_2897" data-name="Path 2897" class="cls-8" d="M69.3,418.5c1.443.577,2.5.962,3.751,1.347C71.512,420.808,70.358,420.52,69.3,418.5Z" transform="translate(99.573 -353.391)"/>
    <path id="Path_2898" data-name="Path 2898" class="cls-8" d="M43.952,432.086c-.385-.289-1.058-.481-1.058-.769-.1-.769-.577-1.731.962-2.116.192.866.289,1.731.481,2.6A1.33,1.33,0,0,1,43.952,432.086Z" transform="translate(100.585 -353.799)"/>
    <path id="Path_2899" data-name="Path 2899" class="cls-8" d="M20.624,449.831c-.481.192-.866.288-1.443.481-.192-.77-.289-1.347-.481-1.924a1.324,1.324,0,0,1,.385-.288,19.49,19.49,0,0,1,1.731,1.25C20.72,449.543,20.72,449.639,20.624,449.831Z" transform="translate(101.502 -354.52)"/>
    <path id="Path_2900" data-name="Path 2900" class="cls-8" d="M35.224,429.3c-.192.866-.385,1.731-.577,2.789-.481-.289-.866-.481-1.347-.77.673-.769,1.25-1.443,1.731-2.116A.336.336,0,0,1,35.224,429.3Z" transform="translate(100.945 -353.799)"/>
    <g id="Group_2367" data-name="Group 2367" transform="translate(252.721 151.013)">
      <g id="Group_1562" data-name="Group 1562" transform="translate(0 0.84)">
        <g id="Group_1560" data-name="Group 1560" transform="translate(0 15.792)">
          <path id="Path_3203" data-name="Path 3203" class="cls-9" d="M134.1,835.6l4.21,17.547c0,1.656,5.487,1.892,7.852,1.94s7.9-.094,7.9-1.75l4.588-17.453Z" transform="translate(-134.1 -832.851)"/>
          <path id="Path_3204" data-name="Path 3204" class="cls-10" d="M146.35,835.517c-3.689-.047-12.25-.426-12.25-2.98.047-2.6,8.608-2.791,12.3-2.743s12.25.425,12.25,2.98C158.6,835.375,150.04,835.564,146.35,835.517Z" transform="translate(-134.1 -829.788)"/>
          <ellipse id="Ellipse_162" data-name="Ellipse 162" class="cls-7" cx="1.987" cy="11.399" rx="1.987" ry="11.399" transform="translate(0.845 4.329) rotate(-89.384)"/>
        </g>
        <path id="Path_3205" data-name="Path 3205" class="cls-6" d="M158.725,805.151a.866.866,0,0,0-.8.284.8.8,0,0,1-1.041.095h-.142a2.08,2.08,0,0,1,.095.473c.095,0,.189-.047.331-.047a1.308,1.308,0,0,0,.047.426c-.047.047-.095.095-.142.095-.095-.142-.189-.378-.378-.473a3.292,3.292,0,0,0-.426-.284.6.6,0,0,0,.237-.331c-.142-.047-.237-.142-.378-.142-.095,0-.189.142-.331.189a.313.313,0,0,1-.284.047,2.585,2.585,0,0,1-.426-.331h0a8.053,8.053,0,0,0,1.041-.189c.095,0,.236-.142.284-.237.142-.284.142-.615.331-.8a2.02,2.02,0,0,0,.52-.993.312.312,0,0,0-.047-.284,2.587,2.587,0,0,0-.331-.426,1.648,1.648,0,0,1-.378.236c-.142.048-.331,0-.473.048-.095.047-.237.095-.284.189-.189.331-.331.426-.52.379a.284.284,0,0,0-.047-.189c-.095,0-.142-.047-.284-.047l-.047-.047H154.8c-.095-.048-.237-.048-.378-.095l-.237.236c-.047.047-.142.189-.095.237,0,.047,0,.047.047.094a.245.245,0,0,1-.189.095.472.472,0,0,0-.189-.237h-.047a2.872,2.872,0,0,0-.378-.378c.189-.189.378-.142.757.284.142-.425.662-.568.568-1.135a.213.213,0,0,1,.142-.142l.568-.142c.189-.047.426-.095.615-.142v-.142a.877.877,0,0,0-.331-.095c-.331.095-.378-.189-.378-.331,0-.095.189-.237.284-.331s.189-.094.284-.189a.4.4,0,0,0-.331,0,2.825,2.825,0,0,0-.946.378c-.284.189-.426.52-.851.378a.479.479,0,0,0-.142.047,5.264,5.264,0,0,1-.237-.615c-.047-.094,0-.189,0-.236.047-.142.095-.237.142-.378.095-.237-.189-.568.142-.757.047-.047.142-.047.236-.095,0,.095-.047.142-.047.237s-.047.189-.047.284c.095,0,.236.047.331.047a3.548,3.548,0,0,0,.568-.331c-.189-.047-.473.047-.52-.284.189-.047.331,0,.473-.095.095-.047.142-.237.189-.331-.142,0-.284-.094-.378-.048s-.189.189-.284.236a.8.8,0,0,1-.236.095c-.142-.048-.284-.142-.52-.237.142-.095.237-.189.378-.284a.582.582,0,0,1,.095-.9c-.378-.236-.615.095-.851.189-.284.095-.568.189-.8.284-.142.568-.52.662-.946.331a1.73,1.73,0,0,1-.662.095c-.047,0-.047,0-.095-.047s-.142-.095-.189-.142c-.095-.095-.331-.047-.568-.095,0,0-.047-.142,0-.142.142-.047.331-.094.52-.142,0-.284-.237-.378-.473-.473a4.757,4.757,0,0,0-.662-.379c-.426-.189-.8-.473-1.277-.331-.142.047-.331-.047-.473-.095-.189-.047-.378-.094-.615-.142.047.189.095.284.142.473a5.123,5.123,0,0,0-.851,0c-.284.047-.473.094-.71-.142-.047-.047-.095,0-.142,0v-.047a.046.046,0,0,1-.047.047.356.356,0,0,0-.189.095.29.29,0,0,0-.047.284c.095.284.189.615.237.8a7.678,7.678,0,0,0-.9.189v.189c.189.047.378.047.615.095a1.4,1.4,0,0,0-.095.615c.047.284.095.757.284.8a.485.485,0,0,1,.284.236c-.142-.094-.284-.142-.426-.236-.426-.189-.8-.473-1.277-.331-.142.047-.331-.047-.473-.095-.189-.047-.378-.094-.615-.142.047.189.095.284.142.473a5.123,5.123,0,0,0-.851,0c-.284.047-.473.094-.709-.142-.047-.047-.284.047-.426.095a.29.29,0,0,0-.047.284c.095.284.189.615.236.8a7.679,7.679,0,0,0-.9.189v.189c.189.047.378.047.615.1a1.393,1.393,0,0,0-.095.614c.047.284.095.757.284.8.426.189.331.709.662.946-.142.047-.284.047-.331-.047a11.537,11.537,0,0,0-.946-.662.809.809,0,0,0-.331-.047c-.284.094-.568.331-.8.331a1.939,1.939,0,0,0-1.041.331.26.26,0,0,0-.142.237,1.771,1.771,0,0,0-.047.52c.142.047.284.047.426.095.142.094.236.237.378.284a.415.415,0,0,0,.331.047c.568-.142.757,0,.662.568.284.047.615.142.9.189.047,0,.095.047.142.047v.9c-.284,0-.378-.142-.331-.709-.284.141-.615.047-.9.141l-.047-.047c0,.047-.047.047-.047.095a.837.837,0,0,0-.236.189.212.212,0,0,1-.237,0,4.141,4.141,0,0,1-.473-.284c-.189-.094-.378-.236-.568-.331-.047.047-.047.095-.095.095.047.094.095.236.189.284.284.189.142.378,0,.52-.047.095-.284.047-.426,0a.877.877,0,0,1-.331-.095.388.388,0,0,0,.236.236,2.219,2.219,0,0,0,.473.237h-.047c-.284,0-.284.236-.095.426l.851.851a1.04,1.04,0,0,0,.237.142c-.095.047-.189.047-.237.095-.237.095-.284.52-.615.426-.095,0-.142-.095-.236-.095.047-.047.142-.094.189-.142.095-.047.142-.095.237-.142a.472.472,0,0,0-.189-.237c-.189-.095-.426-.095-.662-.189.095.189.378.284.189.568-.142-.095-.236-.237-.378-.284-.095-.047-.237.095-.378.142.095.095.142.237.236.331.095.047.237,0,.378,0a.362.362,0,0,1,.237.095,3.122,3.122,0,0,1,.189.52c-.189-.047-.284-.047-.473-.095a.685.685,0,0,1-.095.331.361.361,0,0,0-.095-.237c-.095-.047-.284-.047-.426-.095a2.371,2.371,0,0,1-.095.568h-.047c0,.047,0,.095.047.095a.537.537,0,0,0,.142.378c.095-.047.142-.094.236-.094.095.047.237.047.284.094,0,.189-.142.284-.284.379a.723.723,0,0,1-.757-.047c-.189-.095-.331-.284-.615-.095a.585.585,0,0,0,.095,1.041l.426.142c.189.047.284.142.142.331a.4.4,0,0,0,0,.331,3.011,3.011,0,0,0,.473.568c-.095.142-.189.236-.236.331.142.047.236.142.378.142.473.047.993.095,1.514.142.236.047.426.095.426.378,0,.047.142.142.189.189a3.074,3.074,0,0,0,.331.095,7.765,7.765,0,0,1-1.041.568v.142c.52.047,1.088.095,1.608.142h.331c.189,0,.378,0,.426.236s-.095.331-.237.426c-.331.236-.378.615-.095.709a1.986,1.986,0,0,0,.757.047,1.587,1.587,0,0,1,.473,0,.794.794,0,0,0,.851-.095c.189-.094.284-.142.426.048a.673.673,0,0,0,.284.094,4.33,4.33,0,0,0,.662-.331c0-.095-.047-.189-.047-.284.71,0,.851-.048,1.135-.52-.189-.047-.331-.094-.52-.142.095-.095.142-.142.142-.189-.095-.142-.189-.237-.284-.378,0-.047.047-.047.047-.095h.378c.473.048.615.473.851.8s.662.568.993.378c-.047-.094-.095-.142-.142-.236,0-.095-.047-.189,0-.284.047-.047.189-.142.236-.095l.142.142.095-.142v-.378h.047l-.047-.331h-.047a.583.583,0,0,1-.378-.189c.095-.047.189-.189.236-.189.095,0,.237,0,.284-.047l.8-.615c0-.047-.047-.095-.047-.142h.284c.236.047.331.142.426.473l.426.52a.173.173,0,0,1,.142-.047c.047.378.284.426.615.426a3.66,3.66,0,0,0,.709-.095.211.211,0,0,0,.142-.189.783.783,0,0,1,.615-.473c.047.142.142.236.189.378-.426.236-.851.52-1.277.757a.784.784,0,0,0-.993,0,.441.441,0,0,0,.615.284.858.858,0,0,1,.946.142c.237.236.662.284.615.757,0,.047.095.189.189.189a10.948,10.948,0,0,0,1.23.189c.142,0,.284-.142.52-.236l.095.095a3.086,3.086,0,0,1-.378.426c.142.236.426.189.662.142a4.073,4.073,0,0,0,.757-.047,1.637,1.637,0,0,0,1.23-.426,1.17,1.17,0,0,1,.426-.189,5.264,5.264,0,0,0,.615-.236c-.142-.142-.236-.189-.378-.331a3.715,3.715,0,0,0,.709-.473.726.726,0,0,1,.662-.284c.095,0,.236-.19.284-.331.047-.047-.047-.189-.095-.284-.236-.189-.473-.426-.662-.568a8.449,8.449,0,0,1,.662-.615c-.047-.047-.047-.095-.095-.142l-.568.284c-.095-.189-.095-.426-.236-.567-.189-.237-.473-.568-.662-.568-.473.094-.662-.379-1.088-.426a.48.48,0,0,1,.331-.189c.378,0,.757.048,1.182.048a.6.6,0,0,0,.331-.189c.189-.236.284-.568.52-.71a1.776,1.776,0,0,0,.709-.851c.047-.047,0-.189,0-.284a4.337,4.337,0,0,0-.236-.473,1.509,1.509,0,0,1-.426.142c-.142,0-.331-.047-.473-.047a.512.512,0,0,0-.331.142c-.237.237-.378.331-.568.284a.046.046,0,0,1,.047-.047,1.138,1.138,0,0,1,.378-.284c.142-.095.331-.189.568-.331a3.4,3.4,0,0,1-.426-.236,3.344,3.344,0,0,0,.568-.615.756.756,0,0,1,.615-.426c.095,0,.189-.237.236-.378a.629.629,0,0,0-.142-.236l-.757-.379c.095-.142.189-.284.331-.473a1.064,1.064,0,0,0,.52-.378c.189-.284.331-.52.662-.615a.4.4,0,0,0,.142-.236C158.962,805.245,158.82,805.151,158.725,805.151Zm-20.812,5.534h0a.353.353,0,0,1,.237.047c.331-.189.568-.142.709,0a1.666,1.666,0,0,1-.378.237.7.7,0,0,1-.426.047C137.961,810.968,137.866,810.732,137.913,810.684Zm-.095.237c-.378.236-.426.236-.426-.284Zm-.095,1.419c-.142-.047-.189-.284-.331-.473.237-.142.426-.379.615-.379.142,0,.331.237.473.379A.594.594,0,0,1,137.724,812.339Zm.993-.709c-.095-.094-.284-.236-.236-.331.095-.142.236-.284.331-.426.047.095.142.189.236.331A1.654,1.654,0,0,1,138.718,811.63Zm.473-3.594c0,.047-.047.047-.095.095v-.095l.095-.095c-.047,0,0,.047,0,.095Zm6.385-2.365v.378c-.047-.095-.142-.189-.189-.284A.358.358,0,0,1,145.576,805.671Zm-3.216,2.648a.6.6,0,0,1,.426-.331c.189,0,.189.095.189.237l.189-.284a.684.684,0,0,1,.095.331c.047.047.142.095.189.142.095.189.142.378.237.567l-.095.095c-.236-.142-.426-.236-.662-.378-.095.236-.473.52-.709.378a.046.046,0,0,1-.047-.047C142.265,808.745,142.312,808.509,142.36,808.319Zm-.331-5.013v.047s-.047-.047,0-.047Zm-.568,5.2c.047.047.095.094.095.142h-.142l-.095-.095C141.414,808.509,141.414,808.461,141.461,808.509Zm-1.088-1.467v-.236c.237.047.331.236.331.568-.047,0-.095-.048-.142-.048C140.515,807.231,140.42,807.137,140.373,807.042Zm.378,2.6c-.095,0-.142-.189-.189-.378.284.047.615.142.9.189.047-.048.047-.095.095-.095,0-.047-.047-.047-.047-.095.236.095.52.189.757.284a3.2,3.2,0,0,1,.378.142c.095.047.189.142.284.189a.166.166,0,0,1-.047.095c-.331-.048-.71.236-.993-.142h0l-.047-.047v-.047h0l-.095-.095A3.468,3.468,0,0,1,140.751,809.644Zm.284,1.513.662-.993c.236-.094.331.048.52.236a2.57,2.57,0,0,1-.378-.047c.047.142.095.378.047.378A1.339,1.339,0,0,1,141.035,811.157Zm1.324,3.5c-.095-.047-.236-.047-.331-.094a1.956,1.956,0,0,1-.52-.331c-.047-.047.142-.284.189-.426.047.568.236.71.662.568V814h-.331c.047-.142.095-.284.142-.473.142.142.284.237.378.331.142.189.284.426.568.378.095,0,.189.189.331.378C143.022,814.657,142.738,814.894,142.36,814.657Zm.993.331a.644.644,0,0,1,.993.378A.972.972,0,0,1,143.353,814.988Zm1.7-.567c0-.047-.047-.095-.047-.142a2.234,2.234,0,0,1-.426-.284c-.095-.095-.142-.189-.237-.284.095,0,.189-.047.284-.047a.806.806,0,0,1,.331.047.664.664,0,0,1,.331.284C145.292,814.137,145.15,814.279,145.056,814.421Zm.142-2.46c-.047-.047-.095-.047-.142-.094.047-.094.095-.142.142-.237h.047c.047.047.142.047.189.095A1.105,1.105,0,0,1,145.2,811.961Zm-.142-5.155c-.047,0-.047-.047-.095-.047.236,0,.331-.095.378-.237.095,0,.189.047.284.047.047.094.047.189.142.284A3.575,3.575,0,0,0,145.056,806.806Zm6.527-2.507a.534.534,0,0,1,.52-.142c-.095,0-.142.047-.236.095-.142.095-.236.189-.331.237h-.047A.359.359,0,0,0,151.583,804.3Zm.095,4.4.095.378c-.142.095-.236-.095-.331-.236A1.016,1.016,0,0,1,151.677,808.7Zm-1.088-3.784c-.095.048-.142.095-.236.095-.142-.095-.142-.284-.142-.615C150.353,804.583,150.495,804.772,150.59,804.914Zm-1.845-2.507h.284a.284.284,0,0,0-.047.189h-.189c0,.094-.047.189-.047.284A.8.8,0,0,1,148.745,802.407Zm-1.041.851a2.7,2.7,0,0,0,.615-.047c-.189.284-.331.284-.615.047Zm.615.615h0a.147.147,0,0,1-.095.047h0C148.225,803.873,148.272,803.873,148.319,803.873Zm-2.223,2.554v0Zm1.561-5.2a.628.628,0,0,0-.236-.048c-.142-.425-.568-.283-.851-.425a.5.5,0,0,1-.284-.331A1.583,1.583,0,0,1,147.657,801.225Zm-1.182,5.392h-.284a.284.284,0,0,0,.047-.189h.189v-.047h.047Zm0-.236a.174.174,0,0,1,.047-.142c-.047,0,0,.047-.047.142Zm1.466-.615c.047-.095.095-.142.142-.236-.189.095-.331.189-.52.283a4.571,4.571,0,0,0-.8.047.361.361,0,0,0-.236.095v-.095c.095-.047.142-.095.142-.189,0-.047-.047-.095-.095-.142,0-.047,0-.047.047-.095a.8.8,0,0,1,.284-.284h.284c.095.047.095.142.095.236l.095-.142c.237.142.378.142.662-.095a.847.847,0,0,1,.331.236C148.225,805.576,148.13,805.718,147.941,805.765Zm.851,6.811a4.549,4.549,0,0,0-.426-.331c.047-.047.047-.095.095-.142h.473v.048c.095.047.237.047.284.095A2.605,2.605,0,0,1,148.792,812.576Zm.426-9.6a1.208,1.208,0,0,1-.095-.331l.284-.426a4.059,4.059,0,0,1,.757.047c.095,0,.142.189.189.379-.284-.047-.615-.142-.9-.19-.047.048-.047.095-.095.095.142.237.284.473.473.757a1.723,1.723,0,0,1-.331.142A1.262,1.262,0,0,1,149.218,802.975Zm.473,5.723a.852.852,0,0,0-.284-.426c.142-.047.284-.047.331.047a11.468,11.468,0,0,0,.946.662.8.8,0,0,0,.331.048c.047,0,.095-.048.142-.048-.047.095-.047.19-.095.237s-.142.142-.142.094c-.284-.189-.71,0-.993-.378C149.88,808.84,149.786,808.792,149.691,808.7Zm.189,4.067c.378-.473.378-.473.709-.142C150.4,812.813,150.211,813.049,149.88,812.765Zm.615-1.088a.207.207,0,0,1-.142.047c-.047-.142-.047-.284-.095-.379h-.236c-.047-.094-.047-.189-.095-.284a7.7,7.7,0,0,0,.9-.189v-.189h-.095v-.047a3.069,3.069,0,0,0-.331-.095v-.237a2.673,2.673,0,0,1,.615,0c.189.048.237,0,.237-.189,0-.142.047-.378.142-.425a.819.819,0,0,1,.473.047l.047.331A5.88,5.88,0,0,0,150.495,811.678Zm1.939-.8a3.9,3.9,0,0,0-.71.52c-.142.142-.236.284-.047.473a1.027,1.027,0,0,1,.237.378s-.142.094-.237.142c0-.142-.095-.236-.284-.236,0-.331-.331-.331-.473-.426.189-.331.331-.662.52-.946.095-.095.236-.189.331-.284.095-.047.142-.095.237-.142l.047.142a.174.174,0,0,0,.142.047h.568A1.106,1.106,0,0,1,152.434,810.873Zm.993,1.75a2.223,2.223,0,0,1,.236-.095c.331.284.615-.095.946-.095a1.382,1.382,0,0,1,.426.095A1.535,1.535,0,0,1,153.428,812.624Z" transform="translate(-134.744 -796.4)"/>
        <g id="Group_1561" data-name="Group 1561" transform="translate(3.24 0.735)">
          <path id="Path_3206" data-name="Path 3206" class="cls-8" d="M159.373,798.827c-.189,0-.284.048-.378.048a2.088,2.088,0,0,1-.095-.473h.142a.86.86,0,0,0,1.041-.095c.236-.189.426-.426.757-.331a.987.987,0,0,1,.284.189c-.047.095-.095.237-.189.237a1.183,1.183,0,0,0-.615.568c-.142.236-.426.331-.662.473,0,0-.142-.095-.142-.189A.521.521,0,0,1,159.373,798.827Z" transform="translate(-150.409 -797.955)"/>
          <path id="Path_3207" data-name="Path 3207" class="cls-8" d="M166.078,802.7a4.946,4.946,0,0,0,.8.189c-.047.094-.095.142-.095.189.047.189.095.378.142.52a2.377,2.377,0,0,1-.568.095c-.142,0-.662-.426-.662-.568,0-.095.095-.142.142-.237C165.889,802.842,166.031,802.747,166.078,802.7Z" transform="translate(-153.993 -800.455)"/>
          <path id="Path_3208" data-name="Path 3208" class="cls-8" d="M148.1,804.271c-.095,0-.142.047-.236.047v.095c.142.378.095.426-.331.331a.931.931,0,0,1-.709-.473c-.142-.236-.047-.331.189-.331.189,0,.426-.048.615-.048C147.961,803.845,148.056,804.034,148.1,804.271Z" transform="translate(-144.011 -801.08)"/>
          <path id="Path_3209" data-name="Path 3209" class="cls-8" d="M156.7,798.2c.142.095.236.189.426.331a7.676,7.676,0,0,1-.095.851.8.8,0,0,0-.236-.095A7.764,7.764,0,0,0,156.7,798.2Z" transform="translate(-149.25 -798.084)"/>
          <path id="Path_3210" data-name="Path 3210" class="cls-8" d="M164.078,804.818c-.142-.189-.284-.284-.378-.425.236-.379.568-.048.8-.142,0,.047.047.047.047.094Z" transform="translate(-152.939 -801.249)"/>
          <path id="Path_3211" data-name="Path 3211" class="cls-8" d="M147.334,806c.237.094.52.142.378.473a.419.419,0,0,1-.236.189C147.24,806.52,147.24,806.284,147.334,806Z" transform="translate(-144.283 -802.195)"/>
          <path id="Path_3212" data-name="Path 3212" class="cls-8" d="M164.789,801.8c.189.048.378.048.568.095-.284.331-.473.52-.662.757-.047,0-.047-.047-.095-.047C164.742,802.368,165.073,802.179,164.789,801.8Z" transform="translate(-153.413 -799.981)"/>
          <path id="Path_3213" data-name="Path 3213" class="cls-8" d="M149.5,805.757c.095-.236.189-.473.331-.756C149.926,805.615,149.831,805.8,149.5,805.757Z" transform="translate(-145.456 -801.668)"/>
          <path id="Path_3214" data-name="Path 3214" class="cls-8" d="M141.446,811.58a4.721,4.721,0,0,1-.473.52C140.879,811.769,141.068,811.485,141.446,811.58Z" transform="translate(-140.949 -805.125)"/>
          <path id="Path_3215" data-name="Path 3215" class="cls-8" d="M151.115,810.326q-.426-.142-.142-.426A4.447,4.447,0,0,1,151.115,810.326Z" transform="translate(-146.172 -804.25)"/>
          <path id="Path_3216" data-name="Path 3216" class="cls-8" d="M151.608,809.881c.331-.615.047-1.183.047-1.655.331-.142.568-.237.851-.331a.292.292,0,0,1,.331.048c.473.378.52.378,1.04.047.095-.047.142-.095.331-.189-.095.473-.142.851-.189,1.229,0,.047-.047.142-.047.189.142.284.047.378-.284.426a.756.756,0,0,0-.473.237.848.848,0,0,1-1.041.284c-.189.237-.378.426-.568.662a.7.7,0,0,0-.047.331c0,.142.095.284.095.426-.378.094-.709.142-1.041.236a.538.538,0,0,1-.284-.142.723.723,0,0,1,.095-1.088.367.367,0,0,1,.047-.142c-.142.095-.284.142-.473.284l.473-.946a.354.354,0,0,1,.237-.047.319.319,0,0,0,.284-.473c-.047-.189-.047-.426-.095-.662.236-.095.378-.047.331.236A1.427,1.427,0,0,0,151.608,809.881Zm.473-.615a1.459,1.459,0,0,0,1.608-.852C153.169,808.7,152.7,808.982,152.081,809.266Zm.047-.426c.142-.094.284-.189.284-.236,0-.095-.142-.283-.189-.236a1.653,1.653,0,0,0-.378.236A3.475,3.475,0,0,1,152.128,808.84Zm-1.608,1.23c.142.094.237.189.426.331,0-.237-.047-.331-.047-.52A1.41,1.41,0,0,1,150.52,810.07Z" transform="translate(-145.719 -803.143)"/>
          <path id="Path_3217" data-name="Path 3217" class="cls-8" d="M170.35,814.057a6.328,6.328,0,0,0-.851.331.174.174,0,0,1-.047.142c.284.142.52.236.8.378-.142.378-.331.426-.662.047a.365.365,0,0,0-.568-.095,8.531,8.531,0,0,1,.378.993.582.582,0,0,1-.095.473c-.095.19-.378.047-.473-.189s-.189-.379-.473-.095c.095,0,.189.047.284.047l-.142.426-.142.142c-.331-.142-.757-.047-.993-.378a4.73,4.73,0,0,0-.473-.426c-.047.189-.047.331-.095.473-.047.047-.142.095-.189.142-.047-.048-.095-.142-.142-.189-.047-.142-.047-.331-.095-.473a.549.549,0,0,1,.568-.71c.237,0,.473-.237.615.095a1.415,1.415,0,0,1,.378-.189c0,.047.047.047.047.095-.047.047-.095.047-.095.095.331.094.615-.047.568-.331-.047-.189-.047-.425.189-.473a1.2,1.2,0,0,1,.568.094C169.451,814.057,169.688,813.537,170.35,814.057Z" transform="translate(-154.339 -806.326)"/>
          <path id="Path_3218" data-name="Path 3218" class="cls-8" d="M158.514,820.512a2.162,2.162,0,0,0-.095-.379h-1.135c-.095,0-.189-.095-.284-.189a2.655,2.655,0,0,1,.237-.378,1.024,1.024,0,0,1,.236-.142c-.047-.095-.047-.142-.095-.237a1.468,1.468,0,0,1,.378-.094c.236-.047.473.047.473.331.047.284.284.236.426.331.047,0,.142-.142.189-.236-.095-.047-.189-.142-.378-.237v-.189c.237,0,.473.047.71.047.047,0,.095-.142.142-.237.047-.142.047-.378.142-.426a1.363,1.363,0,0,1,.615.047s.047.237,0,.237a4.654,4.654,0,0,0-1.419,1.608Q158.655,820.441,158.514,820.512Z" transform="translate(-149.408 -808.761)"/>
          <path id="Path_3219" data-name="Path 3219" class="cls-8" d="M161.2,825.385c.189-.331.331-.662.52-.946.095-.095.236-.189.331-.284a.99.99,0,0,0,.284-.189.655.655,0,0,1,.757-.142c-.047.284-.095.568-.378.71a3.931,3.931,0,0,0-.71.52c-.142.142-.236.284-.047.473a1.032,1.032,0,0,1,.236.378s-.142.095-.236.142c0-.142-.095-.236-.284-.236C161.673,825.432,161.342,825.479,161.2,825.385Z" transform="translate(-151.621 -811.552)"/>
          <path id="Path_3220" data-name="Path 3220" class="cls-8" d="M142.643,823.9v-.378c-.095-.047-.284-.047-.331-.095-.047-.095.047-.237.095-.426.142.142.284.237.378.331.142.19.284.426.568.426.095,0,.189.189.331.378-.426.047-.71.284-1.041.047-.095-.047-.284-.047-.378-.095a1.208,1.208,0,0,1-.473-.331c-.047-.048.142-.284.236-.426C142.075,823.9,142.217,824.041,142.643,823.9Z" transform="translate(-141.389 -811.154)"/>
          <path id="Path_3221" data-name="Path 3221" class="cls-8" d="M142.741,817.279c-.142.425-.426.615-.8.473-.142-.047-.189-.284-.236-.473.236-.142.378-.379.568-.379C142.409,816.947,142.551,817.184,142.741,817.279Z" transform="translate(-141.345 -807.939)"/>
          <path id="Path_3222" data-name="Path 3222" class="cls-8" d="M144.5,812.4h.378a3.589,3.589,0,0,1,.189.52,1.462,1.462,0,0,1,.095.378.878.878,0,0,1-.095.332c-.142-.095-.331-.142-.378-.237-.095-.237-.284-.473-.142-.757C144.59,812.589,144.5,812.495,144.5,812.4Z" transform="translate(-142.816 -805.568)"/>
          <path id="Path_3223" data-name="Path 3223" class="cls-8" d="M153.135,826.857a3.818,3.818,0,0,1-.71.047,1.114,1.114,0,0,1-.378-.095c-.047,0-.047-.142-.047-.142a1,1,0,0,1,.331-.142c.284.047.473-.142.662-.284a1.039,1.039,0,0,1,.236-.142c.047,0,.047.047.095.047C153.277,826.384,153.182,826.668,153.135,826.857Z" transform="translate(-146.773 -812.788)"/>
          <path id="Path_3224" data-name="Path 3224" class="cls-8" d="M153.766,828h.615a6.1,6.1,0,0,1-.189.9c0,.048-.189.094-.236.048A1.285,1.285,0,0,1,153.766,828Z" transform="translate(-147.688 -813.789)"/>
          <path id="Path_3225" data-name="Path 3225" class="cls-8" d="M173.5,822.695c-.568-.094-1.088.473-1.7-.047.142-.047.284-.142.331-.094.284.189.473,0,.71-.047C173.077,822.411,173.314,822.317,173.5,822.695Z" transform="translate(-157.208 -810.849)"/>
          <path id="Path_3226" data-name="Path 3226" class="cls-8" d="M144.962,829.715a2.213,2.213,0,0,1-.426-.284c-.095-.095-.142-.189-.237-.284.095,0,.189-.047.284-.047a.81.81,0,0,1,.331.047.666.666,0,0,1,.331.284c0,.142-.142.284-.236.378C144.962,829.81,144.962,829.763,144.962,829.715Z" transform="translate(-142.715 -814.369)"/>
          <path id="Path_3227" data-name="Path 3227" class="cls-8" d="M156.326,822.657c-.095-.095-.237-.142-.426-.331a4.577,4.577,0,0,0,.331-.426,1.251,1.251,0,0,0,.284.236l-.047.047a1.2,1.2,0,0,0,.331.094A2.723,2.723,0,0,1,156.326,822.657Z" transform="translate(-148.828 -810.574)"/>
          <path id="Path_3228" data-name="Path 3228" class="cls-8" d="M145.3,828.463c.473-.236.709-.142,1.041.379A1.051,1.051,0,0,1,145.3,828.463Z" transform="translate(-143.242 -813.969)"/>
          <path id="Path_3229" data-name="Path 3229" class="cls-8" d="M144.959,822.979c-.142.142-.237.284-.331.378-.095-.094-.284-.236-.236-.331.095-.142.236-.283.331-.426A1.655,1.655,0,0,0,144.959,822.979Z" transform="translate(-142.759 -810.943)"/>
          <path id="Path_3230" data-name="Path 3230" class="cls-8" d="M155.61,825.736c-.426.095-.615-.047-.71-.473C155.278,825.169,155.468,825.263,155.61,825.736Z" transform="translate(-148.301 -812.329)"/>
          <path id="Path_3231" data-name="Path 3231" class="cls-8" d="M159.1,823.461c.331-.473.378-.52.709-.142C159.62,823.508,159.431,823.745,159.1,823.461Z" transform="translate(-150.515 -811.189)"/>
          <path id="Path_3232" data-name="Path 3232" class="cls-8" d="M167.5,814.5c.331.142.568.237.851.331C167.973,815.02,167.737,814.926,167.5,814.5Z" transform="translate(-154.942 -806.674)"/>
          <path id="Path_3233" data-name="Path 3233" class="cls-8" d="M155.507,819.862c-.095-.047-.237-.095-.237-.189,0-.142-.142-.378.237-.473.047.189.047.379.095.615C155.555,819.815,155.555,819.862,155.507,819.862Z" transform="translate(-148.483 -809.151)"/>
          <path id="Path_3234" data-name="Path 3234" class="cls-8" d="M144.526,828.179a3.036,3.036,0,0,1-.331.094,1.382,1.382,0,0,1-.095-.425c.047,0,.047-.048.095-.048a2.651,2.651,0,0,1,.378.284A.145.145,0,0,0,144.526,828.179Z" transform="translate(-142.61 -813.684)"/>
          <path id="Path_3235" data-name="Path 3235" class="cls-8" d="M151.326,819.247c-.047.189-.095.378-.142.615a.991.991,0,0,1-.284-.189c.142-.189.284-.331.378-.473A.046.046,0,0,1,151.326,819.247Z" transform="translate(-146.193 -809.151)"/>
        </g>
      </g>
      <g id="Group_1564" data-name="Group 1564" transform="translate(14.332 12.622)">
        <path id="Path_3236" data-name="Path 3236" class="cls-11" d="M166.954,822.962s.9-1.325.851-1.608.946.946,1.041,1.513a1.415,1.415,0,0,1,0,.757s.473-.284,1.419.189c.993.473,1.088.095,1.088.095s-1.277,1.561-1.892,1.75a3.507,3.507,0,0,1,.426,2.128s-.851-.568-1.372-.852c-.52-.236-.9.9-1.324,1.277s-.851-1.7-.615-2.223a9.054,9.054,0,0,1-2.176-.662s1.561-.71,1.7-1.088-.946-.426-.662-2.129C165.441,822.158,166.434,823.009,166.954,822.962Z" transform="translate(-164.4 -821.312)"/>
        <path id="Path_3237" data-name="Path 3237" class="cls-12" d="M168.96,824.293a5.869,5.869,0,0,0,1.135-.757c.095-.189.284.946.189,1.371a1.5,1.5,0,0,1-.236.473s.378,0,.9.615c.473.615.662.426.662.426a5.462,5.462,0,0,1-1.845.52,2.637,2.637,0,0,1-.426,1.561s-.378-.662-.615-.993-.9.284-1.324.378,0-1.419.331-1.655c0,0-1.135-.851-1.23-1.183,0,0,1.277.047,1.466-.142.236-.189-.473-.615.284-1.608C168.25,823.3,168.581,824.2,168.96,824.293Z" transform="translate(-165.507 -822.36)"/>
        <g id="Group_1563" data-name="Group 1563" transform="translate(2.725 2.834)">
          <path id="Path_3238" data-name="Path 3238" class="cls-13" d="M170.227,827.836s-.237.473.189.473.284-.237.284-.284S170.416,827.646,170.227,827.836Z" transform="translate(-170.161 -827.553)"/>
          <path id="Path_3239" data-name="Path 3239" class="cls-13" d="M170.8,828.968a.275.275,0,0,0,.426.189c.142-.095.237-.378.142-.378-.095-.047-.331-.19-.426-.047S170.8,828.874,170.8,828.968Z" transform="translate(-170.498 -828.024)"/>
          <path id="Path_3240" data-name="Path 3240" class="cls-13" d="M172.148,828.573s.236-.473-.189-.473-.284.236-.284.284S171.958,828.762,172.148,828.573Z" transform="translate(-170.947 -827.724)"/>
          <path id="Path_3241" data-name="Path 3241" class="cls-13" d="M171.625,827.539a.275.275,0,0,0-.426-.189c-.142.095-.236.378-.142.378.095.047.331.189.426.047S171.625,827.586,171.625,827.539Z" transform="translate(-170.614 -827.304)"/>
        </g>
      </g>
      <g id="Group_1566" data-name="Group 1566" transform="translate(8.703 6.228)">
        <path id="Path_3242" data-name="Path 3242" class="cls-11" d="M155.338,809.641s.993-1.466.946-1.8,1.041,1.041,1.135,1.656a1.836,1.836,0,0,1,0,.851s.52-.284,1.561.237c1.088.52,1.182.142,1.182.142s-1.372,1.75-2.081,1.939a4.138,4.138,0,0,1,.473,2.365s-.946-.615-1.514-.9-.946.993-1.466,1.419-.946-1.892-.662-2.412a8.053,8.053,0,0,1-2.412-.757s1.7-.757,1.892-1.182-1.041-.473-.709-2.365C153.73,808.79,154.77,809.688,155.338,809.641Z" transform="translate(-152.5 -807.792)"/>
        <path id="Path_3243" data-name="Path 3243" class="cls-12" d="M157.491,811.135s1.135-.615,1.23-.852.331,1.041.189,1.466-.284.521-.284.521.426,0,.946.662.71.473.71.473a6.3,6.3,0,0,1-2.034.568,2.869,2.869,0,0,1-.473,1.7,10.961,10.961,0,0,0-.662-1.088c-.284-.378-.993.331-1.466.426s0-1.561.378-1.8c0,0-1.23-.946-1.324-1.277a5.15,5.15,0,0,0,1.608-.142c.236-.189-.52-.662.331-1.8C156.734,810,157.112,810.993,157.491,811.135Z" transform="translate(-153.659 -808.956)"/>
        <g id="Group_1565" data-name="Group 1565" transform="translate(3.044 3.102)">
          <path id="Path_3244" data-name="Path 3244" class="cls-13" d="M159.014,815.036s-.284.52.237.52c.473,0,.331-.284.331-.331S159.25,814.847,159.014,815.036Z" transform="translate(-158.937 -814.681)"/>
          <path id="Path_3245" data-name="Path 3245" class="cls-13" d="M159.6,816.268c.047.284.284.284.473.237s.284-.426.142-.426c-.095-.047-.331-.189-.473-.047C159.647,816.173,159.6,816.173,159.6,816.268Z" transform="translate(-159.286 -815.204)"/>
          <path id="Path_3246" data-name="Path 3246" class="cls-13" d="M161.045,815.82s.284-.52-.237-.52c-.473,0-.331.283-.331.331C160.525,815.678,160.856,816.057,161.045,815.82Z" transform="translate(-159.738 -814.851)"/>
          <path id="Path_3247" data-name="Path 3247" class="cls-13" d="M160.439,814.611c-.047-.284-.284-.284-.473-.237-.189.095-.284.425-.142.425.095.047.331.189.473.047S160.486,814.7,160.439,814.611Z" transform="translate(-159.368 -814.351)"/>
        </g>
      </g>
      <g id="Group_1568" data-name="Group 1568" transform="translate(13.527 0)">
        <path id="Path_3248" data-name="Path 3248" class="cls-11" d="M164.734,795.937a6.145,6.145,0,0,0,.71-1.277c-.047-.236.757.757.8,1.182a1,1,0,0,1,0,.615,1.433,1.433,0,0,1,1.135.142c.757.378.851.095.851.095a6.407,6.407,0,0,1-1.514,1.419,2.829,2.829,0,0,1,.331,1.7,8.39,8.39,0,0,0-1.088-.662c-.426-.189-.71.709-1.041,1.04-.378.284-.662-1.371-.473-1.75a6.9,6.9,0,0,1-1.75-.52s1.23-.568,1.372-.851-.757-.331-.52-1.7C163.6,795.322,164.355,795.984,164.734,795.937Z" transform="translate(-162.7 -794.624)"/>
        <path id="Path_3249" data-name="Path 3249" class="cls-12" d="M166.492,797a6.146,6.146,0,0,0,.9-.615c.047-.189.237.757.142,1.088s-.189.378-.189.378.331,0,.709.473.52.331.52.331a5.031,5.031,0,0,1-1.466.426,2.41,2.41,0,0,1-.331,1.23s-.284-.521-.473-.8-.71.236-1.041.331,0-1.135.284-1.324c0,0-.9-.71-.946-.947a3.678,3.678,0,0,0,1.182-.094c.189-.142-.378-.473.237-1.277C165.924,796.2,166.208,796.91,166.492,797Z" transform="translate(-163.701 -795.455)"/>
        <g id="Group_1567" data-name="Group 1567" transform="translate(2.217 2.259)">
          <path id="Path_3250" data-name="Path 3250" class="cls-13" d="M167.44,799.828s-.189.378.142.378.236-.189.236-.236S167.582,799.639,167.44,799.828Z" transform="translate(-167.386 -799.592)"/>
          <path id="Path_3251" data-name="Path 3251" class="cls-13" d="M167.879,800.691c.047.189.189.237.331.142.142-.047.189-.284.095-.331s-.237-.142-.331-.047S167.832,800.6,167.879,800.691Z" transform="translate(-167.636 -799.935)"/>
          <path id="Path_3252" data-name="Path 3252" class="cls-13" d="M168.964,800.379s.189-.378-.142-.378-.237.189-.237.237S168.823,800.568,168.964,800.379Z" transform="translate(-168.012 -799.716)"/>
          <path id="Path_3253" data-name="Path 3253" class="cls-13" d="M168.471,799.589c-.047-.189-.189-.236-.331-.142-.142.047-.189.284-.095.331s.236.142.331.047S168.518,799.637,168.471,799.589Z" transform="translate(-167.708 -799.4)"/>
        </g>
      </g>
      <g id="Group_1570" data-name="Group 1570" transform="translate(17.879 5.587)">
        <path id="Path_3254" data-name="Path 3254" class="cls-11" d="M173.414,807.413s.568-.757.52-.946c0-.189.568.568.615.852a.86.86,0,0,1,0,.426,1.205,1.205,0,0,1,.9.095c.615.284.662.047.662.047s-.757.9-1.135.993a2.372,2.372,0,0,1,.284,1.229,7.992,7.992,0,0,0-.851-.473c-.331-.142-.52.521-.8.757s-.52-.993-.378-1.277a4.818,4.818,0,0,1-1.324-.379,4.21,4.21,0,0,0,1.041-.615c.095-.189-.568-.236-.378-1.23C172.515,806.987,173.082,807.46,173.414,807.413Z" transform="translate(-171.9 -806.437)"/>
        <path id="Path_3255" data-name="Path 3255" class="cls-12" d="M174.614,808.215a6.972,6.972,0,0,0,.709-.426c.047-.142.189.568.095.757a1.022,1.022,0,0,1-.142.284.781.781,0,0,1,.52.331c.284.379.426.237.426.237a3.89,3.89,0,0,1-1.135.284,1.6,1.6,0,0,1-.284.9s-.237-.378-.378-.568-.52.19-.8.237,0-.8.237-.946a4.423,4.423,0,0,1-.757-.662s.757.047.9-.094c.142-.094-.284-.331.189-.946C174.141,807.648,174.377,808.121,174.614,808.215Z" transform="translate(-172.532 -807.05)"/>
        <g id="Group_1569" data-name="Group 1569" transform="translate(1.62 1.638)">
          <path id="Path_3256" data-name="Path 3256" class="cls-13" d="M175.36,810.271s-.142.284.142.284.189-.142.189-.19C175.644,810.365,175.5,810.176,175.36,810.271Z" transform="translate(-175.325 -810.082)"/>
          <path id="Path_3257" data-name="Path 3257" class="cls-13" d="M175.7,810.948c.047.142.142.142.236.142s.142-.236.095-.236-.189-.095-.284,0C175.7,810.9,175.7,810.9,175.7,810.948Z" transform="translate(-175.523 -810.38)"/>
          <path id="Path_3258" data-name="Path 3258" class="cls-13" d="M176.514,810.684s.142-.284-.142-.284-.189.142-.189.189C176.23,810.589,176.372,810.779,176.514,810.684Z" transform="translate(-175.769 -810.164)"/>
          <path id="Path_3259" data-name="Path 3259" class="cls-13" d="M176.21,810.042c-.047-.142-.142-.142-.236-.142-.095.047-.142.237-.095.237s.189.094.284,0C176.21,810.09,176.21,810.09,176.21,810.042Z" transform="translate(-175.607 -809.9)"/>
        </g>
      </g>
      <g id="Group_1572" data-name="Group 1572" transform="translate(5.345 3.32)">
        <path id="Path_3260" data-name="Path 3260" class="cls-11" d="M146.961,802.805a5.2,5.2,0,0,0,.52-1.135c0-.189.568.662.615,1.041a1.358,1.358,0,0,1,0,.52s.284-.189.851.142.615.094.615.094-.757,1.088-1.135,1.23a2.748,2.748,0,0,1,.237,1.466s-.52-.378-.8-.568-.52.615-.8.9-.52-1.182-.331-1.514a4.093,4.093,0,0,1-1.324-.473s.946-.473.993-.757c.095-.236-.568-.284-.378-1.466C146.062,802.285,146.63,802.852,146.961,802.805Z" transform="translate(-145.4 -801.643)"/>
        <path id="Path_3261" data-name="Path 3261" class="cls-12" d="M148.061,803.859s.615-.379.662-.52.189.662.095.946a1.077,1.077,0,0,1-.142.331s.236,0,.52.426.378.284.378.284a3.146,3.146,0,0,1-1.088.378,1.963,1.963,0,0,1-.284,1.041s-.237-.474-.378-.71-.52.189-.8.284c-.236.047,0-.994.189-1.135a4.23,4.23,0,0,1-.71-.8s.757.047.9-.1-.284-.426.189-1.088C147.635,803.15,147.872,803.765,148.061,803.859Z" transform="translate(-145.98 -802.461)"/>
        <g id="Group_1571" data-name="Group 1571" transform="translate(1.661 1.987)">
          <path id="Path_3262" data-name="Path 3262" class="cls-13" d="M148.953,806.25s-.142.331.095.331.189-.189.189-.189C149.237,806.345,149.095,806.108,148.953,806.25Z" transform="translate(-148.911 -806.035)"/>
          <path id="Path_3263" data-name="Path 3263" class="cls-13" d="M149.3,806.958c.047.189.142.189.237.142s.142-.236.095-.283-.189-.142-.237,0S149.3,806.911,149.3,806.958Z" transform="translate(-149.116 -806.318)"/>
          <path id="Path_3264" data-name="Path 3264" class="cls-13" d="M150.079,806.731s.142-.331-.095-.331-.189.189-.189.189S149.985,806.873,150.079,806.731Z" transform="translate(-149.375 -806.138)"/>
          <path id="Path_3265" data-name="Path 3265" class="cls-13" d="M149.81,806.013c-.047-.189-.142-.189-.236-.142s-.142.237-.095.284.189.142.236,0S149.81,806.06,149.81,806.013Z" transform="translate(-149.201 -805.845)"/>
        </g>
      </g>
      <g id="Group_1574" data-name="Group 1574" transform="translate(2.98 13.032)">
        <path id="Path_3266" data-name="Path 3266" class="cls-11" d="M143,824.222a9.811,9.811,0,0,0,.946-1.986c0-.378.993,1.182,1.088,1.844a2.01,2.01,0,0,1,0,.9s.473-.331,1.514.237,1.135.142,1.135.142-1.324,1.939-1.987,2.175a4.951,4.951,0,0,1,.473,2.6,14.212,14.212,0,0,0-1.419-.993c-.568-.331-.946,1.088-1.419,1.561s-.9-2.081-.615-2.649a7.957,7.957,0,0,1-2.318-.8s1.655-.851,1.8-1.324c.142-.426-.993-.52-.662-2.6C141.441,823.276,142.434,824.316,143,824.222Z" transform="translate(-140.4 -822.177)"/>
        <path id="Path_3267" data-name="Path 3267" class="cls-12" d="M145,825.934a6.044,6.044,0,0,0,1.182-.946c.095-.237.331,1.135.189,1.655s-.284.615-.284.615.426-.047.946.757c.52.757.709.52.709.52a5.331,5.331,0,0,1-1.939.662,3.438,3.438,0,0,1-.473,1.892,12.527,12.527,0,0,0-.662-1.23c-.284-.426-.946.378-1.372.473s0-1.7.378-1.987c0,0-1.182-1.041-1.277-1.419a4.864,4.864,0,0,0,1.561-.142c.236-.189-.473-.709.331-1.987C144.245,824.751,144.623,825.792,145,825.934Z" transform="translate(-141.454 -823.558)"/>
        <g id="Group_1573" data-name="Group 1573" transform="translate(2.82 3.457)">
          <path id="Path_3268" data-name="Path 3268" class="cls-13" d="M146.427,830.22s-.236.615.189.568c.473,0,.331-.331.284-.378C146.947,830.409,146.616,829.984,146.427,830.22Z" transform="translate(-146.362 -829.835)"/>
          <path id="Path_3269" data-name="Path 3269" class="cls-13" d="M146.968,831.492c.047.331.284.331.426.236s.284-.473.142-.473c-.095-.047-.331-.236-.473-.047S146.921,831.4,146.968,831.492Z" transform="translate(-146.666 -830.35)"/>
          <path id="Path_3270" data-name="Path 3270" class="cls-13" d="M148.409,831.065s.237-.615-.189-.568c-.473,0-.331.331-.284.378C147.889,830.923,148.22,831.3,148.409,831.065Z" transform="translate(-147.161 -830.017)"/>
          <path id="Path_3271" data-name="Path 3271" class="cls-13" d="M147.792,829.776c-.047-.331-.284-.331-.426-.236-.189.094-.284.473-.142.473.095.047.331.236.473.047S147.839,829.871,147.792,829.776Z" transform="translate(-146.78 -829.485)"/>
        </g>
      </g>
    </g>
    <g id="Group_2368" data-name="Group 2368" transform="translate(163.244 157.639)">
      <path id="Path_3991" data-name="Path 3991" class="cls-14" d="M213.756,132.5H175v1.253h76.843V132.5Z" transform="translate(-170.74 -132.5)"/>
      <path id="Path_3992" data-name="Path 3992" class="cls-14" d="M175,132.5l.5,19.879h2.255l-.251-19.879Z" transform="translate(-170.74 -132.5)"/>
      <rect id="Rectangle_689" data-name="Rectangle 689" class="cls-15" width="40.76" height="0.835" transform="translate(2.255 4.176)"/>
      <rect id="Rectangle_690" data-name="Rectangle 690" class="cls-15" width="40.76" height="0.835" transform="translate(2.255 5.513)"/>
      <path id="Path_3993" data-name="Path 3993" class="cls-15" d="M213.36,136.735H172.6l.585-.835H213.36Z" transform="translate(-170.345 -133.06)"/>
      <rect id="Rectangle_691" data-name="Rectangle 691" class="cls-15" width="39.758" height="0.835" transform="translate(3.257 1.587)"/>
      <rect id="Rectangle_692" data-name="Rectangle 692" class="cls-15" width="38.254" height="1.002" transform="translate(4.761 0.167)"/>
      <path id="Path_3994" data-name="Path 3994" class="cls-14" d="M172.656,139.015l4.009-6.515H174.16l-4.26,6.515Z" transform="translate(-169.9 -132.5)"/>
      <path id="Path_3995" data-name="Path 3995" class="cls-14" d="M266.44,132.5l-.5,19.879H263.6l.251-19.879Z" transform="translate(-185.337 -132.5)"/>
      <rect id="Rectangle_693" data-name="Rectangle 693" class="cls-15" width="40.76" height="0.835" transform="translate(83.011 5.027) rotate(180)"/>
      <rect id="Rectangle_694" data-name="Rectangle 694" class="cls-15" width="40.76" height="0.835" transform="translate(83.011 6.325) rotate(180)"/>
      <rect id="Rectangle_695" data-name="Rectangle 695" class="cls-15" width="40.76" height="0.835" transform="translate(83.011 3.729) rotate(180)"/>
      <rect id="Rectangle_696" data-name="Rectangle 696" class="cls-15" width="39.758" height="0.835" transform="translate(82.076 2.347) rotate(180)"/>
      <rect id="Rectangle_697" data-name="Rectangle 697" class="cls-15" width="38.254" height="1.002" transform="translate(80.511 1.132) rotate(180)"/>
      <path id="Path_3996" data-name="Path 3996" class="cls-14" d="M213.442,140H173.1v2.589h80.017V140Z" transform="translate(-170.427 -133.736)"/>
      <path id="Path_3997" data-name="Path 3997" class="cls-14" d="M267.909,139.015,263.9,132.5h2.589l4.26,6.515Z" transform="translate(-185.387 -132.5)"/>
      <path id="Path_3998" data-name="Path 3998" class="cls-14" d="M268.618,140.3l-.418,20.3h2.339l.919-20.3Z" transform="translate(-186.095 -133.785)"/>
      <path id="Path_3999" data-name="Path 3999" class="cls-14" d="M169.9,140.3l.919,20.3h2.339l-.5-20.3Z" transform="translate(-169.9 -133.785)"/>
    </g>
    <g id="Group_2369" data-name="Group 2369" transform="translate(168.132 124.636)">
      <g id="Group_1509" data-name="Group 1509" transform="translate(0 0)">
        <path id="Path_2652" data-name="Path 2652" class="cls-16" d="M170.388,21.433,164.237,20.3l-.689.148L160.3,22.024l4.478,9.9s4.872-3.251,4.97-3.891C169.9,27.392,170.388,21.433,170.388,21.433Z" transform="translate(-155.117 -10.682)"/>
        <path id="Path_2653" data-name="Path 2653" class="cls-16" d="M160.423,6.658c1.575.64,1.378-.788,2.214-1.921s3.445-.788,3.445-.788,2.264,7.486-2.018,10.983c-3.887-2.364-3.149-4.482-3.74-5.221a4.562,4.562,0,0,1-.738-2.463C159.538,6.609,160.423,6.658,160.423,6.658Z" transform="translate(-151.049 -2.359)"/>
        <path id="Path_2654" data-name="Path 2654" class="cls-17" d="M154.49,14.983C158.771,11.486,156.508,4,156.508,4c2.9.739,2.067,2.758,2.362,3.3.1.148.049.394,0,.69l.394.493s.344,2.315.3,2.61a17.4,17.4,0,0,1-1.722,2.364l-.3-.739C156.852,14.195,154.49,14.983,154.49,14.983Z" transform="translate(-141.421 -2.41)"/>
        <path id="Path_2655" data-name="Path 2655" class="cls-18" d="M143.271,114.491a1.843,1.843,0,0,1,.492,1.576c-.1,1.133.689,4.482.344,5.91s-2.116,2.019-3.445-.542c-1.329-2.512-1.968-3.842-1.476-5.664l.492-1.872Z" transform="translate(-118.434 -58.184)"/>
        <path id="Path_2656" data-name="Path 2656" class="cls-18" d="M109.012,100.9a9.075,9.075,0,0,1,1.083,3.4c0,1.428,5.708.886,5.708.886s4.232.148,5.068-1.822c.886-1.921-.837-2.66-2.608-2.266s-5.118-.2-5.856-1.182S109.012,100.9,109.012,100.9Z" transform="translate(-80.568 -50.947)"/>
        <path id="Path_2657" data-name="Path 2657" class="cls-19" d="M169.978,29.9a18.516,18.516,0,0,0-.787-5.319c-.787-2.069-4.626-3.152-4.626-3.152s-3.149,7.683-4.084,7.141-4.133-5.221-3.937-6.7c.2-1.428,1.87-1.576,1.87-1.576s-6.348,2.315-7.43,4.531-1.919,7.437-1.624,7.88,3.986,1.428,5.019.2l-1.525,4.925a6.035,6.035,0,0,0,3.445,3.1c2.46.788-.984.542,8.71-1.822,0,0-.689-2.512,1.033-7.979Z" transform="translate(-149.295 -10.682)"/>
        <path id="Path_2658" data-name="Path 2658" class="cls-20" d="M156.8,83.9" transform="translate(-139.793 -42.959)"/>
        <path id="Path_2659" data-name="Path 2659" class="cls-20" d="M145.563,59.379s-7.627-1.034-9.842-1.084c-2.214-.1-6.3,1.675-6.988,2.758-.689,1.034-4.281,2.906-3.789,4.63a6.614,6.614,0,0,0,6.84,4.088c3.543-.493,5.708-3.694,8.808-4.777s3.838,1.034,4.921,4.58c0,0,.738,6.156,3.051,10.392,0,0,4.872,1.773,4.281-.443s-1.476-3.1-2.657-8.176-1.083-6.944-1.624-8.57C148.073,61.152,147.876,59.675,145.563,59.379Z" transform="translate(-120.205 -29.963)"/>
        <path id="Path_2660" data-name="Path 2660" class="cls-21" d="M145.563,59.379s-7.627-1.034-9.842-1.084c-2.214-.1-6.3,1.675-6.988,2.758-.689,1.034-4.281,2.906-3.789,4.63a6.614,6.614,0,0,0,6.84,4.088c3.543-.493,5.708-3.694,8.808-4.777s3.838,1.034,4.921,4.58c0,0,.738,6.156,3.051,10.392,0,0,4.872,1.773,4.281-.443s-1.476-3.1-2.657-8.176-1.083-6.944-1.624-8.57C148.073,61.152,147.876,59.675,145.563,59.379Z" transform="translate(-120.205 -29.963)"/>
        <path id="Path_2661" data-name="Path 2661" class="cls-22" d="M139.879,76.384c3.543-.492,5.708-3.694,8.808-4.777s3.838,1.034,4.921,4.58c0,0,.2,1.527.64,3.546-.3,2.758-.64,5.762-.689,6.8-.148,2.216,0,6.353-.394,7.289,0,0-3.986.148-4.133-.837s.541-2.118.344-6.55-.1-8.668-.443-8.865c-.3-.148-9.153-1.034-10.334-1.133A10.691,10.691,0,0,0,139.879,76.384Z" transform="translate(-128.285 -36.576)"/>
        <path id="Path_2662" data-name="Path 2662" class="cls-16" d="M132.064,40.17a8.248,8.248,0,0,0,.443,2.857c.492,1.182,1.132,4.531,2.9,5.073a21.757,21.757,0,0,1,3.051,1.182s-.591,4.186.2,3.792a1.829,1.829,0,0,0,1.083-2.069c-.3-.739,1.673-.246,1.722,1.428s-.246,3.1,2.067,2.364.738-4.137-1.329-5.418c-2.067-1.33-4.97-3.94-5.61-5.615a44.211,44.211,0,0,1-1.476-5.565l-3.543,1.281Z" transform="translate(-115.248 -19.767)"/>
        <path id="Path_2663" data-name="Path 2663" class="cls-19" d="M161.083,63.109s-2.8-4.531-1.378-9.111,12.2,1.281,12.2,1.281S162.165,59.021,161.083,63.109Z" transform="translate(-156.146 -26.896)"/>
        <path id="Path_2664" data-name="Path 2664" class="cls-16" d="M169.241,45.485a9.547,9.547,0,0,1-1.083,4.58s.246,1.773,4.97,3.989,4.625,3.6,4.625,3.694-.443.394-1.673-.493c0,0,1.87,2.118.984,2.758-.837.591-3.543,1.625-4.183.739s-2.165-3.2-2.214-4.383c0,0-4.035-1.97-4.872-2.857a3.185,3.185,0,0,1-1.181-2.561c-.1-1.379.3-6.255.3-6.255l4.035-.2Z" transform="translate(-164.6 -22.964)"/>
        <path id="Path_2665" data-name="Path 2665" class="cls-19" d="M169.978,29.9a18.516,18.516,0,0,0-.787-5.319c-.787-2.069-4.626-3.152-4.626-3.152s-3.149,7.683-4.084,7.141-4.133-5.221-3.937-6.7c.2-1.428,1.87-1.576,1.87-1.576s-6.348,2.315-7.43,4.531-1.919,7.437-1.624,7.88,3.986,1.428,5.019.2l-1.525,4.925a6.035,6.035,0,0,0,3.445,3.1c2.46.788-.984.542,8.71-1.822,0,0-.689-2.512,1.033-7.979Z" transform="translate(-149.295 -10.682)"/>
        <path id="Path_2666" data-name="Path 2666" class="cls-23" d="M164.256,10.193s-1.181,3.792-2.214,3.694a2.357,2.357,0,0,1-1.722-2.266c.1-.69,2.165-1.625,1.919-4.433s.2-3.4-.64-3.989-2.756-1.773-4.97,1.576c0,0-.246,2.413-1.23,1.921s-1.821-.542-1.427.493.837,1.97,1.575,1.675c0,0-.443,3.152,1.476,3.989,0,0,.345,3.152-1.476,1.625a13.826,13.826,0,0,1-3.2-3.251c-.344-.64.344-2.61.394-3.792,0-1.182.148-4.137,1.87-5.122S156.186.54,160.369.835c0,0,1.23.2,2.018,2.807a35.968,35.968,0,0,0,1.575,4.334A5.025,5.025,0,0,1,164.256,10.193Z" transform="translate(-145.041 -0.772)"/>
      </g>
    </g>
    <g id="Group_2370" data-name="Group 2370" transform="translate(214.969 105.827)">
      <path id="Path_2761" data-name="Path 2761" class="cls-24" d="M57,24.434c-.459-.688-2.218-1.759-2.754-3.672s-3.519-4.59-4.207-4.972a8.612,8.612,0,0,0-3.9-.229c-.459.153-1.147,1.836-1.147,1.836-1.53.382-6.349,3.136-7.038,3.6s-2.907,8.415-2.907,8.415c-.918,1.147,2.295,6.579,2.218,7.726-.076,1.224,1.836,6.349,1.836,7.8,0,.841.765,1.377,1.377,1.683v-.076c.459-.688,10.786-.077,11.628,0-.077-.536-.153-1.224-.229-1.453-.153-.382-.535-2.754-.535-2.754s3.748-.076,4.743,0,1.071-.153.765-1.147S57.54,36.444,58,35.373c.459-1.147.229-3.978.459-5.508C58.687,28.259,57.463,25.046,57,24.434Z" transform="translate(-29.775 -3.667)"/>
      <path id="Path_2762" data-name="Path 2762" class="cls-24" d="M57,24.434c-.459-.688-2.218-1.759-2.754-3.672s-3.519-4.59-4.207-4.972a8.612,8.612,0,0,0-3.9-.229c-.459.153-1.147,1.836-1.147,1.836-1.53.382-6.349,3.136-7.038,3.6s-2.907,8.415-2.907,8.415c-.918,1.147,2.295,6.579,2.218,7.726-.076,1.224,1.836,6.349,1.836,7.8,0,.841.765,1.377,1.377,1.683v-.076c.459-.688,10.786-.077,11.628,0-.077-.536-.153-1.224-.229-1.453-.153-.382-.535-2.754-.535-2.754s3.748-.076,4.743,0,1.071-.153.765-1.147S57.54,36.444,58,35.373c.459-1.147.229-3.978.459-5.508C58.687,28.259,57.463,25.046,57,24.434Z" transform="translate(-29.775 -3.667)"/>
      <g id="Group_1518" data-name="Group 1518" transform="translate(21.568 38.515)">
        <path id="Path_2763" data-name="Path 2763" class="cls-25" d="M56.9,56Z" transform="translate(-56.518 -51.716)"/>
        <path id="Path_2764" data-name="Path 2764" class="cls-25" d="M66.268,69.448c-.535-2.907-2.065-7.5-2.295-8.8S62.749,55.831,62.6,54a27.906,27.906,0,0,0-.765-3.6,1.7,1.7,0,0,1-.688.077c-.994-.077-4.743,0-4.743,0s.382,2.371.535,2.754c.077.229.153.918.229,1.453h0s4.131,8.721,4.972,10.4c.076.076.076.229.153.459a4.527,4.527,0,0,0,.306.459c.535.918,1.224,5.508-.459,6.655-1.683,1.224.535,1.53,1.606.995C64.815,73.2,66.8,72.355,66.268,69.448Z" transform="translate(-56.4 -50.4)"/>
        <path id="Path_2765" data-name="Path 2765" class="cls-25" d="M57.382,56Z" transform="translate(-56.617 -51.716)"/>
      </g>
      <path id="Path_2766" data-name="Path 2766" class="cls-24" d="M48.1,122.5" transform="translate(-32.881 -28.83)"/>
      <path id="Path_2767" data-name="Path 2767" class="cls-26" d="M55.285,129.459s3.6-.689,4.437-2.372c.765-1.759-.077-3.213-2.218-2.907s-4.819-.306-4.36-2.524-5.049.918-5.049.918l-.841.153s-1.377,7.038.536,7.573C49.624,130.913,55.285,129.459,55.285,129.459Z" transform="translate(-32.57 -28.445)"/>
      <path id="Path_2768" data-name="Path 2768" class="cls-26" d="M36.463,128.849s3.672-.306,4.59-1.989c.994-1.683.229-3.213-1.912-3.136s-4.743-.841-4.054-2.983-5.049.459-5.049.459l-.841.076s-2.065,6.808-.229,7.65C30.726,129.69,36.463,128.849,36.463,128.849Z" transform="translate(-28.206 -28.217)"/>
      <path id="Path_2769" data-name="Path 2769" class="cls-27" d="M29.584,104.09s2.6-8.95,3.825-12.24,4.131-7.956,4.284-9.715.612-8.721,0-11.4c-.612-2.6.841-14.076,1.3-14.841s11.7,0,11.7,0,4.131,8.721,4.972,10.4c.765,1.683-1.3,12.469-2.295,14.535a59.393,59.393,0,0,0-3.289,12.775c-.383,3.6,1.071,12.316,0,13.311s-6.349,1.53-6.961.994-.688-12.775-.459-15.988a10.578,10.578,0,0,1,.994-4.437s-2.218,1.836-3.9,7.879A44.307,44.307,0,0,1,35.169,106s-3.825,1.071-5.584.536S28.666,106,29.584,104.09Z" transform="translate(-28.288 -13.096)"/>
      <path id="Path_2770" data-name="Path 2770" class="cls-23" d="M49.569,6.056S49.492,9.5,50.716,9.728c1.224.153,3.978.841,5.049,0s1.147-2.448,1.683-2.754.153-1.606.841-1.3a.893.893,0,0,1,.535.994,3.738,3.738,0,0,0,.688-.765c.229-.382.918-3.6-1.147-4.437C56.224.624,55.994-.37,52.323.242S49.569,6.056,49.569,6.056Z" transform="translate(-33.203 -0.052)"/>
      <path id="Path_2771" data-name="Path 2771" class="cls-25" d="M53.83,13.879a13.5,13.5,0,0,1,2.83,2.677V15.485a5.582,5.582,0,0,0,1.683-.229c.459-.229.535-.382.535-.382s.535-1.53.688-2.065A23.9,23.9,0,0,0,59.95,7.3c0,.153-.077.229-.077.306a2.284,2.284,0,0,1-.688.765.921.921,0,0,0-.536-.994c-.688-.306-.306.918-.841,1.224s-.688,1.836-1.683,2.754c-1.071.841-3.825.153-5.049,0H51l.076,2.142A6.794,6.794,0,0,1,53.83,13.879Z" transform="translate(-33.563 -1.756)"/>
    </g>
    <g id="Group_2372" data-name="Group 2372" transform="translate(102 113.375)">
      <path id="Path_2667" data-name="Path 2667" class="cls-16" d="M249.361,16.9,248.3,22.561l.849,5.024,5.732,1.132s4.1-3.751,4.1-4.175c-.071-.425-.566-4.388-.566-4.388l.283-6.794L255.872,12.3l-6.227,2.831Z" transform="translate(-231.144 -3.618)"/>
      <path id="Path_2668" data-name="Path 2668" class="cls-21" d="M249.257,11.332a14.878,14.878,0,0,1,.778,3.892c-.071,1.345-2.335,2.406-2.618,3.68-.354,1.345-.849,3.185-.849,3.185l-2.689-4.6s-.283-2.194.5-2.76,3.538-1.345,2.972-4.6.212-2.76.212-2.76-.566-4.529,3.114-5.944c0,0-.071-1.7,1.911-1.345A7.659,7.659,0,0,1,258.669,5.1c1.345,3.538-.566,2.972,2.123,5.944s.5,3.68.5,3.68L258.739,18.2s0,.92-.637.566-2.052-1.557-1.981-2.689c.071-1.2-1.132-4.246-.849-5.591s-3.4.566-3.4.566Z" transform="translate(-229.837 -0.031)"/>
      <path id="Path_2669" data-name="Path 2669" class="cls-28" d="M250.731,106.608l-3.114,7.572-7.218-.708,1.486-2.265,5.236.071,3.255-5.378Z" transform="translate(-228.834 -30.98)"/>
      <path id="Path_2670" data-name="Path 2670" class="cls-21" d="M244.233,105.772s-.566,4.1-1.84,5.661a1.4,1.4,0,0,0,1.344,2.406c1.2-.283,3.326.5,3.75-1.769s.92-6.794.071-7.855C246.78,103.3,244.233,105.772,244.233,105.772Z" transform="translate(-229.27 -30.428)"/>
      <path id="Path_2671" data-name="Path 2671" class="cls-27" d="M247.694,47.6a82.2,82.2,0,0,1-2.618,9.129S241.184,69.4,241.4,73.784c.283,4.388,1.769,15.852,1.769,15.852l4.317-.92.425-19.956,2.972-5.944,3.326-7.431a41.548,41.548,0,0,0,.92-6.935A27.059,27.059,0,0,1,247.694,47.6Z" transform="translate(-229.123 -13.937)"/>
      <path id="Path_2672" data-name="Path 2672" class="cls-29" d="M238.255,82.9s-3.184,16.064-2.406,16.7c.708.708.283-.212.283-.212s3.255-13.092,3.4-16.489" transform="translate(-227.468 -24.257)"/>
      <path id="Path_2673" data-name="Path 2673" class="cls-21" d="M240.712,105.112l-4.175-.212c-.354,0-.637.566-.637,1.2s.283,1.2.637,1.2l4.175.212c.354,0,.637-.566.637-1.2S241.066,105.112,240.712,105.112Z" transform="translate(-227.518 -30.688)"/>
      <path id="Path_2674" data-name="Path 2674" class="cls-21" d="M237.249,80.634s-9.836-5.1-12.667,13.375c-2.9,18.47,6.935,24.839,11.039,23.565,4.033-1.274,8.916-6.511,9.341-17.975C245.316,88.206,240.787,83.04,237.249,80.634Zm6.439,18.753c-.354,9.837-4.1,14.366-7.218,15.5-3.184,1.061-10.827-4.388-8.562-20.31s9.836-11.535,9.836-11.535C240.5,85.163,244.042,89.551,243.688,99.387Z" transform="translate(-224.055 -23.406)"/>
      <path id="Path_2675" data-name="Path 2675" class="cls-21" d="M269.352,78.056s-6.015-4.671-7.784,12.243,4.246,22.787,6.793,21.655,5.449-5.944,5.732-16.489S271.545,80.32,269.352,78.056Zm3.963,17.267c-.212,9.058-2.548,13.163-4.458,14.153s-6.652-4.034-5.236-18.612c1.345-14.578,6.086-10.544,6.086-10.544C271.4,82.231,273.526,86.265,273.314,95.323Z" transform="translate(-234.929 -22.668)"/>
      <path id="Path_2676" data-name="Path 2676" class="cls-21" d="M271.472,100.512l-2.547-.212c-.212,0-.425.5-.425,1.132s.212,1.132.425,1.132l2.547.212c.212,0,.425-.5.425-1.132S271.684,100.512,271.472,100.512Z" transform="translate(-237.05 -29.343)"/>
      <path id="Path_2677" data-name="Path 2677" class="cls-30" d="M233.324,76.25h-.071a8.792,8.792,0,0,1-2.831-.354c-.92-.354-2.052-.142-2.123-2.052s14.719,1.2,14.719,1.2,1.415,1.132.708,1.628" transform="translate(-225.296 -21.428)"/>
      <path id="Path_2678" data-name="Path 2678" class="cls-31" d="M227.4,54.7l.637,13.587s-.142,1.2.637,1.345,10.331.142,12.242.778,2.406.849,2.9.354c.425-.5,2.052-10.544,2.689-11.677.566-1.061,1.061-1.911.708-2.335C246.86,56.4,243.109,54.628,227.4,54.7Z" transform="translate(-225.033 -16.012)"/>
      <path id="Path_2679" data-name="Path 2679" class="cls-32" d="M273.328,43.9l-1.274.142c-.142.283.141.637-.354,1.628a5.753,5.753,0,0,1,1.486-.071c.283,0,.566-.283.637-.991C273.894,43.755,273.328,43.9,273.328,43.9Z" transform="translate(-237.985 -12.852)"/>
      <path id="Path_2680" data-name="Path 2680" class="cls-28" d="M259.966,103.387l3.68-7.077,5.59.849,1.557-2.123-6.156-.637h-1.274l-3.963,8.987Z" transform="translate(-234.389 -27.618)"/>
      <path id="Path_2681" data-name="Path 2681" class="cls-21" d="M268.2,86.384a.963.963,0,0,1,.5,1.345c-.354,1.132-1.981,5.237-.778,5.8s3.538-.071,4.529-2.477c1.061-2.406,1.628-4.529,1.061-5.8a6.083,6.083,0,0,0-1.769-2.052Z" transform="translate(-236.752 -24.344)"/>
      <path id="Path_2682" data-name="Path 2682" class="cls-29" d="M253.994,91.867,256.4,79.058l2.406-5.449-.92-1.2L261.424,60.8h-6.439V77.784c-1.274,3.184-4.387-2.194-4.387-2.194-1.2-2.548-2.547-5.449-2.618-5.732-.142-.566-.637,2.9-.92,3.114l2.477,5.378a12.637,12.637,0,0,0,2.264,3.609c1.274,1.2,1.345,1.557,1.345,1.557l-1.061,6.369a27.277,27.277,0,0,1-1.7-4.175c-2.052-6.086-2.548-11.11-3.892-12.88-.92-1.2-1.7-.5-2.052.142a2.911,2.911,0,0,0-1.84-.425,3.072,3.072,0,0,0-2.9,1.769l1.274.283s2.83-1.84,3.184,1.628-2.972,17.126-2.972,17.126l.849.5s3.4-13.092,3.609-17.479a40.7,40.7,0,0,1,2.406,5.378c.425,1.7,1.7,8.775,2.264,9.907,0,0-.425.637-.212,2.831l3.609.354a1.52,1.52,0,0,0,1.132-1.486l8.138-3.043v-.637Z" transform="translate(-228.629 -17.796)"/>
      <path id="Path_2683" data-name="Path 2683" class="cls-27" d="M267.5,67.485c-.5-4.6-3.184-4.6-.354-6.44s2.335-4.246,2.123-8.987c-.212-4.671-1.486-4.458-1.486-4.458a53.2,53.2,0,0,1-8,.849,43.676,43.676,0,0,1-.566,5.024l-2.123.354a10.247,10.247,0,0,1,.849,4.388,17.617,17.617,0,0,0,0,3.751h0a3.162,3.162,0,0,0,.425,2.194s3.68,6.581,5.095,9.058c1.344,2.477,1.2,2.972,2.689,2.689s3.184-2.689,3.184-2.689S268,72.085,267.5,67.485Z" transform="translate(-233.717 -13.937)"/>
      <path id="Path_2684" data-name="Path 2684" class="cls-33" d="M253.351,3s-2.9,2.76-1.769,10.12c0,0-1.557.354-1.486-2.477C250.1,7.883,249.742,3.425,253.351,3Z" transform="translate(-231.666 -0.899)"/>
      <path id="Path_2685" data-name="Path 2685" class="cls-16" d="M256.479,5.274c-.637-2.76-2.618-2.194-2.618-2.194s-2.9,2.76-1.769,10.12a6.075,6.075,0,0,0,5.449-1.84l.5-2.618C257.965,8.742,257.116,8.034,256.479,5.274Z" transform="translate(-232.176 -0.909)"/>
      <path id="Path_2686" data-name="Path 2686" class="cls-24" d="M265.882,41.638a37.243,37.243,0,0,0-2.052-4.317s.283-4.671-.849-5.308a4.709,4.709,0,0,1-1.132-1.2l.5-1.132-1.2-4.1-2.76-1.274a18.535,18.535,0,0,0-1.274,4.246c-.566,2.831-7.005,3.4-7.713,1.415s.071-5.378.071-5.378-1.061-.354-1.132.283a37.744,37.744,0,0,1-.566,3.751c-.212,1.2.071,2.548,0,4.317s1.628,4.034,1.628,4.034a4.643,4.643,0,0,1,.425,1.84c.071.566-.5,1.345-.142,1.981C250.527,42.629,266.236,42.841,265.882,41.638Z" transform="translate(-230.964 -7.126)"/>
      <path id="Path_2687" data-name="Path 2687" class="cls-32" d="M230.7,46.794s.778-.071.991.212c.283.283,1.2,3.255,2.831,3.821a15.062,15.062,0,0,0,4.741.283l.991,1.062,2.618.283-.92-1.345s1.981,0,2.689-.071a5.754,5.754,0,0,0,4.458-1.7c2.335-1.981,2.406-2.831,5.449-3.114s1.7-.142,1.7-.142l-.425-1.486s-3.538.071-4.529.92-2.972,3.114-4.033,3.538-5.661.5-5.661.5-6.3.637-7.005-.283a10.3,10.3,0,0,1-1.344-2.265s-.778-1.274-1.062-1.345C231.832,45.52,230.841,45.237,230.7,46.794Z" transform="translate(-225.998 -13.06)"/>
      <path id="Path_2688" data-name="Path 2688" class="cls-16" d="M232.075,38.387s-2.9-.425-3.255,0-.991,1.981-.5,2.548c.5.5,2.052,1.557,2.477.92s-1.061-.425-.849-.92c.212-.425.991-1.557,1.628-.92s.637,1.274.92,1.274.849-.142.92-.637a3.444,3.444,0,0,0,1.84-.142,6.164,6.164,0,0,0,2.831-2.689c.283-.778,3.538-5.874,3.538-5.874l.566-.991s-.142-3.892-.637-4.6-2.052-.142-2.264-1.557a43.941,43.941,0,0,0-2.052,4.671C236.6,31.381,233.137,38.246,232.075,38.387Z" transform="translate(-225.25 -7.272)"/>
      <path id="Path_2689" data-name="Path 2689" class="cls-16" d="M267.444,36.051a2.382,2.382,0,0,0-.849.212,1.688,1.688,0,0,0-.778,1.274c.071.283-.212,1.911.778,1.345,0,0-.141.5.5.637s2.194.425,2.689-.708.142-1.415.354-1.7a3.941,3.941,0,0,0,1.627-2.9c.5-2.477-.212-1.557-.5-4.175a13.277,13.277,0,0,0-.991-4.317c-.354-.637-.849-3.326-1.274-3.68-.424-.425-.991-1.486-1.486-1.345-.5.212-3.114.778-2.547,3.468s.708.849,1.132,1.84.142,2.194.5,3.114,1.7,3.4,1.769,4.6A4.648,4.648,0,0,1,267.444,36.051Z" transform="translate(-235.993 -6.068)"/>
    </g>
  </g>
</svg>
