<svg xmlns="http://www.w3.org/2000/svg" width="16.009" height="20.1" viewBox="0 0 16.009 20.1">
  <g id="Group_2424" data-name="Group 2424" transform="translate(2335 4840)">
    <rect id="Rectangle_996" data-name="Rectangle 996" width="16.009" height="20.099" transform="translate(-2335 -4840)" fill="none"/>
    <g id="Group_2423" data-name="Group 2423" transform="translate(-2335.001 -4840)">
      <path id="Path_4909" data-name="Path 4909" d="M11.553,5.795,8.005,9.343,4.486,5.824l-.707.707L7.3,10.05,3.75,13.6l.707.707L8,10.757l3.519,3.519.707-.707L8.712,10.05,12.26,6.5Z" fill="#888" fill-rule="evenodd"/>
      <path id="Path_4910" data-name="Path 4910" d="M8.005,2.05a8,8,0,1,0,8,8A8,8,0,0,0,8.005,2.05Zm0,15a7,7,0,1,1,7-7A7.008,7.008,0,0,1,8.005,17.05Z" fill="#888" fill-rule="evenodd"/>
    </g>
  </g>
</svg>
