<svg xmlns="http://www.w3.org/2000/svg" viewBox="0 0 26.27 40">
  <defs>
    <style>
      .cls-1 {
        fill: #989898;
      }
    </style>
  </defs>
  <g id="arvore" transform="translate(-254 -471)">
    <path id="Path_4905" data-name="Path 4905" class="cls-1" d="M26.269,14.124a8.912,8.912,0,0,0-3.94-7.334,3.149,3.149,0,0,1-.657-.438.107.107,0,0,1-.109-.109h0A8.988,8.988,0,0,0,14.229,0,8.817,8.817,0,0,0,4.378,8.761v1.2h0a8.744,8.744,0,0,0,.109,15.214.4.4,0,0,0,.109.328v.109h0a8.5,8.5,0,0,0,5.254,6.13v8.209h6.567V31.746a8.866,8.866,0,0,0,5.473-8.1,12.061,12.061,0,0,0-.219-1.97v.109A8.673,8.673,0,0,0,26.269,14.124Zm-5.363,5.582h0a10.124,10.124,0,0,0-1.095.547h0a1.149,1.149,0,0,0-.547.985.4.4,0,0,0,.109.328h0a6.2,6.2,0,0,1,.328,1.97,6.668,6.668,0,0,1-3.284,5.692V26.711a1.095,1.095,0,1,0-2.189,0V37.767H12.04V22.99A1.034,1.034,0,0,0,10.946,21.9,1.034,1.034,0,0,0,9.851,22.99v6.458a6.458,6.458,0,0,1-3.284-4.707V24.3h0c0-.328-.328-.657-.657-.876a8.41,8.41,0,0,1-1.423-.985H4.378l-.109-.109-.219-.219a2.9,2.9,0,0,1-.547-.657h0A6.568,6.568,0,0,1,8.647,10.95h0A1.034,1.034,0,0,0,9.742,9.855,1.034,1.034,0,0,0,8.647,8.761h0a9.823,9.823,0,0,0-2.08.328V8.761A6.622,6.622,0,0,1,14.558,2.3a6.64,6.64,0,0,1,4.926,4.926,6.177,6.177,0,0,1-1.532,5.8h0a.994.994,0,0,0-.328.766,1.034,1.034,0,0,0,1.095,1.095.994.994,0,0,0,.766-.328,8.756,8.756,0,0,0,2.189-5.473,6.405,6.405,0,0,1,2.3,4.926,6.347,6.347,0,0,1-3.065,5.692Z" transform="translate(254 471.044)"/>
  </g>
</svg>
