<svg xmlns="http://www.w3.org/2000/svg" viewBox="0 0 48.203 76.334">
  <defs>
    <style>
      .cls-1 {
        fill: #a86622;
      }

      .cls-2 {
        fill: #7c4411;
      }

      .cls-3 {
        fill: #3f2302;
      }

      .cls-4 {
        fill: #049904;
      }

      .cls-5 {
        fill: #17c417;
      }

      .cls-6 {
        fill: #8e0d16;
      }

      .cls-7 {
        fill: #d50008;
      }

      .cls-8 {
        fill: #f0bf44;
      }
    </style>
  </defs>
  <g id="flores" transform="translate(-155 -92)">
    <g id="Group_1562" data-name="Group 1562" transform="translate(155 93.649)">
      <g id="Group_1560" data-name="Group 1560" transform="translate(0 31.009)">
        <path id="Path_3203" data-name="Path 3203" class="cls-1" d="M134.1,835.6l8.266,34.456c0,3.251,10.774,3.715,15.418,3.808s15.51-.185,15.51-3.437l9.009-34.27Z" transform="translate(-134.1 -830.203)"/>
        <path id="Path_3204" data-name="Path 3204" class="cls-2" d="M158.155,841.037c-7.244-.093-24.055-.837-24.055-5.851.093-5.108,16.9-5.48,24.148-5.386s24.055.835,24.055,5.85C182.21,840.758,165.4,841.13,158.155,841.037Z" transform="translate(-134.1 -829.788)"/>
        <ellipse id="Ellipse_162" data-name="Ellipse 162" class="cls-3" cx="3.901" cy="22.383" rx="3.901" ry="22.383" transform="translate(1.659 8.501) rotate(-89.384)"/>
      </g>
      <path id="Path_3205" data-name="Path 3205" class="cls-4" d="M181.275,813.582a1.7,1.7,0,0,0-1.579.557,1.569,1.569,0,0,1-2.043.186h-.279a4.086,4.086,0,0,1,.186.928c.186,0,.372-.093.65-.093a2.567,2.567,0,0,0,.093.836c-.093.094-.186.186-.279.186-.186-.279-.372-.743-.743-.929a6.531,6.531,0,0,0-.836-.557,1.185,1.185,0,0,0,.464-.65c-.279-.094-.464-.279-.743-.279-.186,0-.371.279-.65.372a.614.614,0,0,1-.557.092,5.065,5.065,0,0,1-.836-.65h0a15.853,15.853,0,0,0,2.043-.371c.186,0,.464-.279.557-.465.279-.557.279-1.207.65-1.579a3.966,3.966,0,0,0,1.022-1.95.613.613,0,0,0-.093-.557,5.084,5.084,0,0,0-.65-.836,3.242,3.242,0,0,1-.743.464c-.279.093-.65,0-.929.093-.186.093-.465.186-.557.371-.371.65-.65.836-1.022.743a.559.559,0,0,0-.093-.372c-.186,0-.279-.093-.557-.093l-.093-.092h-.093c-.186-.094-.464-.094-.743-.186l-.464.464c-.093.093-.279.371-.186.464,0,.093,0,.093.093.185a.481.481,0,0,1-.372.186.927.927,0,0,0-.372-.464h-.093a5.639,5.639,0,0,0-.743-.743c.372-.371.743-.278,1.486.557.279-.835,1.3-1.114,1.114-2.229a.418.418,0,0,1,.279-.279l1.114-.279c.372-.093.836-.186,1.207-.278v-.278a1.725,1.725,0,0,0-.65-.186c-.65.186-.743-.371-.743-.65,0-.186.372-.465.557-.65s.371-.185.557-.371a.782.782,0,0,0-.65,0,5.544,5.544,0,0,0-1.858.743c-.557.371-.836,1.021-1.672.743a.939.939,0,0,0-.279.092,10.343,10.343,0,0,1-.464-1.207c-.093-.185,0-.371,0-.464.093-.279.186-.464.279-.743.186-.465-.371-1.115.279-1.487.093-.093.279-.093.464-.186,0,.186-.093.279-.093.465s-.093.371-.093.558c.186,0,.464.092.65.092a6.982,6.982,0,0,0,1.114-.65c-.372-.093-.929.092-1.022-.557.371-.093.65,0,.929-.186.186-.093.279-.465.372-.65-.279,0-.557-.186-.743-.094s-.372.372-.557.464a1.575,1.575,0,0,1-.464.186c-.279-.094-.557-.279-1.022-.464.279-.186.464-.371.743-.557a1.142,1.142,0,0,1,.186-1.765c-.743-.464-1.207.186-1.672.371-.557.186-1.115.372-1.579.557-.279,1.115-1.022,1.3-1.858.65a3.4,3.4,0,0,1-1.3.186c-.093,0-.093,0-.186-.093s-.279-.186-.371-.279c-.186-.185-.65-.093-1.114-.185,0,0-.093-.279,0-.279.279-.093.65-.185,1.022-.278,0-.557-.465-.743-.929-.929a9.354,9.354,0,0,0-1.3-.743c-.836-.372-1.579-.929-2.508-.65-.279.093-.65-.093-.929-.186-.371-.093-.743-.186-1.207-.278.093.371.186.557.279.929a10.085,10.085,0,0,0-1.672,0c-.557.093-.929.186-1.393-.279-.093-.093-.186,0-.279,0v-.093a.091.091,0,0,1-.093.093.7.7,0,0,0-.372.186.57.57,0,0,0-.093.557c.186.557.371,1.207.464,1.578a15.051,15.051,0,0,0-1.765.372v.371c.371.093.743.093,1.207.186a2.743,2.743,0,0,0-.186,1.207c.093.558.186,1.486.557,1.579a.953.953,0,0,1,.557.464c-.279-.185-.557-.278-.836-.464-.836-.371-1.579-.928-2.508-.65-.279.093-.65-.093-.929-.186-.371-.092-.743-.185-1.207-.278.093.372.186.557.279.929a10.059,10.059,0,0,0-1.672,0c-.557.093-.929.185-1.393-.279-.093-.093-.557.093-.836.186a.569.569,0,0,0-.093.557c.186.557.371,1.207.464,1.579a15.1,15.1,0,0,0-1.765.371v.372c.371.093.743.093,1.207.187a2.737,2.737,0,0,0-.186,1.206c.093.558.186,1.486.557,1.579.836.372.65,1.393,1.3,1.857-.279.093-.557.093-.65-.093a22.592,22.592,0,0,0-1.858-1.3,1.588,1.588,0,0,0-.65-.092c-.557.185-1.115.65-1.579.65a3.807,3.807,0,0,0-2.043.65.511.511,0,0,0-.279.464,3.479,3.479,0,0,0-.093,1.022c.279.093.557.093.836.186.279.185.464.464.743.557a.815.815,0,0,0,.65.093c1.114-.278,1.486,0,1.3,1.115.557.093,1.207.279,1.765.372.093,0,.186.092.279.092V816c-.557,0-.743-.279-.65-1.393-.557.278-1.207.093-1.765.278l-.093-.093c0,.093-.093.093-.093.186a1.651,1.651,0,0,0-.464.372.415.415,0,0,1-.464,0,8.132,8.132,0,0,1-.929-.558c-.372-.185-.743-.464-1.115-.65-.093.093-.093.186-.186.186.093.185.186.464.371.557.557.371.279.743,0,1.021-.093.186-.557.093-.836,0a1.725,1.725,0,0,1-.65-.186.762.762,0,0,0,.464.464,4.348,4.348,0,0,0,.929.465h-.093c-.557,0-.557.464-.186.836l1.672,1.672a2.074,2.074,0,0,0,.464.278c-.186.093-.372.093-.464.186-.464.186-.557,1.021-1.207.836-.186,0-.279-.186-.464-.186.093-.093.279-.185.371-.278.186-.093.279-.186.464-.279a.928.928,0,0,0-.371-.465c-.371-.185-.836-.185-1.3-.371.186.371.743.557.372,1.115-.279-.186-.464-.464-.743-.557-.186-.093-.464.186-.743.279.186.186.279.464.464.65.186.093.464,0,.743,0a.711.711,0,0,1,.464.186,6.118,6.118,0,0,1,.372,1.022c-.372-.093-.557-.093-.929-.186a1.345,1.345,0,0,1-.186.651.708.708,0,0,0-.186-.465c-.186-.093-.557-.093-.836-.186a4.66,4.66,0,0,1-.186,1.115h-.093c0,.093,0,.186.093.186a1.055,1.055,0,0,0,.279.743c.186-.093.279-.185.464-.185.186.092.464.092.557.185,0,.371-.279.557-.557.743a1.419,1.419,0,0,1-1.486-.093c-.372-.186-.65-.557-1.208-.186a1.15,1.15,0,0,0,.186,2.043l.836.279c.372.093.557.278.279.65a.8.8,0,0,0,0,.65,5.9,5.9,0,0,0,.929,1.115c-.186.278-.371.464-.464.65.279.092.464.278.743.278.929.093,1.951.186,2.972.279.464.093.836.186.836.743,0,.093.279.279.371.372a6.1,6.1,0,0,0,.65.186,15.252,15.252,0,0,1-2.043,1.115v.278c1.022.093,2.136.186,3.158.279h.65c.372,0,.743,0,.836.464s-.186.65-.464.836c-.65.464-.743,1.207-.186,1.393a3.9,3.9,0,0,0,1.486.093,3.116,3.116,0,0,1,.929,0,1.559,1.559,0,0,0,1.672-.186c.372-.186.557-.279.836.094a1.321,1.321,0,0,0,.557.185,8.516,8.516,0,0,0,1.3-.65c0-.186-.093-.372-.093-.557,1.393,0,1.672-.094,2.229-1.022-.372-.093-.65-.186-1.022-.279.186-.186.279-.279.279-.371-.186-.279-.371-.464-.557-.743,0-.093.093-.093.093-.186h.743c.929.094,1.207.929,1.672,1.579s1.3,1.114,1.95.743c-.093-.185-.186-.279-.279-.464,0-.186-.093-.372,0-.557.093-.093.372-.279.464-.186l.279.279.186-.279v-.743h.093l-.093-.651h-.093a1.146,1.146,0,0,1-.743-.371c.186-.093.371-.372.464-.372.186,0,.464,0,.557-.093l1.579-1.208c0-.092-.093-.186-.093-.278h.557c.464.092.65.278.836.929l.836,1.022a.341.341,0,0,1,.278-.093c.093.742.557.836,1.208.836a7.206,7.206,0,0,0,1.393-.186.415.415,0,0,0,.279-.371,1.536,1.536,0,0,1,1.207-.929c.093.279.279.464.372.743-.836.464-1.672,1.022-2.508,1.486a1.539,1.539,0,0,0-1.951,0,.866.866,0,0,0,1.208.557,1.684,1.684,0,0,1,1.858.279c.464.464,1.3.557,1.207,1.486,0,.093.186.371.371.371a21.489,21.489,0,0,0,2.415.371c.279,0,.557-.278,1.021-.465l.186.187a6.084,6.084,0,0,1-.743.836c.279.464.836.371,1.3.278a8.006,8.006,0,0,0,1.486-.093,3.215,3.215,0,0,0,2.415-.836,2.305,2.305,0,0,1,.836-.372,10.286,10.286,0,0,0,1.207-.464c-.279-.278-.464-.371-.743-.65a7.29,7.29,0,0,0,1.393-.928,1.426,1.426,0,0,1,1.3-.557c.186,0,.464-.372.557-.65.093-.093-.093-.372-.186-.557-.464-.372-.929-.836-1.3-1.115a16.613,16.613,0,0,1,1.3-1.208c-.093-.093-.093-.186-.186-.278l-1.114.557c-.186-.372-.186-.835-.464-1.114-.372-.465-.929-1.115-1.3-1.115-.929.185-1.3-.743-2.136-.836a.942.942,0,0,1,.65-.372c.743,0,1.486.093,2.322.093a1.18,1.18,0,0,0,.65-.371c.371-.464.557-1.115,1.022-1.394a3.487,3.487,0,0,0,1.393-1.672c.093-.092,0-.371,0-.557a8.536,8.536,0,0,0-.464-.929,2.965,2.965,0,0,1-.836.279c-.279,0-.65-.094-.929-.094a1.007,1.007,0,0,0-.65.278c-.464.465-.743.651-1.114.558a.091.091,0,0,1,.093-.093,2.237,2.237,0,0,1,.743-.558c.279-.186.65-.371,1.115-.651a6.717,6.717,0,0,1-.836-.464,6.567,6.567,0,0,0,1.114-1.207,1.486,1.486,0,0,1,1.208-.836c.186,0,.371-.464.464-.743a1.236,1.236,0,0,0-.278-.464l-1.486-.743c.186-.278.371-.557.65-.929a2.091,2.091,0,0,0,1.022-.743c.371-.557.65-1.021,1.3-1.207a.789.789,0,0,0,.279-.464C181.74,813.768,181.461,813.582,181.275,813.582ZM140.41,824.448h0a.693.693,0,0,1,.464.093c.65-.372,1.114-.278,1.393,0a3.275,3.275,0,0,1-.743.464,1.371,1.371,0,0,1-.836.093C140.5,825.005,140.317,824.541,140.41,824.448Zm-.186.464c-.743.464-.836.464-.836-.557Zm-.186,2.786c-.279-.093-.372-.557-.65-.928.464-.278.836-.743,1.207-.743.279,0,.65.465.929.743A1.167,1.167,0,0,1,140.038,827.7Zm1.95-1.393c-.186-.186-.557-.464-.464-.65.186-.279.464-.557.65-.836.093.186.279.372.464.65A3.247,3.247,0,0,1,141.989,826.306Zm.929-7.058c0,.093-.093.093-.186.186v-.186l.186-.185c-.093,0,0,.092,0,.185Zm12.538-4.644v.743c-.093-.186-.279-.372-.372-.557A.7.7,0,0,1,155.456,814.6Zm-6.316,5.2a1.18,1.18,0,0,1,.836-.65c.372,0,.372.186.372.465l.371-.557a1.341,1.341,0,0,1,.186.65c.093.093.279.186.371.279.186.371.279.742.465,1.114l-.186.186c-.464-.279-.836-.464-1.3-.743-.186.464-.929,1.022-1.393.743a.091.091,0,0,1-.093-.092C148.954,820.64,149.047,820.176,149.14,819.8Zm-.65-9.844v.093s-.093-.093,0-.093Zm-1.115,10.216c.093.092.186.185.186.278h-.278l-.186-.186C147.283,820.176,147.283,820.083,147.375,820.176Zm-2.136-2.88v-.464c.464.093.65.464.65,1.115-.093,0-.186-.093-.279-.093C145.518,817.668,145.332,817.483,145.239,817.3Zm.743,5.108c-.186,0-.279-.371-.371-.743.557.093,1.207.279,1.764.372.093-.093.093-.186.186-.186,0-.093-.093-.093-.093-.186.464.186,1.022.372,1.486.558a6.3,6.3,0,0,1,.743.278c.186.093.372.279.557.371a.326.326,0,0,1-.093.186c-.65-.093-1.393.464-1.951-.279h0l-.093-.093v-.093h0l-.186-.186A6.817,6.817,0,0,1,145.982,822.4Zm.557,2.972,1.3-1.95c.464-.186.65.093,1.022.464a5.034,5.034,0,0,1-.743-.092c.093.278.186.743.093.743A2.629,2.629,0,0,1,146.54,825.376Zm2.6,6.873c-.186-.093-.464-.093-.65-.185a3.844,3.844,0,0,1-1.022-.651c-.093-.093.279-.557.372-.836.093,1.115.464,1.394,1.3,1.115v-.743h-.65c.093-.279.186-.557.279-.93.279.279.557.465.743.651.279.371.557.836,1.115.743.186,0,.372.372.65.743C150.44,832.249,149.883,832.714,149.14,832.249Zm1.95.65a1.265,1.265,0,0,1,1.95.743A1.91,1.91,0,0,1,151.091,832.9Zm3.344-1.114c0-.093-.093-.186-.093-.279a4.395,4.395,0,0,1-.836-.557c-.186-.186-.279-.372-.464-.557.186,0,.372-.093.557-.093a1.581,1.581,0,0,1,.65.093,1.3,1.3,0,0,1,.65.557C154.9,831.228,154.62,831.507,154.434,831.785Zm.278-4.83c-.093-.092-.186-.092-.278-.186.093-.185.186-.278.278-.464h.093c.093.093.279.093.372.186A2.174,2.174,0,0,1,154.713,826.955Zm-.278-10.123c-.093,0-.093-.093-.186-.093.464,0,.65-.186.743-.464.186,0,.371.093.557.093.093.186.093.371.279.557A7,7,0,0,0,154.434,816.832Zm12.817-4.922a1.048,1.048,0,0,1,1.022-.279c-.186,0-.279.093-.464.186-.279.186-.464.371-.65.464h-.093A.705.705,0,0,0,167.251,811.91Zm.186,8.637.186.743c-.279.186-.464-.186-.65-.464A2,2,0,0,1,167.437,820.547Zm-2.136-7.43c-.186.094-.279.186-.464.186-.279-.186-.279-.557-.279-1.208C164.836,812.467,165.115,812.839,165.3,813.117Zm-3.622-4.922h.557a.557.557,0,0,0-.093.371h-.371c0,.185-.093.371-.093.557A1.572,1.572,0,0,1,161.678,808.2Zm-2.043,1.671a5.314,5.314,0,0,0,1.207-.093c-.371.557-.65.557-1.207.093Zm1.207,1.208h0a.288.288,0,0,1-.186.092h0C160.657,811.074,160.75,811.074,160.842,811.074Zm-4.365,5.015v0Zm3.065-10.216a1.235,1.235,0,0,0-.464-.094c-.279-.835-1.115-.557-1.672-.835a.982.982,0,0,1-.557-.65A3.108,3.108,0,0,1,159.542,805.873Zm-2.322,10.588h-.557a.558.558,0,0,0,.093-.371h.372V816h.093Zm0-.465a.34.34,0,0,1,.093-.278c-.093,0,0,.093-.093.278Zm2.879-1.207c.093-.186.186-.278.279-.464-.372.186-.65.372-1.022.557a8.986,8.986,0,0,0-1.579.093.711.711,0,0,0-.464.186v-.186c.186-.093.279-.186.279-.371,0-.093-.093-.186-.186-.279,0-.093,0-.093.093-.186a1.572,1.572,0,0,1,.557-.557h.557c.186.092.186.279.186.464l.186-.279c.465.279.743.279,1.3-.186a1.662,1.662,0,0,1,.65.464C160.657,814.418,160.471,814.7,160.1,814.789Zm1.672,13.374a8.97,8.97,0,0,0-.836-.65c.093-.093.093-.185.186-.279h.929v.093c.186.093.464.093.557.185A5.1,5.1,0,0,1,161.771,828.163Zm.836-18.853a2.372,2.372,0,0,1-.186-.65l.557-.836a7.989,7.989,0,0,1,1.486.093c.186,0,.279.371.371.743-.557-.093-1.207-.279-1.765-.372-.093.093-.093.185-.186.185.279.465.557.929.929,1.487a3.391,3.391,0,0,1-.65.279A2.48,2.48,0,0,1,162.607,809.31Zm.929,11.238a1.672,1.672,0,0,0-.557-.836c.279-.093.557-.093.65.093a22.629,22.629,0,0,0,1.857,1.3,1.573,1.573,0,0,0,.65.093c.093,0,.186-.093.279-.093-.093.186-.093.372-.186.465s-.279.279-.279.185c-.557-.372-1.393,0-1.95-.743C163.907,820.826,163.722,820.733,163.536,820.547Zm.372,7.987c.743-.928.743-.928,1.393-.278C164.929,828.627,164.558,829.092,163.907,828.534Zm1.207-2.136a.406.406,0,0,1-.279.093c-.093-.279-.093-.557-.186-.743h-.464c-.093-.185-.093-.372-.186-.557a15.144,15.144,0,0,0,1.765-.372v-.372h-.186v-.093a6.092,6.092,0,0,0-.65-.186V823.7a5.254,5.254,0,0,1,1.207,0c.372.093.465,0,.465-.371,0-.278.093-.743.279-.836a1.608,1.608,0,0,1,.929.092l.093.65A11.552,11.552,0,0,0,165.115,826.4Zm3.808-1.579a7.656,7.656,0,0,0-1.393,1.022c-.279.278-.464.557-.093.928a2.019,2.019,0,0,1,.464.743s-.279.186-.464.278c0-.278-.186-.464-.557-.464,0-.65-.65-.65-.929-.836.371-.65.65-1.3,1.022-1.858.186-.186.464-.371.65-.557.186-.093.279-.186.464-.278l.093.278a.341.341,0,0,0,.279.093h1.114A2.172,2.172,0,0,1,168.923,824.819Zm1.95,3.437a4.372,4.372,0,0,1,.464-.186c.65.557,1.207-.186,1.858-.186a2.722,2.722,0,0,1,.836.186C173.1,828.72,171.43,828.813,170.873,828.256Z" transform="translate(-134.187 -796.4)"/>
      <g id="Group_1561" data-name="Group 1561" transform="translate(6.361 1.444)">
        <path id="Path_3206" data-name="Path 3206" class="cls-5" d="M159.829,799.668c-.372,0-.557.093-.743.093a4.1,4.1,0,0,1-.186-.929h.279a1.688,1.688,0,0,0,2.043-.186c.464-.372.836-.836,1.486-.65a1.94,1.94,0,0,1,.557.371c-.093.186-.186.465-.372.465a2.324,2.324,0,0,0-1.207,1.114c-.279.464-.836.65-1.3.929,0,0-.279-.186-.279-.372A1.023,1.023,0,0,1,159.829,799.668Z" transform="translate(-142.228 -797.954)"/>
        <path id="Path_3207" data-name="Path 3207" class="cls-5" d="M166.443,802.7a9.666,9.666,0,0,0,1.579.372c-.093.186-.186.279-.186.372.093.371.186.742.279,1.021a4.667,4.667,0,0,1-1.115.186c-.279,0-1.3-.836-1.3-1.114,0-.186.186-.279.279-.465C166.072,802.979,166.35,802.793,166.443,802.7Z" transform="translate(-142.712 -798.292)"/>
        <path id="Path_3208" data-name="Path 3208" class="cls-5" d="M149.4,804.642c-.186,0-.278.093-.464.093v.186c.279.743.186.836-.65.65a1.829,1.829,0,0,1-1.393-.928c-.279-.464-.093-.65.371-.65.371,0,.836-.093,1.207-.093C149.119,803.806,149.3,804.178,149.4,804.642Z" transform="translate(-141.363 -798.377)"/>
        <path id="Path_3209" data-name="Path 3209" class="cls-5" d="M156.7,798.2c.279.185.464.371.836.65a15.1,15.1,0,0,1-.186,1.672,1.568,1.568,0,0,0-.464-.186A15.248,15.248,0,0,0,156.7,798.2Z" transform="translate(-142.071 -797.972)"/>
        <path id="Path_3210" data-name="Path 3210" class="cls-5" d="M164.443,805.408c-.279-.371-.557-.558-.743-.835.464-.743,1.115-.094,1.579-.279,0,.092.093.092.093.185Z" transform="translate(-142.57 -798.4)"/>
        <path id="Path_3211" data-name="Path 3211" class="cls-5" d="M147.391,806c.464.185,1.022.278.743.928a.822.822,0,0,1-.464.372C147.205,807.021,147.205,806.557,147.391,806Z" transform="translate(-141.4 -798.528)"/>
        <path id="Path_3212" data-name="Path 3212" class="cls-5" d="M164.971,801.8c.372.093.743.093,1.115.186-.557.65-.929,1.021-1.3,1.487-.093,0-.093-.093-.186-.093C164.879,802.915,165.529,802.544,164.971,801.8Z" transform="translate(-142.634 -798.229)"/>
        <path id="Path_3213" data-name="Path 3213" class="cls-5" d="M149.5,806.486c.186-.463.371-.928.65-1.486C150.336,806.208,150.15,806.579,149.5,806.486Z" transform="translate(-141.558 -798.457)"/>
        <path id="Path_3214" data-name="Path 3214" class="cls-5" d="M141.925,811.6a9.293,9.293,0,0,1-.929,1.022C140.811,811.969,141.182,811.412,141.925,811.6Z" transform="translate(-140.949 -798.924)"/>
        <path id="Path_3215" data-name="Path 3215" class="cls-5" d="M151.362,810.736q-.836-.279-.279-.836A8.709,8.709,0,0,1,151.362,810.736Z" transform="translate(-141.655 -798.806)"/>
        <path id="Path_3216" data-name="Path 3216" class="cls-5" d="M153.158,811.886c.65-1.207.093-2.322.093-3.25.65-.279,1.114-.464,1.672-.65a.573.573,0,0,1,.65.093c.929.743,1.022.743,2.043.092.186-.092.279-.186.65-.371-.186.929-.279,1.672-.372,2.414,0,.092-.093.279-.093.372.279.557.093.743-.557.836a1.484,1.484,0,0,0-.929.464,1.664,1.664,0,0,1-2.043.557c-.371.465-.743.836-1.114,1.3a1.378,1.378,0,0,0-.093.651c0,.278.186.557.186.836-.743.185-1.393.279-2.043.464a1.055,1.055,0,0,1-.557-.279,1.42,1.42,0,0,1,.186-2.136.722.722,0,0,1,.093-.279c-.279.186-.557.279-.929.557l.929-1.858a.7.7,0,0,1,.464-.093.627.627,0,0,0,.557-.929c-.093-.372-.093-.836-.186-1.3.464-.186.743-.093.65.464A2.8,2.8,0,0,0,153.158,811.886Zm.929-1.207a2.864,2.864,0,0,0,3.158-1.672C156.223,809.564,155.294,810.122,154.087,810.679Zm.093-.836c.279-.186.557-.371.557-.464,0-.186-.278-.557-.372-.464a3.244,3.244,0,0,0-.743.464A6.745,6.745,0,0,1,154.18,809.843Zm-3.158,2.415c.279.185.464.372.836.651,0-.465-.093-.651-.093-1.022A2.764,2.764,0,0,1,151.022,812.258Z" transform="translate(-141.594 -798.656)"/>
        <path id="Path_3217" data-name="Path 3217" class="cls-5" d="M174.2,814.267a12.353,12.353,0,0,0-1.672.65.341.341,0,0,1-.093.279c.557.279,1.022.464,1.579.743-.279.743-.65.836-1.3.093a.716.716,0,0,0-1.115-.185,16.748,16.748,0,0,1,.743,1.95,1.143,1.143,0,0,1-.186.928c-.186.372-.743.093-.929-.371s-.372-.744-.929-.186c.186,0,.371.093.557.093l-.279.836-.279.278c-.65-.278-1.486-.093-1.95-.743a9.269,9.269,0,0,0-.929-.836c-.093.371-.093.651-.186.928-.093.093-.279.186-.371.279-.093-.093-.186-.279-.279-.372-.093-.278-.093-.65-.186-.929a1.077,1.077,0,0,1,1.114-1.393c.465,0,.929-.465,1.207.186a2.77,2.77,0,0,1,.743-.372c0,.092.093.092.093.186-.093.093-.186.093-.186.186.65.185,1.207-.093,1.114-.651-.093-.371-.093-.835.372-.928a2.358,2.358,0,0,1,1.115.185C172.434,814.267,172.9,813.246,174.2,814.267Z" transform="translate(-142.759 -799.086)"/>
        <path id="Path_3218" data-name="Path 3218" class="cls-5" d="M159.972,822.491a4.223,4.223,0,0,0-.186-.744h-2.229c-.186,0-.372-.186-.557-.371a5.192,5.192,0,0,1,.465-.743,2.007,2.007,0,0,1,.464-.278c-.093-.186-.093-.279-.186-.465a2.88,2.88,0,0,1,.743-.185c.464-.093.929.093.929.65.093.557.557.464.836.65.093,0,.279-.279.371-.464-.186-.093-.371-.279-.743-.465V819.7c.464,0,.929.093,1.393.093.093,0,.186-.279.279-.465.093-.278.093-.743.279-.836a2.683,2.683,0,0,1,1.207.093s.093.465,0,.465a9.137,9.137,0,0,0-2.786,3.157C160.251,822.305,160.158,822.4,159.972,822.491Z" transform="translate(-142.092 -799.416)"/>
        <path id="Path_3219" data-name="Path 3219" class="cls-5" d="M161.2,826.955c.372-.65.65-1.3,1.022-1.858.186-.186.464-.371.65-.557a1.947,1.947,0,0,0,.557-.372,1.285,1.285,0,0,1,1.486-.279c-.093.557-.186,1.115-.743,1.394a7.729,7.729,0,0,0-1.393,1.021c-.279.279-.464.557-.093.929a2.029,2.029,0,0,1,.464.743s-.279.186-.464.279c0-.279-.186-.464-.557-.464C162.129,827.048,161.479,827.14,161.2,826.955Z" transform="translate(-142.392 -799.793)"/>
        <path id="Path_3220" data-name="Path 3220" class="cls-5" d="M143.471,824.765v-.743c-.186-.093-.557-.093-.65-.185-.093-.187.093-.465.186-.836.279.279.557.465.743.65.279.372.557.836,1.115.836.186,0,.372.371.65.743-.836.093-1.393.557-2.043.093-.186-.093-.557-.093-.743-.186a2.375,2.375,0,0,1-.929-.65c-.093-.093.279-.557.464-.836C142.356,824.765,142.635,825.044,143.471,824.765Z" transform="translate(-141.008 -799.739)"/>
        <path id="Path_3221" data-name="Path 3221" class="cls-5" d="M143.743,817.644c-.279.835-.836,1.207-1.579.928-.278-.093-.371-.558-.464-.928.464-.279.743-.744,1.115-.744C143.093,816.993,143.372,817.458,143.743,817.644Z" transform="translate(-141.003 -799.305)"/>
        <path id="Path_3222" data-name="Path 3222" class="cls-5" d="M144.5,812.4h.743a7.066,7.066,0,0,1,.371,1.021,2.868,2.868,0,0,1,.186.743,1.725,1.725,0,0,1-.186.651c-.279-.186-.65-.279-.743-.465-.186-.465-.557-.929-.279-1.486C144.685,812.771,144.5,812.585,144.5,812.4Z" transform="translate(-141.201 -798.984)"/>
        <path id="Path_3223" data-name="Path 3223" class="cls-5" d="M154.229,827.586a7.516,7.516,0,0,1-1.393.093,2.187,2.187,0,0,1-.743-.186c-.093,0-.093-.279-.093-.279a1.968,1.968,0,0,1,.65-.279c.557.093.929-.278,1.3-.557a2.039,2.039,0,0,1,.464-.279c.093,0,.093.093.186.093C154.508,826.657,154.322,827.215,154.229,827.586Z" transform="translate(-141.736 -799.96)"/>
        <path id="Path_3224" data-name="Path 3224" class="cls-5" d="M153.8,828H155a11.977,11.977,0,0,1-.371,1.765c0,.094-.372.186-.464.094A2.522,2.522,0,0,1,153.8,828Z" transform="translate(-141.86 -800.096)"/>
        <path id="Path_3225" data-name="Path 3225" class="cls-5" d="M175.143,822.958c-1.114-.185-2.136.929-3.343-.093.279-.093.557-.278.65-.185.557.371.929,0,1.393-.093C174.308,822.4,174.772,822.216,175.143,822.958Z" transform="translate(-143.147 -799.698)"/>
        <path id="Path_3226" data-name="Path 3226" class="cls-5" d="M145.6,830.307a4.334,4.334,0,0,1-.836-.557c-.186-.186-.279-.371-.464-.558.186,0,.372-.092.557-.092a1.592,1.592,0,0,1,.65.092,1.307,1.307,0,0,1,.65.558c0,.279-.279.557-.464.743C145.6,830.493,145.6,830.4,145.6,830.307Z" transform="translate(-141.188 -800.174)"/>
        <path id="Path_3227" data-name="Path 3227" class="cls-5" d="M156.736,823.386c-.186-.186-.465-.279-.836-.65a8.958,8.958,0,0,0,.65-.836,2.457,2.457,0,0,0,.557.464l-.093.093a2.352,2.352,0,0,0,.65.185A5.337,5.337,0,0,1,156.736,823.386Z" transform="translate(-142.014 -799.661)"/>
        <path id="Path_3228" data-name="Path 3228" class="cls-5" d="M145.3,828.581c.929-.464,1.393-.279,2.043.744A2.064,2.064,0,0,1,145.3,828.581Z" transform="translate(-141.259 -800.12)"/>
        <path id="Path_3229" data-name="Path 3229" class="cls-5" d="M145.513,823.343c-.279.278-.464.558-.65.742-.186-.185-.557-.464-.464-.65.186-.279.464-.557.65-.836A3.243,3.243,0,0,0,145.513,823.343Z" transform="translate(-141.194 -799.71)"/>
        <path id="Path_3230" data-name="Path 3230" class="cls-5" d="M156.293,826.224c-.836.186-1.207-.092-1.393-.929C155.643,825.109,156.015,825.295,156.293,826.224Z" transform="translate(-141.943 -799.898)"/>
        <path id="Path_3231" data-name="Path 3231" class="cls-5" d="M159.1,823.841c.65-.929.743-1.022,1.393-.278C160.122,823.933,159.75,824.4,159.1,823.841Z" transform="translate(-142.242 -799.744)"/>
        <path id="Path_3232" data-name="Path 3232" class="cls-5" d="M167.5,814.5c.65.279,1.115.465,1.672.65C168.429,815.521,167.964,815.336,167.5,814.5Z" transform="translate(-142.84 -799.133)"/>
        <path id="Path_3233" data-name="Path 3233" class="cls-5" d="M155.76,820.5c-.186-.093-.464-.186-.464-.372,0-.279-.279-.743.464-.929.093.372.093.744.186,1.208C155.853,820.408,155.853,820.5,155.76,820.5Z" transform="translate(-141.967 -799.468)"/>
        <path id="Path_3234" data-name="Path 3234" class="cls-5" d="M144.936,828.544a5.968,5.968,0,0,1-.65.185,2.711,2.711,0,0,1-.186-.835c.093,0,.093-.093.186-.093a5.2,5.2,0,0,1,.743.558A.286.286,0,0,0,144.936,828.544Z" transform="translate(-141.173 -800.081)"/>
        <path id="Path_3235" data-name="Path 3235" class="cls-5" d="M151.736,819.293c-.093.371-.186.743-.279,1.207a1.943,1.943,0,0,1-.557-.372c.279-.371.557-.65.743-.929A.091.091,0,0,1,151.736,819.293Z" transform="translate(-141.658 -799.468)"/>
      </g>
    </g>
    <g id="Group_1564" data-name="Group 1564" transform="translate(183.142 116.785)">
      <path id="Path_3236" data-name="Path 3236" class="cls-6" d="M169.415,824.552s1.765-2.6,1.672-3.158,1.857,1.858,2.043,2.972a2.777,2.777,0,0,1,0,1.487s.929-.557,2.786.371c1.95.929,2.136.186,2.136.186s-2.508,3.065-3.715,3.437c0,0,1.3,2.321.836,4.179,0,0-1.672-1.115-2.693-1.672-1.022-.464-1.765,1.765-2.6,2.508s-1.672-3.343-1.208-4.365c0,0-3.715-.743-4.272-1.3,0,0,3.065-1.393,3.344-2.136s-1.857-.836-1.3-4.18C166.443,822.973,168.394,824.645,169.415,824.552Z" transform="translate(-164.4 -821.311)"/>
      <path id="Path_3237" data-name="Path 3237" class="cls-7" d="M171.33,825.25a11.524,11.524,0,0,0,2.229-1.486c.186-.371.557,1.857.371,2.693a2.944,2.944,0,0,1-.464.929s.743,0,1.764,1.207c.929,1.208,1.3.836,1.3.836s-2.693,1.207-3.622,1.021a5.177,5.177,0,0,1-.836,3.065s-.743-1.3-1.207-1.951-1.765.557-2.6.743,0-2.786.65-3.251c0,0-2.229-1.672-2.415-2.322,0,0,2.508.093,2.879-.279.464-.371-.929-1.207.557-3.158C169.936,823.3,170.587,825.064,171.33,825.25Z" transform="translate(-164.55 -821.453)"/>
      <g id="Group_1563" data-name="Group 1563" transform="translate(5.351 5.565)">
        <path id="Path_3238" data-name="Path 3238" class="cls-8" d="M170.29,827.891s-.465.929.372.929.557-.465.557-.558S170.662,827.52,170.29,827.891Z" transform="translate(-170.161 -827.337)"/>
        <path id="Path_3239" data-name="Path 3239" class="cls-8" d="M170.8,829.256a.541.541,0,0,0,.836.371c.279-.186.464-.742.279-.742-.186-.093-.65-.372-.836-.093S170.8,829.069,170.8,829.256Z" transform="translate(-170.207 -827.401)"/>
        <path id="Path_3240" data-name="Path 3240" class="cls-8" d="M172.625,829.029s.464-.929-.372-.929-.557.464-.557.557S172.254,829.4,172.625,829.029Z" transform="translate(-170.268 -827.36)"/>
        <path id="Path_3241" data-name="Path 3241" class="cls-8" d="M172.209,827.765a.541.541,0,0,0-.836-.372c-.279.186-.464.743-.279.743.186.093.65.372.836.093S172.209,827.858,172.209,827.765Z" transform="translate(-170.223 -827.304)"/>
      </g>
    </g>
    <g id="Group_1566" data-name="Group 1566" transform="translate(172.089 104.23)">
      <path id="Path_3242" data-name="Path 3242" class="cls-6" d="M158.073,811.422s1.95-2.879,1.858-3.53,2.043,2.043,2.229,3.251a3.606,3.606,0,0,1,0,1.672s1.022-.557,3.065.464c2.136,1.021,2.322.279,2.322.279s-2.693,3.437-4.086,3.807c0,0,1.393,2.6.929,4.644,0,0-1.858-1.207-2.972-1.764s-1.858,1.95-2.879,2.786-1.857-3.715-1.3-4.737c0,0-4.087-.743-4.737-1.486,0,0,3.343-1.486,3.715-2.322s-2.043-.929-1.393-4.643C154.915,809.75,156.958,811.515,158.073,811.422Z" transform="translate(-152.5 -807.793)"/>
      <path id="Path_3243" data-name="Path 3243" class="cls-7" d="M160.18,812.229s2.229-1.207,2.415-1.672.65,2.043.372,2.879-.557,1.022-.557,1.022.836,0,1.857,1.3,1.393.929,1.393.929-2.972,1.3-3.994,1.115a5.634,5.634,0,0,1-.929,3.343,21.506,21.506,0,0,0-1.3-2.136c-.557-.743-1.95.651-2.879.836s0-3.065.743-3.529c0,0-2.415-1.857-2.6-2.507,0,0,2.693.093,3.158-.278s-1.022-1.3.65-3.529C158.694,810,159.437,811.95,160.18,812.229Z" transform="translate(-152.657 -807.95)"/>
      <g id="Group_1565" data-name="Group 1565" transform="translate(5.978 6.091)">
        <path id="Path_3244" data-name="Path 3244" class="cls-8" d="M159.088,815.091s-.557,1.022.465,1.022c.929,0,.65-.557.65-.65S159.553,814.721,159.088,815.091Z" transform="translate(-158.937 -814.395)"/>
        <path id="Path_3245" data-name="Path 3245" class="cls-8" d="M159.6,816.555c.093.558.557.558.929.465s.557-.836.279-.836c-.186-.092-.65-.371-.929-.092C159.693,816.369,159.6,816.369,159.6,816.555Z" transform="translate(-158.984 -814.466)"/>
        <path id="Path_3246" data-name="Path 3246" class="cls-8" d="M161.611,816.322s.557-1.022-.464-1.022c-.929,0-.65.557-.65.65C160.59,816.043,161.24,816.786,161.611,816.322Z" transform="translate(-159.045 -814.418)"/>
        <path id="Path_3247" data-name="Path 3247" class="cls-8" d="M161.1,814.861c-.093-.557-.557-.557-.929-.464-.372.186-.557.835-.279.835.186.093.65.372.929.093S161.19,815.046,161.1,814.861Z" transform="translate(-158.995 -814.351)"/>
      </g>
    </g>
    <g id="Group_1568" data-name="Group 1568" transform="translate(181.563 92)">
      <path id="Path_3248" data-name="Path 3248" class="cls-6" d="M166.694,797.2a12.06,12.06,0,0,0,1.393-2.508c-.093-.464,1.486,1.487,1.579,2.322a1.969,1.969,0,0,1,0,1.207,2.816,2.816,0,0,1,2.229.279c1.486.743,1.672.186,1.672.186s-1.95,2.415-2.972,2.786a5.556,5.556,0,0,1,.65,3.344,16.434,16.434,0,0,0-2.136-1.3c-.836-.372-1.393,1.392-2.043,2.042-.743.558-1.3-2.693-.929-3.436,0,0-2.972-.557-3.436-1.021,0,0,2.415-1.115,2.693-1.672s-1.486-.65-1.022-3.343C164.465,795.995,165.951,797.3,166.694,797.2Z" transform="translate(-162.7 -794.624)"/>
      <path id="Path_3249" data-name="Path 3249" class="cls-7" d="M168.315,797.779a12.061,12.061,0,0,0,1.765-1.208c.093-.371.464,1.486.279,2.137s-.371.742-.371.742.65,0,1.393.929,1.021.65,1.021.65a9.876,9.876,0,0,1-2.879.836,4.731,4.731,0,0,1-.65,2.414s-.557-1.022-.929-1.579-1.393.464-2.043.65,0-2.229.557-2.6c0,0-1.765-1.394-1.857-1.859a7.23,7.23,0,0,0,2.322-.185c.372-.28-.743-.929.465-2.508C167.2,796.2,167.758,797.593,168.315,797.779Z" transform="translate(-162.835 -794.737)"/>
      <g id="Group_1567" data-name="Group 1567" transform="translate(4.352 4.436)">
        <path id="Path_3250" data-name="Path 3250" class="cls-8" d="M167.492,799.891s-.372.743.279.743.464-.371.464-.464S167.77,799.519,167.492,799.891Z" transform="translate(-167.386 -799.426)"/>
        <path id="Path_3251" data-name="Path 3251" class="cls-8" d="M167.9,800.958c.093.372.371.464.65.279.279-.093.372-.557.186-.65s-.465-.278-.65-.093S167.8,800.773,167.9,800.958Z" transform="translate(-167.42 -799.472)"/>
        <path id="Path_3252" data-name="Path 3252" class="cls-8" d="M169.341,800.743s.372-.743-.278-.743-.464.372-.464.465S169.063,801.115,169.341,800.743Z" transform="translate(-167.471 -799.443)"/>
        <path id="Path_3253" data-name="Path 3253" class="cls-8" d="M168.928,799.772c-.093-.372-.371-.464-.65-.279-.279.093-.371.557-.186.65s.464.278.65.092S169.021,799.865,168.928,799.772Z" transform="translate(-167.43 -799.4)"/>
      </g>
    </g>
    <g id="Group_1570" data-name="Group 1570" transform="translate(190.107 102.971)">
      <path id="Path_3254" data-name="Path 3254" class="cls-6" d="M174.872,808.353s1.114-1.486,1.022-1.858c0-.372,1.115,1.115,1.207,1.672a1.686,1.686,0,0,1,0,.835,2.367,2.367,0,0,1,1.765.186c1.207.558,1.3.093,1.3.093s-1.486,1.764-2.229,1.951a4.657,4.657,0,0,1,.557,2.414,15.67,15.67,0,0,0-1.672-.929c-.65-.278-1.022,1.022-1.579,1.486s-1.022-1.951-.743-2.508a9.458,9.458,0,0,1-2.6-.743,8.273,8.273,0,0,0,2.043-1.207c.186-.371-1.115-.464-.743-2.414C173.107,807.517,174.222,808.446,174.872,808.353Z" transform="translate(-171.9 -806.437)"/>
      <path id="Path_3255" data-name="Path 3255" class="cls-7" d="M176.072,808.807a13.676,13.676,0,0,0,1.393-.836c.093-.278.371,1.114.186,1.486a2.011,2.011,0,0,1-.279.557,1.533,1.533,0,0,1,1.022.65c.557.743.836.465.836.465a7.634,7.634,0,0,1-2.229.557,3.132,3.132,0,0,1-.557,1.765s-.464-.743-.743-1.115-1.022.372-1.579.465,0-1.579.465-1.857a8.681,8.681,0,0,1-1.486-1.3s1.486.093,1.765-.185c.279-.185-.557-.65.372-1.858C175.143,807.693,175.608,808.622,176.072,808.807Z" transform="translate(-171.986 -806.52)"/>
      <g id="Group_1569" data-name="Group 1569" transform="translate(3.181 3.217)">
        <path id="Path_3256" data-name="Path 3256" class="cls-8" d="M175.395,810.3s-.279.557.279.557.371-.278.371-.372C175.952,810.481,175.673,810.11,175.395,810.3Z" transform="translate(-175.325 -809.925)"/>
        <path id="Path_3257" data-name="Path 3257" class="cls-8" d="M175.7,811.079c.093.279.279.279.464.279s.279-.464.186-.464-.371-.186-.557,0C175.7,810.986,175.7,810.986,175.7,811.079Z" transform="translate(-175.352 -809.965)"/>
        <path id="Path_3258" data-name="Path 3258" class="cls-8" d="M176.848,810.957s.279-.557-.279-.557-.371.279-.371.372C176.291,810.772,176.569,811.143,176.848,810.957Z" transform="translate(-175.385 -809.936)"/>
        <path id="Path_3259" data-name="Path 3259" class="cls-8" d="M176.547,810.179c-.093-.278-.279-.278-.464-.278-.186.093-.279.465-.186.465s.372.185.557,0C176.547,810.272,176.547,810.272,176.547,810.179Z" transform="translate(-175.363 -809.9)"/>
      </g>
    </g>
    <g id="Group_1572" data-name="Group 1572" transform="translate(165.495 98.519)">
      <path id="Path_3260" data-name="Path 3260" class="cls-6" d="M148.465,803.925a10.218,10.218,0,0,0,1.022-2.229c0-.371,1.115,1.3,1.208,2.044a2.664,2.664,0,0,1,0,1.021s.557-.372,1.672.279,1.207.185,1.207.185-1.486,2.136-2.229,2.414a5.4,5.4,0,0,1,.465,2.88s-1.022-.743-1.579-1.115-1.022,1.208-1.579,1.765-1.022-2.322-.65-2.972c0,0-2.229-.464-2.6-.929,0,0,1.858-.928,1.951-1.486.186-.464-1.115-.557-.743-2.879C146.7,802.9,147.815,804.018,148.465,803.925Z" transform="translate(-145.4 -801.643)"/>
      <path id="Path_3261" data-name="Path 3261" class="cls-7" d="M149.565,804.5s1.207-.743,1.3-1.021.371,1.3.186,1.857a2.112,2.112,0,0,1-.279.65s.464,0,1.022.836.743.557.743.557a6.179,6.179,0,0,1-2.136.743,3.854,3.854,0,0,1-.557,2.043s-.465-.93-.743-1.393-1.022.372-1.579.558c-.464.092,0-1.951.371-2.229a8.315,8.315,0,0,1-1.393-1.579s1.486.092,1.765-.187-.557-.836.371-2.135C148.729,803.107,149.194,804.314,149.565,804.5Z" transform="translate(-145.478 -801.754)"/>
      <g id="Group_1571" data-name="Group 1571" transform="translate(3.261 3.902)">
        <path id="Path_3262" data-name="Path 3262" class="cls-8" d="M148.994,806.293s-.279.651.186.651.372-.372.372-.372C149.551,806.479,149.272,806.015,148.994,806.293Z" transform="translate(-148.911 -805.87)"/>
        <path id="Path_3263" data-name="Path 3263" class="cls-8" d="M149.3,807.167c.093.372.279.372.464.278s.279-.464.186-.557-.372-.279-.465,0S149.3,807.074,149.3,807.167Z" transform="translate(-148.939 -805.909)"/>
        <path id="Path_3264" data-name="Path 3264" class="cls-8" d="M150.357,807.05s.279-.65-.186-.65-.371.371-.371.371S150.171,807.329,150.357,807.05Z" transform="translate(-148.974 -805.885)"/>
        <path id="Path_3265" data-name="Path 3265" class="cls-8" d="M150.147,806.175c-.093-.371-.279-.371-.464-.279s-.279.465-.186.557.372.279.464,0S150.147,806.268,150.147,806.175Z" transform="translate(-148.95 -805.845)"/>
      </g>
    </g>
    <g id="Group_1574" data-name="Group 1574" transform="translate(160.851 117.589)">
      <path id="Path_3266" data-name="Path 3266" class="cls-6" d="M145.508,826.192s1.857-3.157,1.857-3.9,1.95,2.321,2.136,3.622a3.946,3.946,0,0,1,0,1.765s.929-.65,2.972.465,2.229.278,2.229.278-2.6,3.808-3.9,4.272c0,0,1.393,2.88.929,5.108a27.874,27.874,0,0,0-2.786-1.95c-1.114-.65-1.857,2.136-2.786,3.065s-1.765-4.087-1.207-5.2c0,0-3.9-.836-4.551-1.579,0,0,3.251-1.672,3.529-2.6.279-.836-1.95-1.022-1.3-5.108C142.443,824.334,144.394,826.378,145.508,826.192Z" transform="translate(-140.4 -822.177)"/>
      <path id="Path_3267" data-name="Path 3267" class="cls-7" d="M147.508,827.029a11.863,11.863,0,0,0,2.322-1.857c.186-.464.65,2.229.371,3.25s-.557,1.207-.557,1.207.836-.093,1.858,1.486c1.022,1.486,1.393,1.022,1.393,1.022s-2.786,1.486-3.808,1.3a6.751,6.751,0,0,1-.929,3.715,24.6,24.6,0,0,0-1.3-2.415c-.557-.836-1.858.743-2.693.929s0-3.344.743-3.9c0,0-2.322-2.043-2.508-2.786,0,0,2.6.093,3.065-.278s-.929-1.392.65-3.9C146.022,824.707,146.765,826.75,147.508,827.029Z" transform="translate(-140.542 -822.363)"/>
      <g id="Group_1573" data-name="Group 1573" transform="translate(5.537 6.787)">
        <path id="Path_3268" data-name="Path 3268" class="cls-8" d="M146.49,830.289s-.464,1.207.372,1.115c.929,0,.65-.65.557-.743C147.512,830.661,146.862,829.825,146.49,830.289Z" transform="translate(-146.362 -829.532)"/>
        <path id="Path_3269" data-name="Path 3269" class="cls-8" d="M147,831.845c.093.65.557.65.836.464s.557-.929.279-.929c-.186-.093-.65-.464-.929-.093S146.9,831.659,147,831.845Z" transform="translate(-146.403 -829.602)"/>
        <path id="Path_3270" data-name="Path 3270" class="cls-8" d="M148.92,831.615s.464-1.208-.372-1.115c-.929,0-.65.65-.557.743C147.9,831.336,148.549,832.079,148.92,831.615Z" transform="translate(-146.47 -829.557)"/>
        <path id="Path_3271" data-name="Path 3271" class="cls-8" d="M148.4,830.056c-.093-.651-.557-.651-.836-.464-.371.185-.557.928-.279.928.186.093.65.464.929.093S148.5,830.242,148.4,830.056Z" transform="translate(-146.418 -829.485)"/>
      </g>
    </g>
  </g>
</svg>
