<svg xmlns="http://www.w3.org/2000/svg" viewBox="0 0 218.24 40">
  <defs>
    <style>
      .cls-1 {
        fill: #b649d6;
      }
    </style>
  </defs>
  <g id="hurbanize" transform="translate(-70 -241.477)">
    <path id="Path_4860" data-name="Path 4860" class="cls-1" d="M118.126,19.987,115.587,11.9,107.5,37.289h5.172Z" transform="translate(63.586 240.767)"/>
    <path id="Path_4861" data-name="Path 4861" class="cls-1" d="M121.129,17.7,113.7,41.02h14.763Z" transform="translate(63.216 240.42)"/>
    <path id="Path_4862" data-name="Path 4862" class="cls-1" d="M52.157,33.425V14.9H37.3V33.331a7.429,7.429,0,1,0,14.857.094Z" transform="translate(67.774 240.588)"/>
    <rect id="Rectangle_940" data-name="Rectangle 940" class="cls-1" width="6.112" height="9.027" transform="translate(263.156 275.313) rotate(90)"/>
    <path id="Path_4863" data-name="Path 4863" class="cls-1" d="M168.412,40.1V14.9L162.3,11.8V37.941Z" transform="translate(60.316 240.772)"/>
    <path id="Path_4864" data-name="Path 4864" class="cls-1" d="M215.412,40.1V14.9L209.3,11.8V37.941Z" transform="translate(57.512 240.772)"/>
    <rect id="Rectangle_941" data-name="Rectangle 941" class="cls-1" width="6.112" height="13.823" transform="translate(288.24 275.336) rotate(90)"/>
    <path id="Path_4865" data-name="Path 4865" class="cls-1" d="M139.518,40.1V14.9L133.5,11.8V37.095Z" transform="translate(62.034 240.772)"/>
    <path id="Path_4866" data-name="Path 4866" class="cls-1" d="M6.112,40.1V14.9L0,11.8V37.095Z" transform="translate(70 240.772)"/>
    <path id="Path_4867" data-name="Path 4867" class="cls-1" d="M65.018,40.1V14.9L59,11.8V37.095Z" transform="translate(66.48 240.772)"/>
    <rect id="Rectangle_942" data-name="Rectangle 942" class="cls-1" width="6.112" height="11.942" transform="translate(286.279 255.554) rotate(90)"/>
    <rect id="Rectangle_943" data-name="Rectangle 943" class="cls-1" width="6.112" height="11.942" transform="translate(89.549 264.695) rotate(90)"/>
    <path id="Path_4868" data-name="Path 4868" class="cls-1" d="M17.3,11.8V22.426h4.8v9.121H17.3v5.548L23.412,40.1V14.9Z" transform="translate(68.968 240.772)"/>
    <rect id="Rectangle_944" data-name="Rectangle 944" class="cls-1" width="25.483" height="6.112" transform="translate(236.476 255.994) rotate(90)"/>
    <path id="Path_4869" data-name="Path 4869" class="cls-1" d="M141.7,41.026V17.8l13.353,23.226Z" transform="translate(61.545 240.414)"/>
    <path id="Path_4870" data-name="Path 4870" class="cls-1" d="M149.9,27.6V11.8l6.112,3.1V38.129Z" transform="translate(61.056 240.772)"/>
    <rect id="Rectangle_945" data-name="Rectangle 945" class="cls-1" width="2.257" height="7.993" transform="translate(282.427 266.77) rotate(90)"/>
    <path id="Path_4871" data-name="Path 4871" class="cls-1" d="M194.924,20,182.7,41.158h10.908v-7.8h4.231V20Z" transform="translate(59.099 240.283)"/>
    <rect id="Rectangle_946" data-name="Rectangle 946" class="cls-1" width="6.112" height="17.208" transform="translate(258.79 252.507) rotate(90)"/>
    <path id="Path_4872" data-name="Path 4872" class="cls-1" d="M29.3,11.8V30.419l6.018,3.009V14.9" transform="translate(68.252 240.772)"/>
    <path id="Path_4873" data-name="Path 4873" class="cls-1" d="M74.053,30.7a8.868,8.868,0,0,1-5.642,1.881H67V41.8H80.353Z" transform="translate(66.002 239.645)"/>
    <path id="Path_4874" data-name="Path 4874" class="cls-1" d="M67.1,30.045V15H68.51a7.523,7.523,0,0,1,0,15.045Z" transform="translate(65.996 240.582)"/>
    <path id="Path_4875" data-name="Path 4875" class="cls-1" d="M92.3,30.045V15h1.41a7.523,7.523,0,1,1,0,15.045Z" transform="translate(64.493 240.582)"/>
    <path id="Path_4876" data-name="Path 4876" class="cls-1" d="M89.912,40.1V14.9L83.8,11.8V37.095Z" transform="translate(65 240.772)"/>
    <path id="Path_4877" data-name="Path 4877" class="cls-1" d="M93.7,32.431H92.1v9.215h1.693A8.935,8.935,0,0,0,101.5,28.2,9.212,9.212,0,0,1,93.7,32.431Z" transform="translate(64.505 239.794)"/>
    <path id="Path_4878" data-name="Path 4878" class="cls-1" d="M168.532,9.873V0A4.978,4.978,0,0,0,164.3,4.984,4.953,4.953,0,0,0,168.532,9.873Z" transform="translate(60.197 241.477)"/>
    <path id="Path_4879" data-name="Path 4879" class="cls-1" d="M170.6,0V9.873a4.947,4.947,0,0,0,4.043-4.89A5.143,5.143,0,0,0,170.6,0Z" transform="translate(59.821 241.477)"/>
  </g>
</svg>
