<svg xmlns="http://www.w3.org/2000/svg" viewBox="0 0 62.896 50">
  <defs>
    <style>
      .cls-1 {
        fill: #fff;
      }
    </style>
  </defs>
  <g id="s2" transform="translate(-148.552 -79.001)">
    <path id="Path_3273" data-name="Path 3273" class="cls-1" d="M151.691,131.793l-3.444-.574c-3.253-.574-6.6-1.052-9.854-1.626a4.1,4.1,0,0,0-2.966.574,7.886,7.886,0,0,1-6.219.957c-1.913-.478-2.487-1.722-1.626-3.54.574-1.148,1.052-2.392,1.626-3.54a.717.717,0,0,1,.765-.478h3.731c-.383,1.435-1.052,2.679-1.435,4.114a1.883,1.883,0,0,0,2.009-.1,5.2,5.2,0,0,1,4.114-.861,21.6,21.6,0,0,0,2.774.383c1.435-4.879,2.774-9.758,4.209-14.733-1.052-.191-2.009-.383-3.061-.478a.813.813,0,0,0-.478.287c-.574.67-1.148,1.435-1.722,2.1a1.993,1.993,0,0,1-2.009.574c-.67-.191-.574-.67-.383-1.148.574-1.435,1.052-2.774,1.626-4.209.191-.478.478-1.244.765-1.244a2.71,2.71,0,0,1,2.583,1.052c.383.67.861.574,1.435.765,1.531.574,2.966-.1,4.5-.383,2.2-.478,4.4-1.052,6.6-1.531.1,0,.191-.1.383-.1v-.1c-.861-2.2-.478-3.54,1.626-4.784a16,16,0,0,1,6.219-2.1,28.931,28.931,0,0,1,13.394.957,10.42,10.42,0,0,1,3.635,2.009,3.134,3.134,0,0,1,0,5.071,11.012,11.012,0,0,1-5.262,2.392c-1.531.287-3.157.478-4.688.67a.618.618,0,0,0-.478.191,1.36,1.36,0,0,0,.574.191,8.638,8.638,0,0,1,3.444,1.148.575.575,0,0,0,.383.1c.765-.191,1.531-.287,2.3-.478,0-.383-.1-.765-.1-1.148h1.531c.1,0,.287.287.383.383a2,2,0,0,0,.383.574,5.306,5.306,0,0,0,.765.574,5.49,5.49,0,0,1-.765.861v.67h-1.818c-.1-.287-.1-.478-.191-.765-.574.1-1.148.287-1.722.383.287,1.913-.1,2.679-1.913,3.444a10.765,10.765,0,0,1-6.027.67,1.628,1.628,0,0,0-.67.1c-4.4,3.253-8.8,6.6-13.2,9.854-.1,0-.1.1-.191.191.67.1,1.244.478,2.009,0a22.909,22.909,0,0,1,11-3.731,30.169,30.169,0,0,1,15.116,2.3,15.766,15.766,0,0,1,6.793,5.166,9.063,9.063,0,0,1-1.052,12.341,17.828,17.828,0,0,1-8.132,4.4,28.919,28.919,0,0,1-20.76-1.818,15.094,15.094,0,0,1-6.6-5.645,8.691,8.691,0,0,1-.1-9.567c.1-.1.1-.191.191-.383C151.691,131.985,151.691,131.889,151.691,131.793Zm9.089-1.626c.574.1,1.052.191,1.626.287a14.6,14.6,0,0,1,5.645,1.531,8.958,8.958,0,0,1,3.54,3.253,1.229,1.229,0,0,1-.957,2.009,2.773,2.773,0,0,1-2.392-.574c-.957-.67-1.913-1.339-2.87-1.913-2.392-1.339-5.166-1.531-7.845-2.009a.787.787,0,0,0-.574.383,5.474,5.474,0,0,0-.287,6.219,10.738,10.738,0,0,0,4.5,4.018,20.821,20.821,0,0,0,15.881,1.148,12.1,12.1,0,0,0,5.549-3.444,5.356,5.356,0,0,0,.574-6.793,9.49,9.49,0,0,0-3.731-3.54,20.229,20.229,0,0,0-14.351-2.1A10.142,10.142,0,0,0,160.78,130.167Zm1.531-13.968c.1-.67-.1-.861-.765-1.052-3.253-.574-6.41-1.148-9.663-1.722a27.436,27.436,0,0,0-2.966-.478c-1.148,4.975-2.2,9.854-3.348,14.829a7.252,7.252,0,0,1,1.531.287,1.656,1.656,0,0,0,1.626-.383c4.5-3.157,8.9-6.41,13.394-9.567a11.947,11.947,0,0,1,1.148-.765h-.287l-1.435.287c-1.148.287-1.148.287-1.244,1.435a.094.094,0,0,1-.1.1h-1.913v-1.052c-.191-.1-.383-.1-.574-.191-.383-.191-.383-.861,0-.957.765-.1.765-.574.765-1.148H160.4v.861A18.6,18.6,0,0,1,162.311,116.2Zm7.271-6.314c1.626-.383,3.253-.574,4.783-1.052a7.121,7.121,0,0,0,2.583-1.531,1.573,1.573,0,0,0,.1-2.487,6.4,6.4,0,0,0-2.392-1.531,18.062,18.062,0,0,0-9.28-1.052,12.437,12.437,0,0,0-5.071,1.531,2.918,2.918,0,0,0-1.531,1.818c-.191.861.287,1.435,1.148,1.244,1.722-.383,3.54-.861,5.262-1.244.957-.191,1.913-.478,2.87-.67s1.244.1,1.244,1.052C169.39,107.11,169.486,108.354,169.582,109.885Zm-18.751,1.052v.1c.1,0,.287.1.383.1,4.018.67,7.941,1.435,11.959,2.1a1.865,1.865,0,0,0,.765-.1c.861-.287,1.722-.478,2.583-.765.191-.1.478-.1.67-.191v-.191c-.191,0-.478-.1-.67-.1a22.336,22.336,0,0,1-8.993-2.3c-.1-.1-.383-.1-.478-.1C154.944,109.885,152.935,110.459,150.83,110.937Zm18.56,6.219c.574-.191,1.531-.383,2.487-.765,1.148-.478,1.052-1.339.1-2.009a7.1,7.1,0,0,0-6.506-.1c-.957.574-.957,1.339,0,1.913A5.988,5.988,0,0,0,169.39,117.156Zm-2.2-7.462c-.1-.957-.1-1.818-.191-2.679-1.913.478-3.731.957-5.549,1.339A14.438,14.438,0,0,0,167.19,109.694Z" transform="translate(21.36 -21.712)"/>
  </g>
</svg>
