<svg xmlns="http://www.w3.org/2000/svg" viewBox="0 0 80 42.043">
  <defs>
    <style>
      .cls-1 {
        fill: #fff;
      }
    </style>
  </defs>
  <g id="s5" transform="translate(-252 -165)">
    <path id="Path_3295" data-name="Path 3295" class="cls-1" d="M315.116,226.69c-2.655.774-5.2,1.438-7.745,2.213-2.987.885-5.864,1.66-8.851,2.545a1.056,1.056,0,0,1-1.328-.332c-4.979-5.2-10.068-10.4-15.047-15.6a1.7,1.7,0,0,0-1.438-.553c-9.183.111-18.366.111-27.438.111h-1.66c-.443-1.992-.774-3.983-1.217-5.864-.664-3.1-1.217-6.085-1.881-9.183-.332-1.881-.111-2.766,2.545-3.762a12.281,12.281,0,0,1,7.966,0,5.96,5.96,0,0,1,1.438.774,1.771,1.771,0,0,1,0,3.1,9.1,9.1,0,0,1-4.094,1.438,1.4,1.4,0,0,0-.664.111c.332,1.328.774,2.545,1.106,3.762,0,.111.553.221.885.221h19.141a1.262,1.262,0,0,1,.664.332c.332,1.106.553,2.213.885,3.319H258.137c0,1.328,0,1.328,1.328,1.328h24.783a1.832,1.832,0,0,1,1.438.553c4.647,4.2,9.294,8.519,13.83,12.723a1.317,1.317,0,0,0,1.217.332c2.766-.774,5.643-1.438,8.409-2.213a1.251,1.251,0,0,1,1.217.221C311.8,223.7,313.346,225.141,315.116,226.69Z" transform="translate(16.884 -30.6)"/>
    <path id="Path_3296" data-name="Path 3296" class="cls-1" d="M281.062,218.231l.664.332c1.328,1,2.655,1.881,3.872,2.877,1.328,1,1.549,1.881.885,3.209a32.127,32.127,0,0,1-2.213,3.651c-.443.664-1.328,1.106-1.881,1.77-2.213,2.323-5.311,3.651-8.409,4.647a28.009,28.009,0,0,1-9.072,1.66H259.6a12.2,12.2,0,0,1-1.991-.221c-1.217-.221-2.545-.443-3.762-.774a24.568,24.568,0,0,1-11.728-5.864,13.036,13.036,0,0,1-4.094-6.749,9.933,9.933,0,0,1,.774-6.417,16.567,16.567,0,0,1,2.877-3.983,23.545,23.545,0,0,1,7.3-4.647c.885-.332,1.106-.332,1.217.443a10.363,10.363,0,0,0,.443,1.77c.111.443,0,.774-.553,1.106a11.684,11.684,0,0,0-5.421,5.421,6.9,6.9,0,0,0-.553,3.983c.443,2.766,2.1,4.868,4.647,6.749a21.752,21.752,0,0,0,9.4,3.651,29.246,29.246,0,0,0,10.289-.221,23.415,23.415,0,0,0,6.749-2.434,13.123,13.123,0,0,0,4.647-4.2,7.394,7.394,0,0,0,1.106-5.421v-.221C280.951,218.452,280.951,218.452,281.062,218.231Z" transform="translate(14.221 -29.333)"/>
  </g>
</svg>
