<svg xmlns="http://www.w3.org/2000/svg" viewBox="0 0 37.887 60">
  <defs>
    <style>
      .cls-1 {
        fill: #a86622;
      }

      .cls-2 {
        fill: #7c4411;
      }

      .cls-3 {
        fill: #3f2302;
      }

      .cls-4 {
        fill: #049904;
      }

      .cls-5 {
        fill: #17c417;
      }

      .cls-6 {
        fill: #8e0d16;
      }

      .cls-7 {
        fill: #d50008;
      }

      .cls-8 {
        fill: #f0bf44;
      }
    </style>
  </defs>
  <g id="b2" transform="translate(-161.552 -715)">
    <g id="Group_1562" data-name="Group 1562" transform="translate(161.552 716.297)">
      <g id="Group_1560" data-name="Group 1560" transform="translate(0 24.373)">
        <path id="Path_3203" data-name="Path 3203" class="cls-1" d="M134.1,835.6l6.5,27.083c0,2.555,8.468,2.92,12.118,2.993s12.191-.146,12.191-2.7l7.081-26.937Z" transform="translate(-134.1 -831.357)"/>
        <path id="Path_3204" data-name="Path 3204" class="cls-2" d="M153.007,838.63c-5.694-.073-18.907-.657-18.907-4.6.073-4.015,13.286-4.307,18.98-4.234s18.907.657,18.907,4.6C171.914,838.411,158.7,838.7,153.007,838.63Z" transform="translate(-134.1 -829.788)"/>
        <ellipse id="Ellipse_162" data-name="Ellipse 162" class="cls-3" cx="3.066" cy="17.593" rx="3.066" ry="17.593" transform="translate(1.304 6.682) rotate(-89.384)"/>
      </g>
      <path id="Path_3205" data-name="Path 3205" class="cls-4" d="M171.441,809.905a1.337,1.337,0,0,0-1.241.438,1.233,1.233,0,0,1-1.606.146h-.219a3.212,3.212,0,0,1,.146.73c.146,0,.292-.073.511-.073a2.021,2.021,0,0,0,.073.657c-.073.073-.146.146-.219.146-.146-.219-.292-.584-.584-.73a5.107,5.107,0,0,0-.657-.438.932.932,0,0,0,.365-.511c-.219-.073-.365-.219-.584-.219-.146,0-.292.219-.511.292a.483.483,0,0,1-.438.073,4.016,4.016,0,0,1-.657-.511h0a12.369,12.369,0,0,0,1.606-.292c.146,0,.365-.219.438-.365.219-.438.219-.949.511-1.241a3.119,3.119,0,0,0,.8-1.533.483.483,0,0,0-.073-.438,4.012,4.012,0,0,0-.511-.657,2.561,2.561,0,0,1-.584.365c-.219.073-.511,0-.73.073-.146.073-.365.146-.438.292-.292.511-.511.657-.8.584a.439.439,0,0,0-.073-.292c-.146,0-.219-.073-.438-.073l-.073-.073h-.073c-.146-.073-.365-.073-.584-.146l-.365.365c-.073.073-.219.292-.146.365,0,.073,0,.073.073.146a.379.379,0,0,1-.292.146.729.729,0,0,0-.292-.365H163.7a4.406,4.406,0,0,0-.584-.584c.292-.292.584-.219,1.168.438.219-.657,1.022-.876.876-1.752a.329.329,0,0,1,.219-.219l.876-.219c.292-.073.657-.146.949-.219v-.219a1.355,1.355,0,0,0-.511-.146c-.511.146-.584-.292-.584-.511,0-.146.292-.365.438-.511s.292-.146.438-.292a.617.617,0,0,0-.511,0,4.371,4.371,0,0,0-1.46.584c-.438.292-.657.8-1.314.584a.735.735,0,0,0-.219.073,8.192,8.192,0,0,1-.365-.949c-.073-.146,0-.292,0-.365.073-.219.146-.365.219-.584.146-.365-.292-.876.219-1.168.073-.073.219-.073.365-.146,0,.146-.073.219-.073.365s-.073.292-.073.438c.146,0,.365.073.511.073a5.445,5.445,0,0,0,.876-.511c-.292-.073-.73.073-.8-.438.292-.073.511,0,.73-.146.146-.073.219-.365.292-.511-.219,0-.438-.146-.584-.073s-.292.292-.438.365a1.235,1.235,0,0,1-.365.146c-.219-.073-.438-.219-.8-.365.219-.146.365-.292.584-.438a.9.9,0,0,1,.146-1.387c-.584-.365-.949.146-1.314.292-.438.146-.876.292-1.241.438-.219.876-.8,1.022-1.46.511a2.662,2.662,0,0,1-1.022.146c-.073,0-.073,0-.146-.073s-.219-.146-.292-.219c-.146-.146-.511-.073-.876-.146,0,0-.073-.219,0-.219.219-.073.511-.146.8-.219,0-.438-.365-.584-.73-.73a7.289,7.289,0,0,0-1.022-.584c-.657-.292-1.241-.73-1.971-.511-.219.073-.511-.073-.73-.146-.292-.073-.584-.146-.949-.219.073.292.146.438.219.73a7.9,7.9,0,0,0-1.314,0c-.438.073-.73.146-1.1-.219-.073-.073-.146,0-.219,0v-.073a.071.071,0,0,1-.073.073.553.553,0,0,0-.292.146.448.448,0,0,0-.073.438c.146.438.292.949.365,1.241a11.861,11.861,0,0,0-1.387.292v.292c.292.073.584.073.949.146a2.156,2.156,0,0,0-.146.949c.073.438.146,1.168.438,1.241a.748.748,0,0,1,.438.365c-.219-.146-.438-.219-.657-.365-.657-.292-1.241-.73-1.971-.511-.219.073-.511-.073-.73-.146-.292-.073-.584-.146-.949-.219.073.292.146.438.219.73a7.9,7.9,0,0,0-1.314,0c-.438.073-.73.146-1.1-.219-.073-.073-.438.073-.657.146a.448.448,0,0,0-.073.438c.146.438.292.949.365,1.241a11.862,11.862,0,0,0-1.387.292v.292c.292.073.584.073.949.146a2.156,2.156,0,0,0-.146.949c.073.438.146,1.168.438,1.241.657.292.511,1.1,1.022,1.46-.219.073-.438.073-.511-.073a17.739,17.739,0,0,0-1.46-1.022,1.243,1.243,0,0,0-.511-.073c-.438.146-.876.511-1.241.511a3,3,0,0,0-1.606.511.4.4,0,0,0-.219.365,2.737,2.737,0,0,0-.073.8c.219.073.438.073.657.146.219.146.365.365.584.438a.641.641,0,0,0,.511.073c.876-.219,1.168,0,1.022.876.438.073.949.219,1.387.292.073,0,.146.073.219.073V811.8c-.438,0-.584-.219-.511-1.095-.438.219-.949.073-1.387.219l-.073-.073c0,.073-.073.073-.073.146a1.282,1.282,0,0,0-.365.292.326.326,0,0,1-.365,0,6.411,6.411,0,0,1-.73-.438c-.292-.146-.584-.365-.876-.511-.073.073-.073.146-.146.146.073.146.146.365.292.438.438.292.219.584,0,.8-.073.146-.438.073-.657,0a1.351,1.351,0,0,1-.511-.146.6.6,0,0,0,.365.365,3.405,3.405,0,0,0,.73.365h-.073c-.438,0-.438.365-.146.657l1.314,1.314a1.594,1.594,0,0,0,.365.219c-.146.073-.292.073-.365.146-.365.146-.438.8-.949.657-.146,0-.219-.146-.365-.146.073-.073.219-.146.292-.219.146-.073.219-.146.365-.219a.729.729,0,0,0-.292-.365c-.292-.146-.657-.146-1.022-.292.146.292.584.438.292.876-.219-.146-.365-.365-.584-.438-.146-.073-.365.146-.584.219.146.146.219.365.365.511.146.073.365,0,.584,0a.558.558,0,0,1,.365.146,4.815,4.815,0,0,1,.292.8c-.292-.073-.438-.073-.73-.146a1.055,1.055,0,0,1-.146.511.558.558,0,0,0-.146-.365c-.146-.073-.438-.073-.657-.146a3.663,3.663,0,0,1-.146.876H137.2c0,.073,0,.146.073.146a.829.829,0,0,0,.219.584c.146-.073.219-.146.365-.146.146.073.365.073.438.146,0,.292-.219.438-.438.584a1.116,1.116,0,0,1-1.168-.073c-.292-.146-.511-.438-.949-.146a.9.9,0,0,0,.146,1.606l.657.219c.292.073.438.219.219.511a.623.623,0,0,0,0,.511,4.629,4.629,0,0,0,.73.876c-.146.219-.292.365-.365.511.219.073.365.219.584.219.73.073,1.533.146,2.336.219.365.073.657.146.657.584,0,.073.219.219.292.292a4.637,4.637,0,0,0,.511.146,11.943,11.943,0,0,1-1.606.876v.219c.8.073,1.679.146,2.482.219h.511c.292,0,.584,0,.657.365s-.146.511-.365.657c-.511.365-.584.949-.146,1.1a3.061,3.061,0,0,0,1.168.073,2.447,2.447,0,0,1,.73,0,1.226,1.226,0,0,0,1.314-.146c.292-.146.438-.219.657.073a1.038,1.038,0,0,0,.438.146,6.681,6.681,0,0,0,1.022-.511c0-.146-.073-.292-.073-.438,1.1,0,1.314-.073,1.752-.8-.292-.073-.511-.146-.8-.219.146-.146.219-.219.219-.292-.146-.219-.292-.365-.438-.584,0-.073.073-.073.073-.146h.584c.73.073.949.73,1.314,1.241s1.022.876,1.533.584c-.073-.146-.146-.219-.219-.365,0-.146-.073-.292,0-.438.073-.073.292-.219.365-.146l.219.219.146-.219v-.584h.073l-.073-.511h-.073a.9.9,0,0,1-.584-.292c.146-.073.292-.292.365-.292.146,0,.365,0,.438-.073l1.241-.949c0-.073-.073-.146-.073-.219h.438c.365.073.511.219.657.73l.657.8a.268.268,0,0,1,.219-.073c.073.584.438.657.949.657a5.635,5.635,0,0,0,1.1-.146.326.326,0,0,0,.219-.292,1.208,1.208,0,0,1,.949-.73c.073.219.219.365.292.584-.657.365-1.314.8-1.971,1.168a1.21,1.21,0,0,0-1.533,0,.68.68,0,0,0,.949.438,1.324,1.324,0,0,1,1.46.219c.365.365,1.022.438.949,1.168,0,.073.146.292.292.292a17.05,17.05,0,0,0,1.9.292c.219,0,.438-.219.8-.365l.146.146a4.727,4.727,0,0,1-.584.657c.219.365.657.292,1.022.219a6.28,6.28,0,0,0,1.168-.073,2.528,2.528,0,0,0,1.9-.657,1.8,1.8,0,0,1,.657-.292,8.2,8.2,0,0,0,.949-.365c-.219-.219-.365-.292-.584-.511a5.723,5.723,0,0,0,1.1-.73,1.122,1.122,0,0,1,1.022-.438c.146,0,.365-.292.438-.511.073-.073-.073-.292-.146-.438-.365-.292-.73-.657-1.022-.876a13.049,13.049,0,0,1,1.022-.949c-.073-.073-.073-.146-.146-.219l-.876.438c-.146-.292-.146-.657-.365-.876-.292-.365-.73-.876-1.022-.876-.73.146-1.022-.584-1.679-.657a.739.739,0,0,1,.511-.292c.584,0,1.168.073,1.825.073a.927.927,0,0,0,.511-.292c.292-.365.438-.876.8-1.1a2.743,2.743,0,0,0,1.1-1.314c.073-.073,0-.292,0-.438a6.75,6.75,0,0,0-.365-.73,2.322,2.322,0,0,1-.657.219c-.219,0-.511-.073-.73-.073a.789.789,0,0,0-.511.219c-.365.365-.584.511-.876.438a.071.071,0,0,1,.073-.073,1.757,1.757,0,0,1,.584-.438c.219-.146.511-.292.876-.511a5.3,5.3,0,0,1-.657-.365,5.188,5.188,0,0,0,.876-.949,1.167,1.167,0,0,1,.949-.657c.146,0,.292-.365.365-.584a.972.972,0,0,0-.219-.365l-1.168-.584c.146-.219.292-.438.511-.73a1.649,1.649,0,0,0,.8-.584c.292-.438.511-.8,1.022-.949a.621.621,0,0,0,.219-.365C171.806,810.051,171.587,809.905,171.441,809.905Zm-32.12,8.541h0a.547.547,0,0,1,.365.073c.511-.292.876-.219,1.1,0a2.557,2.557,0,0,1-.584.365,1.078,1.078,0,0,1-.657.073C139.394,818.884,139.248,818.519,139.321,818.446Zm-.146.365c-.584.365-.657.365-.657-.438Zm-.146,2.19c-.219-.073-.292-.438-.511-.73.365-.219.657-.584.949-.584.219,0,.511.365.73.584A.918.918,0,0,1,139.029,821Zm1.533-1.095c-.146-.146-.438-.365-.365-.511.146-.219.365-.438.511-.657.073.146.219.292.365.511A2.567,2.567,0,0,1,140.562,819.906Zm.73-5.548c0,.073-.073.073-.146.146v-.146l.146-.146c-.073,0,0,.073,0,.146Zm9.855-3.65v.584c-.073-.146-.219-.292-.292-.438A.553.553,0,0,1,151.147,810.708Zm-4.964,4.088a.929.929,0,0,1,.657-.511c.292,0,.292.146.292.365l.292-.438a1.055,1.055,0,0,1,.146.511c.073.073.219.146.292.219.146.292.219.584.365.876l-.146.146c-.365-.219-.657-.365-1.022-.584-.146.365-.73.8-1.1.584a.071.071,0,0,1-.073-.073C146.037,815.453,146.11,815.088,146.183,814.8Zm-.511-7.738v.073s-.073-.073,0-.073Zm-.876,8.03c.073.073.146.146.146.219h-.219l-.146-.146C144.723,815.088,144.723,815.015,144.8,815.088Zm-1.679-2.263v-.365c.365.073.511.365.511.876-.073,0-.146-.073-.219-.073C143.336,813.117,143.19,812.971,143.117,812.825Zm.584,4.015c-.146,0-.219-.292-.292-.584.438.073.949.219,1.387.292.073-.073.073-.146.146-.146,0-.073-.073-.073-.073-.146.365.146.8.292,1.168.438a5.018,5.018,0,0,1,.584.219c.146.073.292.219.438.292a.255.255,0,0,1-.073.146c-.511-.073-1.1.365-1.533-.219h0l-.073-.073v-.073h0l-.146-.146A5.368,5.368,0,0,1,143.7,816.84Zm.438,2.336,1.022-1.533c.365-.146.511.073.8.365a3.934,3.934,0,0,1-.584-.073c.073.219.146.584.073.584A2.066,2.066,0,0,1,144.139,819.176Zm2.044,5.4c-.146-.073-.365-.073-.511-.146a3.017,3.017,0,0,1-.8-.511c-.073-.073.219-.438.292-.657.073.876.365,1.095,1.022.876v-.584h-.511c.073-.219.146-.438.219-.73.219.219.438.365.584.511.219.292.438.657.876.584.146,0,.292.292.511.584C147.205,824.578,146.767,824.943,146.183,824.578Zm1.533.511a.994.994,0,0,1,1.533.584A1.5,1.5,0,0,1,147.716,825.089Zm2.628-.876c0-.073-.073-.146-.073-.219a3.43,3.43,0,0,1-.657-.438c-.146-.146-.219-.292-.365-.438.146,0,.292-.073.438-.073a1.242,1.242,0,0,1,.511.073,1.026,1.026,0,0,1,.511.438C150.709,823.775,150.49,823.994,150.344,824.213Zm.219-3.8c-.073-.073-.146-.073-.219-.146.073-.146.146-.219.219-.365h.073c.073.073.219.073.292.146C150.855,820.2,150.636,820.344,150.563,820.417Zm-.219-7.957c-.073,0-.073-.073-.146-.073.365,0,.511-.146.584-.365.146,0,.292.073.438.073.073.146.073.292.219.438A5.521,5.521,0,0,0,150.344,812.46Zm10.074-3.869a.824.824,0,0,1,.8-.219c-.146,0-.219.073-.365.146-.219.146-.365.292-.511.365h-.073A.553.553,0,0,0,160.418,808.591Zm.146,6.789.146.584c-.219.146-.365-.146-.511-.365A1.594,1.594,0,0,1,160.564,815.38Zm-1.679-5.84c-.146.073-.219.146-.365.146-.219-.146-.219-.438-.219-.949C158.52,809.029,158.739,809.321,158.885,809.54Zm-2.847-3.869h.438a.439.439,0,0,0-.073.292h-.292c0,.146-.073.292-.073.438A1.238,1.238,0,0,1,156.038,805.671Zm-1.606,1.314a4.163,4.163,0,0,0,.949-.073c-.292.438-.511.438-.949.073Zm.949.949h0a.226.226,0,0,1-.146.073h0C155.235,807.934,155.308,807.934,155.381,807.934Zm-3.431,3.942v0Zm2.409-8.03a.977.977,0,0,0-.365-.073c-.219-.657-.876-.438-1.314-.657a.772.772,0,0,1-.438-.511A2.442,2.442,0,0,1,154.359,803.846Zm-1.825,8.322H152.1a.439.439,0,0,0,.073-.292h.292V811.8h.073Zm0-.365a.268.268,0,0,1,.073-.219c-.073,0,0,.073-.073.219Zm2.263-.949c.073-.146.146-.219.219-.365-.292.146-.511.292-.8.438a7.089,7.089,0,0,0-1.241.073.557.557,0,0,0-.365.146V811c.146-.073.219-.146.219-.292,0-.073-.073-.146-.146-.219,0-.073,0-.073.073-.146a1.239,1.239,0,0,1,.438-.438h.438c.146.073.146.219.146.365l.146-.219c.365.219.584.219,1.022-.146a1.309,1.309,0,0,1,.511.365C155.235,810.562,155.089,810.781,154.8,810.854Zm1.314,10.512a7.056,7.056,0,0,0-.657-.511c.073-.073.073-.146.146-.219h.73v.073c.146.073.365.073.438.146A4.01,4.01,0,0,1,156.111,821.366Zm.657-14.819a1.857,1.857,0,0,1-.146-.511l.438-.657a6.285,6.285,0,0,1,1.168.073c.146,0,.219.292.292.584-.438-.073-.949-.219-1.387-.292-.073.073-.073.146-.146.146.219.365.438.73.73,1.168a2.653,2.653,0,0,1-.511.219A1.945,1.945,0,0,1,156.768,806.547Zm.73,8.833a1.313,1.313,0,0,0-.438-.657c.219-.073.438-.073.511.073a17.722,17.722,0,0,0,1.46,1.022,1.242,1.242,0,0,0,.511.073c.073,0,.146-.073.219-.073-.073.146-.073.292-.146.365s-.219.219-.219.146c-.438-.292-1.1,0-1.533-.584C157.79,815.6,157.644,815.526,157.5,815.38Zm.292,6.278c.584-.73.584-.73,1.1-.219C158.593,821.731,158.3,822.1,157.79,821.658Zm.949-1.679a.32.32,0,0,1-.219.073c-.073-.219-.073-.438-.146-.584h-.365c-.073-.146-.073-.292-.146-.438a11.849,11.849,0,0,0,1.387-.292v-.292H159.1v-.073a4.637,4.637,0,0,0-.511-.146v-.365a4.13,4.13,0,0,1,.949,0c.292.073.365,0,.365-.292,0-.219.073-.584.219-.657a1.262,1.262,0,0,1,.73.073l.073.511A9.072,9.072,0,0,0,158.739,819.979Zm2.993-1.241a6.045,6.045,0,0,0-1.1.8c-.219.219-.365.438-.073.73a1.589,1.589,0,0,1,.365.584s-.219.146-.365.219c0-.219-.146-.365-.438-.365,0-.511-.511-.511-.73-.657.292-.511.511-1.022.8-1.46.146-.146.365-.292.511-.438.146-.073.219-.146.365-.219l.073.219a.268.268,0,0,0,.219.073h.876A1.7,1.7,0,0,1,161.732,818.738Zm1.533,2.7a3.437,3.437,0,0,1,.365-.146c.511.438.949-.146,1.46-.146a2.13,2.13,0,0,1,.657.146A2.369,2.369,0,0,1,163.265,821.439Z" transform="translate(-134.43 -796.4)"/>
      <g id="Group_1561" data-name="Group 1561" transform="translate(5 1.135)">
        <path id="Path_3206" data-name="Path 3206" class="cls-5" d="M159.63,799.3c-.292,0-.438.073-.584.073a3.211,3.211,0,0,1-.146-.73h.219a1.328,1.328,0,0,0,1.606-.146c.365-.292.657-.657,1.168-.511a1.528,1.528,0,0,1,.438.292c-.073.146-.146.365-.292.365a1.827,1.827,0,0,0-.949.876c-.219.365-.657.511-1.022.73,0,0-.219-.146-.219-.292A.8.8,0,0,1,159.63,799.3Z" transform="translate(-145.796 -797.954)"/>
        <path id="Path_3207" data-name="Path 3207" class="cls-5" d="M166.284,802.7a7.637,7.637,0,0,0,1.241.292c-.073.146-.146.219-.146.292.073.292.146.584.219.8a3.664,3.664,0,0,1-.876.146c-.219,0-1.022-.657-1.022-.876,0-.146.146-.219.219-.365C165.992,802.919,166.211,802.773,166.284,802.7Z" transform="translate(-147.632 -799.236)"/>
        <path id="Path_3208" data-name="Path 3208" class="cls-5" d="M148.833,804.48c-.146,0-.219.073-.365.073v.146c.219.584.146.657-.511.511a1.437,1.437,0,0,1-1.1-.73c-.219-.365-.073-.511.292-.511.292,0,.657-.073.949-.073C148.614,803.823,148.76,804.115,148.833,804.48Z" transform="translate(-142.518 -799.556)"/>
        <path id="Path_3209" data-name="Path 3209" class="cls-5" d="M156.7,798.2c.219.146.365.292.657.511a11.859,11.859,0,0,1-.146,1.314,1.235,1.235,0,0,0-.365-.146A11.984,11.984,0,0,0,156.7,798.2Z" transform="translate(-145.202 -798.021)"/>
        <path id="Path_3210" data-name="Path 3210" class="cls-5" d="M164.284,805.151c-.219-.292-.438-.438-.584-.657.365-.584.876-.073,1.241-.219,0,.073.073.073.073.146Z" transform="translate(-147.092 -799.642)"/>
        <path id="Path_3211" data-name="Path 3211" class="cls-5" d="M147.366,806c.365.146.8.219.584.73a.648.648,0,0,1-.365.292C147.22,806.8,147.22,806.438,147.366,806Z" transform="translate(-142.657 -800.127)"/>
        <path id="Path_3212" data-name="Path 3212" class="cls-5" d="M164.892,801.8c.292.073.584.073.876.146-.438.511-.73.8-1.022,1.168-.073,0-.073-.073-.146-.073C164.819,802.676,165.33,802.384,164.892,801.8Z" transform="translate(-147.335 -798.993)"/>
        <path id="Path_3213" data-name="Path 3213" class="cls-5" d="M149.5,806.168c.146-.365.292-.73.511-1.168C150.157,805.949,150.011,806.241,149.5,806.168Z" transform="translate(-143.258 -799.857)"/>
        <path id="Path_3214" data-name="Path 3214" class="cls-5" d="M141.716,811.589a7.27,7.27,0,0,1-.73.8C140.84,811.881,141.132,811.443,141.716,811.589Z" transform="translate(-140.949 -801.628)"/>
        <path id="Path_3215" data-name="Path 3215" class="cls-5" d="M151.254,810.557q-.657-.219-.219-.657A6.878,6.878,0,0,1,151.254,810.557Z" transform="translate(-143.625 -801.18)"/>
        <path id="Path_3216" data-name="Path 3216" class="cls-5" d="M152.482,811.012c.511-.949.073-1.825.073-2.555.511-.219.876-.365,1.314-.511a.45.45,0,0,1,.511.073c.73.584.8.584,1.606.073.146-.073.219-.146.511-.292-.146.73-.219,1.314-.292,1.9,0,.073-.073.219-.073.292.219.438.073.584-.438.657a1.167,1.167,0,0,0-.73.365,1.309,1.309,0,0,1-1.606.438c-.292.365-.584.657-.876,1.022a1.082,1.082,0,0,0-.073.511c0,.219.146.438.146.657-.584.146-1.1.219-1.606.365a.833.833,0,0,1-.438-.219,1.116,1.116,0,0,1,.146-1.679.565.565,0,0,1,.073-.219c-.219.146-.438.219-.73.438l.73-1.46a.547.547,0,0,1,.365-.073.493.493,0,0,0,.438-.73c-.073-.292-.073-.657-.146-1.022.365-.146.584-.073.511.365A2.2,2.2,0,0,0,152.482,811.012Zm.73-.949a2.251,2.251,0,0,0,2.482-1.314C154.891,809.187,154.161,809.625,153.212,810.063Zm.073-.657c.219-.146.438-.292.438-.365,0-.146-.219-.438-.292-.365a2.563,2.563,0,0,0-.584.365A5.4,5.4,0,0,1,153.285,809.406Zm-2.482,1.9c.219.146.365.292.657.511,0-.365-.073-.511-.073-.8A2.185,2.185,0,0,1,150.8,811.3Z" transform="translate(-143.393 -800.613)"/>
        <path id="Path_3217" data-name="Path 3217" class="cls-5" d="M172.52,814.176a9.759,9.759,0,0,0-1.314.511.268.268,0,0,1-.073.219c.438.219.8.365,1.241.584-.219.584-.511.657-1.022.073a.563.563,0,0,0-.876-.146,13.162,13.162,0,0,1,.584,1.533.9.9,0,0,1-.146.73c-.146.292-.584.073-.73-.292s-.292-.584-.73-.146c.146,0,.292.073.438.073l-.219.657-.219.219c-.511-.219-1.168-.073-1.533-.584a7.308,7.308,0,0,0-.73-.657c-.073.292-.073.511-.146.73-.073.073-.219.146-.292.219-.073-.073-.146-.219-.219-.292-.073-.219-.073-.511-.146-.73a.847.847,0,0,1,.876-1.095c.365,0,.73-.365.949.146a2.187,2.187,0,0,1,.584-.292c0,.073.073.073.073.146-.073.073-.146.073-.146.146.511.146.949-.073.876-.511-.073-.292-.073-.657.292-.73a1.853,1.853,0,0,1,.876.146C171.133,814.176,171.5,813.373,172.52,814.176Z" transform="translate(-147.809 -802.243)"/>
        <path id="Path_3218" data-name="Path 3218" class="cls-5" d="M159.336,821.628a3.316,3.316,0,0,0-.146-.584h-1.752c-.146,0-.292-.146-.438-.292a4.079,4.079,0,0,1,.365-.584,1.6,1.6,0,0,1,.365-.219c-.073-.146-.073-.219-.146-.365a2.259,2.259,0,0,1,.584-.146c.365-.073.73.073.73.511.073.438.438.365.657.511.073,0,.219-.219.292-.365-.146-.073-.292-.219-.584-.365v-.292c.365,0,.73.073,1.1.073.073,0,.146-.219.219-.365.073-.219.073-.584.219-.657a2.1,2.1,0,0,1,.949.073s.073.365,0,.365a7.186,7.186,0,0,0-2.19,2.482Q159.555,821.518,159.336,821.628Z" transform="translate(-145.283 -803.49)"/>
        <path id="Path_3219" data-name="Path 3219" class="cls-5" d="M161.2,826.27c.292-.511.511-1.022.8-1.46.146-.146.365-.292.511-.438a1.528,1.528,0,0,0,.438-.292,1.009,1.009,0,0,1,1.168-.219c-.073.438-.146.876-.584,1.1a6.039,6.039,0,0,0-1.1.8c-.219.219-.365.438-.073.73a1.591,1.591,0,0,1,.365.584s-.219.146-.365.219c0-.219-.146-.365-.438-.365C161.93,826.343,161.419,826.416,161.2,826.27Z" transform="translate(-146.417 -804.921)"/>
        <path id="Path_3220" data-name="Path 3220" class="cls-5" d="M143.11,824.387V823.8c-.146-.073-.438-.073-.511-.146-.073-.146.073-.365.146-.657.219.219.438.365.584.511.219.292.438.657.876.657.146,0,.292.292.511.584-.657.073-1.1.438-1.606.073-.146-.073-.438-.073-.584-.146a1.865,1.865,0,0,1-.73-.511c-.073-.073.219-.438.365-.657C142.234,824.387,142.453,824.606,143.11,824.387Z" transform="translate(-141.175 -804.717)"/>
        <path id="Path_3221" data-name="Path 3221" class="cls-5" d="M143.306,817.484c-.219.657-.657.949-1.241.73-.219-.073-.292-.438-.365-.73.365-.219.584-.584.876-.584C142.8,816.973,143.014,817.338,143.306,817.484Z" transform="translate(-141.152 -803.07)"/>
        <path id="Path_3222" data-name="Path 3222" class="cls-5" d="M144.5,812.4h.584a5.545,5.545,0,0,1,.292.8,2.256,2.256,0,0,1,.146.584,1.355,1.355,0,0,1-.146.511c-.219-.146-.511-.219-.584-.365-.146-.365-.438-.73-.219-1.168C144.644,812.692,144.5,812.546,144.5,812.4Z" transform="translate(-141.906 -801.855)"/>
        <path id="Path_3223" data-name="Path 3223" class="cls-5" d="M153.752,827.268a5.9,5.9,0,0,1-1.1.073,1.718,1.718,0,0,1-.584-.146c-.073,0-.073-.219-.073-.219a1.546,1.546,0,0,1,.511-.219c.438.073.73-.219,1.022-.438a1.6,1.6,0,0,1,.365-.219c.073,0,.073.073.146.073C153.971,826.538,153.825,826.976,153.752,827.268Z" transform="translate(-143.933 -805.554)"/>
        <path id="Path_3224" data-name="Path 3224" class="cls-5" d="M153.783,828h.949a9.392,9.392,0,0,1-.292,1.387c0,.073-.292.146-.365.073A1.982,1.982,0,0,1,153.783,828Z" transform="translate(-144.401 -806.067)"/>
        <path id="Path_3225" data-name="Path 3225" class="cls-5" d="M174.428,822.844c-.876-.146-1.679.73-2.628-.073.219-.073.438-.219.511-.146.438.292.73,0,1.1-.073C173.771,822.406,174.136,822.26,174.428,822.844Z" transform="translate(-149.279 -804.56)"/>
        <path id="Path_3226" data-name="Path 3226" class="cls-5" d="M145.322,830.049a3.428,3.428,0,0,1-.657-.438c-.146-.146-.219-.292-.365-.438.146,0,.292-.073.438-.073a1.243,1.243,0,0,1,.511.073,1.028,1.028,0,0,1,.511.438c0,.219-.219.438-.365.584C145.322,830.2,145.322,830.122,145.322,830.049Z" transform="translate(-141.854 -806.364)"/>
        <path id="Path_3227" data-name="Path 3227" class="cls-5" d="M156.557,823.068c-.146-.146-.365-.219-.657-.511a7.074,7.074,0,0,0,.511-.657,1.934,1.934,0,0,0,.438.365l-.073.073a1.855,1.855,0,0,0,.511.146A4.208,4.208,0,0,1,156.557,823.068Z" transform="translate(-144.986 -804.42)"/>
        <path id="Path_3228" data-name="Path 3228" class="cls-5" d="M145.3,828.53c.73-.365,1.1-.219,1.606.584A1.621,1.621,0,0,1,145.3,828.53Z" transform="translate(-142.124 -806.159)"/>
        <path id="Path_3229" data-name="Path 3229" class="cls-5" d="M145.272,823.184c-.219.219-.365.438-.511.584-.146-.146-.438-.365-.365-.511.146-.219.365-.438.511-.657A2.562,2.562,0,0,0,145.272,823.184Z" transform="translate(-141.877 -804.609)"/>
        <path id="Path_3230" data-name="Path 3230" class="cls-5" d="M156,826.011c-.657.146-.949-.073-1.1-.73C155.484,825.135,155.776,825.281,156,826.011Z" transform="translate(-144.716 -805.319)"/>
        <path id="Path_3231" data-name="Path 3231" class="cls-5" d="M159.1,823.675c.511-.73.584-.8,1.1-.219C159.9,823.748,159.611,824.113,159.1,823.675Z" transform="translate(-145.85 -804.735)"/>
        <path id="Path_3232" data-name="Path 3232" class="cls-5" d="M167.5,814.5c.511.219.876.365,1.314.511C168.23,815.3,167.865,815.157,167.5,814.5Z" transform="translate(-148.118 -802.422)"/>
        <path id="Path_3233" data-name="Path 3233" class="cls-5" d="M155.65,820.222c-.146-.073-.365-.146-.365-.292,0-.219-.219-.584.365-.73.073.292.073.584.146.949C155.723,820.149,155.723,820.222,155.65,820.222Z" transform="translate(-144.809 -803.691)"/>
        <path id="Path_3234" data-name="Path 3234" class="cls-5" d="M144.757,828.384a4.637,4.637,0,0,1-.511.146,2.131,2.131,0,0,1-.146-.657c.073,0,.073-.073.146-.073a4.045,4.045,0,0,1,.584.438A.226.226,0,0,0,144.757,828.384Z" transform="translate(-141.8 -806.013)"/>
        <path id="Path_3235" data-name="Path 3235" class="cls-5" d="M151.557,819.273c-.073.292-.146.584-.219.949a1.528,1.528,0,0,1-.438-.292c.219-.292.438-.511.584-.73A.072.072,0,0,1,151.557,819.273Z" transform="translate(-143.636 -803.691)"/>
      </g>
    </g>
    <g id="Group_1564" data-name="Group 1564" transform="translate(183.671 734.482)">
      <path id="Path_3236" data-name="Path 3236" class="cls-6" d="M168.342,823.858s1.387-2.044,1.314-2.482,1.46,1.46,1.606,2.336a2.181,2.181,0,0,1,0,1.168s.73-.438,2.19.292c1.533.73,1.679.146,1.679.146s-1.971,2.409-2.92,2.7a5.413,5.413,0,0,1,.657,3.285s-1.314-.876-2.117-1.314c-.8-.365-1.387,1.387-2.044,1.971s-1.314-2.628-.949-3.431c0,0-2.92-.584-3.358-1.022,0,0,2.409-1.1,2.628-1.679s-1.46-.657-1.022-3.285C166.006,822.617,167.539,823.931,168.342,823.858Z" transform="translate(-164.4 -821.311)"/>
      <path id="Path_3237" data-name="Path 3237" class="cls-7" d="M170.3,824.833a9.067,9.067,0,0,0,1.752-1.168c.146-.292.438,1.46.292,2.117a2.317,2.317,0,0,1-.365.73s.584,0,1.387.949c.73.949,1.022.657,1.022.657a8.436,8.436,0,0,1-2.847.8,4.069,4.069,0,0,1-.657,2.409s-.584-1.022-.949-1.533-1.387.438-2.044.584,0-2.19.511-2.555c0,0-1.752-1.314-1.9-1.825,0,0,1.971.073,2.263-.219.365-.292-.73-.949.438-2.482C169.2,823.3,169.712,824.687,170.3,824.833Z" transform="translate(-164.967 -821.848)"/>
      <g id="Group_1563" data-name="Group 1563" transform="translate(4.206 4.374)">
        <path id="Path_3238" data-name="Path 3238" class="cls-8" d="M170.263,827.867s-.365.73.292.73.438-.365.438-.438S170.555,827.575,170.263,827.867Z" transform="translate(-170.161 -827.431)"/>
        <path id="Path_3239" data-name="Path 3239" class="cls-8" d="M170.8,829.13a.425.425,0,0,0,.657.292c.219-.146.365-.584.219-.584-.146-.073-.511-.292-.657-.073S170.8,828.984,170.8,829.13Z" transform="translate(-170.334 -827.672)"/>
        <path id="Path_3240" data-name="Path 3240" class="cls-8" d="M172.417,828.83s.365-.73-.292-.73-.438.365-.438.438S172.125,829.122,172.417,828.83Z" transform="translate(-170.564 -827.519)"/>
        <path id="Path_3241" data-name="Path 3241" class="cls-8" d="M171.954,827.666a.425.425,0,0,0-.657-.292c-.219.146-.365.584-.219.584.146.073.511.292.657.073S171.954,827.739,171.954,827.666Z" transform="translate(-170.393 -827.303)"/>
      </g>
    </g>
    <g id="Group_1566" data-name="Group 1566" transform="translate(174.984 724.613)">
      <path id="Path_3242" data-name="Path 3242" class="cls-6" d="M156.88,810.645s1.533-2.263,1.46-2.774,1.606,1.606,1.752,2.555a2.835,2.835,0,0,1,0,1.314s.8-.438,2.409.365c1.679.8,1.825.219,1.825.219s-2.117,2.7-3.212,2.993a6.385,6.385,0,0,1,.73,3.65s-1.46-.949-2.336-1.387-1.46,1.533-2.263,2.19-1.46-2.92-1.022-3.723c0,0-3.212-.584-3.723-1.168,0,0,2.628-1.168,2.92-1.825s-1.606-.73-1.1-3.65C154.4,809.331,156,810.718,156.88,810.645Z" transform="translate(-152.5 -807.793)"/>
      <path id="Path_3243" data-name="Path 3243" class="cls-7" d="M159.007,811.752s1.752-.949,1.9-1.314.511,1.606.292,2.263-.438.8-.438.8.657,0,1.46,1.022,1.1.73,1.1.73-2.336,1.022-3.139.876a4.429,4.429,0,0,1-.73,2.628,16.88,16.88,0,0,0-1.022-1.679c-.438-.584-1.533.511-2.263.657s0-2.409.584-2.774c0,0-1.9-1.46-2.044-1.971a7.939,7.939,0,0,0,2.482-.219c.365-.292-.8-1.022.511-2.774C157.839,810,158.423,811.533,159.007,811.752Z" transform="translate(-153.094 -808.389)"/>
      <g id="Group_1565" data-name="Group 1565" transform="translate(4.699 4.787)">
        <path id="Path_3244" data-name="Path 3244" class="cls-8" d="M159.056,815.067s-.438.8.365.8c.73,0,.511-.438.511-.511S159.421,814.775,159.056,815.067Z" transform="translate(-158.937 -814.52)"/>
        <path id="Path_3245" data-name="Path 3245" class="cls-8" d="M159.6,816.43c.073.438.438.438.73.365s.438-.657.219-.657c-.146-.073-.511-.292-.73-.073C159.673,816.284,159.6,816.284,159.6,816.43Z" transform="translate(-159.116 -814.788)"/>
        <path id="Path_3246" data-name="Path 3246" class="cls-8" d="M161.365,816.1s.438-.8-.365-.8c-.73,0-.511.438-.511.511C160.562,815.884,161.073,816.468,161.365,816.1Z" transform="translate(-159.347 -814.607)"/>
        <path id="Path_3247" data-name="Path 3247" class="cls-8" d="M160.81,814.752c-.073-.438-.438-.438-.73-.365-.292.146-.438.657-.219.657.146.073.511.292.73.073S160.883,814.9,160.81,814.752Z" transform="translate(-159.158 -814.351)"/>
      </g>
    </g>
    <g id="Group_1568" data-name="Group 1568" transform="translate(182.43 715)">
      <path id="Path_3248" data-name="Path 3248" class="cls-6" d="M165.839,796.651a9.486,9.486,0,0,0,1.1-1.971c-.073-.365,1.168,1.168,1.241,1.825a1.549,1.549,0,0,1,0,.949,2.212,2.212,0,0,1,1.752.219c1.168.584,1.314.146,1.314.146a9.888,9.888,0,0,1-2.336,2.19,4.366,4.366,0,0,1,.511,2.628,12.954,12.954,0,0,0-1.679-1.022c-.657-.292-1.1,1.095-1.606,1.606-.584.438-1.022-2.117-.73-2.7a10.658,10.658,0,0,1-2.7-.8s1.9-.876,2.117-1.314-1.168-.511-.8-2.628C164.087,795.7,165.255,796.724,165.839,796.651Z" transform="translate(-162.7 -794.624)"/>
      <path id="Path_3249" data-name="Path 3249" class="cls-7" d="M167.52,797.441a9.484,9.484,0,0,0,1.387-.949c.073-.292.365,1.168.219,1.679s-.292.584-.292.584.511,0,1.1.73.8.511.8.511a7.759,7.759,0,0,1-2.263.657,3.721,3.721,0,0,1-.511,1.9s-.438-.8-.73-1.241-1.1.365-1.606.511,0-1.752.438-2.044c0,0-1.387-1.1-1.46-1.46a5.676,5.676,0,0,0,1.825-.146c.292-.219-.584-.73.365-1.971C166.644,796.2,167.082,797.3,167.52,797.441Z" transform="translate(-163.213 -795.05)"/>
      <g id="Group_1567" data-name="Group 1567" transform="translate(3.421 3.486)">
        <path id="Path_3250" data-name="Path 3250" class="cls-8" d="M167.469,799.863s-.292.584.219.584.365-.292.365-.365S167.688,799.571,167.469,799.863Z" transform="translate(-167.386 -799.498)"/>
        <path id="Path_3251" data-name="Path 3251" class="cls-8" d="M167.889,800.842c.073.292.292.365.511.219.219-.073.292-.438.146-.511s-.365-.219-.511-.073S167.816,800.7,167.889,800.842Z" transform="translate(-167.514 -799.674)"/>
        <path id="Path_3252" data-name="Path 3252" class="cls-8" d="M169.177,800.584s.292-.584-.219-.584-.365.292-.365.365S168.958,800.876,169.177,800.584Z" transform="translate(-167.707 -799.562)"/>
        <path id="Path_3253" data-name="Path 3253" class="cls-8" d="M168.729,799.692c-.073-.292-.292-.365-.511-.219-.219.073-.292.438-.146.511s.365.219.511.073S168.8,799.765,168.729,799.692Z" transform="translate(-167.551 -799.4)"/>
      </g>
    </g>
    <g id="Group_1570" data-name="Group 1570" transform="translate(189.146 723.623)">
      <path id="Path_3254" data-name="Path 3254" class="cls-6" d="M174.236,807.943s.876-1.168.8-1.46c0-.292.876.876.949,1.314a1.328,1.328,0,0,1,0,.657,1.86,1.86,0,0,1,1.387.146c.949.438,1.022.073,1.022.073s-1.168,1.387-1.752,1.533a3.662,3.662,0,0,1,.438,1.9,12.281,12.281,0,0,0-1.314-.73c-.511-.219-.8.8-1.241,1.168s-.8-1.533-.584-1.971a7.433,7.433,0,0,1-2.044-.584,6.5,6.5,0,0,0,1.606-.949c.146-.292-.876-.365-.584-1.9C172.849,807.286,173.725,808.016,174.236,807.943Z" transform="translate(-171.9 -806.437)"/>
      <path id="Path_3255" data-name="Path 3255" class="cls-7" d="M175.436,808.549a10.718,10.718,0,0,0,1.1-.657c.073-.219.292.876.146,1.168a1.579,1.579,0,0,1-.219.438,1.206,1.206,0,0,1,.8.511c.438.584.657.365.657.365a6,6,0,0,1-1.752.438,2.462,2.462,0,0,1-.438,1.387s-.365-.584-.584-.876-.8.292-1.241.365,0-1.241.365-1.46a6.831,6.831,0,0,1-1.168-1.022s1.168.073,1.387-.146c.219-.146-.438-.511.292-1.46C174.706,807.673,175.071,808.4,175.436,808.549Z" transform="translate(-172.224 -806.751)"/>
      <g id="Group_1569" data-name="Group 1569" transform="translate(2.5 2.528)">
        <path id="Path_3256" data-name="Path 3256" class="cls-8" d="M175.38,810.285s-.219.438.219.438.292-.219.292-.292C175.818,810.431,175.6,810.139,175.38,810.285Z" transform="translate(-175.325 -809.993)"/>
        <path id="Path_3257" data-name="Path 3257" class="cls-8" d="M175.7,811.022c.073.219.219.219.365.219s.219-.365.146-.365-.292-.146-.438,0C175.7,810.949,175.7,810.949,175.7,811.022Z" transform="translate(-175.426 -810.146)"/>
        <path id="Path_3258" data-name="Path 3258" class="cls-8" d="M176.7,810.838s.219-.438-.219-.438-.292.219-.292.292C176.264,810.692,176.483,810.984,176.7,810.838Z" transform="translate(-175.553 -810.035)"/>
        <path id="Path_3259" data-name="Path 3259" class="cls-8" d="M176.4,810.119c-.073-.219-.219-.219-.365-.219-.146.073-.219.365-.146.365s.292.146.438,0C176.4,810.192,176.4,810.192,176.4,810.119Z" transform="translate(-175.47 -809.9)"/>
      </g>
    </g>
    <g id="Group_1572" data-name="Group 1572" transform="translate(169.801 720.124)">
      <path id="Path_3260" data-name="Path 3260" class="cls-6" d="M147.809,803.437a8.035,8.035,0,0,0,.8-1.752c0-.292.876,1.022.949,1.606a2.094,2.094,0,0,1,0,.8s.438-.292,1.314.219.949.146.949.146-1.168,1.679-1.752,1.9a4.239,4.239,0,0,1,.365,2.263s-.8-.584-1.241-.876-.8.949-1.241,1.387-.8-1.825-.511-2.336a6.321,6.321,0,0,1-2.044-.73s1.46-.73,1.533-1.168c.146-.365-.876-.438-.584-2.263C146.422,802.634,147.3,803.51,147.809,803.437Z" transform="translate(-145.4 -801.643)"/>
      <path id="Path_3261" data-name="Path 3261" class="cls-7" d="M148.909,804.22s.949-.584,1.022-.8.292,1.022.146,1.46a1.668,1.668,0,0,1-.219.511s.365,0,.8.657.584.438.584.438a4.855,4.855,0,0,1-1.679.584,3.028,3.028,0,0,1-.438,1.606s-.365-.73-.584-1.095-.8.292-1.241.438c-.365.073,0-1.533.292-1.752a6.524,6.524,0,0,1-1.1-1.241s1.168.073,1.387-.146-.438-.657.292-1.679C148.252,803.125,148.617,804.075,148.909,804.22Z" transform="translate(-145.697 -802.062)"/>
      <g id="Group_1571" data-name="Group 1571" transform="translate(2.563 3.067)">
        <path id="Path_3262" data-name="Path 3262" class="cls-8" d="M148.976,806.275s-.219.511.146.511.292-.292.292-.292C149.414,806.421,149.195,806.056,148.976,806.275Z" transform="translate(-148.911 -805.942)"/>
        <path id="Path_3263" data-name="Path 3263" class="cls-8" d="M149.3,807.076c.073.292.219.292.365.219s.219-.365.146-.438-.292-.219-.365,0S149.3,807,149.3,807.076Z" transform="translate(-149.016 -806.087)"/>
        <path id="Path_3264" data-name="Path 3264" class="cls-8" d="M150.236,806.911s.219-.511-.146-.511-.292.292-.292.292S150.09,807.13,150.236,806.911Z" transform="translate(-149.149 -805.995)"/>
        <path id="Path_3265" data-name="Path 3265" class="cls-8" d="M150,806.1c-.073-.292-.219-.292-.365-.219s-.219.365-.146.438.292.219.365,0S150,806.177,150,806.1Z" transform="translate(-149.059 -805.844)"/>
      </g>
    </g>
    <g id="Group_1574" data-name="Group 1574" transform="translate(166.151 735.114)">
      <path id="Path_3266" data-name="Path 3266" class="cls-6" d="M144.415,825.333a15.151,15.151,0,0,0,1.46-3.066c0-.584,1.533,1.825,1.679,2.847a3.1,3.1,0,0,1,0,1.387s.73-.511,2.336.365,1.752.219,1.752.219-2.044,2.993-3.066,3.358a7.639,7.639,0,0,1,.73,4.015,21.928,21.928,0,0,0-2.19-1.533c-.876-.511-1.46,1.679-2.19,2.409s-1.387-3.212-.949-4.088c0,0-3.066-.657-3.577-1.241,0,0,2.555-1.314,2.774-2.044.219-.657-1.533-.8-1.022-4.015C142.006,823.873,143.539,825.479,144.415,825.333Z" transform="translate(-140.4 -822.177)"/>
      <path id="Path_3267" data-name="Path 3267" class="cls-7" d="M146.415,826.551a9.319,9.319,0,0,0,1.825-1.46c.146-.365.511,1.752.292,2.555s-.438.949-.438.949.657-.073,1.46,1.168c.8,1.168,1.1.8,1.1.8s-2.19,1.168-2.993,1.022a5.307,5.307,0,0,1-.73,2.92,19.34,19.34,0,0,0-1.022-1.9c-.438-.657-1.46.584-2.117.73s0-2.628.584-3.066c0,0-1.825-1.606-1.971-2.19a7.506,7.506,0,0,0,2.409-.219c.365-.292-.73-1.1.511-3.066C145.247,824.726,145.831,826.332,146.415,826.551Z" transform="translate(-140.94 -822.884)"/>
      <g id="Group_1573" data-name="Group 1573" transform="translate(4.352 5.335)">
        <path id="Path_3268" data-name="Path 3268" class="cls-8" d="M146.463,830.259s-.365.949.292.876c.73,0,.511-.511.438-.584C147.266,830.551,146.755,829.894,146.463,830.259Z" transform="translate(-146.362 -829.664)"/>
        <path id="Path_3269" data-name="Path 3269" class="cls-8" d="M146.984,831.691c.073.511.438.511.657.365s.438-.73.219-.73c-.146-.073-.511-.365-.73-.073S146.911,831.545,146.984,831.691Z" transform="translate(-146.518 -829.928)"/>
        <path id="Path_3270" data-name="Path 3270" class="cls-8" d="M148.7,831.375s.365-.949-.292-.876c-.73,0-.511.511-.438.584C147.894,831.156,148.405,831.74,148.7,831.375Z" transform="translate(-146.771 -829.757)"/>
        <path id="Path_3271" data-name="Path 3271" class="cls-8" d="M148.137,829.934c-.073-.511-.438-.511-.657-.365-.292.146-.438.73-.219.73.146.073.511.365.73.073S148.21,830.08,148.137,829.934Z" transform="translate(-146.576 -829.485)"/>
      </g>
    </g>
  </g>
</svg>
