<svg xmlns="http://www.w3.org/2000/svg" viewBox="0 0 15.559 60">
  <defs>
    <style>
      .cls-1 {
        fill: #916500;
      }

      .cls-2 {
        fill: #e0a718;
      }

      .cls-3 {
        fill: #ff4800;
      }

      .cls-4 {
        fill: #ab0707;
      }

      .cls-5 {
        fill: #cacaca;
      }
    </style>
  </defs>
  <g id="b3" transform="translate(-284 -715)">
    <ellipse id="Ellipse_157" data-name="Ellipse 157" class="cls-1" cx="1.303" cy="7.472" rx="1.303" ry="7.472" transform="translate(284.588 717.606) rotate(-89.384)"/>
    <path id="Path_2831" data-name="Path 2831" class="cls-2" d="M273.68,810.09c-4.17-.087-7.472-.7-7.472-1.39l-.608,57.256c0,.7,3.3,1.3,7.472,1.39s7.472-.521,7.472-1.216l.608-57.256C281.152,809.569,277.764,810.09,273.68,810.09Z" transform="translate(18.4 -92.355)"/>
    <g id="Group_1532" data-name="Group 1532" transform="translate(284.348 720.082)">
      <path id="Path_2832" data-name="Path 2832" class="cls-3" d="M273.659,814.477c-4.084-.087-7.385-.7-7.472-1.477l-.087,7.211c.087.782,3.388,1.477,7.472,1.477,4.17.087,7.472-.608,7.472-1.39l.087-7.211C281.131,813.869,277.829,814.564,273.659,814.477Z" transform="translate(-266.013 -813)"/>
      <path id="Path_2833" data-name="Path 2833" class="cls-3" d="M273.659,814.477c-4.084-.087-7.385-.7-7.472-1.477l-.087,7.211c.087.782,3.388,1.477,7.472,1.477,4.17.087,7.472-.608,7.472-1.39l.087-7.211C281.131,813.869,277.829,814.564,273.659,814.477Z" transform="translate(-266.013 -813)"/>
      <path id="Path_2834" data-name="Path 2834" class="cls-3" d="M273.659,814.477c-4.084-.087-7.385-.7-7.472-1.477l-.087,7.211c.087.782,3.388,1.477,7.472,1.477,4.17.087,7.472-.608,7.472-1.39l.087-7.211C281.131,813.869,277.829,814.564,273.659,814.477Z" transform="translate(-266.013 -813)"/>
      <path id="Path_2835" data-name="Path 2835" class="cls-4" d="M282.375,813.621l-3.475,7.993c1.911-.174,3.3-.521,3.736-.956l.174-.348.087-7.211A1.475,1.475,0,0,1,282.375,813.621Z" transform="translate(-267.692 -813.013)"/>
      <path id="Path_2836" data-name="Path 2836" class="cls-5" d="M274.9,821.867a20.5,20.5,0,0,0,3.388-.174l3.475-7.993a12.209,12.209,0,0,1-3.649.782Z" transform="translate(-267.167 -813.092)"/>
      <path id="Path_2837" data-name="Path 2837" class="cls-4" d="M274.315,814.687h0l-3.215,7.125c.956.087,2,.174,3.128.174h.174l3.215-7.385C276.661,814.687,275.531,814.687,274.315,814.687Z" transform="translate(-266.669 -813.21)"/>
      <path id="Path_2838" data-name="Path 2838" class="cls-5" d="M267.5,821.177a12.915,12.915,0,0,0,3.128.521l3.128-7.124c-1.216,0-2.259-.087-3.3-.174Z" transform="translate(-266.197 -813.184)"/>
      <path id="Path_2839" data-name="Path 2839" class="cls-4" d="M270.257,814.408a18.117,18.117,0,0,1-3.128-.608l-1.043,2.346-.087,4.17c0,.261.434.521,1.216.782Z" transform="translate(-266 -813.105)"/>
      <path id="Path_2840" data-name="Path 2840" class="cls-5" d="M267.243,813.7c-.608-.174-.956-.434-1.043-.7v3.041Z" transform="translate(-266.026 -813)"/>
      <path id="Path_2841" data-name="Path 2841" class="cls-3" d="M273.659,814.477c-4.084-.087-7.385-.7-7.472-1.477l-.087,7.211c.087.782,3.388,1.477,7.472,1.477,4.17.087,7.472-.608,7.472-1.39l.087-7.211C281.131,813.869,277.829,814.564,273.659,814.477Z" transform="translate(-266.013 -813)"/>
      <path id="Path_2842" data-name="Path 2842" class="cls-3" d="M273.659,814.477c-4.084-.087-7.385-.7-7.472-1.477l-.087,7.211c.087.782,3.388,1.477,7.472,1.477,4.17.087,7.472-.608,7.472-1.39l.087-7.211C281.131,813.869,277.829,814.564,273.659,814.477Z" transform="translate(-266.013 -813)"/>
      <path id="Path_2843" data-name="Path 2843" class="cls-3" d="M273.659,814.477c-4.084-.087-7.385-.7-7.472-1.477l-.087,7.211c.087.782,3.388,1.477,7.472,1.477,4.17.087,7.472-.608,7.472-1.39l.087-7.211C281.131,813.869,277.829,814.564,273.659,814.477Z" transform="translate(-266.013 -813)"/>
      <path id="Path_2844" data-name="Path 2844" class="cls-4" d="M282.375,813.621l-3.475,7.993c1.911-.174,3.3-.521,3.736-.956l.174-.348.087-7.211A1.475,1.475,0,0,1,282.375,813.621Z" transform="translate(-267.692 -813.013)"/>
      <path id="Path_2845" data-name="Path 2845" class="cls-5" d="M274.9,821.867a20.5,20.5,0,0,0,3.388-.174l3.475-7.993a12.209,12.209,0,0,1-3.649.782Z" transform="translate(-267.167 -813.092)"/>
      <path id="Path_2846" data-name="Path 2846" class="cls-4" d="M274.315,814.687h0l-3.215,7.125c.956.087,2,.174,3.128.174h.174l3.215-7.385C276.661,814.687,275.531,814.687,274.315,814.687Z" transform="translate(-266.669 -813.21)"/>
      <path id="Path_2847" data-name="Path 2847" class="cls-5" d="M267.5,821.177a12.915,12.915,0,0,0,3.128.521l3.128-7.124c-1.216,0-2.259-.087-3.3-.174Z" transform="translate(-266.197 -813.184)"/>
      <path id="Path_2848" data-name="Path 2848" class="cls-4" d="M270.257,814.408a18.117,18.117,0,0,1-3.128-.608l-1.043,2.346-.087,4.17c0,.261.434.521,1.216.782Z" transform="translate(-266 -813.105)"/>
      <path id="Path_2849" data-name="Path 2849" class="cls-5" d="M267.243,813.7c-.608-.174-.956-.434-1.043-.7v3.041Z" transform="translate(-266.026 -813)"/>
    </g>
    <g id="Group_1533" data-name="Group 1533" transform="translate(284.261 731.203)">
      <path id="Path_2850" data-name="Path 2850" class="cls-3" d="M273.559,827.277c-4.084-.087-7.385-.7-7.472-1.477L266,833.011c.087.782,3.388,1.477,7.472,1.477,4.17.087,7.472-.608,7.472-1.39l.087-7.211C281.031,826.669,277.642,827.277,273.559,827.277Z" transform="translate(-265.913 -825.8)"/>
      <path id="Path_2851" data-name="Path 2851" class="cls-3" d="M273.559,827.277c-4.084-.087-7.385-.7-7.472-1.477L266,833.011c.087.782,3.388,1.477,7.472,1.477,4.17.087,7.472-.608,7.472-1.39l.087-7.211C281.031,826.669,277.642,827.277,273.559,827.277Z" transform="translate(-265.913 -825.8)"/>
      <path id="Path_2852" data-name="Path 2852" class="cls-3" d="M273.559,827.277c-4.084-.087-7.385-.7-7.472-1.477L266,833.011c.087.782,3.388,1.477,7.472,1.477,4.17.087,7.472-.608,7.472-1.39l.087-7.211C281.031,826.669,277.642,827.277,273.559,827.277Z" transform="translate(-265.913 -825.8)"/>
      <path id="Path_2853" data-name="Path 2853" class="cls-4" d="M282.175,826.421l-3.475,7.993c1.911-.174,3.3-.521,3.736-.956l.174-.348.087-7.211Q282.7,826.161,282.175,826.421Z" transform="translate(-267.579 -825.813)"/>
      <path id="Path_2854" data-name="Path 2854" class="cls-5" d="M274.8,834.567a20.5,20.5,0,0,0,3.388-.174l3.475-7.993a12.209,12.209,0,0,1-3.649.782Z" transform="translate(-267.067 -825.879)"/>
      <path id="Path_2855" data-name="Path 2855" class="cls-4" d="M274.215,827.487h0L271,834.611c.956.087,2,.174,3.128.174h.174l3.215-7.385C276.474,827.487,275.344,827.487,274.215,827.487Z" transform="translate(-266.569 -826.01)"/>
      <path id="Path_2856" data-name="Path 2856" class="cls-5" d="M267.4,833.977a12.908,12.908,0,0,0,3.128.521l3.128-7.124c-1.216,0-2.259-.087-3.3-.174Z" transform="translate(-266.097 -825.984)"/>
      <path id="Path_2857" data-name="Path 2857" class="cls-4" d="M270.157,827.208a18.1,18.1,0,0,1-3.128-.608l-1.043,2.346-.087,4.17c0,.261.434.521,1.216.782Z" transform="translate(-265.9 -825.905)"/>
      <path id="Path_2858" data-name="Path 2858" class="cls-5" d="M267.043,826.5c-.608-.174-.956-.434-1.043-.7v3.041Z" transform="translate(-265.913 -825.8)"/>
      <path id="Path_2859" data-name="Path 2859" class="cls-3" d="M273.559,827.277c-4.084-.087-7.385-.7-7.472-1.477L266,833.011c.087.782,3.388,1.477,7.472,1.477,4.17.087,7.472-.608,7.472-1.39l.087-7.211C281.031,826.669,277.642,827.277,273.559,827.277Z" transform="translate(-265.913 -825.8)"/>
      <path id="Path_2860" data-name="Path 2860" class="cls-3" d="M273.559,827.277c-4.084-.087-7.385-.7-7.472-1.477L266,833.011c.087.782,3.388,1.477,7.472,1.477,4.17.087,7.472-.608,7.472-1.39l.087-7.211C281.031,826.669,277.642,827.277,273.559,827.277Z" transform="translate(-265.913 -825.8)"/>
      <path id="Path_2861" data-name="Path 2861" class="cls-3" d="M273.559,827.277c-4.084-.087-7.385-.7-7.472-1.477L266,833.011c.087.782,3.388,1.477,7.472,1.477,4.17.087,7.472-.608,7.472-1.39l.087-7.211C281.031,826.669,277.642,827.277,273.559,827.277Z" transform="translate(-265.913 -825.8)"/>
      <path id="Path_2862" data-name="Path 2862" class="cls-4" d="M282.175,826.421l-3.475,7.993c1.911-.174,3.3-.521,3.736-.956l.174-.348.087-7.211Q282.7,826.161,282.175,826.421Z" transform="translate(-267.579 -825.813)"/>
      <path id="Path_2863" data-name="Path 2863" class="cls-5" d="M274.8,834.567a20.5,20.5,0,0,0,3.388-.174l3.475-7.993a12.209,12.209,0,0,1-3.649.782Z" transform="translate(-267.067 -825.879)"/>
      <path id="Path_2864" data-name="Path 2864" class="cls-4" d="M274.215,827.487h0L271,834.611c.956.087,2,.174,3.128.174h.174l3.215-7.385C276.474,827.487,275.344,827.487,274.215,827.487Z" transform="translate(-266.569 -826.01)"/>
      <path id="Path_2865" data-name="Path 2865" class="cls-5" d="M267.4,833.977a12.908,12.908,0,0,0,3.128.521l3.128-7.124c-1.216,0-2.259-.087-3.3-.174Z" transform="translate(-266.097 -825.984)"/>
      <path id="Path_2866" data-name="Path 2866" class="cls-4" d="M270.157,827.208a18.1,18.1,0,0,1-3.128-.608l-1.043,2.346-.087,4.17c0,.261.434.521,1.216.782Z" transform="translate(-265.9 -825.905)"/>
      <path id="Path_2867" data-name="Path 2867" class="cls-5" d="M267.043,826.5c-.608-.174-.956-.434-1.043-.7v3.041Z" transform="translate(-265.913 -825.8)"/>
    </g>
  </g>
</svg>
