<svg xmlns="http://www.w3.org/2000/svg" viewBox="0 0 56.878 120">
  <defs>
    <style>
      .cls-1 {
        fill: #a86622;
      }

      .cls-2 {
        fill: #7c4411;
      }

      .cls-3 {
        fill: #3f2302;
      }

      .cls-4 {
        fill: #049904;
      }

      .cls-5 {
        fill: #17c417;
      }
    </style>
  </defs>
  <g id="v4" transform="translate(-38 -516)">
    <g id="Group_1557" data-name="Group 1557" transform="translate(51.451 607.304)">
      <path id="Path_3169" data-name="Path 3169" class="cls-1" d="M34.5,689.9l5.678,22.711c0,2.148,7.136,2.378,10.2,2.378s10.2-.23,10.2-2.378L66.265,689.9Z" transform="translate(-34.5 -686.294)"/>
      <path id="Path_3170" data-name="Path 3170" class="cls-2" d="M50.459,692.566c-4.757,0-15.959-.384-15.959-3.683,0-3.376,11.125-3.683,15.959-3.683s15.959.384,15.959,3.683S55.216,692.566,50.459,692.566Z" transform="translate(-34.5 -685.2)"/>
      <ellipse id="Ellipse_161" data-name="Ellipse 161" class="cls-3" cx="14.808" cy="2.609" rx="14.808" ry="2.609" transform="translate(1.151 0.46)"/>
    </g>
    <path id="Path_3171" data-name="Path 3171" class="cls-3" d="M52.06,625.863a24.709,24.709,0,0,1,1.3,8.517c0,5.141-.077,10.2-.153,15.269-.077,4.68-.23,18.031-.307,22.788h3.069c-.077-3.223-.077-15.192-.077-18.414,0-3.069-.077-6.215,0-9.284.077-3.606.23-7.136.384-10.742.153-3.3.23-6.6.614-9.821a4.72,4.72,0,0,1,2.455-3.683l-1.611-1.918c-1.151.46-1.841.23-2.379-1.074l-2.916,2.3a3.5,3.5,0,0,0,1.688-1.3c.077-.154.46-.154.921-.23-.23,1.151-.46,2.148-.614,2.762-.844.077-1.611.23-2.3.23l.153,1.228c.537,0,1.151-.077,1.995-.077-.153,1.074-.307,2.148-.537,3.146,0,.153-.614.384-.844.307-.46-.23-.767-1.151-.921-2.072l-.384.537c.077.077.077.153.153.23C51.984,625.1,51.907,625.48,52.06,625.863Zm4.373-4.834c.384-.537.844-1.074,1.841-.614a2.467,2.467,0,0,1-.307.537c-.46.307-.921.537-1.381.844C56.587,621.49,56.357,621.183,56.434,621.029Z" transform="translate(12.971 -62.139)"/>
    <path id="Path_3172" data-name="Path 3172" class="cls-4" d="M73.156,586.609a1.876,1.876,0,0,0-1.918.767,1.906,1.906,0,0,1-2.532.307c-.077-.077-.23,0-.307,0,.077.384.23.767.307,1.151a5.005,5.005,0,0,0,.844-.154c.077.384.077.691.153,1a1.348,1.348,0,0,0-.384.307c-.307-.384-.46-.921-.844-1.151a11.236,11.236,0,0,0-1-.691c.23-.077.384-.46.614-.767a4.329,4.329,0,0,0-.921-.307c-.23,0-.46.307-.767.46a.909.909,0,0,1-.614.077,7.2,7.2,0,0,1-1.074-.767h.077c.844-.153,1.688-.23,2.532-.46a1.065,1.065,0,0,0,.614-.537c.307-.614.307-1.535.844-1.918a5.069,5.069,0,0,0,1.228-2.378c.077-.154-.077-.46-.153-.691-.23-.307-.46-.614-.767-1-.307.153-.614.46-.921.614-.384.077-.767,0-1.151.077-.23.077-.614.23-.691.46-.46.767-.844,1.074-1.3.921,0-.153-.077-.307-.077-.537-.153-.077-.384-.077-.614-.153l-.077-.077a.075.075,0,0,0-.077.077c-.307-.077-.537-.153-.844-.23a2.256,2.256,0,0,0-.614.614,1.163,1.163,0,0,0-.307.614.268.268,0,0,0,.077.153,1.346,1.346,0,0,0-.384.307,1.664,1.664,0,0,0-.46-.537h-.077l-.921-.921c.46-.46.921-.384,1.765.614.307-1,1.611-1.381,1.3-2.685,0-.077.153-.384.307-.384a10.474,10.474,0,0,1,1.3-.307c.537-.153,1-.23,1.535-.384a.461.461,0,0,0-.077-.307c-.307-.077-.614-.23-.844-.153-.767.153-.844-.384-.921-.844,0-.23.384-.537.691-.767a3.11,3.11,0,0,1,.691-.384,1.071,1.071,0,0,0-.844,0,10.3,10.3,0,0,0-2.3.921c-.614.46-1,1.3-2.072.921-.153-.077-.384.154-.307.154-.23-.537-.46-1-.614-1.458-.077-.153,0-.46,0-.614a4.694,4.694,0,0,1,.384-.921c.23-.614-.46-1.3.307-1.841.153-.153.384-.153.614-.23-.077.154-.077.384-.153.537-.077.23-.077.46-.153.614.23,0,.537.153.767.077a13.347,13.347,0,0,0,1.381-.844c-.46-.153-1.151.154-1.228-.614.384-.077.844,0,1.074-.23.23-.154.307-.537.46-.844a1.959,1.959,0,0,0-.921-.077c-.23.077-.384.46-.614.614-.153.154-.46.307-.614.23a7.477,7.477,0,0,1-1.228-.537l.921-.691c-.537-.844-.614-1.535.23-2.225-.921-.614-1.458.23-2.072.46-.691.23-1.3.46-1.995.691-.384,1.3-1.228,1.611-2.225.767-.614.077-1.151.384-1.535.23-.077,0-.153-.077-.23-.077-.153-.153-.307-.23-.46-.384-.307-.23-.767-.077-1.3-.153,0,0-.077-.307,0-.307.384-.153.767-.23,1.3-.384,0-.691-.614-.921-1.151-1.151l-1.611-.921c-1-.46-1.918-1.074-3.146-.691a3.179,3.179,0,0,1-1.151-.154c-.46-.077-.921-.23-1.535-.307a7.87,7.87,0,0,1,.307,1.074,8.348,8.348,0,0,0-1.995.077,1.813,1.813,0,0,1-1.765-.307.342.342,0,0,0-.384,0c0-.077,0-.077-.077-.154a.238.238,0,0,0-.077.154l-.46.23c-.153.077-.153.46-.153.691.23.767.46,1.458.614,1.995-.691.154-1.381.307-2.148.46v.46c.46.077.921.153,1.458.23a4.818,4.818,0,0,0-.23,1.458c.077.691.23,1.765.691,1.995a1.812,1.812,0,0,1,.691.614c-.307-.153-.614-.384-1-.537-1-.46-1.918-1.074-3.146-.691a3.182,3.182,0,0,1-1.151-.154c-.46-.077-.921-.23-1.535-.307a7.871,7.871,0,0,1,.307,1.074,8.351,8.351,0,0,0-1.995.077,1.812,1.812,0,0,1-1.765-.307c-.153-.153-.691.077-1,.23-.153.077-.153.46-.153.691.23.767.46,1.458.614,1.995-.691.154-1.381.307-2.148.46v.46c.46.077.921.153,1.458.23a4.818,4.818,0,0,0-.23,1.458c.077.691.23,1.765.691,1.995,1.074.46.844,1.688,1.688,2.225A1.056,1.056,0,0,1,30.65,584l-2.3-1.611a1.087,1.087,0,0,0-.844-.077c-.691.23-1.3.844-1.918.767a4.984,4.984,0,0,0-2.532.844,1.21,1.21,0,0,0-.384.614c-.077.384-.077.767-.153,1.228a5.376,5.376,0,0,1,1.074.23c.307.153.537.537.921.691a1.124,1.124,0,0,0,.844.153c1.3-.384,1.765,0,1.611,1.381.767.153,1.458.307,2.225.46a.692.692,0,0,0,.384.077v2.148c-.691,0-.921-.384-.844-1.765-.691.384-1.458.153-2.148.384-.077,0-.077-.077-.153-.077a.268.268,0,0,1-.077.154.918.918,0,0,0-.537.537.63.63,0,0,1-.537.077l-1.151-.691c-.46-.307-.921-.537-1.381-.844l-.23.23c.153.23.23.614.46.691.691.384.307.921.077,1.228-.153.153-.691.077-1,.077a3.462,3.462,0,0,1-.844-.23,2.189,2.189,0,0,0,.537.614,8.393,8.393,0,0,1,1.151.614h-.153c-.691.077-.767.614-.23,1.074a25.424,25.424,0,0,0,2.072,1.995,1.237,1.237,0,0,0,.537.307c-.23.077-.384.154-.614.23-.614.23-.614,1.228-1.458,1.074a.776.776,0,0,1-.537-.307c.153-.077.307-.23.46-.307.153-.153.384-.23.537-.384a1.666,1.666,0,0,0-.46-.537,8.975,8.975,0,0,0-1.535-.384c.23.46.921.691.384,1.3a3.208,3.208,0,0,0-.921-.614c-.307-.077-.614.23-.921.307.23.23.307.614.614.767.23.153.614,0,.921,0,.23,0,.537.077.614.23a4.56,4.56,0,0,1,.46,1.228c-.384-.077-.767-.077-1.074-.154-.077.307-.153.537-.23.767a.6.6,0,0,0-.23-.537,2.266,2.266,0,0,0-1-.153,8.647,8.647,0,0,1-.23,1.381h-.077c0,.077.077.154.077.23a1.215,1.215,0,0,0,.384.921c.153-.077.384-.154.537-.23a2.919,2.919,0,0,1,.767.23c.077.46-.307.691-.691.921a1.5,1.5,0,0,1-1.841-.153c-.384-.307-.844-.691-1.458-.23a1.45,1.45,0,0,0,.23,2.532c.384.153.691.23,1.074.384.46.153.691.307.384.844a.84.84,0,0,0,.077.844c.384.537.844,1,1.151,1.381a5.161,5.161,0,0,0-.537.844,4.694,4.694,0,0,0,.921.384c1.228.154,2.379.23,3.606.384.614.077,1,.23,1.074.921,0,.153.307.384.46.46a2.975,2.975,0,0,0,.844.23c-.921.537-1.688,1-2.455,1.458v.307c1.3.077,2.609.23,3.913.307a3.109,3.109,0,0,1,.844,0c.46,0,.844,0,1,.614.153.537-.153.767-.537,1.074-.767.537-.844,1.534-.153,1.765a6.664,6.664,0,0,0,1.765.077c.384,0,.844-.153,1.151,0a1.869,1.869,0,0,0,1.995-.23c.384-.307.691-.384,1,.153.077.153.537.23.767.153.537-.23,1-.537,1.535-.767-.077-.23-.077-.46-.153-.691,1.765,0,2.072-.153,2.762-1.228-.384-.153-.844-.23-1.228-.384a2.925,2.925,0,0,1,.384-.46,8.153,8.153,0,0,0-.691-.844c0-.077.077-.154.077-.23h.921c1.151.077,1.535,1.151,2.072,1.918a2.088,2.088,0,0,0,2.455.921.975.975,0,0,1-.307-.537,1.065,1.065,0,0,1,0-.691.777.777,0,0,1,.537-.307.766.766,0,0,1,.307.384l.23-.384c-.077-.384-.077-.691.077-.844H45.3l-.153-.844H45c-.307,0-.614-.307-1-.46.23-.153.384-.46.614-.46a2.367,2.367,0,0,0,.767-.077l1.918-1.535c-.077-.153-.077-.23-.153-.384a.841.841,0,0,1,.614,0h0c.537.077.767.384,1.074,1.151l1.074,1.3a.582.582,0,0,1,.307-.153c.077.921.767,1.074,1.458,1a13,13,0,0,0,1.688-.307c.153,0,.307-.23.384-.46a1.742,1.742,0,0,1,1.535-1.151,8.368,8.368,0,0,0,.46.844c-1.074.614-2.072,1.228-3.069,1.841a1.956,1.956,0,0,0-2.379,0,.945.945,0,0,0,1.458.614,2.081,2.081,0,0,1,2.3.307c.537.537,1.688.691,1.535,1.841,0,.154.23.46.384.46,1,.154,1.995.307,2.992.384A4.924,4.924,0,0,0,60.19,615l.23.23a10.315,10.315,0,0,1-.844,1.074c.384.537,1,.384,1.611.384.614-.077,1.228-.077,1.841-.154,1.074-.153,2.225-.153,2.992-1.074.23-.307.691-.307,1.074-.46.46-.154.844-.307,1.458-.537a8.4,8.4,0,0,1-.844-.767,9.3,9.3,0,0,0,1.688-1.151,1.547,1.547,0,0,1,1.611-.691c.23,0,.537-.46.691-.767a.564.564,0,0,0-.307-.614,10.932,10.932,0,0,0-1.611-1.3l1.535-1.535c-.077-.153-.153-.23-.23-.384-.46.23-.844.384-1.381.614a3.426,3.426,0,0,0-.614-1.3c-.46-.537-1.151-1.381-1.611-1.3-1.151.23-1.611-.921-2.609-1a1.169,1.169,0,0,1,.767-.46c.921,0,1.841.077,2.839.077a1.462,1.462,0,0,0,.767-.384c.46-.537.614-1.381,1.228-1.688.921-.46,1.228-1.3,1.688-2.072a1.058,1.058,0,0,0,0-.691c-.153-.384-.307-.691-.537-1.151a5.332,5.332,0,0,1-1,.384c-.384.077-.767-.154-1.151-.154a1.172,1.172,0,0,0-.767.307c-.537.614-1,.844-1.3.691l.077-.077c.153-.307.614-.46.921-.691.384-.23.767-.46,1.3-.844-.46-.23-.614-.307-1-.537a8.05,8.05,0,0,0,1.381-1.458c.384-.614.691-1,1.458-1,.23,0,.46-.537.537-.921.077-.153-.23-.46-.384-.614-.691-.384-1.381-.691-1.841-.921a10,10,0,0,1,.767-1.151c.46-.23,1.074-.46,1.3-.921a3.144,3.144,0,0,1,1.611-1.535.8.8,0,0,0,.307-.614C73.617,586.839,73.387,586.686,73.156,586.609ZM23.054,600.5a.075.075,0,0,1,.077-.077l.46.23c.767-.384,1.381-.384,1.688-.077a6.4,6.4,0,0,1-.921.614,1.764,1.764,0,0,1-1.074.153A1.016,1.016,0,0,1,23.054,600.5Zm-.307.69c-.921.614-1,.614-1-.767A8.685,8.685,0,0,0,22.747,601.187Zm-.077,3.376c-.307-.077-.537-.691-.767-1.151a5.745,5.745,0,0,1,1.535-.921c.384,0,.767.537,1.151.844C24.205,604.256,23.591,604.87,22.671,604.563Zm2.379-1.688c-.23-.23-.691-.614-.614-.767a3.442,3.442,0,0,1,.844-1c.153.23.307.46.614.844A8.414,8.414,0,0,0,25.049,602.875Zm.921-8.747c-.077.077-.077.154-.153.23a.282.282,0,0,0-.077-.23c.077-.077.153-.153.153-.23l.077.077C26.047,594.052,25.97,594.052,25.97,594.128Zm15.422-5.908c0,.154.077.23,0,.46v.46l-.46-.691Zm-7.673,6.445a1.628,1.628,0,0,1,1-.767c.384,0,.537.23.537.614l.46-.691a1.378,1.378,0,0,1,.23.844c.153.077.307.23.46.307.153.46.384.921.537,1.3-.077.077-.153.153-.153.23a16.236,16.236,0,0,0-1.611-.844c-.23.614-1.074,1.228-1.611.921-.077,0-.077-.077-.153-.077A13.165,13.165,0,0,1,33.719,594.665ZM32.8,582.619v.153c0-.077-.077-.077-.077-.153Zm-1.3,12.583a1.06,1.06,0,0,1,.23.307.282.282,0,0,0-.23.077.075.075,0,0,1-.077-.077l-.23-.23C31.341,595.2,31.494,595.126,31.494,595.2Zm-2.685-3.529v-.537c.614.153.844.614.844,1.381-.077-.077-.23-.077-.307-.154C29.192,592.133,28.962,591.9,28.809,591.673Zm1.074,6.368c-.23,0-.384-.46-.46-.921.767.153,1.458.307,2.225.46l.23-.23c-.077-.077-.077-.154-.153-.23.614.23,1.228.384,1.841.614a4.326,4.326,0,0,0,.921.307,3.606,3.606,0,0,1,.691.46c-.077.077-.077.154-.153.23-.767-.153-1.688.614-2.379-.307v-.077l-.153-.153a.075.075,0,0,0-.077-.077h0l-.153-.153A11.928,11.928,0,0,1,29.883,598.041Zm.767,3.606,1.535-2.379c.614-.23.767.154,1.228.614-.46,0-.767-.077-.921-.077.077.384.23.844.153.921A4.672,4.672,0,0,1,30.65,601.647Zm3.223,8.44c-.23-.154-.614-.077-.844-.23a3.342,3.342,0,0,1-1.228-.767c-.077-.077.307-.614.46-1,.153,1.3.537,1.688,1.611,1.3v-.921h-.844a8.678,8.678,0,0,1,.307-1.151c.384.307.691.537.921.767.384.537.691,1,1.381.921.23,0,.46.46.767.921C35.407,610.011,34.717,610.624,33.873,610.087Zm2.379.767a1.589,1.589,0,0,1,2.455.921A2.765,2.765,0,0,1,36.251,610.855Zm4.143-1.458c-.077-.077-.077-.23-.153-.307a11.358,11.358,0,0,1-1-.614,2.389,2.389,0,0,1-.537-.691c.23,0,.46-.077.691-.077a2.138,2.138,0,0,1,.767.077c.307.153.767.46.767.691C40.931,608.783,40.625,609.09,40.394,609.4Zm.307-5.908c-.077-.077-.23-.154-.307-.23.153-.23.23-.384.384-.614h.077l.46.23C41.085,603.182,40.778,603.335,40.7,603.489Zm-.537-12.506a.165.165,0,0,1-.153-.153c.537-.077.767-.23.921-.537.23.077.46.077.691.154a1.542,1.542,0,0,0,.307.614A13.006,13.006,0,0,1,40.164,590.982Zm15.729-6.215a1.5,1.5,0,0,1,1.3-.384,1.624,1.624,0,0,0-.537.23c-.307.23-.537.384-.844.614H55.74A1.09,1.09,0,0,1,55.893,584.768Zm.307,10.665.153.844c-.384.153-.614-.154-.767-.537A2.3,2.3,0,0,1,56.2,595.433Zm-2.685-9.13c-.153.077-.384.153-.537.23-.307-.23-.384-.691-.307-1.458C52.977,585.535,53.208,585.919,53.515,586.3Zm-4.6-5.985h.614a.973.973,0,0,0-.077.46h-.537c0,.23-.077.46-.077.614C48.834,581.008,48.911,580.624,48.911,580.318Zm-2.379,2.072a10.284,10.284,0,0,0,1.535-.077c-.537.69-.921.69-1.535.077Zm1.381,1.458a.075.075,0,0,0-.077.077h-.23A.58.58,0,0,1,47.914,583.847Zm-5.294,6.215v-.153c.077,0,.077.077,0,.153Zm3.606-12.583c-.23-.077-.614-.077-.614-.154-.384-1-1.381-.614-1.995-1a1.679,1.679,0,0,1-.691-.767C44.384,575.561,46.072,576.558,46.226,577.479ZM43.54,590.6h-.614a.973.973,0,0,0,.077-.46h.537v-.154h.077A1.69,1.69,0,0,1,43.54,590.6Zm0-.691c0-.153.077-.23.077-.384v.307C43.617,589.908,43.617,589.908,43.54,589.908Zm3.606-1.458a1.924,1.924,0,0,0,.307-.537c-.46.23-.844.46-1.228.614a16.038,16.038,0,0,0-1.918.077.6.6,0,0,0-.537.23v-.153a2.034,2.034,0,0,0,.384-.46.7.7,0,0,0-.23-.384c0-.077,0-.153.077-.153a1.5,1.5,0,0,1,.691-.691,1.689,1.689,0,0,1,.614-.077.6.6,0,0,1,.23.537l.23-.307c.537.384.844.307,1.611-.23a1.451,1.451,0,0,1,.767.614A2.811,2.811,0,0,1,47.146,588.451Zm2.225,16.419a12.068,12.068,0,0,1-1-.767c.077-.077.153-.23.23-.307a6.562,6.562,0,0,0,1.228,0v.077a2.847,2.847,0,0,0,.691.153C50.062,604.333,49.678,604.64,49.371,604.87Zm.691-23.248a1.442,1.442,0,0,0-.307-.767l.691-1.074a16.676,16.676,0,0,1,1.918.077c.23,0,.384.46.46.921-.767-.153-1.458-.307-2.225-.46l-.23.23a17.629,17.629,0,0,1,1.151,1.765c-.307.077-.691.384-.767.307A1.671,1.671,0,0,1,50.062,581.622Zm1.381,13.811a1.825,1.825,0,0,0-.691-1,1.056,1.056,0,0,1,.844.077l2.3,1.611a1.087,1.087,0,0,0,.844.077.582.582,0,0,0,.307-.153,5.289,5.289,0,0,1-.23.614.68.68,0,0,1-.384.307c-.767-.384-1.765,0-2.379-.844A2.647,2.647,0,0,0,51.443,595.433Zm.537,9.821c.844-1.151.921-1.228,1.765-.307C53.208,605.407,52.747,605.944,51.98,605.254Zm1.535-2.685c0,.077-.153.077-.307.153a4.593,4.593,0,0,1-.153-.921h-.537l-.23-.691c.691-.154,1.381-.307,2.148-.46v-.46h-.23v-.154a2.718,2.718,0,0,0-.844-.23v-.537a9.286,9.286,0,0,1,1.458-.077c.46.077.614,0,.614-.46,0-.384.153-1,.307-1a2.925,2.925,0,0,1,1.151.077l.153.767A12.4,12.4,0,0,0,53.515,602.568Zm4.527-1.918a14.443,14.443,0,0,0-1.765,1.228c-.384.307-.537.691-.077,1.074a3.625,3.625,0,0,1,.537.921s-.307.23-.537.384a.611.611,0,0,0-.691-.537c0-.844-.844-.844-1.151-1,.46-.844.767-1.611,1.228-2.3.153-.307.537-.46.844-.691.153-.153.384-.23.537-.384l.077.384a.582.582,0,0,0,.307.153,8.346,8.346,0,0,0,1.381-.077A1.244,1.244,0,0,1,58.041,600.65Zm2.532,4.143c.23-.077.537-.307.614-.23.844.614,1.458-.23,2.225-.307a2.362,2.362,0,0,1,1,.23C63.259,605.407,61.264,605.484,60.573,604.793Z" transform="translate(21.031 -50.2)"/>
    <g id="Group_1558" data-name="Group 1558" transform="translate(44.074 517.403)">
      <path id="Path_3173" data-name="Path 3173" class="cls-5" d="M52.451,570.155c-.384.077-.614.077-.844.153a6.39,6.39,0,0,0-.307-1.151h.307a1.988,1.988,0,0,0,2.455-.307c.537-.46,1-1,1.765-.767a4.283,4.283,0,0,1,.614.384c-.153.23-.23.537-.46.614a3.18,3.18,0,0,0-1.458,1.381c-.307.537-1.074.767-1.611,1.151a1.266,1.266,0,0,1-.384-.46A4.719,4.719,0,0,0,52.451,570.155Z" transform="translate(-31.034 -568.028)"/>
      <path id="Path_3174" data-name="Path 3174" class="cls-5" d="M62.444,575.1c.691.153,1.3.307,1.918.46a2.522,2.522,0,0,0-.23.46c.153.537.23.921.384,1.3-.46.077-.844.153-1.3.23-.384,0-1.611-1-1.611-1.3a.975.975,0,0,1,.307-.537A1.456,1.456,0,0,1,62.444,575.1Z" transform="translate(-33.431 -569.674)"/>
      <path id="Path_3175" data-name="Path 3175" class="cls-5" d="M36.627,578.018a1.5,1.5,0,0,1-.537.077v.23c.307.921.23,1.074-.767.844a2.417,2.417,0,0,1-1.765-1.074c-.307-.614-.077-.844.46-.844a10.4,10.4,0,0,1,1.535-.153C36.32,577.02,36.551,577.4,36.627,578.018Z" transform="translate(-26.873 -570.137)"/>
      <path id="Path_3176" data-name="Path 3176" class="cls-5" d="M48.1,568.5c.307.23.614.46,1.074.767-.077.537-.077,1.228-.153,2.072-.23-.077-.537-.153-.537-.23C48.33,570.188,48.253,569.344,48.1,568.5Z" transform="translate(-30.289 -568.138)"/>
      <path id="Path_3177" data-name="Path 3177" class="cls-5" d="M59.5,578.733a12.74,12.74,0,0,1-1-1.074c.537-.921,1.3-.153,1.995-.384.077.077.077.154.153.154A4.7,4.7,0,0,1,59.5,578.733Z" transform="translate(-32.709 -570.161)"/>
      <path id="Path_3178" data-name="Path 3178" class="cls-5" d="M34.349,580.3c.614.23,1.228.384.921,1.151-.077.23-.46.537-.614.46C34.042,581.528,34.119,580.991,34.349,580.3Z" transform="translate(-27.049 -570.884)"/>
      <path id="Path_3179" data-name="Path 3179" class="cls-5" d="M60.307,573.7c.537.077.844.077,1.458.153-.614.767-1.074,1.3-1.535,1.918-.077-.077-.153-.077-.23-.153C60.307,575.081,61,574.621,60.307,573.7Z" transform="translate(-33.059 -569.348)"/>
      <path id="Path_3180" data-name="Path 3180" class="cls-5" d="M37.4,580.518c.23-.614.537-1.151.844-1.918C38.474,580.211,38.321,580.595,37.4,580.518Z" transform="translate(-27.799 -570.489)"/>
      <path id="Path_3181" data-name="Path 3181" class="cls-5" d="M26.048,588.593c-.384.46-.691.844-1.074,1.228C24.667,589.053,25.2,588.439,26.048,588.593Z" transform="translate(-24.886 -572.809)"/>
      <path id="Path_3182" data-name="Path 3182" class="cls-5" d="M40.2,586.974c-.691-.23-.844-.537-.384-1.074A4.438,4.438,0,0,1,40.2,586.974Z" transform="translate(-28.301 -572.188)"/>
      <path id="Path_3183" data-name="Path 3183" class="cls-5" d="M42.336,587.841c.767-1.458.077-2.916.077-4.067.844-.307,1.381-.614,1.995-.767a.88.88,0,0,1,.767.077c1.151.844,1.3.921,2.532.077a3.666,3.666,0,0,1,.844-.46c-.153,1.151-.307,2.072-.46,2.992,0,.153-.153.307-.077.46.307.691.077.921-.614,1a2.414,2.414,0,0,0-1.151.614,1.929,1.929,0,0,1-2.455.691c-.46.614-.921,1.074-1.3,1.611a.88.88,0,0,0-.077.767c.077.384.23.691.307,1-.844.23-1.688.384-2.532.537a.916.916,0,0,1-.691-.384,1.714,1.714,0,0,1,.153-2.609c.077-.077,0-.154.077-.307-.384.23-.691.384-1.228.691.46-.921.767-1.688,1.151-2.378.077-.154.384-.154.614-.154.691-.077.921-.537.691-1.228a9.2,9.2,0,0,1-.23-1.534c.614-.23.921-.154.844.614A2.494,2.494,0,0,0,42.336,587.841Zm1.074-1.458a3.409,3.409,0,0,0,3.836-2.072C46.019,584.925,44.792,585.616,43.41,586.383Zm.077-1.151c.307-.307.691-.46.691-.614a.877.877,0,0,0-.537-.614,3.209,3.209,0,0,0-.921.614C42.95,584.772,43.18,585,43.487,585.232Zm-3.836,3.146a8.684,8.684,0,0,1,1,.767c-.077-.537-.077-.844-.153-1.3C40.188,588.071,39.958,588.148,39.651,588.378Z" transform="translate(-28.055 -571.443)"/>
      <path id="Path_3184" data-name="Path 3184" class="cls-5" d="M72.3,591.946c-.691.23-1.381.537-2.072.767,0,.077-.077.23-.077.307.614.307,1.228.537,1.918.844-.384.921-.767,1-1.611.154-.537-.537-.921-.614-1.381-.154a15.691,15.691,0,0,1,1,2.379,2.093,2.093,0,0,1-.153,1.151c-.23.384-.844.153-1.151-.384-.23-.537-.46-.921-1.074-.23.23,0,.46.077.691.077-.153.384-.23.691-.384,1a.681.681,0,0,1-.384.307c-.767-.384-1.765-.077-2.455-.921a7.683,7.683,0,0,0-1.151-1,2.807,2.807,0,0,1-.23,1.074c-.077.153-.307.23-.46.384-.077-.153-.23-.307-.307-.46a6.117,6.117,0,0,0-.23-1.151,1.276,1.276,0,0,1,1.3-1.688c.537,0,1.151-.537,1.458.23a3.167,3.167,0,0,0,.844-.537c.077.077.077.154.153.154a1.059,1.059,0,0,1-.307.23c.844.23,1.458-.153,1.3-.844-.077-.46-.153-1,.384-1.151a2.92,2.92,0,0,1,1.381.23C70.15,592.023,70.763,590.719,72.3,591.946Z" transform="translate(-33.694 -573.477)"/>
      <path id="Path_3185" data-name="Path 3185" class="cls-5" d="M52.506,603.481c-.077-.384-.153-.691-.23-1H49.591c-.23,0-.46-.23-.691-.384a6.4,6.4,0,0,1,.614-.921,1.542,1.542,0,0,1,.614-.307l-.307-.614c.384-.077.614-.23.921-.307a.825.825,0,0,1,1.151.767c.077.691.691.614,1.074.767.077,0,.307-.384.46-.537-.23-.153-.537-.307-.921-.537v-.46c.614,0,1.151.077,1.688.077.077,0,.23-.307.307-.537.153-.307.153-1,.307-1a5.482,5.482,0,0,1,1.535.153s.077.537,0,.614a10.825,10.825,0,0,0-3.376,3.836C52.966,603.251,52.736,603.327,52.506,603.481Z" transform="translate(-30.475 -575.114)"/>
      <path id="Path_3186" data-name="Path 3186" class="cls-5" d="M55.3,610.294c.46-.844.767-1.611,1.228-2.3.153-.307.537-.46.844-.691a4.26,4.26,0,0,0,.614-.46,1.627,1.627,0,0,1,1.841-.384,2.15,2.15,0,0,1-.921,1.765,14.45,14.45,0,0,0-1.765,1.228c-.384.307-.537.691-.077,1.074a3.626,3.626,0,0,1,.537.921s-.307.23-.537.384a.611.611,0,0,0-.691-.537C56.451,610.447,55.607,610.524,55.3,610.294Z" transform="translate(-31.965 -576.94)"/>
      <path id="Path_3187" data-name="Path 3187" class="cls-5" d="M28.369,607.772v-.844c-.23-.077-.614-.077-.767-.23-.077-.153.077-.537.153-1,.384.307.691.537.921.767.384.46.614,1,1.381.921.23,0,.46.46.844.844-1,.077-1.688.691-2.532.153-.23-.153-.614-.077-.921-.23a2.537,2.537,0,0,1-1.151-.767c-.077-.153.307-.691.537-1C26.988,607.848,27.294,608.155,28.369,607.772Z" transform="translate(-25.212 -576.796)"/>
      <path id="Path_3188" data-name="Path 3188" class="cls-5" d="M28.509,597.444a1.593,1.593,0,0,1-1.995,1.228c-.307-.077-.384-.767-.614-1.151.537-.384.921-.844,1.381-.921C27.665,596.677,28.125,597.214,28.509,597.444Z" transform="translate(-25.122 -574.678)"/>
      <path id="Path_3189" data-name="Path 3189" class="cls-5" d="M30.1,589.8h1c.153.46.307.844.46,1.228a4.046,4.046,0,0,1,.23.921,3.458,3.458,0,0,1-.23.844c-.307-.153-.844-.307-.921-.614-.23-.537-.767-1.151-.384-1.841C30.33,590.337,30.177,590.107,30.1,589.8Z" transform="translate(-26.1 -573.095)"/>
      <path id="Path_3190" data-name="Path 3190" class="cls-5" d="M44.376,611.818a15.254,15.254,0,0,1-1.688.153,4.047,4.047,0,0,1-.921-.23c-.077,0-.153-.307-.077-.384.23-.153.537-.384.767-.307.691.153,1.074-.384,1.535-.767.153-.153.384-.23.537-.384.077.077.153.077.153.153C44.606,610.744,44.453,611.358,44.376,611.818Z" transform="translate(-28.79 -577.773)"/>
      <path id="Path_3191" data-name="Path 3191" class="cls-5" d="M44.277,612.877c.46,0,.921-.077,1.535-.077-.153.767-.23,1.458-.384,2.148,0,.077-.46.23-.537.077C44.353,614.795,44.046,613.414,44.277,612.877Z" transform="translate(-29.381 -578.448)"/>
      <path id="Path_3192" data-name="Path 3192" class="cls-5" d="M75.066,604.978c-1.381-.23-2.609,1.151-4.066-.153.384-.154.691-.307.844-.23.691.537,1.151,0,1.765-.154C73.992,604.288,74.606,603.9,75.066,604.978Z" transform="translate(-35.619 -576.458)"/>
      <path id="Path_3193" data-name="Path 3193" class="cls-5" d="M31.635,616.181a11.358,11.358,0,0,1-1-.614,2.389,2.389,0,0,1-.537-.691c.23,0,.46-.077.691-.077a2.138,2.138,0,0,1,.767.077c.307.153.767.46.767.691,0,.307-.307.614-.537.921A.4.4,0,0,0,31.635,616.181Z" transform="translate(-26.1 -578.914)"/>
      <path id="Path_3194" data-name="Path 3194" class="cls-5" d="M48.4,605.565a12.077,12.077,0,0,1-1-.767c.23-.307.46-.614.767-1,.23.23.46.384.691.614l-.153.153c.307.077.537.153.767.23C49.088,605.1,48.7,605.334,48.4,605.565Z" transform="translate(-30.126 -576.354)"/>
      <path id="Path_3195" data-name="Path 3195" class="cls-5" d="M31.6,613.817c1.074-.537,1.765-.307,2.455.921A2.651,2.651,0,0,1,31.6,613.817Z" transform="translate(-26.449 -578.622)"/>
      <path id="Path_3196" data-name="Path 3196" class="cls-5" d="M31.555,605.944c-.307.384-.614.614-.844.921-.23-.23-.691-.614-.614-.767a3.443,3.443,0,0,1,.844-1C31.095,605.33,31.248,605.56,31.555,605.944Z" transform="translate(-26.097 -576.656)"/>
      <path id="Path_3197" data-name="Path 3197" class="cls-5" d="M47.565,609.94c-1,.23-1.458-.077-1.765-1.074C46.721,608.559,47.181,608.866,47.565,609.94Z" transform="translate(-29.754 -577.506)"/>
      <path id="Path_3198" data-name="Path 3198" class="cls-5" d="M52.1,606.4c.767-1.228.921-1.228,1.688-.384C53.328,606.481,52.944,607.018,52.1,606.4Z" transform="translate(-31.22 -576.733)"/>
      <path id="Path_3199" data-name="Path 3199" class="cls-5" d="M64.4,592.5c.767.307,1.381.537,1.995.767C65.551,593.728,64.937,593.574,64.4,592.5Z" transform="translate(-34.083 -573.724)"/>
      <path id="Path_3200" data-name="Path 3200" class="cls-5" d="M46.887,601.411c-.23-.153-.537-.307-.614-.46-.077-.384-.307-1,.537-1.151.077.46.153,1,.23,1.458Z" transform="translate(-29.844 -575.423)"/>
      <path id="Path_3201" data-name="Path 3201" class="cls-5" d="M30.8,613.721c-.23.077-.46.153-.767.23-.077-.384-.153-.691-.23-1,.077-.077.153-.077.153-.153l.921.691A.379.379,0,0,1,30.8,613.721Z" transform="translate(-26.03 -578.448)"/>
      <path id="Path_3202" data-name="Path 3202" class="cls-5" d="M40.774,599.877c-.077.46-.23.921-.307,1.535-.307-.153-.46-.307-.767-.46q.575-.69.921-1.151A.268.268,0,0,1,40.774,599.877Z" transform="translate(-28.334 -575.423)"/>
    </g>
  </g>
</svg>
