<svg xmlns="http://www.w3.org/2000/svg" viewBox="0 0 54.617 120">
  <defs>
    <style>
      .cls-1 {
        fill: #a86622;
      }

      .cls-2 {
        fill: #7c4411;
      }

      .cls-3 {
        fill: #3f2302;
      }

      .cls-4 {
        fill: #106610;
      }

      .cls-5 {
        fill: #17c417;
      }
    </style>
  </defs>
  <g id="v5" transform="translate(-152.552 -516)">
    <path id="Path_2915" data-name="Path 2915" class="cls-1" d="M138.7,689.9l5.311,21.244c0,2.01,6.675,2.225,9.545,2.225s9.545-.215,9.545-2.225l5.311-21.244Z" transform="translate(25.837 -77.369)"/>
    <path id="Path_2916" data-name="Path 2916" class="cls-2" d="M153.628,692.09c-4.45,0-14.928-.359-14.928-3.445,0-3.158,10.407-3.445,14.928-3.445s14.928.359,14.928,3.445S158.078,692.09,153.628,692.09Z" transform="translate(25.837 -76.042)"/>
    <ellipse id="Ellipse_158" data-name="Ellipse 158" class="cls-3" cx="13.852" cy="2.44" rx="13.852" ry="2.44" transform="translate(165.614 609.589)"/>
    <g id="Group_1540" data-name="Group 1540" transform="translate(175.662 546)">
      <path id="Path_2917" data-name="Path 2917" class="cls-3" d="M156.927,603.588a3.912,3.912,0,0,1,.359,1.579,29.338,29.338,0,0,1,.5,4.306c-.144,3.014-.5,6.029-.718,9.043-.215,2.871-.359,5.742-.574,8.612-.144,1.651-.359,3.3-.359,4.952,0,8.038,0,16.077.072,24.115.072,2.656-.287,5.311,0,7.966h3.23v-.072c-.574,0-1.148-.072-1.722-.072a.264.264,0,0,0-.072-.215c.5-.144,1.077-.287,1.651-.431a.91.91,0,0,1,.072-.431c0-.359-.072-.718-.072-1.077h0a1.121,1.121,0,0,0-1.148-.574c.359-.431.646-.789,1-1.22v-.215a13.392,13.392,0,0,1-1.579-.5,4.023,4.023,0,0,0,1.507-.5,6.173,6.173,0,0,0-.072-1.148,2.182,2.182,0,0,0-.359-.5c.144-.072.215-.144.359-.215-.072-1.292-.072-2.584-.144-3.8-.5-.144-1-.215-1.435-.359v-.431c.431-.072.861-.144,1.435-.215v.718c0-.646-.072-1.364-.072-2.01v.359c-.431-.359-.789-.789-1.292-1.22q.754.108,1.292.215v-.861h0c-.144-.144-.359-.215-.5-.359a.538.538,0,0,0,.359-.072c0-.144.072-.215.072-.359,0-.861,0-1.723-.072-2.584a2.718,2.718,0,0,1,0-1.077v-1.148c-.072-5.813.215-11.627.359-17.512.144-5.813.287-11.555.5-17.368,0-.646.287-1.723.646-1.866,1.077-.359.789-.861.718-1.579a7.269,7.269,0,0,1,.072-2.8,1.861,1.861,0,0,0,.144-1.723,1.738,1.738,0,0,1,.215-2.01,1,1,0,0,0,.215-.646,1.227,1.227,0,0,1,.215-1.077,4.943,4.943,0,0,1-.574.215,5.057,5.057,0,0,0-2.44,3.014c-.359,1.507-.861,1.651-2.871-.646s-1.292,0-1.651.215a12.933,12.933,0,0,0,1.077,2.225C155.851,602.87,156.568,603.085,156.927,603.588Zm2.153,51.746v.215l-.072-.072C159.009,655.406,159.009,655.334,159.08,655.334Z" transform="translate(-154.2 -597.2)"/>
      <path id="Path_2918" data-name="Path 2918" class="cls-3" d="M161.2,683.1Z" transform="translate(-156.176 -621.449)"/>
    </g>
    <path id="Path_2919" data-name="Path 2919" class="cls-4" d="M176.258,592.505a3.537,3.537,0,0,0-1.148-2.3c-.072-.072-.144-.215-.215-.287l1.722,1.22-.287-.5a13.48,13.48,0,0,0-3.732-3.8h0l2.8,1.651.144-.287-.359-.431.861.144-2.153-1.722,1.364.646.215-.431-4.234-2.225.718.072.144-.287-2.512-1.077h0l4.091,1.148.144-.359-3.947-1.507.431-.287-2.225-.431h2.943v-.431h-.144c-.287,0-.646-.072-.933-.072-.789-.072-1.651-.144-2.512-.215a1.52,1.52,0,0,1-.5-.215c-.072-.072-.144-.072-.215-.144a1.647,1.647,0,0,0-2.081-.861l-.861.215a6.082,6.082,0,0,1-1.22.287,1.028,1.028,0,0,1-.718-.287,13.265,13.265,0,0,1-1-1l-.144-.144c-.215-.287-.5-.574-.718-.861-.072-.072-.144-.215-.215-.287l.072-.144,1.364.5.646-.359-.072-.144c-.144-.215-.215-.359-.359-.574h1.938l-.359-.5,1.077.718-.215-.789h1.148l-1.722-1.579h0l1.148.933.287-.215-.287-.933a1.526,1.526,0,0,1,1.077.5,1.882,1.882,0,0,0,.646.359h.072l.072-.072a.693.693,0,0,1,1,.144,1.593,1.593,0,0,0,.789.359h.144V575.5a1.991,1.991,0,0,0-.718-1.435c-.144-.215-.359-.359-.431-.574l1.651,1.292.215-.215-.215-.431.861.431c.072.072.144.072.215.144a.538.538,0,0,0,.359.072h.359l-.072-.215v-.144c0-.144-.072-.215-.144-.359a.865.865,0,0,0-.359-.359l1.292.5.144-.287-1-.718,1.866,1,.215-.287-1-.789,1.651.574-.718-.933.933.072-.215-.215a1.49,1.49,0,0,0-.718-.431l-.574-.144c-2.3-.574-4.737-1.148-7.249-.359l-1.722.431a9.774,9.774,0,0,0-1.22.287c-.359.072-.5,0-.789-.287l-1.077-1.077-.5-.5c-.072-.072-.072-.144-.215-.215l1.507.072.072-.359-1.364-.5,2.081-.431-.072-.359-2.512.072h0l4.522-1.866-.933.144a2.615,2.615,0,0,1-2.368-.574l2.8-.861-.072-.431-2.584.144,4.45-.861-2.727-.144,3.589-.431v-.287l-1.077-.144,3.23.215v-.431l-2.3-.5v-.072l3.014-.144v-.287l-3.66-.215V562l3.3-1.435h-.574a6.938,6.938,0,0,0-3.947,1.22,16.673,16.673,0,0,1,2.225-1.364,2.909,2.909,0,0,0,.646-.359l.431-.215h-.5a7.543,7.543,0,0,0-4.952,2.871c-.215.287-.359.5-.718.287l4.665-4.234-.215-.359-3.876,2.8h0l3.158-3.158-.5.215a8.1,8.1,0,0,0-3.086,2.512.991.991,0,0,0-.215.287l1.722-2.727-.287-.287-1.866,2.3,1.077-2.3-.359.215a1.131,1.131,0,0,0-.5.5c-.144.287-.359.574-.5.861-.287.431-.5.861-.789,1.292a1.569,1.569,0,0,1-.359.215c-.072,0-.072.072-.144.072l-.072-.072,1-2.081-.287-.144-.861,1.22.431-1.22-.5.574a11.557,11.557,0,0,0-2.727,6.1c0,.359-.072.646-.5.718l2.153-7.177-.5.933-.215.431a2.426,2.426,0,0,0-.431.861c-.359,1.148-.789,2.368-1.148,3.517l-.646,1.938c-.072.144-.144.359-.215.5,0,.072-.072.072-.072.144l-.072-.072,1.292-5.167-.5-.144-1.507,4.45.574-3.66-.287.5a13.093,13.093,0,0,0-1.722,6.675h-.072l.574-5.383-.287.718a3.5,3.5,0,0,1-.215.5c-.144.359-.287.646-.431,1-.144.287-.215.574-.359.861a16.508,16.508,0,0,0-.861,2.44c-.215.789-.287,1.579-.431,2.368-.072.431-.072.861-.144,1.292l-.215.646c0,.072-.072.144-.072.215h0a17.365,17.365,0,0,1,5.885-13.636l-.144-.215-.646.431a8.33,8.33,0,0,1,2.655-2.584l.5-.359-.574.144a6.884,6.884,0,0,0-3.086,1.938L155.3,558.2l-.5.359a5.75,5.75,0,0,0-1.364,1.292,18.407,18.407,0,0,0-1.148,1.579l-.646,1.077h0l1-2.584-.933.861.072-.646-.287-.072-.574,1.292.144-.718-.287-.072L150.206,562l.144-2.081-.5-.072-.718,5.526h0l-.789-3.014-.359.072v1.148l-.431-.646.359,5.239h-.072l-.933-2.8-.431.144.718,3.23-.718-1.794-.431.144.933,3.66-.646-1.435-.359.144.789,4.378a3.642,3.642,0,0,1-1.077-2.153c-.072-1.364-.215-2.727-.287-4.019-.072-.5-.072-1.077-.144-1.579v-.072h-.072c-.5-.072-.5-.359-.574-.718-.072-.287-.072-.574-.359-.789l-.215-.144.144,2.656-1.077-4.88-.359.072v.574l-1.364-3.373-.431.072.646,5.742-1.077-5.239-.287.072-.144.789-.933-3.589-.287.072v1.579l-.789-3.517-.5.072.789,5.311-3.517-3.373.431.718a13.706,13.706,0,0,0,3.373,3.947,1.287,1.287,0,0,1,.359.5c.072.072.072.143.144.143l-.072.072-5.383-4.019.574.718a1.26,1.26,0,0,0,.287.359,8.816,8.816,0,0,0,1.579,1.723,27.849,27.849,0,0,0,2.368,1.651c.359.287.789.5,1.148.789.144.072.215.215.359.287l.072.072h0l-5.455-3.589-.287.359,2.871,2.44-3.589-.933-.144.359,3.158,1.292-2.368-.359-.072.359,3.445,1a9.293,9.293,0,0,0-2.8-.287H134.2l.646.215c2.081.646,3.947,1.22,5.742,1.723.431.144.574.287.646.646l-5.67-1.507-.144.5,5.742,2.01-5.455-1.077.789,1.579-1.866-1.938-.215.287,1.794,2.727a8.839,8.839,0,0,0-3.66-2.871l-.718-.215.646.431a12.339,12.339,0,0,1,2.584,2.512c-.215-.215-.5-.359-.718-.574a12.025,12.025,0,0,0-3.014-1.938l-.574-.215.431.431c.359.359.789.718,1.22,1.077.215.144.359.359.574.5.718.646,1.22,1.148,1.723,1.579.359.359.718.789,1.077,1.148a1.9,1.9,0,0,1,.359.431h0c-.072-.072-.144-.072-.144-.144-.215-.144-.359-.215-.431-.359a7.853,7.853,0,0,0-3.3-2.727,9.74,9.74,0,0,0-1.651-.646c-.287-.072-.5-.215-.789-.287l-.144-.072-.144.431.072.072c.144.072.215.144.359.144a7.842,7.842,0,0,1,.789.431c.431.215.789.431,1.148.646h.072a7.289,7.289,0,0,0-3.517-.861l-.5.072,3.947,1.651h0a.431.431,0,0,1-.287-.072c-.287-.072-.574-.072-.861-.144a10.621,10.621,0,0,0-1.435-.072,3.494,3.494,0,0,0-.861.072h-.5l.072.359,2.943.431-2.512.287.072.359,2.44.144v.287l3.8.789-3.086-.144,4.665,1.22-2.584-.287-.072.287,3.589,1.364-1.507-.287,2.081,1.077a5.979,5.979,0,0,1-1.077-.287c-.933-.215-1.866-.5-2.8-.718-.287-.072-.574-.215-.861-.287a5.459,5.459,0,0,0-1.794-.431,15.275,15.275,0,0,1-1.938-.144h-.215c-.215,0-.431-.072-.718-.072a1.987,1.987,0,0,1-.646-.072l-1.077-.072.718.287c.646.215,1.22.431,1.866.646a12.386,12.386,0,0,1,2.3.789v.072l-7.249-1.148.646.5h0l-2.943-.933.574.431a10.736,10.736,0,0,0,4.593,1.866,9.644,9.644,0,0,1-3.517,0h-.144l-.072.431,2.3.574a7.179,7.179,0,0,1-3.3-.072l-.5-.144.359.287a3.751,3.751,0,0,0,2.584.718h.359l-1.866,2.153.359.287,1.148-.933-2.153,3.014.431.431.933-1.077-1,2.871.359.144.861-1.507-.718,3.23.359.144,1.22-3.589.215,1.938h.5l.215-4.091.287,2.368.431-.072.144-2.44.287,1.435h.431v-.144a5.46,5.46,0,0,1,1-4.163,9.284,9.284,0,0,0-.431,4.45l.072.431,1.722-4.163h.072l-2.44,5.813.359-.215c1.794-1.22,2.584-3.158,3.373-5.1a1.02,1.02,0,0,0,.144-.431h.072l-1.22,4.306.431.215,1.579-2.584a8.963,8.963,0,0,0,.072,3.66l.144.5.646-4.665h.072l-.215,3.66.5.072.144-1.22c.144-1.148.287-2.225.431-3.373a1.331,1.331,0,0,1,.144-.5v-.144h.072a12.176,12.176,0,0,1,.072,3.23c-.072.718-.072,1.435-.072,2.153v.646l.431-1.292.072,2.153h.5v-.144c0-.359.072-.718.072-1,.072-.933.072-1.938.215-2.871,0-.144.144-.287.215-.5l.072-.072-.287,5.239h.359l.359-1.507.072,1.938h.5l.072-1c.072-.789.072-1.651.144-2.512a1.02,1.02,0,0,1,.144-.431v-.072l.072,3.66.431.072.359-2.8h0l.861,2.8h-.072a3.109,3.109,0,0,0-.359.072,4.646,4.646,0,0,1-.933.287,14.941,14.941,0,0,0-2.3.861,30.166,30.166,0,0,0-3.732,2.225,1.83,1.83,0,0,0-.574.861c-.072.144-.072.215-.144.287-.072.144-.072.215-.144.359,0,.143-.072.215-.144.359l-.646.861a12.223,12.223,0,0,0-1.077,1.579,7,7,0,0,0-.574,1.579c-.072.215-.144.5-.215.718l-.072.144.359.144.287-.359.215,2.871h.431l.359-3.517h0a8.006,8.006,0,0,0,1.22,4.665l.359.431-.359-1.866.431.431.144.144a3.316,3.316,0,0,0,.5.5l.215.215.5.5-.287-.646-.431-.861a19.1,19.1,0,0,1-1.148-2.8L133.2,601.4l.431-.215-.789-2.01h0l.646.861.287-.144-1.292-2.656.072.072.072.072c.072.143.215.215.287.359l.215.215.359-.215-.072-.144a3.045,3.045,0,0,1-.431-2.368v-.287l1,3.66.359-.072-.072-.789a6.052,6.052,0,0,1,.144,3.589,4.787,4.787,0,0,0,.072,3.158l.072.215.359-.359.646,1.507-.072-.789a5.319,5.319,0,0,1,.072-1.507,5.025,5.025,0,0,0,0-1.794l1,2.01.431-.144-.144-.359a8.238,8.238,0,0,1-.718-3.3l1.077,2.727.359-.144v-.143a13.646,13.646,0,0,1-.574-5.024,11.433,11.433,0,0,0,1,4.306l.359.646-.574-3.445h.072l1.292,2.871-.144-1a4.2,4.2,0,0,1-.144-.933,13.6,13.6,0,0,1-.287-4.809,1.259,1.259,0,0,1,.287.359c.072.144.215.287.287.431a8.967,8.967,0,0,0,.646.861,1.892,1.892,0,0,0,1.938.574l.215-.072-.789-.574,1.435.431-.574-.431a4.214,4.214,0,0,1-1.722-2.225l1.794,2.081-.144-.574a1.71,1.71,0,0,0-.431-.789l-.215-.431c-.072-.072-.072-.215-.144-.287a1.893,1.893,0,0,1-.359-1.077,1.1,1.1,0,0,0-.072-1.077c0-.072-.072-.144-.072-.215v-.072l2.368,3.589.287-.215-1-2.368h0l1.794,1.794-1.22-2.512h0l.718,1.364.287-.144v-.144l-.5-1.579c.072,0,.144.072.215.072l.144.072-.072-.933H143.6a1.929,1.929,0,0,1-.574-1.292,1.287,1.287,0,0,1,.5.359l.144.144.072-.144a1.265,1.265,0,0,1,1.077-.861c.933-.144,2.871.646,6.459,5.1l.144.072c.072.072.215.144.287.215a1.569,1.569,0,0,1,.215.359.251.251,0,0,0,.072.144l.144.215h0a.59.59,0,0,0,.5.072l.144-.072-.5-.933c.718.287,1.148.646,1.22,1.364h.215c0-.861,0-1.651-.072-2.512a13.059,13.059,0,0,1,.144-4.091c.574.431,1,.718,1.077,1a.431.431,0,0,1-.072.287l-.072-.072-.215-.215-.215-.215-.215-.215v.287c0,.718-.072,1.364-.072,2.01a33.028,33.028,0,0,0,0,5.957v.072h.5l.144-2.584.072,2.368h.359l.359-6.316c.144,1,.287,2.01.359,3.086.072,1,.072,1.938.144,2.943a7.8,7.8,0,0,0,.072,1.292v.144h.359l.072-.789.215.789.359-.072.144-2.01.287,2.584h.431l.072-1.794.287,2.153.5-.072v-4.091c.072.287.144.574.215.789a8.38,8.38,0,0,0,1.148,3.158l.215.359v-.431a9.9,9.9,0,0,0-.215-1.435,4.554,4.554,0,0,1-.215-1.723c.287.215.5.431.789.646a9.263,9.263,0,0,0,3.3,2.225l.646.215-1.22-1.077.718.215.144-.287-2.44-1.651,1.292.359-1.507-1.22,2.081,1.077-.431-.5a8.887,8.887,0,0,0-1.579-1.292,6.9,6.9,0,0,1-1.579-1.292l2.584,1.794-.144-.359a.91.91,0,0,1-.072-.431c-.072-.431-.144-.933-.718-1.077l-.072-.144c.072-.144.144-.215.144-.359a.477.477,0,0,0-.287-.359c-.072,0-.072-.072-.144-.072a4.647,4.647,0,0,0-.646-.574l-.215-.215c-.431-.359-.861-.718-1.292-1.148l-.5-.431,3.8,2.153-.144-.359a8.277,8.277,0,0,0-2.512-3.3,2.512,2.512,0,0,1-.574-2.01l.646,1.938.287-.574.574,1.077v-.431a7.111,7.111,0,0,0-.144-1.292,3.44,3.44,0,0,1,.072-2.081l.574,1.435.287-.5.431,2.3.144-.574a8.48,8.48,0,0,0-.431-4.45,8.251,8.251,0,0,1,.861,4.45v.431l1.292-1.794-.072-.5.646,1.364.144-.215a3.641,3.641,0,0,0,.287-1.723l.072.431.574-.718.072,2.081.5-.144.431,1.938h.287v-1.22l.287,1.651.144-.431a4.2,4.2,0,0,0,.144-.933,1.941,1.941,0,0,1,.431-1.364l.215,3.086h.431l.144-2.727h.072l.789,5.024.359-.072-.144-3.517.646,2.871h.359l-.144-2.01.718,2.081.359-.072-1.364-5.885h0a22.629,22.629,0,0,1,2.081,7.034l.215,1.077.144-2.44.287,3.3.144-.789a12.333,12.333,0,0,0-.144-5.383,15.51,15.51,0,0,1,.789,3.517,15.084,15.084,0,0,0,.646,3.014l.287,1-.287-5.6h0a8.371,8.371,0,0,1,.718,1.866,6.722,6.722,0,0,0,.287,1.148l.287.718-.072-2.584.646.789Zm-9.33-7.679.072.431-.072-.431Zm-4.091-3.66.144-.144a3.806,3.806,0,0,1,2.584-.359c-.144.072-.359.144-.5.215a3.5,3.5,0,0,1-.5.215,2.571,2.571,0,0,1-.789.287,2.441,2.441,0,0,1-.718.072.991.991,0,0,1-.215-.287c0,.072-.072.072,0,0Zm3.589-.574c-.072.072-.215,0-.359-.072h0l-.789-.574a1.148,1.148,0,0,1,1.148.359h.072C166.5,580.448,166.426,580.52,166.426,580.591Zm-5.1-.431-.072.144-1.507-1.507h0ZM157.311,564.8l.215-.718.646.144-.861.574Zm1.148,8.469c-.574-.5-1.22-1-1.794-1.507l-.215-.215,2.368,1.579v.072h-.072A.716.716,0,0,1,158.459,573.271Zm-.431.215a3.926,3.926,0,0,1-1.866-1.148l1.866,1.148Zm2.081,7.034-1.364-1.435h0c.072.072.215.072.287.144.789.431,1.507.861,1.651,1.866-.574.359-.789.287-1.292-.215l-.718-.718-.287-.287Zm-.287-7.679h-.144c-.144,0-.287.072-.359,0-.646-.5-1.292-1.077-1.866-1.579l-.215-.215a7.41,7.41,0,0,1,2.368,1.507l.215.287Zm-4.593.431,1.364.789c-.072.072-.144.072-.287.072C156.019,574.132,155.589,573.773,155.23,573.271Zm.5,9.115-1.292-1.507-.287-.359.072-.072.359.359c.5.431.933.933,1.435,1.435v.215h0A.715.715,0,0,0,155.732,582.386Zm.5-1.22-.215-.431h0l1,1.22h-.072C156.593,581.811,156.45,581.524,156.234,581.166Zm-2.512-6.962,1.938.431v.072l-.5.287Zm1.364.861-.574.359c-.144.072-.215.144-.359.215a4.357,4.357,0,0,0-.718.5c-.574.5-1,.5-1.435.144l1.507-.646-.215-.431Zm-2.153,13.493.072.072c.072.072.215.215.215.287-.072.5-.215,1-.287,1.507,0,.144-.072.215-.072.359Zm.144,5.024.144.574c-.144-.072-.215-.072-.215-.143A.474.474,0,0,1,153.077,593.582ZM157.024,592a1.606,1.606,0,0,1,.072,1.507h0v-.718a4.237,4.237,0,0,0-.144-1C156.952,591.859,157.024,591.931,157.024,592Zm.431-6.531a4.11,4.11,0,0,1,1,2.01c.144.359.215.646.359,1C157.526,587.984,157.167,587.122,157.455,585.472Zm-3.8,2.368c.072.072.144.072.215.144.215.144.5.215.718.359a5.552,5.552,0,0,1,1.794,2.153.544.544,0,0,0,.144.287,5.029,5.029,0,0,0-.574-.718c-.072-.144-.215-.215-.359-.359v-.072l-.933-.933-.574-.574-.431-.287Zm-17.584,7.249c.144.215.359.5.5.718l-.144.144-.072.072-.287-1.077A.1.1,0,0,0,136.067,595.089Zm-1-3.732c0-.072-.072-.143-.072-.287V591h0l.144.144c.5,1,1.077,2.01,1.579,3.014v.072a3.5,3.5,0,0,1,.215.5c0,.072-.072.144-.072.287h0a.154.154,0,0,1-.144-.144C136.211,593.869,135.708,592.721,135.062,591.357Zm-.933,1.22h.072c0,.144.072.287.072.431.072.431.144.861.215,1.364a14.6,14.6,0,0,0,.646,1.866l.215.431.072-.933a1.078,1.078,0,0,1,.5.646c.072.5-.287,1.077-.933,1.794a10.242,10.242,0,0,0-.431-2.584A5.542,5.542,0,0,1,134.129,592.577Zm2.727-1.723.431,1.651A2.144,2.144,0,0,1,136.856,590.854Zm2.225.574h0c-.144-.072-.144-.144-.215-.215-.072-.215-.215-.5-.287-.718-.215-.431-.359-.861-.574-1.292-.144-.215-.072-.287-.072-.287a.314.314,0,0,1,.215-.072Zm-1.148,1.866.072-1.077C138.292,592.792,138.292,593.008,137.933,593.295Zm-.574-24.258.072-.072.646.646-.144.144Zm.574,12.7-.215,1.077h0a.432.432,0,0,0-.072-.287c-.072-.359-.072-.646.215-.789Zm1.866,7.321c.072.287.215.646.287,1,0,.072.072.215.072.287h-.072l-1.292-1.794a1.652,1.652,0,0,1,.646-.215A2.175,2.175,0,0,1,139.8,589.06Zm.5-4.45.144-.144h.072l-.431.789C139.943,584.969,140.086,584.826,140.3,584.61Zm.215,1.077.574,1.651a.71.71,0,0,1-.574-.072,1.569,1.569,0,0,1-.215-.359c0-.072-.072-.215-.072-.287C140.158,586.118,140.086,585.831,140.517,585.687Zm1.077-10.407-.072-.861A.924.924,0,0,1,141.593,575.28Zm-2.225-5.813c.215.072.431.072.646.144a15.337,15.337,0,0,1,1.938.431c.144.072.215.287.359.5.072.072.072.215.144.287l-.072.072c-.359-.144-.789-.215-1.148-.359a2.721,2.721,0,0,1-1.938-1Zm3.014,4.234h0a7.363,7.363,0,0,1,.287,1h-.144c0-.072,0-.072-.072-.144a1.826,1.826,0,0,1-.144-.5A.87.87,0,0,0,142.383,573.7Zm-1.651-7.464h0l-.287-.072Z" transform="translate(30.552 -39.4)"/>
    <path id="Path_2920" data-name="Path 2920" class="cls-5" d="M158.029,588.755c.072-1.22,1.077-1.507,1.507-2.225-.5.287-1,.5-1.507.789,0-.072-.072-.072-.072-.144.431-.359.789-.646,1.22-1l-.072-.072c-.574.287-1.22.574-1.794.861-.072-.144-.072-.287-.144-.431-.574.431-1.077.861-1.794,1.435a9.359,9.359,0,0,1,.215-.933h-.072a7.172,7.172,0,0,1-1,.574.07.07,0,0,1,.072-.072c-1.364.789-2.368,1.292-2.368,1.292l-.215.215a17.033,17.033,0,0,0,6.244,4.88l.072-.072c-.215-.287-.5-.5-.789-.861,1.722.718,3.23,1.364,4.809,2.01.072-.072.072-.144.144-.287-.5-.215-1-.5-1.507-.718,0-.072,0-.072.072-.144.789.144,1.579.287,2.584.5a4.1,4.1,0,0,1-.574-.5h.861c0-.072,0-.072.072-.144l-3.014-1.077a.543.543,0,0,1,.072-.287,12.233,12.233,0,0,0,5.383.5c-.646-.144-1.148-.287-1.651-.431V592.2a4.305,4.305,0,0,0,2.943-.574h-1.077c.646-.5,1.22-.933,1.722-1.364-1.077.359-1.938,1.148-3.086,1.22a.251.251,0,0,0-.072-.144c1.22-.933,2.512-1.866,3.732-2.8-2.44,1-4.45,2.871-7.105,3.445a15.116,15.116,0,0,0,5.167-3.8c-.861.574-1.651,1.148-2.512,1.723,0-.072-.072-.072-.072-.144.431-.431.933-.861,1.364-1.292a23.509,23.509,0,0,1-6.89,2.943c0-.072-.072-.144-.072-.215,1.794-.933,3.589-1.794,5.455-2.727,0-.072-.072-.072-.072-.144-.789.287-1.507.574-2.3.861,0-.072-.072-.072-.072-.144.574-.431,1.22-.861,1.794-1.292l-.072-.072c-.933.431-1.794.933-2.727,1.364-.072-.072-.072-.144-.144-.144.933-.718,1.866-1.435,2.8-2.225,0-.072-.072-.072-.072-.144l-4.306,2.584c-.072-.072-.144-.144-.144-.215.646-.646,1.364-1.22,2.01-1.866,0-.072-.072-.072-.072-.144A19.716,19.716,0,0,0,158.029,588.755Zm-1.077.144c-.431.287-.861.5-1.292.789-.072-.072-.072-.144-.144-.215.431-.215.861-.5,1.292-.718Z" transform="translate(22.083 -48.066)"/>
    <path id="Path_2921" data-name="Path 2921" class="cls-3" d="M164.9,709.644a4.574,4.574,0,0,1,.5-.144A4.575,4.575,0,0,0,164.9,709.644Z" transform="translate(18.441 -82.902)"/>
    <path id="Path_2922" data-name="Path 2922" class="cls-3" d="M161.2,686c0,.287.072.646.072.933A3.791,3.791,0,0,1,161.2,686Z" transform="translate(19.486 -76.268)"/>
    <path id="Path_2923" data-name="Path 2923" class="cls-5" d="M153.994,576.537c.431.5.933-2.081,1.22-3.517h0a17.8,17.8,0,0,1,.574-5.239v-.144a17.074,17.074,0,0,1,1.651-3.947h0a14.678,14.678,0,0,1,1.794-2.512v-.072h0a23.334,23.334,0,0,1,1.866-1.938,9.349,9.349,0,0,0-1.077.718,10.069,10.069,0,0,1,2.943-3.086,6.615,6.615,0,0,0-3.23,2.153l-.144-.144c.431-.646.861-1.292,1.364-1.938a5.832,5.832,0,0,0-1.364,1.292,12.69,12.69,0,0,0-1.148,1.579,17.177,17.177,0,0,0-.933,1.507c-.072,0-.072-.072-.144-.072.287-.789.646-1.579,1-2.512l-.718.718c.072-.431.072-.646.144-.933h-.072c-.215.5-.431,1-.718,1.579-.072,0-.072-.072-.144-.072.072-.287.072-.574.144-.933h-.072c-.215.5-.359.933-.574,1.435a.264.264,0,0,1-.215-.072c.072-.718.072-1.364.144-2.081h-.215c-.215,1.866-.431,3.66-.718,5.526h-.215c-.287-1-.5-2.01-.789-2.943h-.144v1.435c-.144-.215-.215-.359-.431-.646.144,1.794.215,3.373.359,4.88a.543.543,0,0,0-.287.072c-.287-.933-.646-1.866-.933-2.8-.072,0-.144.072-.215.072.287,1.22.5,2.44.789,3.732-.072,0-.072,0-.144.072-.287-.789-.574-1.507-.861-2.3-.072,0-.144.072-.215.072.359,1.364.718,2.656,1,4.019-.072,0-.072.072-.144.072-.287-.574-.5-1.148-.789-1.722a.251.251,0,0,0-.144.072q.431,2.261.861,4.737h0A16.23,16.23,0,0,0,153.994,576.537Z" transform="translate(22.026 -39.795)"/>
    <path id="Path_2924" data-name="Path 2924" class="cls-5" d="M164.675,595.4c-.5.5,2.153.646,3.66.718h0a18.966,18.966,0,0,1,5.311-.144h.144a19.049,19.049,0,0,1,4.091,1.077h0a14.183,14.183,0,0,1,2.727,1.435h.072a20.547,20.547,0,0,1,2.153,1.579,9.105,9.105,0,0,1-.789-.933,9.1,9.1,0,0,1,3.445,2.512,6.784,6.784,0,0,0-2.584-2.943l.144-.144c.718.359,1.435.718,2.081,1.077a5.323,5.323,0,0,0-1.435-1.148c-.574-.359-1.148-.646-1.722-.933a11.457,11.457,0,0,0-1.651-.718c0-.072.072-.072.072-.144.789.215,1.651.431,2.656.646-.359-.287-.5-.431-.789-.646h.933v-.072a14.476,14.476,0,0,1-1.651-.5c0-.072,0-.072.072-.144h.933V595.9a11.472,11.472,0,0,0-1.507-.359v-.215a20.292,20.292,0,0,1,2.081-.144v-.215c-1.866,0-3.66.072-5.526.072a.264.264,0,0,0-.072-.215c.933-.431,1.866-.789,2.8-1.22v-.144c-.431.072-.861.144-1.435.215a4.1,4.1,0,0,1,.574-.5c-1.722.359-3.3.646-4.809,1,0-.072-.072-.144-.072-.287.861-.431,1.794-.861,2.656-1.292,0-.072-.072-.144-.072-.215-1.22.431-2.368.861-3.589,1.292,0-.072-.072-.072-.072-.144.718-.431,1.435-.789,2.153-1.22,0-.072-.072-.144-.072-.215-1.292.5-2.512,1.077-3.8,1.579,0-.072-.072-.072-.072-.144.5-.359,1.077-.646,1.579-1,0-.072-.072-.072-.072-.144-1.507.5-2.943.933-4.593,1.435h0A20.314,20.314,0,0,0,164.675,595.4Z" transform="translate(18.522 -49.76)"/>
    <path id="Path_2925" data-name="Path 2925" class="cls-5" d="M149.559,593.314c.215-.646-2.225.287-3.66.933h0a16.287,16.287,0,0,1-4.737,2.368h-.072a16.424,16.424,0,0,1-4.163.789h0a22.413,22.413,0,0,1-3.086-.072h-.072a12.311,12.311,0,0,1-2.655-.5c.359.143.789.359,1.148.5a8.168,8.168,0,0,1-4.163-.789,6.678,6.678,0,0,0,3.589,1.507v.215c-.789,0-1.579,0-2.368-.072a8.159,8.159,0,0,0,1.794.431,17.488,17.488,0,0,0,1.938.072c.574,0,1.22-.072,1.794-.072v.144c-.861.144-1.651.359-2.655.574.431.072.646.143,1,.215-.359.215-.574.287-.789.431v.072c.574-.072,1.148-.215,1.651-.287v.144a4.386,4.386,0,0,1-.861.359v.072c.5-.072,1-.215,1.507-.287,0,.072.072.144.072.215-.574.359-1.22.718-1.794,1.077.072.072.072.144.144.215,1.651-.789,3.3-1.651,4.952-2.44.072.072.072.144.144.144-.646.789-1.364,1.507-2.01,2.3l.072.072c.359-.215.718-.5,1.22-.789-.072.215-.144.359-.287.718,1.435-1.077,2.656-2.01,3.947-2.943l.215.215c-.646.789-1.22,1.579-1.866,2.3l.144.144c.861-.933,1.794-1.794,2.656-2.727.072,0,.072.072.144.072-.5.646-.933,1.292-1.435,2.01l.144.144c.933-1,1.866-2.01,2.727-3.086.072,0,.072.072.144.072-.359.5-.646,1.077-1,1.579l.144.144c1.148-1.077,2.3-2.153,3.517-3.3h0A19.637,19.637,0,0,0,149.559,593.314Z" transform="translate(28.83 -50.042)"/>
    <path id="Path_2926" data-name="Path 2926" class="cls-5" d="M162.655,602.841h.144c.215-.861.359-1.794.574-2.656h.287v5.024h.144c.144-1.148.287-2.368.431-3.517h.215l.215,3.014h.144l.215-2.153h.144l.431,2.368h.144l-.431-6.029h.215a23.293,23.293,0,0,1,1,7.392c.144-.646.287-1.22.431-1.866h.144c-.072,1-.144,2.01-.215,3.086a14.862,14.862,0,0,0,.646-6.388c.861,2.584.287,5.239.646,7.895.144-1.579.287-3.086.5-4.665h.215a9.808,9.808,0,0,1,.5,3.23c.072-.646.144-1.292.287-2.153.215.359.359.574.5.861a4.367,4.367,0,0,0-1-2.871c.072-.072.144-.072.144-.144l1.22,1.22a13.2,13.2,0,0,0-3.158-4.378c.072-.072.144-.144.215-.144.789.718,1.651,1.364,2.44,2.081l.072-.072c-.144-.215-.215-.431-.431-.718a4.46,4.46,0,0,0,.718.215q-.969-1.077-1.722-1.938l.144-.144c.5.287.933.646,1.435.933.072-.072.144-.144.144-.215-1.364-1-2.727-2.081-4.163-3.158a4.464,4.464,0,0,1,1.148.287l.072-.072a17.528,17.528,0,0,0-7.392-2.871l-.072.287s0,1.148.072,2.727c0-.072,0-.072.072-.143v1.22l.718-.718c-.144.861-.215,1.579-.287,2.3.144,0,.287-.072.431-.072.072.718.072,1.364.144,2.01h.072a14.844,14.844,0,0,1,.287-1.579h.144c0,.574.072,1.148.072,1.651.431-.718.144-1.722,1.148-2.368C162.871,600.759,162.727,601.764,162.655,602.841Zm-.359-4.234a10.6,10.6,0,0,0-.072-1.507h.287v1.507Z" transform="translate(19.824 -50.381)"/>
    <path id="Path_2927" data-name="Path 2927" class="cls-5" d="M149.525,585.869c-.861.861-1.722.431-2.584.718.574.144,1.077.215,1.651.359v.144h-1.579v.072c.646.144,1.292.359,1.938.5a1.02,1.02,0,0,0-.144.431c.718,0,1.364.072,2.3.072-.359.287-.574.359-.789.574h.072c.431.072.789.143,1.148.215h-.144c1.579.359,2.656.574,2.656.574h.287a17.6,17.6,0,0,0-1.507-7.751c-.072,0-.072,0-.144.072a7.823,7.823,0,0,0,.072,1.22c-.861-1.651-1.579-3.158-2.368-4.665-.072.072-.144.072-.287.144.215.5.431,1,.646,1.579-.072,0-.072.072-.144.072-.5-.646-1-1.292-1.651-2.081a6.22,6.22,0,0,0,.144.718,5.224,5.224,0,0,1-.646-.574l-.072.072c.574.933,1.077,1.866,1.651,2.8-.072.072-.144.144-.215.144a12.223,12.223,0,0,0-3.8-3.876c.359.574.718,1,1,1.435l-.144.144a4.409,4.409,0,0,0-2.655-1.435,6.493,6.493,0,0,1,.789.718c-.861-.072-1.507-.072-2.153-.072a10.47,10.47,0,0,1,3.086,1.077.264.264,0,0,1-.072.215c-1.579-.144-3.086-.215-4.665-.359,2.512.789,5.239.718,7.608,2.01a14.057,14.057,0,0,0-6.459-.431c1,.072,2.01.215,3.014.287v.144c-.646,0-1.292.072-1.866.072a22.749,22.749,0,0,1,7.105,2.225c0,.072-.072.144-.072.215-1.938-.5-3.947-1-5.885-1.435,0,.072,0,.072-.072.144.789.287,1.507.574,2.3.861v.144c-.718-.072-1.435-.144-2.225-.215v.144c1,.215,1.938.5,2.943.718v.215c-1.22-.072-2.368-.072-3.589-.144v.144l4.952.861v.287c-.933.072-1.794.072-2.727.143v.144C147.3,585.654,148.377,585.8,149.525,585.869Zm.933.574a11.132,11.132,0,0,1,1.507.287.542.542,0,0,1-.072.287c-.5-.072-1-.215-1.507-.287A.543.543,0,0,0,150.458,586.443Z" transform="translate(25.132 -45.61)"/>
    <path id="Path_2928" data-name="Path 2928" class="cls-5" d="M147.15,598.937v.144c.933-.072,1.794-.072,2.727-.144,0,.072.072.215.072.287-1.651.431-3.23.861-4.88,1.292v.144c1.148-.144,2.368-.359,3.517-.5a.264.264,0,0,0,.072.215c-.933.359-1.938.646-2.871,1v.143c.718-.143,1.435-.287,2.153-.359,0,.072,0,.072.072.144l-2.153,1.077c0,.072.072.072.072.144,1.938-.646,3.8-1.292,5.742-2.01,0,.072.072.143.072.215a21.589,21.589,0,0,1-6.89,2.871c.646,0,1.292-.072,1.866-.072v.144c-1,.215-2.01.431-3.014.574a14.94,14.94,0,0,0,6.388-1c-2.225,1.507-4.952,1.651-7.392,2.727,1.507-.287,3.086-.5,4.593-.789,0,.072.072.144.072.215-.861.789-2.01.861-3.014,1.364.646-.072,1.292-.215,2.153-.287a6.687,6.687,0,0,1-.718.718,4.554,4.554,0,0,0,2.512-1.722l.144.144c-.287.431-.5.933-.861,1.507a12.587,12.587,0,0,0,3.373-4.234c.072.072.144.072.215.144-.431,1-.933,1.938-1.364,2.943a.07.07,0,0,1,.072.072l.574-.574a3.218,3.218,0,0,1-.072.789c.574-.861,1-1.507,1.435-2.225.072,0,.072.072.144.072-.144.5-.359,1.077-.5,1.579.072,0,.144.072.287.072.646-1.579,1.292-3.158,1.938-4.88,0,.5.072.861.072,1.22h.144a17.116,17.116,0,0,0,.789-7.895H154.4s-1.077.287-2.584.789h.144c-.359.072-.718.215-1.077.287h-.072c.287.144.5.287.861.5-.861.144-1.579.215-2.3.287l.215.431-1.938.646v.072c.5-.072,1.077-.072,1.579-.144v.144c-.5.144-1.077.359-1.579.5.861.215,1.722-.287,2.655.5A12.536,12.536,0,0,1,147.15,598.937Zm4.019-1.364c.5-.144.933-.287,1.435-.431,0,.072.072.144.072.215-.5.144-1,.287-1.435.431C151.241,597.717,151.169,597.645,151.169,597.573Z" transform="translate(24.708 -50.353)"/>
    <path id="Path_2929" data-name="Path 2929" class="cls-5" d="M140.374,586.772c.072.072.144.144.215.144-.646,1.364-1.292,2.656-1.938,4.019.072.072.144.072.215.144.718-.789,1.435-1.579,2.3-2.584a9.325,9.325,0,0,0-.718,4.091c.431-1.364.861-2.727,1.364-4.091.072,0,.144.072.287.072-.287,1.22-.574,2.368-.861,3.589.072,0,.144.072.215.072.431-1.435.933-2.871,1.364-4.306.072-.215.215-.5.287-.718.072,0,.144.072.215.072h0c1.507-2.655,3.589-.359,3.589-.359a15.375,15.375,0,0,0-6.962-4.952,7.841,7.841,0,0,1-1.22-.359c-.287-.072-.574-.215-.861-.287L137,581.1c1.292.789,2.727,1.292,3.947,2.153-.072.072-.072.143-.144.215-2.225-.789-4.45-1.507-6.6-2.225l.359.359-.144.144c-.718-.359-1.435-.789-2.153-1.148a10.537,10.537,0,0,0,4.809,2.8,9.539,9.539,0,0,1-4.234-.646c0,.072-.072.144-.072.215.789.359,1.507.646,2.44,1.077a7.881,7.881,0,0,1-3.732-.574,5.49,5.49,0,0,0,2.943,1.292c-.789.646-1.579,1.22-2.3,1.866.072.072.072.144.144.144a14.221,14.221,0,0,1,1.435-.789c0,.072.072.072.072.144l-2.8,2.8c.072.072.144.215.215.287.431-.359.789-.646,1.22-1l.072.072c-.5.933-1,1.866-1.579,2.8.072,0,.072.072.144.072.431-.5.861-1.077,1.364-1.579l.072.072c-.431,1.077-.933,2.225-1.364,3.3.072,0,.072.072.144.072.646-1.148,1.22-2.225,1.866-3.373.072,0,.072.072.144.072-.072.646-.072,1.292-.144,2.01a.543.543,0,0,1,.287.072c.359-1.435.646-2.8,1-4.234.072,0,.144,0,.144.072-.072.861-.072,1.723-.144,2.584h.215l.646-2.8h.072c0,.646.072,1.22.072,1.866h.144a5.3,5.3,0,0,1,2.368-4.45,8.139,8.139,0,0,0-1.507,4.809c.789-1.22,1.507-2.368,2.3-3.589.072.072.215.144.287.215-1.077,1.651-2.153,3.373-3.23,5.1C138.077,590.648,139.154,588.71,140.374,586.772Z" transform="translate(28.039 -46.514)"/>
    <path id="Path_2930" data-name="Path 2930" class="cls-5" d="M161.529,582.156c.072-1.22,1.077-1.507,1.507-2.225-.5.287-1,.5-1.507.789,0-.072-.072-.072-.072-.144.431-.359.789-.646,1.22-1l-.072-.072c-.574.287-1.22.574-1.794.861-.072-.144-.072-.287-.144-.431-.574.431-1.077.861-1.794,1.435a9.357,9.357,0,0,1,.215-.933h-.072a7.176,7.176,0,0,1-1,.574.07.07,0,0,1,.072-.072c-1.364.789-2.368,1.292-2.368,1.292l-.215.215a17.033,17.033,0,0,0,6.244,4.88l.072-.072c-.215-.287-.5-.5-.789-.861,1.722.718,3.23,1.364,4.809,2.01.072-.072.072-.144.144-.287-.5-.215-1-.5-1.507-.718,0-.072,0-.072.072-.144.789.144,1.579.287,2.584.5a4.1,4.1,0,0,1-.574-.5h.861c0-.072,0-.072.072-.144l-3.014-1.077a.543.543,0,0,1,.072-.287,12.234,12.234,0,0,0,5.383.5c-.646-.144-1.148-.287-1.651-.431V585.6a4.306,4.306,0,0,0,2.943-.574h-1.077c.646-.5,1.22-.933,1.722-1.364-1.077.359-1.938,1.148-3.086,1.22a.251.251,0,0,0-.072-.144c1.22-.933,2.512-1.866,3.732-2.8-2.44,1-4.45,2.871-7.105,3.445a15.116,15.116,0,0,0,5.167-3.8c-.861.574-1.651,1.148-2.512,1.723,0-.072-.072-.072-.072-.144.431-.431.933-.861,1.364-1.292a23.509,23.509,0,0,1-6.89,2.943c0-.072-.072-.143-.072-.215,1.794-.933,3.589-1.794,5.455-2.727,0-.072-.072-.072-.072-.144-.789.287-1.507.574-2.3.861,0-.072-.072-.072-.072-.144.574-.431,1.22-.861,1.794-1.292l-.072-.072c-.933.431-1.794.933-2.727,1.364-.072-.072-.072-.144-.144-.144.933-.718,1.866-1.435,2.8-2.225,0-.072-.072-.072-.072-.144l-4.306,2.584c-.072-.072-.144-.144-.144-.215.646-.646,1.364-1.22,2.01-1.866,0-.072-.072-.072-.072-.143A24.528,24.528,0,0,0,161.529,582.156Zm-1.077.144c-.431.287-.861.5-1.292.789-.072-.072-.072-.144-.144-.215.431-.215.861-.5,1.292-.718A.154.154,0,0,1,160.452,582.3Z" transform="translate(21.095 -46.203)"/>
    <path id="Path_2931" data-name="Path 2931" class="cls-5" d="M164.5,572.309h-.287c-.359-1.435-.789-2.871-1.148-4.306h-.215c0,1.077-.072,2.153-.072,3.445a9.288,9.288,0,0,0-2.081-3.589c.574,1.364,1.077,2.656,1.651,3.947-.072.072-.144.072-.215.144-.574-1.077-1.148-2.225-1.722-3.3-.072,0-.144.072-.215.072.574,1.364,1.148,2.727,1.722,4.163.072.215.144.5.215.718-.072,0-.144.072-.215.072h0c.574,3.014-2.512,2.656-2.512,2.656a14.679,14.679,0,0,0,8.541-.789,5.558,5.558,0,0,1,1.148-.5c.287-.144.574-.215.861-.359s.5-.287.789-.431c-1.507.215-2.943.789-4.378.933,0-.072-.072-.144-.072-.215,2.153-.861,4.378-1.722,6.459-2.584a4.047,4.047,0,0,0-.5-.072v-.215c.789-.144,1.579-.359,2.44-.5a10.9,10.9,0,0,0-5.455,1,10.214,10.214,0,0,1,3.66-2.3c0-.072-.072-.144-.072-.215-.789.215-1.579.5-2.584.789a7.829,7.829,0,0,1,3.23-2.01c-1.148-.215-2.081.5-3.086.933.215-1,.359-1.938.574-2.871a.264.264,0,0,1-.215-.072c-.215.5-.359,1-.574,1.579-.072,0-.072,0-.144-.072.144-1.292.215-2.584.359-3.947-.144,0-.215-.072-.359-.072-.072.5-.215,1.077-.287,1.579h-.144c-.215-1.077-.431-2.081-.646-3.158H168.8v2.081h-.144c-.359-1.148-.718-2.3-1.148-3.445-.072,0-.144,0-.144.072.287,1.22.5,2.512.789,3.732-.072,0-.072,0-.144.072-.431-.5-.789-1.077-1.22-1.579-.072.072-.144.072-.215.144.646,1.292,1.292,2.584,2.01,3.876a.251.251,0,0,0-.144.072c-.5-.718-1.077-1.364-1.579-2.081-.072.072-.144.072-.144.144l1.292,2.584-.072.072c-.431-.431-.861-.933-1.292-1.364-.072,0-.072.072-.144.072a5.245,5.245,0,0,1,1.077,4.88,9.292,9.292,0,0,0-1.938-4.665c.215,1.364.359,2.8.574,4.163a.647.647,0,0,0-.359.072c-.287-1.938-.574-3.947-.861-5.957C163.778,567.931,164.209,570.156,164.5,572.309Z" transform="translate(19.994 -41.094)"/>
  </g>
</svg>
