<svg xmlns="http://www.w3.org/2000/svg" viewBox="0 0 38.724 60">
  <defs>
    <style>
      .cls-1 {
        fill: #a86622;
      }

      .cls-2 {
        fill: #7c4411;
      }

      .cls-3 {
        fill: #3f2302;
      }

      .cls-4 {
        fill: #049904;
      }

      .cls-5 {
        fill: #17c417;
      }
    </style>
  </defs>
  <g id="b1" transform="translate(-47 -715)">
    <g id="Group_1554" data-name="Group 1554" transform="translate(47 739.911)">
      <path id="Path_3136" data-name="Path 3136" class="cls-1" d="M28.1,834.5l6.641,27.681c0,2.611,8.655,2.984,12.386,3.059s12.46-.149,12.46-2.761l7.237-27.532Z" transform="translate(-28.1 -830.163)"/>
      <path id="Path_3137" data-name="Path 3137" class="cls-2" d="M47.425,837.725c-5.82-.075-19.325-.672-19.325-4.7.075-4.1,13.58-4.4,19.4-4.328s19.325.672,19.325,4.7C66.749,837.5,53.245,837.8,47.425,837.725Z" transform="translate(-28.1 -828.688)"/>
      <ellipse id="Ellipse_160" data-name="Ellipse 160" class="cls-3" cx="3.134" cy="17.982" rx="3.134" ry="17.982" transform="translate(1.335 6.839) rotate(-89.384)"/>
    </g>
    <path id="Path_3138" data-name="Path 3138" class="cls-4" d="M66.239,809.1a1.367,1.367,0,0,0-1.268.448,1.26,1.26,0,0,1-1.641.149h-.224a3.284,3.284,0,0,1,.149.746c.149,0,.3-.075.522-.075a2.065,2.065,0,0,0,.075.671c-.075.075-.149.149-.224.149-.149-.224-.3-.6-.6-.746a5.249,5.249,0,0,0-.672-.448.951.951,0,0,0,.373-.522c-.224-.075-.373-.224-.6-.224-.149,0-.3.224-.522.3a.493.493,0,0,1-.448.075,4.1,4.1,0,0,1-.672-.522h0a12.637,12.637,0,0,0,1.641-.3c.149,0,.373-.224.448-.373.224-.448.224-.97.522-1.268a3.189,3.189,0,0,0,.821-1.567.493.493,0,0,0-.075-.448,4.1,4.1,0,0,0-.522-.672,2.618,2.618,0,0,1-.6.373c-.224.075-.522,0-.746.075-.149.075-.373.149-.448.3-.3.522-.522.672-.821.6a.449.449,0,0,0-.075-.3c-.149,0-.224-.075-.448-.075l-.075-.075h-.075c-.149-.075-.373-.075-.6-.149l-.373.373c-.075.075-.224.3-.149.373,0,.075,0,.075.075.149a.388.388,0,0,1-.3.149.745.745,0,0,0-.3-.373H58.33a4.507,4.507,0,0,0-.6-.6c.3-.3.6-.224,1.194.448.224-.672,1.045-.9.9-1.791a.336.336,0,0,1,.224-.224l.9-.224c.3-.075.672-.149.97-.224v-.224a1.384,1.384,0,0,0-.522-.149c-.522.149-.6-.3-.6-.522,0-.149.3-.373.448-.522s.3-.149.448-.3a.631.631,0,0,0-.522,0,4.469,4.469,0,0,0-1.492.6c-.448.3-.672.821-1.343.6a.751.751,0,0,0-.224.075,8.37,8.37,0,0,1-.373-.97c-.075-.149,0-.3,0-.373.075-.224.149-.373.224-.6.149-.373-.3-.9.224-1.194.075-.075.224-.075.373-.149,0,.149-.075.224-.075.373s-.075.3-.075.448c.149,0,.373.075.522.075a5.571,5.571,0,0,0,.9-.522c-.3-.075-.746.075-.821-.448.3-.075.522,0,.746-.149.149-.075.224-.373.3-.522-.224,0-.448-.149-.6-.075s-.3.3-.448.373a1.263,1.263,0,0,1-.373.149c-.224-.075-.448-.224-.821-.373.224-.149.373-.3.6-.448a.917.917,0,0,1,.149-1.418c-.6-.373-.97.149-1.343.3-.448.149-.9.3-1.268.448-.224.9-.821,1.045-1.492.522a2.72,2.72,0,0,1-1.045.149c-.075,0-.075,0-.149-.075s-.224-.149-.3-.224c-.149-.149-.522-.075-.9-.149,0,0-.075-.224,0-.224.224-.075.522-.149.821-.224,0-.448-.373-.6-.746-.746a7.453,7.453,0,0,0-1.045-.6c-.672-.3-1.268-.746-2.015-.522-.224.075-.522-.075-.746-.149-.3-.075-.6-.149-.97-.224.075.3.149.448.224.746a8.069,8.069,0,0,0-1.343,0c-.448.075-.746.149-1.119-.224-.075-.075-.149,0-.224,0v-.075a.073.073,0,0,1-.075.075.566.566,0,0,0-.3.149.458.458,0,0,0-.075.448c.149.448.3.97.373,1.268a12.1,12.1,0,0,0-1.418.3v.3c.3.075.6.075.97.149a2.2,2.2,0,0,0-.149.97c.075.448.149,1.194.448,1.268a.764.764,0,0,1,.448.373c-.224-.149-.448-.224-.672-.373-.672-.3-1.268-.746-2.015-.522-.224.075-.522-.075-.746-.149-.3-.075-.6-.149-.97-.224.075.3.149.448.224.746a8.075,8.075,0,0,0-1.343,0c-.448.075-.746.149-1.119-.224-.075-.075-.448.075-.672.149a.458.458,0,0,0-.075.448c.149.448.3.97.373,1.268a12.13,12.13,0,0,0-1.418.3v.3c.3.075.6.075.97.149a2.2,2.2,0,0,0-.149.97c.075.448.149,1.194.448,1.268.672.3.522,1.119,1.045,1.492-.224.075-.448.075-.522-.075a18.107,18.107,0,0,0-1.492-1.045,1.269,1.269,0,0,0-.522-.075c-.448.149-.9.522-1.268.522a3.061,3.061,0,0,0-1.641.522.41.41,0,0,0-.224.373,2.8,2.8,0,0,0-.075.821c.224.075.448.075.672.149.224.149.373.373.6.448a.655.655,0,0,0,.522.075c.9-.224,1.194,0,1.045.9.448.075.97.224,1.418.3.075,0,.149.075.224.075v1.418c-.448,0-.6-.224-.522-1.119-.448.224-.97.075-1.418.224l-.075-.075c0,.075-.075.075-.075.149a1.309,1.309,0,0,0-.373.3.333.333,0,0,1-.373,0,6.58,6.58,0,0,1-.746-.448c-.3-.149-.6-.373-.9-.522-.075.075-.075.149-.149.149.075.149.149.373.3.448.448.3.224.6,0,.821-.075.149-.448.075-.672,0a1.384,1.384,0,0,1-.522-.149.613.613,0,0,0,.373.373,3.487,3.487,0,0,0,.746.373H33.26c-.448,0-.448.373-.149.672l1.343,1.343a1.627,1.627,0,0,0,.373.224c-.149.075-.3.075-.373.149-.373.149-.448.821-.97.672-.149,0-.224-.149-.373-.149.075-.075.224-.149.3-.224.149-.075.224-.149.373-.224a.745.745,0,0,0-.3-.373c-.3-.149-.672-.149-1.045-.3.149.3.6.448.3.9-.224-.149-.373-.373-.6-.448-.149-.075-.373.149-.6.224.149.149.224.373.373.522.149.075.373,0,.6,0a.57.57,0,0,1,.373.149,4.923,4.923,0,0,1,.3.821c-.3-.075-.448-.075-.746-.149a1.078,1.078,0,0,1-.149.522.57.57,0,0,0-.149-.373c-.149-.075-.448-.075-.672-.149a3.744,3.744,0,0,1-.149.9h-.075c0,.075,0,.149.075.149a.847.847,0,0,0,.224.6c.149-.075.224-.149.373-.149.149.075.373.075.448.149,0,.3-.224.448-.448.6a1.14,1.14,0,0,1-1.194-.075c-.3-.149-.522-.448-.97-.149a.924.924,0,0,0,.149,1.641l.672.224c.3.075.448.224.224.522a.637.637,0,0,0,0,.522,4.73,4.73,0,0,0,.746.9c-.149.224-.3.373-.373.522.224.075.373.224.6.224.746.075,1.567.149,2.388.224.373.075.672.149.672.6,0,.075.224.224.3.3a4.8,4.8,0,0,0,.522.149,12.212,12.212,0,0,1-1.641.9v.224c.821.075,1.716.149,2.537.224h.522c.3,0,.6,0,.672.373s-.149.522-.373.672c-.522.373-.6.97-.149,1.119a3.127,3.127,0,0,0,1.194.075,2.5,2.5,0,0,1,.746,0,1.253,1.253,0,0,0,1.343-.149c.3-.149.448-.224.672.075a1.061,1.061,0,0,0,.448.149,6.819,6.819,0,0,0,1.045-.522c0-.149-.075-.3-.075-.448,1.119,0,1.343-.075,1.791-.821-.3-.075-.522-.149-.821-.224.149-.149.224-.224.224-.3-.149-.224-.3-.373-.448-.6,0-.075.075-.075.075-.149H44c.746.075.97.746,1.343,1.268s1.045.9,1.567.6c-.075-.149-.149-.224-.224-.373,0-.149-.075-.3,0-.448.075-.075.3-.224.373-.149l.224.224.149-.224v-.6h.075l-.075-.522h-.075a.921.921,0,0,1-.6-.3c.149-.075.3-.3.373-.3.149,0,.373,0,.448-.075l1.268-.97c0-.075-.075-.149-.075-.224h.448c.373.075.522.224.672.746l.672.821a.274.274,0,0,1,.224-.075c.075.6.448.672.97.672a5.757,5.757,0,0,0,1.119-.149.333.333,0,0,0,.224-.3,1.235,1.235,0,0,1,.97-.746c.075.224.224.373.3.6-.672.373-1.343.821-2.015,1.194a1.237,1.237,0,0,0-1.567,0,.7.7,0,0,0,.97.448,1.353,1.353,0,0,1,1.492.224c.373.373,1.045.448.97,1.194,0,.075.149.3.3.3a17.419,17.419,0,0,0,1.94.3c.224,0,.448-.224.821-.373l.149.149a4.83,4.83,0,0,1-.6.672c.224.373.672.3,1.045.224a6.42,6.42,0,0,0,1.194-.075,2.584,2.584,0,0,0,1.94-.672,1.845,1.845,0,0,1,.672-.3,8.35,8.35,0,0,0,.97-.373c-.224-.224-.373-.3-.6-.522a5.846,5.846,0,0,0,1.119-.746,1.147,1.147,0,0,1,1.045-.448c.149,0,.373-.3.448-.522.075-.075-.075-.3-.149-.448-.373-.3-.746-.672-1.045-.9a13.34,13.34,0,0,1,1.045-.97c-.075-.075-.075-.149-.149-.224l-.9.448c-.149-.3-.149-.672-.373-.9-.3-.373-.746-.9-1.045-.9-.746.149-1.045-.6-1.716-.672a.755.755,0,0,1,.522-.3c.6,0,1.194.075,1.865.075a.948.948,0,0,0,.522-.3c.3-.373.448-.9.821-1.119a2.8,2.8,0,0,0,1.119-1.343c.075-.075,0-.3,0-.448a6.906,6.906,0,0,0-.373-.746,2.372,2.372,0,0,1-.672.224c-.224,0-.522-.075-.746-.075a.806.806,0,0,0-.522.224c-.373.373-.6.522-.9.448a.073.073,0,0,1,.075-.075,1.8,1.8,0,0,1,.6-.448c.224-.149.522-.3.9-.522a5.406,5.406,0,0,1-.672-.373,5.3,5.3,0,0,0,.9-.97,1.193,1.193,0,0,1,.97-.672c.149,0,.3-.373.373-.6a.993.993,0,0,0-.224-.373l-1.194-.6c.149-.224.3-.448.522-.746a1.685,1.685,0,0,0,.821-.6c.3-.448.522-.821,1.045-.97a.634.634,0,0,0,.224-.373C66.612,809.253,66.388,809.1,66.239,809.1Zm-32.83,8.73h0a.559.559,0,0,1,.373.075c.522-.3.9-.224,1.119,0a2.614,2.614,0,0,1-.6.373,1.1,1.1,0,0,1-.672.075A.5.5,0,0,1,33.41,817.833Zm-.149.373c-.6.373-.672.373-.672-.448Zm-.075,2.238c-.224-.075-.3-.448-.522-.746.373-.224.672-.6.97-.6.224,0,.522.373.746.6C34.156,820.221,33.783,820.594,33.186,820.445Zm1.492-1.119c-.149-.149-.448-.373-.373-.522.149-.224.373-.448.522-.672.075.149.224.3.373.522A1.25,1.25,0,0,1,34.678,819.325Zm.746-5.671c0,.075-.075.075-.149.149v-.149l.149-.149c-.075.075,0,.075,0,.149ZM45.5,809.924v.6c-.075-.149-.224-.3-.3-.448A.565.565,0,0,1,45.5,809.924Zm-5,4.178a.949.949,0,0,1,.672-.522c.3,0,.3.149.3.373l.3-.448a1.078,1.078,0,0,1,.149.522c.075.075.224.149.3.224.149.3.224.6.373.9l-.149.149c-.373-.224-.672-.373-1.045-.6-.149.373-.746.821-1.119.6a.073.073,0,0,1-.075-.075A4.907,4.907,0,0,1,40.5,814.1Zm-.6-7.909v.075s-.075-.075,0-.075Zm-.9,8.207c.075.075.149.149.149.224h-.224l-.149-.149C38.931,814.4,39.005,814.326,39.005,814.4Zm-1.716-2.313v-.373c.373.075.522.373.522.9-.075,0-.149-.075-.224-.075C37.513,812.386,37.364,812.237,37.289,812.088Zm.672,4.1c-.149,0-.224-.3-.3-.6.448.075.97.224,1.418.3.075-.075.075-.149.149-.149,0-.075-.075-.075-.075-.149.373.149.821.3,1.194.448a5.142,5.142,0,0,1,.6.224c.149.075.3.224.448.3a.261.261,0,0,1-.075.149c-.522-.075-1.119.373-1.567-.224h0l-.075-.075v-.075h0l-.149-.149A5.516,5.516,0,0,1,37.961,816.192Zm.448,2.388,1.045-1.567c.373-.149.522.075.821.373a4.016,4.016,0,0,1-.6-.075c.075.224.149.6.075.6A2.527,2.527,0,0,1,38.409,818.579Zm2.015,5.521c-.149-.075-.373-.075-.522-.149a3.083,3.083,0,0,1-.821-.522c-.075-.075.224-.448.3-.672.075.9.373,1.119,1.045.9v-.6H39.9c.075-.224.149-.448.224-.746.224.224.448.373.6.522.224.3.448.672.9.6.149,0,.3.3.522.6C41.468,824.1,41.02,824.474,40.423,824.1Zm1.567.522a1.016,1.016,0,0,1,1.567.6A1.535,1.535,0,0,1,41.99,824.623Zm2.686-.9c0-.075-.075-.149-.075-.224a3.509,3.509,0,0,1-.672-.448c-.149-.149-.224-.3-.373-.448.149,0,.3-.075.448-.075a1.27,1.27,0,0,1,.522.075,1.05,1.05,0,0,1,.522.448C45.049,823.28,44.825,823.5,44.676,823.728Zm.224-3.805c-.075-.075-.149-.075-.224-.149.075-.149.149-.224.224-.373h.075c.075.075.224.075.3.149C45.2,819.7,45.049,819.773,44.9,819.922Zm-.224-8.207c-.075,0-.075-.075-.149-.075.373,0,.522-.149.6-.373.149,0,.3.075.448.075.075.149.075.3.224.448A5.645,5.645,0,0,0,44.676,811.715Zm10.3-3.954a.842.842,0,0,1,.821-.224c-.149,0-.224.075-.373.149-.224.149-.373.3-.522.373h-.075A.566.566,0,0,0,54.973,807.76Zm.149,6.939.149.6c-.224.149-.373-.149-.522-.373A1.631,1.631,0,0,1,55.122,814.7Zm-1.716-5.969c-.149.075-.224.149-.373.149-.224-.149-.224-.448-.224-.97C53.033,808.208,53.257,808.507,53.406,808.73Zm-2.91-3.954h.448a.449.449,0,0,0-.075.3h-.3c0,.149-.075.3-.075.448A1.265,1.265,0,0,1,50.5,804.776Zm-1.641,1.343a4.256,4.256,0,0,0,.97-.075c-.224.522-.522.448-.97.075Zm.97.97h0a.231.231,0,0,1-.149.075h0C49.675,807.089,49.75,807.089,49.824,807.089Zm-3.507,4.029v0Zm2.462-8.207a1,1,0,0,0-.373-.075c-.224-.672-.9-.448-1.343-.672a.789.789,0,0,1-.448-.522A2.5,2.5,0,0,1,48.78,802.911Zm-1.865,8.581h-.448a.449.449,0,0,0,.075-.3h.3v-.075h.075C46.989,811.193,46.914,811.342,46.914,811.491Zm0-.448a.274.274,0,0,1,.075-.224.577.577,0,0,1-.075.224Zm2.313-.97c.075-.149.149-.224.224-.373-.3.149-.522.3-.821.448a7.236,7.236,0,0,0-1.268.075.57.57,0,0,0-.373.149v-.149c.149-.075.224-.149.224-.3,0-.075-.075-.149-.149-.224,0-.075,0-.075.075-.149a1.267,1.267,0,0,1,.448-.448h.448c.149.075.149.224.149.373l.149-.224c.373.224.6.224,1.045-.149a1.338,1.338,0,0,1,.522.373C49.675,809.775,49.526,810,49.227,810.073Zm1.343,10.744a7.23,7.23,0,0,0-.672-.522c.075-.075.075-.149.149-.224h.746v.075c.149.075.373.075.448.149A4.1,4.1,0,0,1,50.57,820.818Zm.672-15.146a1.9,1.9,0,0,1-.149-.522l.448-.672a6.415,6.415,0,0,1,1.194.075c.149,0,.224.3.3.6-.448-.075-.97-.224-1.418-.3-.075.075-.075.149-.149.149.224.373.448.746.746,1.194a2.706,2.706,0,0,1-.522.224A1.986,1.986,0,0,1,51.242,805.671Zm.746,9.028a1.343,1.343,0,0,0-.448-.672c.224-.075.448-.075.522.075a18.107,18.107,0,0,0,1.492,1.045,1.269,1.269,0,0,0,.522.075c.075,0,.149-.075.224-.075-.075.149-.075.3-.149.373s-.224.224-.224.149c-.448-.3-1.119,0-1.567-.6C52.287,814.923,52.137,814.849,51.988,814.7Zm.3,6.417c.6-.746.6-.746,1.119-.224C53.107,821.191,52.809,821.564,52.287,821.116Zm1.045-1.716a.327.327,0,0,1-.224.075c-.075-.224-.075-.448-.149-.6h-.373c-.075-.149-.075-.3-.149-.448a12.129,12.129,0,0,0,1.418-.3v-.3H53.7v-.075a4.742,4.742,0,0,0-.522-.149v-.373a4.215,4.215,0,0,1,.97,0c.3.075.373,0,.373-.3,0-.224.075-.6.224-.672a1.29,1.29,0,0,1,.746.075l.075.522A7.345,7.345,0,0,0,53.331,819.4Zm2.985-1.268a6.174,6.174,0,0,0-1.119.821c-.224.224-.373.448-.075.746a1.624,1.624,0,0,1,.373.6s-.224.149-.373.224c0-.224-.149-.373-.448-.373,0-.522-.522-.522-.746-.672.3-.522.522-1.045.821-1.492.149-.149.373-.3.522-.448.149-.075.224-.149.373-.224l.075.224a.274.274,0,0,0,.224.075h.9A1.744,1.744,0,0,1,56.316,818.132Zm1.567,2.761a3.52,3.52,0,0,1,.373-.149c.522.448.97-.149,1.492-.149a2.178,2.178,0,0,1,.672.149A2.421,2.421,0,0,1,57.883,820.892Z" transform="translate(18.59 -80.3)"/>
    <g id="Group_1555" data-name="Group 1555" transform="translate(52.11 716.16)">
      <path id="Path_3139" data-name="Path 3139" class="cls-5" d="M53.646,798.231c-.3,0-.448.075-.6.075a3.284,3.284,0,0,1-.149-.746h.224a1.357,1.357,0,0,0,1.641-.149c.373-.3.672-.672,1.194-.522a1.561,1.561,0,0,1,.448.3c-.075.149-.149.373-.3.373a1.867,1.867,0,0,0-.97.9c-.224.373-.672.522-1.045.746,0,0-.224-.149-.224-.3A.822.822,0,0,1,53.646,798.231Z" transform="translate(-39.506 -796.854)"/>
      <path id="Path_3140" data-name="Path 3140" class="cls-5" d="M60.3,801.6a7.809,7.809,0,0,0,1.268.3c-.075.149-.149.224-.149.3.075.3.149.6.224.821a3.75,3.75,0,0,1-.9.149c-.224,0-1.045-.672-1.045-.9,0-.149.149-.224.224-.373C60,801.824,60.222,801.675,60.3,801.6Z" transform="translate(-41.233 -798.059)"/>
      <path id="Path_3141" data-name="Path 3141" class="cls-5" d="M42.879,803.393c-.149,0-.224.075-.373.075v.149c.224.6.149.672-.522.522a1.469,1.469,0,0,1-1.119-.746c-.224-.373-.075-.522.3-.522.3,0,.672-.075.97-.075C42.655,802.722,42.8,803.02,42.879,803.393Z" transform="translate(-36.424 -798.36)"/>
      <path id="Path_3142" data-name="Path 3142" class="cls-5" d="M50.8,797.1c.224.149.373.3.672.522a12.118,12.118,0,0,1-.149,1.343,1.263,1.263,0,0,0-.373-.149A14.568,14.568,0,0,1,50.8,797.1Z" transform="translate(-38.973 -796.917)"/>
      <path id="Path_3143" data-name="Path 3143" class="cls-5" d="M58.3,804.072c-.224-.3-.448-.448-.6-.672.373-.6.9-.075,1.268-.224,0,.075.075.075.075.149Z" transform="translate(-40.725 -798.442)"/>
      <path id="Path_3144" data-name="Path 3144" class="cls-5" d="M41.379,805c.373.149.821.224.6.746a.662.662,0,0,1-.373.3C41.23,805.746,41.3,805.373,41.379,805Z" transform="translate(-36.566 -798.922)"/>
      <path id="Path_3145" data-name="Path 3145" class="cls-5" d="M58.9,800.7c.3.075.6.075.9.149-.448.522-.746.821-1.045,1.194-.075,0-.075-.075-.149-.075C58.824,801.6,59.346,801.3,58.9,800.7Z" transform="translate(-40.953 -797.831)"/>
      <path id="Path_3146" data-name="Path 3146" class="cls-5" d="M43.5,805.094c.149-.373.3-.746.522-1.194C44.172,804.87,44.022,805.168,43.5,805.094Z" transform="translate(-37.12 -798.643)"/>
      <path id="Path_3147" data-name="Path 3147" class="cls-5" d="M35.733,810.49a7.42,7.42,0,0,1-.746.821C34.838,810.789,35.136,810.341,35.733,810.49Z" transform="translate(-34.949 -800.309)"/>
      <path id="Path_3148" data-name="Path 3148" class="cls-5" d="M45.263,809.472q-.672-.224-.224-.672Z" transform="translate(-37.465 -799.887)"/>
      <path id="Path_3149" data-name="Path 3149" class="cls-5" d="M46.637,809.983c.522-.97.075-1.865.075-2.612.522-.224.9-.373,1.343-.522a.46.46,0,0,1,.522.075c.746.6.821.6,1.641.075.149-.075.224-.149.522-.3-.149.746-.224,1.343-.3,1.94,0,.075-.075.224-.075.3.224.448.075.6-.448.672a1.192,1.192,0,0,0-.746.373,1.338,1.338,0,0,1-1.641.448c-.3.373-.6.672-.9,1.045a1.107,1.107,0,0,0-.075.522c0,.224.149.448.149.672-.6.149-1.119.224-1.641.373a.851.851,0,0,1-.448-.224,1.141,1.141,0,0,1,.149-1.716.577.577,0,0,1,.075-.224c-.224.149-.448.224-.746.448l.746-1.492a.56.56,0,0,1,.373-.075.5.5,0,0,0,.448-.746c-.075-.3-.075-.672-.149-1.045.373-.149.6-.075.522.373A1.769,1.769,0,0,0,46.637,809.983Zm.672-.97a2.3,2.3,0,0,0,2.537-1.343C49.024,808.118,48.278,808.565,47.308,809.013Zm.075-.672c.224-.149.448-.3.448-.373,0-.149-.224-.448-.3-.373a2.618,2.618,0,0,0-.6.373A5.493,5.493,0,0,1,47.383,808.341Zm-2.537,2.015c.224.149.373.3.672.522,0-.373-.075-.522-.075-.821A2.237,2.237,0,0,0,44.846,810.356Z" transform="translate(-37.272 -799.354)"/>
      <path id="Path_3150" data-name="Path 3150" class="cls-5" d="M66.656,813.083a9.969,9.969,0,0,0-1.343.522.274.274,0,0,1-.075.224c.448.224.821.373,1.268.6-.224.6-.522.671-1.045.075a.575.575,0,0,0-.9-.149,13.451,13.451,0,0,1,.6,1.567.919.919,0,0,1-.149.746c-.149.3-.6.075-.746-.3s-.3-.6-.746-.149c.149,0,.3.075.448.075l-.224.672-.224.224c-.522-.224-1.194-.075-1.567-.6a7.473,7.473,0,0,0-.746-.672c-.075.3-.075.522-.149.746-.075.075-.224.149-.3.224-.075-.075-.149-.224-.224-.3-.075-.224-.075-.522-.149-.746a.865.865,0,0,1,.9-1.119c.373,0,.746-.373.97.149a2.235,2.235,0,0,1,.6-.3c0,.075.075.075.075.149-.075.075-.149.075-.149.149.522.149.97-.075.9-.522-.075-.3-.075-.672.3-.746a1.893,1.893,0,0,1,.9.149C65.239,813.083,65.612,812.262,66.656,813.083Z" transform="translate(-41.399 -800.887)"/>
      <path id="Path_3151" data-name="Path 3151" class="cls-5" d="M53.388,820.6a3.387,3.387,0,0,0-.149-.6H51.448c-.149,0-.3-.149-.448-.3a4.16,4.16,0,0,1,.373-.6,1.626,1.626,0,0,1,.373-.224c-.075-.149-.075-.224-.149-.373a2.308,2.308,0,0,1,.6-.149c.373-.075.746.075.746.522.075.448.448.373.672.522.075,0,.224-.224.3-.373-.149-.075-.3-.224-.6-.373v-.3c.373,0,.746.075,1.119.075.075,0,.149-.224.224-.373.075-.224.075-.6.224-.672a2.149,2.149,0,0,1,.97.075s.075.373,0,.373a7.345,7.345,0,0,0-2.238,2.537C53.686,820.449,53.537,820.523,53.388,820.6Z" transform="translate(-39.024 -802.06)"/>
      <path id="Path_3152" data-name="Path 3152" class="cls-5" d="M55.2,825.226c.3-.522.522-1.045.821-1.492.149-.149.373-.3.522-.448a1.561,1.561,0,0,0,.448-.3,1.032,1.032,0,0,1,1.194-.224c-.075.448-.149.9-.6,1.119a6.171,6.171,0,0,0-1.119.821c-.224.224-.373.448-.075.746a1.626,1.626,0,0,1,.373.6s-.224.149-.373.224c0-.224-.149-.373-.448-.373C55.946,825.3,55.424,825.375,55.2,825.226Z" transform="translate(-40.09 -803.405)"/>
      <path id="Path_3153" data-name="Path 3153" class="cls-5" d="M37.139,823.318v-.6c-.149-.075-.448-.075-.522-.149-.075-.149.075-.373.149-.672.224.224.448.373.6.522.224.3.448.672.9.672.149,0,.3.3.522.6-.672.075-1.119.448-1.641.075-.149-.075-.448-.075-.6-.149a1.9,1.9,0,0,1-.746-.522c-.075-.075.224-.448.373-.671C36.244,823.318,36.468,823.542,37.139,823.318Z" transform="translate(-35.161 -803.213)"/>
      <path id="Path_3154" data-name="Path 3154" class="cls-5" d="M37.341,816.4c-.224.672-.672.97-1.268.746-.224-.075-.3-.448-.373-.746.373-.224.6-.6.9-.6C36.819,815.875,37.043,816.248,37.341,816.4Z" transform="translate(-35.14 -801.664)"/>
      <path id="Path_3155" data-name="Path 3155" class="cls-5" d="M38.5,811.3h.6a5.668,5.668,0,0,1,.3.821,2.307,2.307,0,0,1,.149.6,1.384,1.384,0,0,1-.149.522c-.224-.149-.522-.224-.6-.373-.149-.373-.448-.746-.224-1.194C38.647,811.673,38.5,811.524,38.5,811.3Z" transform="translate(-35.849 -800.522)"/>
      <path id="Path_3156" data-name="Path 3156" class="cls-5" d="M47.891,826.194a6.039,6.039,0,0,1-1.119.075,1.754,1.754,0,0,1-.6-.149c-.075,0-.075-.224-.075-.224a1.582,1.582,0,0,1,.522-.224c.448.075.746-.224,1.045-.448A1.629,1.629,0,0,1,48.04,825c.075,0,.075.075.149.075A3.584,3.584,0,0,0,47.891,826.194Z" transform="translate(-37.78 -804)"/>
      <path id="Path_3157" data-name="Path 3157" class="cls-5" d="M47.793,826.9h.97a9.6,9.6,0,0,1-.3,1.418c0,.075-.3.149-.373.075A2.454,2.454,0,0,1,47.793,826.9Z" transform="translate(-38.205 -804.482)"/>
      <path id="Path_3158" data-name="Path 3158" class="cls-5" d="M68.486,821.834c-.9-.149-1.716.746-2.686-.075.224-.075.448-.224.522-.149.448.3.746,0,1.119-.075C67.815,821.312,68.188,821.163,68.486,821.834Z" transform="translate(-42.781 -803.073)"/>
      <path id="Path_3159" data-name="Path 3159" class="cls-5" d="M39.345,828.97a3.506,3.506,0,0,1-.672-.448c-.149-.149-.224-.3-.373-.448.149,0,.3-.075.448-.075a1.268,1.268,0,0,1,.522.075,1.05,1.05,0,0,1,.522.448c0,.224-.224.448-.373.6C39.345,829.119,39.345,829.045,39.345,828.97Z" transform="translate(-35.8 -804.761)"/>
      <path id="Path_3160" data-name="Path 3160" class="cls-5" d="M50.572,821.994c-.149-.149-.373-.224-.672-.522a7.234,7.234,0,0,0,.522-.672,1.976,1.976,0,0,0,.448.373l-.075.075a1.9,1.9,0,0,0,.522.149A2.619,2.619,0,0,1,50.572,821.994Z" transform="translate(-38.745 -802.934)"/>
      <path id="Path_3161" data-name="Path 3161" class="cls-5" d="M39.3,827.434c.746-.373,1.119-.224,1.641.6A1.714,1.714,0,0,1,39.3,827.434Z" transform="translate(-36.054 -804.569)"/>
      <path id="Path_3162" data-name="Path 3162" class="cls-5" d="M39.291,822.1c-.224.224-.373.448-.522.6-.149-.149-.448-.373-.373-.522.149-.224.373-.448.522-.671A2.618,2.618,0,0,0,39.291,822.1Z" transform="translate(-35.821 -803.111)"/>
      <path id="Path_3163" data-name="Path 3163" class="cls-5" d="M50.019,824.928c-.672.149-.97-.075-1.119-.746C49.5,824.033,49.8,824.182,50.019,824.928Z" transform="translate(-38.491 -803.779)"/>
      <path id="Path_3164" data-name="Path 3164" class="cls-5" d="M53.1,822.589c.522-.746.6-.821,1.119-.224C53.921,822.663,53.7,823.036,53.1,822.589Z" transform="translate(-39.557 -803.23)"/>
      <path id="Path_3165" data-name="Path 3165" class="cls-5" d="M61.5,813.4c.522.224.9.373,1.343.522C62.246,814.221,61.873,814.072,61.5,813.4Z" transform="translate(-41.69 -801.055)"/>
      <path id="Path_3166" data-name="Path 3166" class="cls-5" d="M49.659,819.145c-.149-.075-.373-.149-.373-.3,0-.224-.224-.6.373-.746.075.3.075.6.149.97C49.734,819.07,49.734,819.145,49.659,819.145Z" transform="translate(-38.578 -802.248)"/>
      <path id="Path_3167" data-name="Path 3167" class="cls-5" d="M38.772,827.3a4.727,4.727,0,0,1-.522.149,2.179,2.179,0,0,1-.149-.672c.075,0,.075-.075.149-.075a4.13,4.13,0,0,1,.6.448A.26.26,0,0,1,38.772,827.3Z" transform="translate(-35.749 -804.431)"/>
      <path id="Path_3168" data-name="Path 3168" class="cls-5" d="M45.572,818.175c-.075.3-.149.6-.224.97a1.561,1.561,0,0,1-.448-.3c.224-.3.448-.522.6-.746C45.572,818.1,45.572,818.1,45.572,818.175Z" transform="translate(-37.475 -802.248)"/>
    </g>
  </g>
</svg>
