<svg xmlns="http://www.w3.org/2000/svg" viewBox="0 0 84.983 100">
  <defs>
    <style>
      .cls-1 {
        fill: #8f8f8f;
      }

      .cls-2 {
        fill: #ab0707;
      }

      .cls-3 {
        fill: #cacaca;
      }

      .cls-4 {
        fill: #7a0505;
      }

      .cls-5 {
        fill: #4e270a;
      }

      .cls-6 {
        fill: #331907;
      }
    </style>
  </defs>
  <g id="d8" transform="translate(-136 -1064)">
    <path id="Path_4077" data-name="Path 4077" class="cls-1" d="M177.312,319.674s1.28,3.328,5.887,3.669c4.522.256,5.034-2.048,5.034-2.048l-2.9-4.1-8.532.171Z" transform="translate(-36.022 763.694)"/>
    <path id="Path_4078" data-name="Path 4078" class="cls-1" d="M193.4,320.854s1.706,3.072,7.338,3.072c5.717.085,7.594-3.669,7.594-3.669l.853-2.645-13.14-.512Z" transform="translate(-38.458 763.709)"/>
    <path id="Path_4079" data-name="Path 4079" class="cls-1" d="M211.8,320.284s1.621,3.413,6.826,3.413,8.276-.6,10.921-3.413-12.031-3.584-12.031-3.584Z" transform="translate(-41.158 763.768)"/>
    <path id="Path_4080" data-name="Path 4080" class="cls-1" d="M233,320.418A9.181,9.181,0,0,0,239.57,324c4.266.256,5.887-.939,9.556-4.1s-11.689-2.133-11.689-2.133Z" transform="translate(-44.27 763.633)"/>
    <path id="Path_4081" data-name="Path 4081" class="cls-1" d="M252.7,320.373a4.44,4.44,0,0,0,3.584,3.072c2.9.341,5.631-1.109,6.143-4.437C263.024,315.85,252.7,320.373,252.7,320.373Z" transform="translate(-47.161 763.593)"/>
    <path id="Path_4082" data-name="Path 4082" class="cls-1" d="M178.424,318.21l35.751,2.218,35.154-1.621.427-3.84L182.69,314.2l-5.29,3.072Z" transform="translate(-36.11 764.135)"/>
    <path id="Path_4083" data-name="Path 4083" class="cls-2" d="M204.5,313.163,218.152,301.9h.768l11.348,11.263Z" transform="translate(-40.087 765.94)"/>
    <path id="Path_4084" data-name="Path 4084" class="cls-3" d="M181.1,313.845l19.966-.683L214.718,301.9h-1.024Z" transform="translate(-36.653 765.94)"/>
    <path id="Path_4085" data-name="Path 4085" class="cls-2" d="M171.2,315.125l8.447-1.28L212.241,301.9Z" transform="translate(-35.2 765.94)"/>
    <path id="Path_4086" data-name="Path 4086" class="cls-3" d="M255.018,313.845l-22.27-.683L221.4,301.9h1.024Z" transform="translate(-42.567 765.94)"/>
    <path id="Path_4087" data-name="Path 4087" class="cls-2" d="M255.194,313.845l8.532,1.28L222.6,301.9Z" transform="translate(-42.743 765.94)"/>
    <path id="Path_4088" data-name="Path 4088" class="cls-3" d="M204.5,315.1s3.242,5.461,12.884,5.461,12.884-5.461,12.884-5.461Z" transform="translate(-40.087 764.003)"/>
    <path id="Path_4089" data-name="Path 4089" class="cls-2" d="M234.7,315.1s4.1,5.631,11.177,5.887a13.955,13.955,0,0,0,11.092-5.2Z" transform="translate(-44.519 764.003)"/>
    <path id="Path_4090" data-name="Path 4090" class="cls-3" d="M269.332,317.165s-1.109,4.608-4.693,4.522c-1.877,0-3.925-3.328-3.84-5.887Z" transform="translate(-48.349 763.9)"/>
    <path id="Path_4091" data-name="Path 4091" class="cls-2" d="M201.11,315.1s-4.266,5.8-11.348,5.887-8.362-5.2-8.362-5.2Z" transform="translate(-36.697 764.003)"/>
    <path id="Path_4092" data-name="Path 4092" class="cls-3" d="M171.2,317.18s.171,3.584,2.3,3.925,6.229-5.2,6.229-5.2Z" transform="translate(-35.2 763.885)"/>
    <path id="Path_4093" data-name="Path 4093" class="cls-4" d="M219.3,301.24h3.072l-1.28-3.84h-1.024Z" transform="translate(-42.259 766.6)"/>
    <g id="Group_1937" data-name="Group 1937" transform="translate(150.505 1117.584)">
      <ellipse id="Ellipse_166" data-name="Ellipse 166" class="cls-5" cx="29.266" cy="7.594" rx="29.266" ry="7.594" transform="translate(0.171 0)"/>
      <g id="Group_1936" data-name="Group 1936" transform="translate(0 7.167)">
        <path id="Path_4094" data-name="Path 4094" class="cls-6" d="M236.494,374.975h0c-.683.171-1.365.256-2.048.427h0c-.256,0-.427.085-.683.085h-.085c-.256,0-.427.085-.683.085h0c-.512.085-1.024.171-1.451.256h-.085c-.256,0-.427.085-.683.085h-.171c-.171,0-.427.085-.6.085h-.171c-.512.085-1.024.085-1.536.171h-.085c-.256,0-.427.085-.683.085h-.171a1.452,1.452,0,0,0-.6.085H226.6a1.879,1.879,0,0,0-.683.085h-.171a3.2,3.2,0,0,0-.853.085H211.067c-.6,0-1.195-.085-1.792-.085h-.256a2.362,2.362,0,0,1-.768-.085h-.171c-.256,0-.6-.085-.853-.085h-.171c-.256,0-.512-.085-.683-.085H206.2c-.256,0-.6-.085-.853-.085h-.085c-.256,0-.512-.085-.768-.085h-.171c-.512-.085-1.109-.171-1.621-.256h-.171c-.256,0-.512-.085-.768-.085h0c-7.85-1.28-13.14-3.5-13.567-6.058v1.792c0,4.181,13.14,7.594,29.266,7.594s29.266-3.413,29.266-7.594V369.6C246.562,371.733,242.552,373.7,236.494,374.975Z" transform="translate(-188.2 -368.747)"/>
        <path id="Path_4095" data-name="Path 4095" class="cls-6" d="M257,368.6Z" transform="translate(-198.297 -368.6)"/>
        <path id="Path_4096" data-name="Path 4096" class="cls-6" d="M188.4,368.6Z" transform="translate(-188.229 -368.6)"/>
      </g>
      <ellipse id="Ellipse_167" data-name="Ellipse 167" class="cls-5" cx="16.553" cy="8.959" rx="16.553" ry="8.959" transform="translate(11.519 27.218)"/>
      <path id="Path_4097" data-name="Path 4097" class="cls-6" d="M240.5,402Z" transform="translate(-195.875 -366.334)"/>
      <path id="Path_4098" data-name="Path 4098" class="cls-6" d="M201.7,402Z" transform="translate(-190.181 -366.334)"/>
      <path id="Path_4099" data-name="Path 4099" class="cls-6" d="M224.5,379.7h-8.7v19.454h0v.085c0,.853,1.962,1.621,4.352,1.621s4.352-.683,4.352-1.621v-.085h0Z" transform="translate(-192.251 -363.062)"/>
      <path id="Path_4100" data-name="Path 4100" class="cls-6" d="M201.7,403.556v.683c.256,4.863,7.594,8.7,16.553,8.7s16.3-3.84,16.553-8.7V403.3c-.341,2.474-2.56,4.778-5.887,6.314h0c-.341.171-.768.341-1.195.512h0c-.085.085-.256.085-.341.171h0c-.085.085-.256.085-.341.171h0c-.256.085-.6.171-.853.256h0c-.085,0-.256.085-.341.085h-.085c-.085,0-.256.085-.341.085h-.085a3.032,3.032,0,0,1-.853.171H224.4c-.085,0-.256.085-.341.085h-.085a.513.513,0,0,0-.341.085h-.085a.513.513,0,0,0-.341.085h-.085a3.7,3.7,0,0,0-.427.085H222.6a.513.513,0,0,0-.341.085h-6.229a1.082,1.082,0,0,1-.512-.085h-.085a.769.769,0,0,1-.427-.085h-.171a4.282,4.282,0,0,1-1.024-.171h-.085c-.171,0-.256-.085-.427-.085h-.085c-.171,0-.341-.085-.512-.085h-.085c-.171,0-.256-.085-.427-.085h-.085c-.171,0-.341-.085-.512-.085h-.085c-.171,0-.256-.085-.427-.085H211c-.341-.085-.6-.171-.939-.256h-.085c-.171-.085-.256-.085-.427-.171h0c-4.352-1.536-7.253-4.01-7.679-7C201.7,403.385,201.7,403.471,201.7,403.556Z" transform="translate(-190.181 -366.525)"/>
    </g>
    <rect id="Rectangle_721" data-name="Rectangle 721" class="cls-4" width="1.792" height="40.188" transform="translate(178.065 1084.563)"/>
  </g>
</svg>
