<svg xmlns="http://www.w3.org/2000/svg" viewBox="0 0 30.906 100">
  <defs>
    <style>
      .cls-1 {
        fill: #0a294b;
      }

      .cls-2 {
        fill: #72594b;
      }

      .cls-3 {
        fill: #1a1615;
      }

      .cls-4 {
        fill: #171010;
      }

      .cls-5 {
        fill: #1c0f0c;
      }
    </style>
  </defs>
  <g id="p1" transform="translate(-51 -1652)">
    <path id="Path_2761" data-name="Path 2761" class="cls-1" d="M56.569,24.257c-.45-.675-2.175-1.725-2.7-3.6s-3.45-4.5-4.125-4.875a8.443,8.443,0,0,0-3.825-.225c-.45.15-1.125,1.8-1.125,1.8a45.136,45.136,0,0,0-6.9,3.525c-.675.45-2.85,8.249-2.85,8.249-.9,1.125,2.25,6.449,2.175,7.574-.075,1.2,1.8,6.224,1.8,7.649,0,.825.75,1.35,1.35,1.65V45.93c.45-.675,10.574-.075,11.4,0-.075-.525-.15-1.2-.225-1.425-.15-.375-.525-2.7-.525-2.7s3.675-.075,4.65,0,1.05-.15.75-1.125.675-4.65,1.125-5.7c.45-1.125.225-3.9.45-5.4C58.219,28.007,57.019,24.857,56.569,24.257Z" transform="translate(21.124 1648.102)"/>
    <path id="Path_2762" data-name="Path 2762" class="cls-1" d="M56.569,24.257c-.45-.675-2.175-1.725-2.7-3.6s-3.45-4.5-4.125-4.875a8.443,8.443,0,0,0-3.825-.225c-.45.15-1.125,1.8-1.125,1.8a45.136,45.136,0,0,0-6.9,3.525c-.675.45-2.85,8.249-2.85,8.249-.9,1.125,2.25,6.449,2.175,7.574-.075,1.2,1.8,6.224,1.8,7.649,0,.825.75,1.35,1.35,1.65V45.93c.45-.675,10.574-.075,11.4,0-.075-.525-.15-1.2-.225-1.425-.15-.375-.525-2.7-.525-2.7s3.675-.075,4.65,0,1.05-.15.75-1.125.675-4.65,1.125-5.7c.45-1.125.225-3.9.45-5.4C58.219,28.007,57.019,24.857,56.569,24.257Z" transform="translate(21.124 1648.102)"/>
    <g id="Group_1518" data-name="Group 1518" transform="translate(72.144 1689.758)">
      <path id="Path_2763" data-name="Path 2763" class="cls-2" d="M56.9,56Z" transform="translate(-56.525 -51.8)"/>
      <path id="Path_2764" data-name="Path 2764" class="cls-2" d="M66.074,69.073c-.525-2.85-2.025-7.349-2.25-8.624s-1.2-4.725-1.35-6.524a27.352,27.352,0,0,0-.75-3.525,1.665,1.665,0,0,1-.675.075c-.975-.075-4.65,0-4.65,0s.375,2.325.525,2.7c.075.225.15.9.225,1.425h0s4.05,8.549,4.875,10.2c.075.075.075.225.15.45a4.44,4.44,0,0,0,.3.45c.525.9,1.2,5.4-.45,6.524-1.65,1.2.525,1.5,1.575.975C64.649,72.748,66.6,71.923,66.074,69.073Z" transform="translate(-56.4 -50.4)"/>
      <path id="Path_2765" data-name="Path 2765" class="cls-2" d="M57.381,56Z" transform="translate(-56.631 -51.8)"/>
    </g>
    <path id="Path_2766" data-name="Path 2766" class="cls-1" d="M48.1,122.5" transform="translate(17.819 1621.328)"/>
    <path id="Path_2767" data-name="Path 2767" class="cls-3" d="M55.118,129.29s3.525-.675,4.35-2.325c.75-1.725-.075-3.15-2.175-2.85s-4.725-.3-4.275-2.475-4.95.9-4.95.9l-.825.15s-1.35,6.9.525,7.424C49.568,130.715,55.118,129.29,55.118,129.29Z" transform="translate(18.151 1621.738)"/>
    <path id="Path_2768" data-name="Path 2768" class="cls-3" d="M36.3,128.673s3.6-.3,4.5-1.95c.975-1.65.225-3.15-1.875-3.075s-4.65-.825-3.975-2.925-4.95.45-4.95.45l-.825.075s-2.025,6.674-.225,7.5C30.676,129.5,36.3,128.673,36.3,128.673Z" transform="translate(22.794 1621.98)"/>
    <path id="Path_2769" data-name="Path 2769" class="cls-4" d="M29.564,103.135s2.55-8.774,3.75-12,4.05-7.8,4.2-9.524.6-8.549,0-11.174c-.6-2.55.825-13.8,1.275-14.549s11.474,0,11.474,0,4.05,8.549,4.875,10.2c.75,1.65-1.275,12.224-2.25,14.249a58.224,58.224,0,0,0-3.225,12.524c-.375,3.525,1.05,12.074,0,13.049s-6.224,1.5-6.824.975-.675-12.524-.45-15.674a10.37,10.37,0,0,1,.975-4.35s-2.175,1.8-3.825,7.724a43.435,43.435,0,0,1-4.5,10.424s-3.75,1.05-5.475.525S28.664,105.01,29.564,103.135Z" transform="translate(22.706 1638.069)"/>
    <path id="Path_2770" data-name="Path 2770" class="cls-5" d="M49.567,5.938s-.075,3.375,1.125,3.6c1.2.15,3.9.825,4.95,0s1.125-2.4,1.65-2.7.15-1.575.825-1.275a.875.875,0,0,1,.525.975,3.665,3.665,0,0,0,.675-.75c.225-.375.9-3.525-1.125-4.35-2.1-.825-2.325-1.8-5.925-1.2S49.567,5.938,49.567,5.938Z" transform="translate(17.478 1651.948)"/>
    <path id="Path_2771" data-name="Path 2771" class="cls-2" d="M53.775,13.749a13.233,13.233,0,0,1,2.775,2.625v-1.05A5.472,5.472,0,0,0,58.2,15.1c.45-.225.525-.375.525-.375s.525-1.5.675-2.025a23.426,23.426,0,0,0,.375-5.4c0,.15-.075.225-.075.3a2.239,2.239,0,0,1-.675.75.9.9,0,0,0-.525-.975c-.675-.3-.3.9-.825,1.2s-.675,1.8-1.65,2.7c-1.05.825-3.75.15-4.95,0H51l.075,2.1A6.66,6.66,0,0,1,53.775,13.749Z" transform="translate(17.094 1650.135)"/>
  </g>
</svg>
