<svg xmlns="http://www.w3.org/2000/svg" viewBox="0 0 62.356 100">
  <defs>
    <style>
      .cls-1 {
        fill: #f3c8cf;
      }

      .cls-2 {
        fill: #debbc2;
      }

      .cls-3 {
        fill: #030814;
      }

      .cls-4 {
        fill: #871d1d;
      }

      .cls-5 {
        fill: #45662f;
      }

      .cls-6 {
        fill: #0b1823;
      }

      .cls-7 {
        fill: #03080c;
      }

      .cls-8 {
        fill: #1c0f0c;
      }
    </style>
  </defs>
  <g id="p2" transform="translate(-151.94 -1652)">
    <g id="Group_1509" data-name="Group 1509" transform="translate(151.94 1652)">
      <path id="Path_2652" data-name="Path 2652" class="cls-1" d="M175.815,22.042l-9.46-1.742-1.06.227-5,2.424,6.887,15.226s7.493-5,7.644-5.984C175.058,31.208,175.815,22.042,175.815,22.042Z" transform="translate(-152.329 -5.508)"/>
      <path id="Path_2653" data-name="Path 2653" class="cls-1" d="M160.875,8.142c2.422.985,2.119-1.212,3.406-2.954s5.3-1.212,5.3-1.212,3.481,11.514-3.1,16.892c-5.979-3.636-4.844-6.893-5.752-8.029a7.018,7.018,0,0,1-1.135-3.787C159.512,8.066,160.875,8.142,160.875,8.142Z" transform="translate(-146.457 -1.531)"/>
      <path id="Path_2654" data-name="Path 2654" class="cls-2" d="M154.49,20.892c6.584-5.378,3.1-16.892,3.1-16.892,4.465,1.136,3.179,4.242,3.633,5.075.151.227.076.606,0,1.06l.605.757s.53,3.56.454,4.015a26.749,26.749,0,0,1-2.649,3.636l-.454-1.136C158.123,19.68,154.49,20.892,154.49,20.892Z" transform="translate(-134.39 -1.555)"/>
      <path id="Path_2655" data-name="Path 2655" class="cls-3" d="M145.558,114.809a2.834,2.834,0,0,1,.757,2.424c-.151,1.742,1.06,6.893.53,9.09s-3.254,3.106-5.3-.833c-2.043-3.863-3.027-5.908-2.27-8.711l.757-2.878Z" transform="translate(-107.358 -28.207)"/>
      <path id="Path_2656" data-name="Path 2656" class="cls-3" d="M109.012,101.579s1.665,3.03,1.665,5.227,8.779,1.363,8.779,1.363,6.509.227,7.8-2.8c1.362-2.954-1.287-4.09-4.011-3.484s-7.871-.3-9.006-1.818S109.012,101.579,109.012,101.579Z" transform="translate(-65.265 -24.749)"/>
      <path id="Path_2657" data-name="Path 2657" class="cls-4" d="M181.1,35.071a28.476,28.476,0,0,0-1.211-8.181c-1.211-3.181-7.114-4.848-7.114-4.848s-4.844,11.817-6.282,10.984-6.357-8.029-6.055-10.3c.3-2.2,2.876-2.424,2.876-2.424s-9.763,3.56-11.428,6.969-2.952,11.438-2.5,12.12,6.13,2.2,7.72.3l-2.346,7.575a9.281,9.281,0,0,0,5.3,4.772c3.784,1.212-1.514.833,13.4-2.8,0,0-1.06-3.863,1.589-12.271Z" transform="translate(-149.292 -5.508)"/>
      <path id="Path_2658" data-name="Path 2658" class="cls-5" d="M156.8,83.9" transform="translate(-130.642 -20.932)"/>
      <path id="Path_2659" data-name="Path 2659" class="cls-5" d="M156.681,59.965S144.95,58.374,141.545,58.3c-3.406-.152-9.687,2.575-10.747,4.242-1.06,1.591-6.584,4.469-5.828,7.12.681,2.651,5.071,7.045,10.52,6.287s8.779-5.681,13.547-7.348,5.9,1.591,7.568,7.045c0,0,1.135,9.469,4.692,15.983,0,0,7.493,2.727,6.584-.682s-2.271-4.772-4.087-12.574-1.665-10.681-2.5-13.18C160.541,62.691,160.238,60.419,156.681,59.965Z" transform="translate(-117.68 -14.722)"/>
      <path id="Path_2660" data-name="Path 2660" class="cls-6" d="M156.681,59.965S144.95,58.374,141.545,58.3c-3.406-.152-9.687,2.575-10.747,4.242-1.06,1.591-6.584,4.469-5.828,7.12.681,2.651,5.071,7.045,10.52,6.287s8.779-5.681,13.547-7.348,5.9,1.591,7.568,7.045c0,0,1.135,9.469,4.692,15.983,0,0,7.493,2.727,6.584-.682s-2.271-4.772-4.087-12.574-1.665-10.681-2.5-13.18C160.541,62.691,160.238,60.419,156.681,59.965Z" transform="translate(-117.68 -14.722)"/>
      <path id="Path_2661" data-name="Path 2661" class="cls-7" d="M140.568,79.108c5.449-.757,8.779-5.681,13.547-7.348s5.9,1.591,7.568,7.045c0,0,.3,2.348.984,5.454-.454,4.242-.984,8.863-1.06,10.453-.227,3.409,0,9.772-.605,11.211,0,0-6.13.227-6.357-1.288s.833-3.257.53-10.075-.151-13.332-.681-13.635c-.454-.227-14.077-1.591-15.893-1.742A16.451,16.451,0,0,0,140.568,79.108Z" transform="translate(-122.736 -17.882)"/>
      <path id="Path_2662" data-name="Path 2662" class="cls-1" d="M132.329,41.23a12.685,12.685,0,0,0,.681,4.393c.757,1.818,1.741,6.969,4.465,7.8a33.464,33.464,0,0,1,4.692,1.818s-.908,6.439.3,5.833,2.119-2.045,1.665-3.181,2.573-.379,2.649,2.2-.378,4.772,3.179,3.636,1.135-6.363-2.043-8.332c-3.179-2.045-7.644-6.06-8.628-8.635a68,68,0,0,1-2.271-8.56l-5.449,1.969Z" transform="translate(-106.465 -9.849)"/>
      <path id="Path_2663" data-name="Path 2663" class="cls-4" d="M162.042,68.952s-4.314-6.969-2.119-14.014,18.769,1.969,18.769,1.969S163.707,62.665,162.042,68.952Z" transform="translate(-154.449 -13.256)"/>
      <path id="Path_2664" data-name="Path 2664" class="cls-1" d="M171.738,46.015s.3,2.8-1.665,7.045c0,0,.378,2.727,7.644,6.136s7.114,5.53,7.114,5.681-.681.606-2.573-.757c0,0,2.876,3.257,1.514,4.242-1.287.909-5.449,2.5-6.433,1.136s-3.33-4.924-3.406-6.742c0,0-6.206-3.03-7.493-4.393a4.9,4.9,0,0,1-1.816-3.939c-.151-2.121.454-9.62.454-9.62l6.206-.3Z" transform="translate(-164.6 -11.377)"/>
      <path id="Path_2665" data-name="Path 2665" class="cls-4" d="M181.1,35.071a28.476,28.476,0,0,0-1.211-8.181c-1.211-3.181-7.114-4.848-7.114-4.848s-4.844,11.817-6.282,10.984-6.357-8.029-6.055-10.3c.3-2.2,2.876-2.424,2.876-2.424s-9.763,3.56-11.428,6.969-2.952,11.438-2.5,12.12,6.13,2.2,7.72.3l-2.346,7.575a9.281,9.281,0,0,0,5.3,4.772c3.784,1.212-1.514.833,13.4-2.8,0,0-1.06-3.863,1.589-12.271Z" transform="translate(-149.292 -5.508)"/>
      <path id="Path_2666" data-name="Path 2666" class="cls-8" d="M170.715,15.261s-1.816,5.833-3.406,5.681c-1.665-.227-2.8-2.424-2.649-3.484s3.33-2.5,2.952-6.817.3-5.227-.984-6.136-4.238-2.727-7.644,2.424c0,0-.378,3.712-1.892,2.954s-2.8-.833-2.195.757,1.287,3.03,2.422,2.575c0,0-.681,4.848,2.271,6.136,0,0,.53,4.848-2.271,2.5s-4.465-4.015-4.919-5c-.53-.985.53-4.015.605-5.833,0-1.818.227-6.363,2.876-7.878S158.3.415,164.736.869c0,0,1.892.3,3.1,4.318a55.327,55.327,0,0,0,2.422,6.666A7.727,7.727,0,0,1,170.715,15.261Z" transform="translate(-141.161 -0.772)"/>
    </g>
  </g>
</svg>
