<svg xmlns="http://www.w3.org/2000/svg" xmlns:xlink="http://www.w3.org/1999/xlink" viewBox="0 0 35.33 100">
  <defs>
    <style>
      .cls-1 {
        fill: #1e100d;
      }

      .cls-2 {
        fill: #553f37;
      }

      .cls-3 {
        fill: #851d1d;
      }

      .cls-4 {
        fill: #04090c;
      }

      .cls-5 {
        fill: #0e1823;
      }

      .cls-6 {
        fill: #17294b;
      }

      .cls-7 {
        clip-path: url(#clip-path);
      }

      .cls-8 {
        fill: #365c9f;
      }

      .cls-9 {
        fill: #72594b;
      }
    </style>
    <clipPath id="clip-path">
      <path id="Path_2805" data-name="Path 2805" d="M250.355,523.563s-.455,3.3,4.777,3.071c0,0,2.73-15.584,3.3-16.152s5.8-1.706,11.83-1.479a46.431,46.431,0,0,0,5.232,4.55c1.82,1.251,0,8.3,0,8.3s3.3.8,3.3,2.958c0,2.047-1.251,13.309-1.706,14.1s-1.82,1.82-4.209,2.047c0,0,.455,2.73-1.82,2.957s-3.754,2.958-6.029,1.82-8.986-6.6-9.1-7.849c-.228-1.251-2.5-7.849-2.958-8.076s-3.071-2.275-3.071-2.275Z" transform="translate(-249.9 -508.974)"/>
    </clipPath>
  </defs>
  <g id="p4" transform="translate(-48 -1782)">
    <path id="Path_2796" data-name="Path 2796" class="cls-1" d="M245.912,520.031s.227-6.37.91-8.872a21,21,0,0,0,0-6.256s-3.981-4.1-.227-7.394,3.981-3.981,8.531-4.209,8.076,10.01,7.849,10.806,5.346,5.8,5.8,8.076-8.076,1.706-8.076,1.706l-5-.8s-1.137-1.479-4.095-.228-3.3,2.275-3.3,2.275l-.341,3.3Z" transform="translate(-196.138 1288.703)"/>
    <path id="Path_2797" data-name="Path 2797" class="cls-2" d="M249.428,510.285l-.228-1.365,4.436-1.82s-.114,1.137,1.934,2.047-5,1.706-5,1.706Z" transform="translate(-195.558 1290.601)"/>
    <path id="Path_2798" data-name="Path 2798" class="cls-3" d="M248,539.386l-.8-19.337,3.071-8.076s2.5-3.3,4.55-3.071,5.005,2.275,5.005,2.275l.569,23.888-3.981,6.029Z" transform="translate(-195.833 1290.847)"/>
    <path id="Path_2799" data-name="Path 2799" class="cls-4" d="M252.157,571.148s.228,3.071-1.479,4.777-4.777,4.323-5.8,4.323-1.251,3.3,2.73,2.5,12.512-1.706,12.626-3.071c.227-1.479-1.82-8.986-2.275-9.328a14.5,14.5,0,0,0-1.706-1.251Z" transform="translate(-196.24 1299.126)"/>
    <path id="Path_2800" data-name="Path 2800" class="cls-4" d="M258.13,578.994s.455,1.479,3.981.455a2.555,2.555,0,0,0,0-2.048c-.455-1.251-1.706-5.8-1.479-7.052s-5.232.8-5.232.8Z" transform="translate(-194.706 1299.242)"/>
    <path id="Path_2801" data-name="Path 2801" class="cls-5" d="M248.633,535.265l.455,3.071s-2.275,10.579-2.73,15.015-.8,8.3,0,9.555,2.73,6.6,4.323,8.986a5.437,5.437,0,0,1,1.251,4.209s3.981,0,5.8-.8-.455-8.076-.8-9.555c-.455-1.479-2.5-5.8-.227-8.986,2.275-3.071,7.735-15.015,7.507-15.583s-6.6-7.28-6.6-7.28Z" transform="translate(-196.015 1294.286)"/>
    <path id="Path_2802" data-name="Path 2802" class="cls-4" d="M265.665,540.628l-2.73-.228c-.228,1.479-5.346,12.512-7.508,15.47-2.275,3.071-.227,7.507.228,8.986s2.73,8.759.8,9.555h-.114l.569.8h4.209s1.024-12.512.569-13.877a40.554,40.554,0,0,1-.8-6.256c0-.455,3.526-6.256,3.981-7.28S265.665,540.628,265.665,540.628Z" transform="translate(-194.847 1295.18)"/>
    <path id="Path_2803" data-name="Path 2803" class="cls-6" d="M250.355,523.563s-.455,3.3,4.777,3.071c0,0,2.73-15.584,3.3-16.152s5.8-1.706,11.83-1.479a46.431,46.431,0,0,0,5.232,4.55c1.82,1.251,0,8.3,0,8.3s3.3.8,3.3,2.958c0,2.047-1.251,13.309-1.706,14.1s-1.82,1.82-4.209,2.047c0,0,.455,2.73-1.82,2.957s-3.754,2.958-6.029,1.82-8.986-6.6-9.1-7.849c-.228-1.251-2.5-7.849-2.958-8.076s-3.071-2.275-3.071-2.275Z" transform="translate(-195.462 1290.859)"/>
    <g id="Group_1525" data-name="Group 1525" transform="translate(54.438 1799.833)">
      <g id="Group_1523" data-name="Group 1523" class="cls-7">
        <path id="Path_2804" data-name="Path 2804" class="cls-8" d="M264.633,514.519s-3.071,2.73-2.73,8.531c.455,5.8-.455,16.607.569,18.314a7.033,7.033,0,0,1,.569,4.209H281.7l1.024-22.636s-5.574-8.531-7.507-9.1C273.619,513.04,270.093,511.448,264.633,514.519Z" transform="translate(-248.253 -508.46)"/>
      </g>
      <g id="Group_1524" data-name="Group 1524" class="cls-7">
        <path id="Path_2806" data-name="Path 2806" class="cls-6" d="M276.881,523.257s-6.6-.455-8.076,1.251-1.706,13.536-1.706,13.536l-3.3-1.706s.455-13.309,1.251-13.536,8.531-2.5,8.531-2.5l4.777,1.82Z" transform="translate(-247.989 -507.416)"/>
      </g>
    </g>
    <path id="Path_2808" data-name="Path 2808" class="cls-2" d="M250.358,497.7s-4.209,6.484,0,12.285c0,0-.8.569-1.251.227-.455-.455-2.73-2.275-2.5-4.55s-.455-2.5.455-3.981A25.5,25.5,0,0,1,250.358,497.7Z" transform="translate(-195.92 1289.309)"/>
    <path id="Path_2809" data-name="Path 2809" class="cls-9" d="M258.2,504.051l-1.251-1.251-1.024-1.251s-2.275,0-2.73-1.024-.8-5.232-3.071-2.73c0,0-4.209,6.484,0,12.285a9.294,9.294,0,0,0,6.6-4.777h.8C258.657,505.3,258.2,504.051,258.2,504.051Z" transform="translate(-195.688 1289.214)"/>
    <path id="Path_2810" data-name="Path 2810" class="cls-2" d="M246.187,515.641c-.341.228-1.024,3.526-.569,4.55a6.87,6.87,0,0,0,1.251,1.82l1.479-5.8C248.235,516.21,247.552,514.618,246.187,515.641Z" transform="translate(-196.072 1291.728)"/>
    <path id="Path_2811" data-name="Path 2811" class="cls-9" d="M249.978,509.9a14.184,14.184,0,0,0-2.275,5.574c0,.227-.114.455-.114.682-.8,3.868-2.5,12.512-2.389,14.1.227,1.706.8,10.351.8,10.351s-1.024,6.029,1.479,6.256c1.024.114,1.024-1.82,1.251-3.071.341-1.934.569-3.754.569-3.754a17.831,17.831,0,0,1-.569-5.574c0-4.1,1.479-2.958,2.957-12.285s1.706-12.285,0-12.285Z" transform="translate(-196.109 1290.986)"/>
  </g>
</svg>
