<svg xmlns="http://www.w3.org/2000/svg" viewBox="0 0 48.916 50">
  <defs>
    <style>
      .cls-1 {
        fill: #fff;
      }
    </style>
  </defs>
  <g id="s1" transform="translate(-42 -79)">
    <path id="Path_3275" data-name="Path 3275" class="cls-1" d="M184.816,239.542c-1.827.1-3.653.2-5.379.2-.2,0-.507-.3-.71-.507-2.74-3.349-5.379-6.7-8.119-9.945-2.639-3.248-5.176-6.5-7.814-9.743-1.319-1.624-2.639-3.248-4.059-5.074-.406,1.015-.812,1.928-1.218,2.943-.812,2.03-1.624,4.161-2.537,6.089a22.058,22.058,0,0,1-2.334,3.045c-3.552,4.262-7.1,8.626-10.757,12.889a1.648,1.648,0,0,1-.913.507H135.9c.3-.507.71-1.116,1.116-1.725,3.755-5.683,7.611-11.366,11.265-17.151a12.245,12.245,0,0,0,1.218-3.856l2.436-9.134a4.551,4.551,0,0,0,.1-1.116q-.152-2.588-.3-5.48c-1.015.507-1.928,1.015-2.842,1.522-.2.1-.3.507-.406.812-.3,1.319-.507,2.74-.812,4.059-.1.507-.2.71-.812.71h-3.653c.406-2.03.913-4.059,1.218-6.089a2.016,2.016,0,0,1,1.218-1.624c2.537-1.421,5.074-2.943,7.611-4.262a10.953,10.953,0,0,1,6.495-.812c1.827.2,3.248,1.116,4.871,1.827,4.871,2.233,9.743,4.364,14.512,6.6a4.114,4.114,0,0,1,.913.507c-1.827,2.03-1.827,2.03-4.161,1.015-3.653-1.522-7.307-2.842-11.062-4.364a1.981,1.981,0,0,0-.1.71c-.1,2.03-.3,3.958-.406,5.988a1.417,1.417,0,0,0,.3.913c4.871,7.307,9.743,14.614,14.614,21.819C181.061,233.757,182.887,236.6,184.816,239.542Z" transform="translate(-93.9 -110.948)"/>
    <path id="Path_3276" data-name="Path 3276" class="cls-1" d="M157.68,195.277a8.67,8.67,0,0,1-4.364-1.015c-1.421-.812-1.522-2.131-.2-3.045a7.526,7.526,0,0,1,5.277-1.116,13.628,13.628,0,0,1,2.74.71,2.4,2.4,0,0,1,.913.609,1.614,1.614,0,0,1,0,2.74A8.006,8.006,0,0,1,157.68,195.277Z" transform="translate(-93.658 -111.031)"/>
  </g>
</svg>
