<svg xmlns="http://www.w3.org/2000/svg" viewBox="0 0 53.831 50">
  <defs>
    <style>
      .cls-1 {
        fill: #fff;
      }
    </style>
  </defs>
  <g id="s3" transform="translate(-265 -79)">
    <path id="Path_3274" data-name="Path 3274" class="cls-1" d="M252.622,126.129c0-.472.094-.849.094-1.226-.189-.094-.377-.094-.566-.189-.377-.283-.377-.943,0-1.037a1.136,1.136,0,0,0,.943-1.415h1.886a4.627,4.627,0,0,0,.094,1.037,15.074,15.074,0,0,1,1.98-.472c-.189-1.98.66-3.3,3.584-4.244a10.89,10.89,0,0,1,4.621-.377,2.15,2.15,0,0,0,1.037-.283c3.3-2.546,6.6-5,9.9-7.545.094-.094.283-.189.377-.283a1.739,1.739,0,0,0-1.792.094,17.407,17.407,0,0,1-7.167,2.358,25.024,25.024,0,0,1-9.9-.566,10.194,10.194,0,0,1-4.81-2.452,3.728,3.728,0,0,1,0-5.847,12.5,12.5,0,0,1,5.47-2.735,23.509,23.509,0,0,1,14.618.66A13.057,13.057,0,0,1,276.1,103.5a3.488,3.488,0,0,1,1.037,4.338.713.713,0,0,1-.094.377c1.98.283,3.867.472,5.847.754,1.509.189,2.924.377,4.433.566a3.117,3.117,0,0,0,2.263-.472,6.275,6.275,0,0,1,6.036.472,1.137,1.137,0,0,1,.472.472,37.336,37.336,0,0,1,1.226,3.867h-3.4c-.094,0-.283-.283-.283-.377-.189-.66-.377-1.226-.566-1.886a1.115,1.115,0,0,0-1.792-.566,3.607,3.607,0,0,1-2.924.66c-.754-.094-1.415-.189-2.263-.283.66,3.207,1.226,6.224,1.792,9.242.283,1.6.566,3.112.943,4.715.094.189.283.566.472.566,1.226.283,2.452.472,3.772.754.189-1.037.377-1.98.472-2.924.094-.66.283-1.132,1.037-1.132.849,0,1.509.283,1.7.943.754,2.641,1.509,5.376,2.169,8.016.189.754,0,.943-.754.754a6.478,6.478,0,0,1-4.244-2.546c-.094-.094-.094-.189-.189-.189-1.415-.189-2.735-1.037-4.244-.566-3.206,1.132-6.319,2.358-9.525,3.489-.189.094-.283.094-.472.189,0,.094.094.189.094.283a8.943,8.943,0,0,1-1.226,11.317,18.568,18.568,0,0,1-10.185,5.187,25.281,25.281,0,0,1-15.372-1.415,12.374,12.374,0,0,1-6.79-5.941c-1.7-3.584-.849-7.545,2.358-10.563a20.085,20.085,0,0,1,10.185-4.81c1.037-.189,2.169-.283,3.3-.472.189,0,.377-.189.566-.377-.189-.094-.283-.377-.472-.377a7.861,7.861,0,0,1-3.4-1.509.72.72,0,0,0-.472-.189,25.282,25.282,0,0,0-2.546.66c-.189.094-.283.472-.283.754,0,.754-.377.943-1.037.849Zm9.054,3.207a29.157,29.157,0,0,0-3.3.66,12.273,12.273,0,0,0-7.167,4.433,5.056,5.056,0,0,0-.754,5.47,8.164,8.164,0,0,0,3.584,3.772,17.109,17.109,0,0,0,12.166,1.7,12.9,12.9,0,0,0,7.356-3.772c1.98-2.075,2.452-4.433,1.32-6.7-.189-.472-.472-.66-.943-.472-2.263.849-4.621,1.7-6.885,2.546-1.32.472-2.641.943-3.867,1.415-1.226.377-1.98-.189-1.886-1.415,0-.66.094-1.32.094-2.075C261.392,133.108,261.581,131.316,261.675,129.336Zm8.393-7.545c4.81,1.037,9.62,1.98,14.524,3.018-.189-.943-.283-1.792-.377-2.546-.566-3.584-1.132-7.262-1.7-10.846,0-.189-.094-.566-.283-.66a2.812,2.812,0,0,0-2.452.094c-2.829,2.263-5.753,4.621-8.582,6.885-.754.566-1.509,1.226-2.263,1.792a7.33,7.33,0,0,0,1.509-.189c1.226-.283,1.226-.283,1.32-1.6l.094-.094h1.7c.094.377.094.754.189,1.037.094,0,.094-.094.189-.094.283.283.754.566.754.754,0,.283-.472.566-.754.943-.094,0-.094-.094-.189-.094v.943h-1.792c-.094-.377-.094-.566-.189-.943a13.788,13.788,0,0,1-1.886.472C269.974,121.131,269.974,121.414,270.069,121.791Zm.377-12.637c-.943-.094-1.98-.189-2.924-.377a5.936,5.936,0,0,1-3.678-1.792,4.877,4.877,0,0,1-.566-1.226,8.3,8.3,0,0,1,1.415-.472,1.991,1.991,0,0,1,.943.377,3.822,3.822,0,0,1,.849.472,18.257,18.257,0,0,0,5.941,1.415.921.921,0,0,0,1.132-.66c.377-.943,0-1.98-1.132-2.924a9.386,9.386,0,0,0-4.244-1.7,17.318,17.318,0,0,0-9.054.566,6.353,6.353,0,0,0-3.584,2.452,1.7,1.7,0,0,0,0,2.075,8.108,8.108,0,0,0,1.886,1.7,14.5,14.5,0,0,0,8.2,1.415A13.136,13.136,0,0,0,270.446,109.154Zm13.392,18.3c-.189-.094-.283-.189-.377-.189-4.81-1.037-9.525-2.075-14.335-3.018-.189-.094-.472.094-.754.189-.943.377-1.792.66-2.735,1.037-.283.094-.943-.094-.849.472s.66.377,1.037.377a21.262,21.262,0,0,1,10.28,3.489,1.081,1.081,0,0,0,.943.094c1.7-.566,3.489-1.226,5.187-1.792C282.612,127.921,283.178,127.732,283.838,127.449Zm-20.371-3.489a5.21,5.21,0,0,0,3.4-1.037c.943-.754.943-1.6-.094-2.358a6.215,6.215,0,0,0-6.507.094c-1.037.849-.943,1.792.094,2.452A5.181,5.181,0,0,0,263.467,123.96Zm1.037,10.374c2.358-.849,4.81-1.7,7.356-2.641a15.967,15.967,0,0,0-7.356-2.263Z" transform="translate(20.308 -21.099)"/>
  </g>
</svg>
