<svg xmlns="http://www.w3.org/2000/svg" viewBox="0 0 179.439 15.281">
  <defs>
    <style>
      .cls-1 {
        fill: #fff;
      }
    </style>
  </defs>
  <g id="s4" transform="translate(-32 -183)">
    <path id="Path_3279" data-name="Path 3279" class="cls-1" d="M112.8,299.285c.3-.3.593-.445.89-.742,6.083-4.6,12.166-9.05,18.249-13.649a4.411,4.411,0,0,1,2.819-.593h10.237a6.855,6.855,0,0,1-1.039,1.039c-5.044,4.6-9.94,9.05-14.985,13.649a2.3,2.3,0,0,1-1.187.3H113.69A.934.934,0,0,1,112.8,299.285Z" transform="translate(-80.8 -101.152)"/>
    <path id="Path_3280" data-name="Path 3280" class="cls-1" d="M211.3,284.2h10.83a3.3,3.3,0,0,1,1.929.593c2.522,1.632,4.9,3.264,7.27,4.9,4.3,2.819,8.457,5.786,12.611,8.753,1.039.742,1.039.742-1.335.742H230.439a3.191,3.191,0,0,1-1.484-.3c-3.116-2.522-6.083-4.9-9.05-7.418-2.819-2.225-5.489-4.6-8.308-6.825C211.6,284.5,211.448,284.5,211.3,284.2Z" transform="translate(-33.163 -101.2)"/>
    <path id="Path_3281" data-name="Path 3281" class="cls-1" d="M128.6,299.385c.89-.89,1.632-1.632,2.374-2.522,3.857-3.857,7.715-7.863,11.572-11.721.593-.593,1.484-.742,3.264-.742h9.5l-.89,1.335c-2.522,3.412-4.9,6.676-7.418,10.089-.742,1.039-1.484,2.225-2.225,3.264a1.591,1.591,0,0,1-.89.3Z" transform="translate(-73.159 -101.103)"/>
    <path id="Path_3282" data-name="Path 3282" class="cls-1" d="M165.864,284.3c-1.929,5.044-3.857,9.94-5.786,14.985H144.5c.593-1.039,1.335-2.225,1.929-3.264,2.225-3.709,4.6-7.418,6.825-11.127.3-.445.593-.593,1.929-.593Z" transform="translate(-65.469 -101.152)"/>
    <path id="Path_3283" data-name="Path 3283" class="cls-1" d="M160.3,299.285c1.187-5.044,2.374-9.94,3.709-14.985h12.017v14.243c0,.593-.445.742-2.225.742Z" transform="translate(-57.828 -101.152)"/>
    <path id="Path_3284" data-name="Path 3284" class="cls-1" d="M192.407,299.287H176.68c-.593-4.9-1.187-9.94-1.78-14.985h9.347c3.264,0,2.522-.148,2.967.89,1.335,3.857,2.819,7.715,4.154,11.572A9.925,9.925,0,0,1,192.407,299.287Z" transform="translate(-50.767 -101.154)"/>
    <path id="Path_3285" data-name="Path 3285" class="cls-1" d="M187.2,284.3h10.385a4.391,4.391,0,0,1,1.78.445c.89.89,1.484,1.78,2.225,2.671l6.231,8.457,1.78,2.671c.3.445,0,.593-1.484.593H196.25c-1.335,0-2.077-.148-2.225-.593-1.484-3.116-2.967-6.38-4.451-9.5-.593-1.335-1.335-2.671-1.929-4.006A.816.816,0,0,1,187.2,284.3Z" transform="translate(-44.818 -101.152)"/>
    <path id="Path_3286" data-name="Path 3286" class="cls-1" d="M227.412,299.185H213.317c-1.187,0-1.78-.148-2.077-.593-1.78-2.225-3.709-4.451-5.489-6.676-1.78-2.077-3.709-4.3-5.489-6.38l-.593-.593c-.445-.593-.3-.742,1.632-.742h8.012a3.271,3.271,0,0,1,2.374.593c2.671,2.522,5.341,4.9,8.16,7.418,2.225,2.077,4.451,4.006,6.676,6.083A5.036,5.036,0,0,0,227.412,299.185Z" transform="translate(-38.889 -101.2)"/>
  </g>
</svg>
