<svg xmlns="http://www.w3.org/2000/svg" viewBox="0 0 29.934 50">
  <defs>
    <style>
      .cls-1 {
        fill: #ba350c;
      }

      .cls-2 {
        fill: #ff4200;
      }

      .cls-3 {
        fill: #fff;
      }
    </style>
  </defs>
  <g id="s7" transform="translate(-164.552 -237)">
    <path id="Path_2812" data-name="Path 2812" class="cls-1" d="M175.009,44.5H148.724L146.9,59.591h29.934Z" transform="translate(17.652 226.082)"/>
    <rect id="Rectangle_627" data-name="Rectangle 627" class="cls-2" width="29.934" height="1.327" transform="translate(164.552 285.673)"/>
    <path id="Path_2813" data-name="Path 2813" class="cls-2" d="M172.305,42.645,165.423,5h-4.892l-6.882,37.645a3.327,3.327,0,0,0-.249,1.244c0,3.234,4.229,5.8,9.536,5.8s9.536-2.57,9.536-5.8A6.4,6.4,0,0,0,172.305,42.645Z" transform="translate(16.542 232.829)"/>
    <path id="Path_2814" data-name="Path 2814" class="cls-3" d="M163.431,38.114c3.814,0,6.882-1.161,7.214-2.57l-.829-4.643c-.166.829-1.327,1.493-3.068,1.907h0c-.083,0-.249.083-.332.083h-.083a.627.627,0,0,0-.332.083h-.083a.5.5,0,0,0-.332.083h0a.5.5,0,0,0-.332.083h-3.648c-.249,0-.5-.083-.746-.083h-.083a.5.5,0,0,1-.332-.083h0c-.083,0-.249-.083-.332-.083-1.658-.415-2.819-1.078-2.985-1.907l-.829,4.809C156.8,37.036,159.783,38.114,163.431,38.114Z" transform="translate(16.046 228.405)"/>
    <path id="Path_2815" data-name="Path 2815" class="cls-3" d="M163.841,23.7c2.736,0,5.058-.829,5.141-1.907l-.829-4.395h0c0,.912-1.907,1.658-4.312,1.658-2.239,0-4.063-.663-4.312-1.493l-.829,4.395C159.032,22.873,161.27,23.7,163.841,23.7Z" transform="translate(15.636 230.711)"/>
    <ellipse id="Ellipse_155" data-name="Ellipse 155" class="cls-1" cx="2.405" cy="0.912" rx="2.405" ry="0.912" transform="translate(177.156 237)"/>
  </g>
</svg>
