<svg xmlns="http://www.w3.org/2000/svg" viewBox="0 0 48.437 70">
  <defs>
    <style>
      .cls-1 {
        fill: #0b1f51;
      }
    </style>
  </defs>
  <g id="sp1" transform="translate(-42.449 -1243.128)">
    <path id="Union_1" data-name="Union 1" class="cls-1" d="M1890.461,5524.743c0-.95,1.069-1.662,2.731-2.017l1.426-50.7s0-4.392-.238-6.054a7.463,7.463,0,0,0-.712-3.208c-.357-.236-.6.832-.95,2.139v-7.718a2.981,2.981,0,0,1,3.442,1.186,12.468,12.468,0,0,1,2.257,5.225c.119.593.238,1.307.357,1.9a65.509,65.509,0,0,1,.355,7.242l-1.662,49.872c1.662.357,2.85,1.068,2.969,2.136,0,1.307-2.257,2.257-4.989,2.257S1890.461,5525.932,1890.461,5524.743Zm-5.461-12.7c0-.714.831-1.307,2.136-1.543l1.188-39.185a21.979,21.979,0,0,1,.119-2.613c.474-7.48,2.256-10.8,4.275-11.636v7.718c0,.238-.119.357-.119.476-.357,1.661-.712,5.7-.712,5.7l-1.307,39.54a3.269,3.269,0,0,1,2.138,1.187v.831c-.476.712-2.019,1.307-3.8,1.307C1886.781,5513.821,1885,5513.109,1885,5512.04Zm7.718-.357a1.2,1.2,0,0,0,.119.357c0,.236,0,.355-.119.474Z" transform="translate(-1842.551 -4213.873)"/>
    <path id="Union_2" data-name="Union 2" class="cls-1" d="M1890.461,5524.743c0-.95,1.069-1.662,2.731-2.017l1.426-50.7s0-4.392-.238-6.054a7.463,7.463,0,0,0-.712-3.208c-.357-.236-.6.832-.95,2.139v-7.718a2.981,2.981,0,0,1,3.442,1.186,12.468,12.468,0,0,1,2.257,5.225c.119.593.238,1.307.357,1.9a65.509,65.509,0,0,1,.355,7.242l-1.662,49.872c1.662.357,2.85,1.068,2.969,2.136,0,1.307-2.257,2.257-4.989,2.257S1890.461,5525.932,1890.461,5524.743Zm-5.461-12.7c0-.714.831-1.307,2.136-1.543l1.188-39.185a21.979,21.979,0,0,1,.119-2.613c.474-7.48,2.256-10.8,4.275-11.636v7.718c0,.238-.119.357-.119.476-.357,1.661-.712,5.7-.712,5.7l-1.307,39.54a3.269,3.269,0,0,1,2.138,1.187v.831c-.476.712-2.019,1.307-3.8,1.307C1886.781,5513.821,1885,5513.109,1885,5512.04Zm7.718-.357a1.2,1.2,0,0,0,.119.357c0,.236,0,.355-.119.474Z" transform="translate(-1809.551 -4213.873)"/>
  </g>
</svg>
