<svg xmlns="http://www.w3.org/2000/svg" viewBox="0 0 20.77 70">
  <defs>
    <style>
      .cls-1 {
        fill: #383232;
      }

      .cls-2 {
        fill: #161413;
      }

      .cls-3 {
        fill: #f5e67c;
      }

      .cls-4 {
        fill: #fae844;
      }
    </style>
  </defs>
  <g id="sp3" transform="translate(-282 -1243)">
    <ellipse id="Ellipse_172" data-name="Ellipse 172" class="cls-1" cx="10.341" cy="5.657" rx="10.341" ry="5.657" transform="translate(282.088 1300.891)"/>
    <path id="Path_4128" data-name="Path 4128" class="cls-2" d="M94.588,851.142v.442c.177,3.005,4.773,5.48,10.341,5.48,5.657,0,10.164-2.386,10.341-5.48v-.619c-.177,1.591-1.591,3.005-3.624,3.889h0c-.265.088-.442.177-.707.265h0c-.088,0-.177.088-.265.088h0c-.088,0-.177.088-.265.088h0c-.177.088-.354.088-.53.177h0c-.088,0-.177.088-.265.088h-.088a.325.325,0,0,0-.265.088h-.088a1.121,1.121,0,0,1-.53.088h0a.325.325,0,0,0-.265.088h-5.745c-.177,0-.442-.088-.619-.088h-.088a.325.325,0,0,1-.265-.088h-.088a.325.325,0,0,1-.265-.088h-.088a.325.325,0,0,1-.265-.088h-.088c-.088,0-.177-.088-.265-.088h0c-.088,0-.177-.088-.265-.088h-.088a5.634,5.634,0,0,0-.619-.177h-.088c-.088,0-.177-.088-.265-.088h0c-2.74-.972-4.6-2.563-4.773-4.331A2.478,2.478,0,0,1,94.588,851.142Z" transform="translate(187.5 455.936)"/>
    <path id="Path_4129" data-name="Path 4129" class="cls-2" d="M109.294,842.234V780.1H102.4v62.134h0c0,.707,1.591,1.326,3.447,1.326,1.944,0,3.447-.53,3.447-1.326Z" transform="translate(186.582 464.137)"/>
    <ellipse id="Ellipse_173" data-name="Ellipse 173" class="cls-1" cx="3.447" cy="1.326" rx="3.447" ry="1.326" transform="translate(288.982 1243)"/>
    <path id="Path_4130" data-name="Path 4130" class="cls-3" d="M109.294,794.517V787.8c0,.707-1.591,1.326-3.447,1.326s-3.447-.619-3.447-1.326v35c0,.707,1.591,1.326,3.447,1.326,1.944,0,3.447-.619,3.447-1.326v-6.717h0V794.517Z" transform="translate(186.582 463.243)"/>
    <path id="Path_4131" data-name="Path 4131" class="cls-4" d="M109.306,794.517v-6.54l-6.806,35c.354.619,1.679,1.061,3.359,1.061,1.944,0,3.447-.619,3.447-1.326v-6.717h0V794.517Z" transform="translate(186.571 463.243)"/>
  </g>
</svg>
