<svg xmlns="http://www.w3.org/2000/svg" viewBox="0 0 50.214 120">
  <defs>
    <style>
      .cls-1 {
        fill: #161413;
      }

      .cls-2 {
        fill: #383232;
      }

      .cls-3 {
        fill: #fae844;
      }
    </style>
  </defs>
  <g id="sp5" transform="translate(-153 -1343)">
    <path id="Path_4132" data-name="Path 4132" class="cls-1" d="M211.6,732.574h13.43L222.778,712.2h-8.842Z" transform="translate(-21.816 726.655)"/>
    <g id="Group_1947" data-name="Group 1947" transform="translate(189.867 1455.54)">
      <ellipse id="Ellipse_174" data-name="Ellipse 174" class="cls-1" cx="6.673" cy="3.529" rx="6.673" ry="3.529" transform="translate(0)"/>
      <path id="Path_4133" data-name="Path 4133" class="cls-2" d="M224.947,737.741v.241c-.083,1.845-3.086,3.369-6.673,3.369-3.67,0-6.59-1.524-6.673-3.369v-.321c.083.963,1,1.845,2.336,2.406h0a1.219,1.219,0,0,0,.5.16h0c.083,0,.083,0,.167.08h0c.083,0,.083,0,.167.08h0c.083,0,.25.08.334.08h0c.083,0,.083,0,.167.08h.167c.083,0,.25.08.334.08h4.254a.778.778,0,0,0,.417-.08h.584c.083,0,.167,0,.167-.08h0c.083,0,.083,0,.167-.08h0c.167,0,.25-.08.334-.08h0c.083,0,.083,0,.167-.08h0c1.752-.562,2.92-1.6,3.086-2.727Z" transform="translate(-211.6 -733.89)"/>
    </g>
    <ellipse id="Ellipse_175" data-name="Ellipse 175" class="cls-2" cx="4.421" cy="0.882" rx="4.421" ry="0.882" transform="translate(192.119 1437.973)"/>
    <path id="Path_4134" data-name="Path 4134" class="cls-3" d="M262.37,602.815c-4-1.765-6.673-4.251-6.089-5.615l14.431,6.337C270.044,604.9,266.29,604.58,262.37,602.815Z" transform="translate(-102.696 749.409)"/>
    <path id="Path_4135" data-name="Path 4135" class="cls-1" d="M260.825,688.315a4.033,4.033,0,0,0,1.918-.321v-75.8a16.349,16.349,0,0,0-16.3-16.364h-15.9l-.16-.241a7.917,7.917,0,0,0-6.152-2.888,8.2,8.2,0,0,0-2.8.481,7.823,7.823,0,0,0-4.235,3.61l14.622,6.738a7.31,7.31,0,0,0,.479-3.209v-.642h14.861a12.49,12.49,0,0,1,11.825,11.872h0v76.444A4.5,4.5,0,0,0,260.825,688.315Z" transform="translate(-64.2 750.3)"/>
  </g>
</svg>
