<svg xmlns="http://www.w3.org/2000/svg" viewBox="0 0 50.214 120">
  <defs>
    <style>
      .cls-1 {
        fill: #161413;
      }

      .cls-2 {
        fill: #383232;
      }

      .cls-3 {
        fill: #fae844;
      }
    </style>
  </defs>
  <g id="sp6" transform="translate(-267 -1343)">
    <path id="Path_4132" data-name="Path 4132" class="cls-1" d="M224.514,732.574H211.6l2.166-20.374h8.5Z" transform="translate(55.4 726.655)"/>
    <g id="Group_1947" data-name="Group 1947" transform="translate(267 1455.54)">
      <ellipse id="Ellipse_174" data-name="Ellipse 174" class="cls-1" cx="6.417" cy="3.529" rx="6.417" ry="3.529" transform="translate(0 0)"/>
      <path id="Path_4133" data-name="Path 4133" class="cls-2" d="M211.6,737.741v.241c.08,1.845,2.968,3.369,6.417,3.369,3.529,0,6.337-1.524,6.417-3.369v-.321a3.309,3.309,0,0,1-2.246,2.406h0a1.14,1.14,0,0,1-.481.16h0c-.08,0-.08,0-.16.08h0c-.08,0-.08,0-.16.08h0c-.08,0-.241.08-.321.08h0c-.08,0-.08,0-.16.08h-.16c-.08,0-.241.08-.321.08h-4.091a.724.724,0,0,1-.4-.08h-.562c-.08,0-.16,0-.16-.08h0c-.08,0-.08,0-.16-.08h0c-.16,0-.241-.08-.321-.08h0c-.08,0-.08,0-.16-.08h0c-1.684-.562-2.807-1.6-2.968-2.727Z" transform="translate(-211.6 -733.89)"/>
    </g>
    <ellipse id="Ellipse_175" data-name="Ellipse 175" class="cls-2" cx="4.251" cy="0.882" rx="4.251" ry="0.882" transform="translate(269.166 1437.973)"/>
    <path id="Path_4134" data-name="Path 4134" class="cls-3" d="M264.221,602.815c3.85-1.765,6.417-4.251,5.856-5.615L256.2,603.537C256.842,604.9,260.451,604.58,264.221,602.815Z" transform="translate(46.575 749.409)"/>
    <path id="Path_4135" data-name="Path 4135" class="cls-1" d="M219.125,688.315a4.062,4.062,0,0,1-1.925-.321v-75.8a16.381,16.381,0,0,1,16.364-16.364h15.963l.16-.241a7.961,7.961,0,0,1,6.176-2.888,8.262,8.262,0,0,1,2.807.481,7.846,7.846,0,0,1,4.251,3.61l-14.679,6.738a7.284,7.284,0,0,1-.481-3.209v-.642h-14.92A12.515,12.515,0,0,0,220.97,611.55h0v76.444A4.536,4.536,0,0,1,219.125,688.315Z" transform="translate(54.292 750.3)"/>
  </g>
</svg>
