<svg xmlns="http://www.w3.org/2000/svg" viewBox="0 0 78.537 80">
  <defs>
    <style>
      .cls-1 {
        fill: #d2b59d;
      }

      .cls-2 {
        fill: #806060;
      }

      .cls-3 {
        fill: #e6d1bf;
      }
    </style>
  </defs>
  <g id="sp9" transform="translate(-253 -1493)">
    <g id="Group_1954" data-name="Group 1954" transform="translate(253 1493.082)">
      <rect id="Rectangle_728" data-name="Rectangle 728" class="cls-1" width="24.488" height="9.022" transform="translate(3.786 70.886)"/>
      <rect id="Rectangle_729" data-name="Rectangle 729" class="cls-1" width="20.702" height="22.877" transform="translate(5.639 48.089)"/>
      <rect id="Rectangle_730" data-name="Rectangle 730" class="cls-1" width="22.555" height="1.772" transform="translate(3.786 46.317)"/>
      <rect id="Rectangle_731" data-name="Rectangle 731" class="cls-2" width="22.555" height="1.772" transform="translate(3.786 46.317)"/>
      <rect id="Rectangle_732" data-name="Rectangle 732" class="cls-1" width="24.166" height="3.222" transform="translate(2.98 43.095)"/>
      <rect id="Rectangle_733" data-name="Rectangle 733" class="cls-1" width="36.248" height="3.222" transform="translate(2.98 19.977)"/>
      <rect id="Rectangle_734" data-name="Rectangle 734" class="cls-1" width="36.248" height="3.222" transform="translate(2.98 19.977)"/>
      <rect id="Rectangle_735" data-name="Rectangle 735" class="cls-2" width="36.248" height="2.014" transform="translate(2.98 17.883)"/>
      <rect id="Rectangle_736" data-name="Rectangle 736" class="cls-1" width="33.912" height="9.586" transform="translate(5.316 2.98)"/>
      <rect id="Rectangle_737" data-name="Rectangle 737" class="cls-3" width="36.248" height="3.061" transform="translate(2.98)"/>
      <rect id="Rectangle_738" data-name="Rectangle 738" class="cls-3" width="39.229" height="5.155" transform="translate(0 12.647)"/>
      <path id="Path_4150" data-name="Path 4150" class="cls-3" d="M199.821,817.671A12.943,12.943,0,0,1,212.71,804.7v-6.2H179.2v19.977h20.621C199.821,818.155,199.821,817.913,199.821,817.671Z" transform="translate(-173.481 -775.301)"/>
      <circle id="Ellipse_182" data-name="Ellipse 182" class="cls-3" cx="2.175" cy="2.175" r="2.175" transform="translate(7.089 5.639)"/>
      <rect id="Rectangle_739" data-name="Rectangle 739" class="cls-2" width="9.666" height="1.289" transform="translate(14.153 3.048) rotate(90)"/>
      <circle id="Ellipse_183" data-name="Ellipse 183" class="cls-3" cx="2.175" cy="2.175" r="2.175" transform="translate(15.547 5.639)"/>
      <rect id="Rectangle_740" data-name="Rectangle 740" class="cls-2" width="9.666" height="1.289" transform="translate(22.64 3.019) rotate(90)"/>
      <circle id="Ellipse_184" data-name="Ellipse 184" class="cls-3" cx="2.175" cy="2.175" r="2.175" transform="translate(24.004 5.639)"/>
      <rect id="Rectangle_741" data-name="Rectangle 741" class="cls-2" width="9.666" height="1.289" transform="translate(31.128 2.989) rotate(90)"/>
      <circle id="Ellipse_185" data-name="Ellipse 185" class="cls-3" cx="2.175" cy="2.175" r="2.175" transform="translate(32.543 5.639)"/>
      <rect id="Rectangle_742" data-name="Rectangle 742" class="cls-2" width="9.666" height="0.644" transform="translate(39.293 3.04) rotate(90)"/>
      <path id="Path_4151" data-name="Path 4151" class="cls-1" d="M177.975,791.9a2.166,2.166,0,0,0-2.175,2.175h4.269A2.009,2.009,0,0,0,177.975,791.9Z" transform="translate(-172.82 -774.018)"/>
      <path id="Path_4152" data-name="Path 4152" class="cls-1" d="M183.275,791.9a2.166,2.166,0,0,0-2.175,2.175h4.269A2.009,2.009,0,0,0,183.275,791.9Z" transform="translate(-173.85 -774.018)"/>
      <path id="Path_4153" data-name="Path 4153" class="cls-1" d="M188.575,791.9a2.166,2.166,0,0,0-2.175,2.175h4.269A2.009,2.009,0,0,0,188.575,791.9Z" transform="translate(-174.881 -774.018)"/>
      <path id="Path_4154" data-name="Path 4154" class="cls-1" d="M193.875,791.9a2.166,2.166,0,0,0-2.175,2.175h4.269A2.009,2.009,0,0,0,193.875,791.9Z" transform="translate(-175.912 -774.018)"/>
      <path id="Path_4155" data-name="Path 4155" class="cls-1" d="M199.275,791.9a2.166,2.166,0,0,0-2.175,2.175h4.269A2.1,2.1,0,0,0,199.275,791.9Z" transform="translate(-176.962 -774.018)"/>
      <path id="Path_4156" data-name="Path 4156" class="cls-1" d="M204.575,791.9a2.166,2.166,0,0,0-2.175,2.175h4.269A2.053,2.053,0,0,0,204.575,791.9Z" transform="translate(-177.993 -774.018)"/>
      <path id="Path_4157" data-name="Path 4157" class="cls-1" d="M209.875,791.9a2.166,2.166,0,0,0-2.175,2.175h4.269A2.009,2.009,0,0,0,209.875,791.9Z" transform="translate(-179.024 -774.018)"/>
      <path id="Path_4158" data-name="Path 4158" class="cls-1" d="M215.175,791.9A2.166,2.166,0,0,0,213,794.075h4.269A2.009,2.009,0,0,0,215.175,791.9Z" transform="translate(-180.054 -774.018)"/>
      <path id="Path_4159" data-name="Path 4159" class="cls-1" d="M220.314,791.9a2.117,2.117,0,0,0-2.014,2.094h2.014Z" transform="translate(-181.085 -774.018)"/>
      <path id="Path_4160" data-name="Path 4160" class="cls-2" d="M185.364,853.48h9.505a2.6,2.6,0,0,0,.644-1.692,3.232,3.232,0,0,0-.242-1.208,2.729,2.729,0,0,0,.967-2.094,2.446,2.446,0,0,0-.644-1.692,2.6,2.6,0,0,0,.644-1.692,1.021,1.021,0,0,0-.081-.483,3.232,3.232,0,0,0,.242-1.208,8.01,8.01,0,0,0-3.061-4.269v-.4a2.739,2.739,0,0,0-5.478,0,2.364,2.364,0,0,0,.322,1.289,2.738,2.738,0,0,0-1.692,2.5,3.427,3.427,0,0,0,.161.886,2.552,2.552,0,0,0-.725,1.853,1.022,1.022,0,0,0,.081.483A2.678,2.678,0,0,0,184.8,848a2.73,2.73,0,0,1,0,3.705A2.6,2.6,0,0,0,185.364,853.48Z" transform="translate(-174.57 -782.594)"/>
      <path id="Path_4161" data-name="Path 4161" class="cls-2" d="M183.2,802v14.58h14.58V802Zm13.613,13.613H184.247V803.047h12.566Z" transform="translate(-174.259 -775.982)"/>
      <path id="Path_4162" data-name="Path 4162" class="cls-2" d="M185.7,804.5v10.552h10.552V804.5Zm9.505,9.505h-8.458v-8.538h8.539v8.538Z" transform="translate(-174.745 -776.468)"/>
      <path id="Path_4163" data-name="Path 4163" class="cls-2" d="M211.633,802.355a1.874,1.874,0,0,1-1.853-1.853v-.4H203.9v10.713h.161a10.618,10.618,0,0,1,8.377-7.572v-1.047A1.593,1.593,0,0,1,211.633,802.355Z" transform="translate(-178.285 -775.612)"/>
      <path id="Path_4164" data-name="Path 4164" class="cls-2" d="M218.5,800a5.236,5.236,0,0,1,0,4.028h1.853V800Z" transform="translate(-181.124 -775.593)"/>
    </g>
    <g id="Group_1955" data-name="Group 1955" transform="translate(292.229 1493)">
      <rect id="Rectangle_743" data-name="Rectangle 743" class="cls-1" width="24.488" height="9.022" transform="translate(35.496 80) rotate(180)"/>
      <rect id="Rectangle_744" data-name="Rectangle 744" class="cls-1" width="20.702" height="22.877" transform="translate(33.621 70.948) rotate(180)"/>
      <rect id="Rectangle_745" data-name="Rectangle 745" class="cls-1" width="22.555" height="1.772" transform="translate(35.454 48.127) rotate(180)"/>
      <rect id="Rectangle_746" data-name="Rectangle 746" class="cls-2" width="22.555" height="1.772" transform="translate(35.454 48.127) rotate(180)"/>
      <rect id="Rectangle_747" data-name="Rectangle 747" class="cls-1" width="24.166" height="3.222" transform="translate(36.309 46.397) rotate(180)"/>
      <rect id="Rectangle_748" data-name="Rectangle 748" class="cls-1" width="36.248" height="3.222" transform="translate(36.319 23.301) rotate(180)"/>
      <rect id="Rectangle_749" data-name="Rectangle 749" class="cls-1" width="36.248" height="3.222" transform="translate(36.319 23.301) rotate(180)"/>
      <rect id="Rectangle_750" data-name="Rectangle 750" class="cls-2" width="36.248" height="2.014" transform="translate(36.319 20.026) rotate(180)"/>
      <rect id="Rectangle_751" data-name="Rectangle 751" class="cls-1" width="33.912" height="9.586" transform="translate(34.017 12.723) rotate(180)"/>
      <rect id="Rectangle_752" data-name="Rectangle 752" class="cls-3" width="36.248" height="3.061" transform="translate(36.319 3.061) rotate(180)"/>
      <rect id="Rectangle_753" data-name="Rectangle 753" class="cls-3" width="39.229" height="5.155" transform="translate(39.308 17.932) rotate(180)"/>
      <path id="Path_4165" data-name="Path 4165" class="cls-3" d="M233.788,817.671A12.943,12.943,0,0,0,220.9,804.7v-6.2h33.51v19.977H233.788A2.685,2.685,0,0,1,233.788,817.671Z" transform="translate(-220.819 -775.219)"/>
      <circle id="Ellipse_186" data-name="Ellipse 186" class="cls-3" cx="2.175" cy="2.175" r="2.175" transform="translate(27.871 5.721)"/>
      <rect id="Rectangle_754" data-name="Rectangle 754" class="cls-2" width="9.666" height="1.289" transform="translate(26.475 3.132) rotate(90)"/>
      <circle id="Ellipse_187" data-name="Ellipse 187" class="cls-3" cx="2.175" cy="2.175" r="2.175" transform="translate(19.413 5.721)"/>
      <rect id="Rectangle_755" data-name="Rectangle 755" class="cls-2" width="9.666" height="1.289" transform="translate(17.988 3.081) rotate(90)"/>
      <circle id="Ellipse_188" data-name="Ellipse 188" class="cls-3" cx="2.175" cy="2.175" r="2.175" transform="translate(10.875 5.721)"/>
      <rect id="Rectangle_756" data-name="Rectangle 756" class="cls-2" width="9.666" height="1.289" transform="translate(9.5 3.111) rotate(90)"/>
      <circle id="Ellipse_189" data-name="Ellipse 189" class="cls-3" cx="2.175" cy="2.175" r="2.175" transform="translate(2.417 5.721)"/>
      <rect id="Rectangle_757" data-name="Rectangle 757" class="cls-2" width="9.666" height="0.644" transform="translate(0.691 3.06) rotate(90)"/>
      <path id="Path_4166" data-name="Path 4166" class="cls-1" d="M262.693,791.9a2.166,2.166,0,0,1,2.175,2.175H260.6A2.009,2.009,0,0,1,262.693,791.9Z" transform="translate(-228.539 -773.936)"/>
      <path id="Path_4167" data-name="Path 4167" class="cls-1" d="M257.393,791.9a2.166,2.166,0,0,1,2.175,2.175H255.3A2.009,2.009,0,0,1,257.393,791.9Z" transform="translate(-227.508 -773.936)"/>
      <path id="Path_4168" data-name="Path 4168" class="cls-1" d="M252.093,791.9a2.166,2.166,0,0,1,2.175,2.175H250A2.009,2.009,0,0,1,252.093,791.9Z" transform="translate(-226.478 -773.936)"/>
      <path id="Path_4169" data-name="Path 4169" class="cls-1" d="M246.694,791.9a2.166,2.166,0,0,1,2.175,2.175H244.6A2.1,2.1,0,0,1,246.694,791.9Z" transform="translate(-225.429 -773.936)"/>
      <path id="Path_4170" data-name="Path 4170" class="cls-1" d="M241.394,791.9a2.166,2.166,0,0,1,2.175,2.175H239.3A2.053,2.053,0,0,1,241.394,791.9Z" transform="translate(-224.398 -773.936)"/>
      <path id="Path_4171" data-name="Path 4171" class="cls-1" d="M236.093,791.9a2.166,2.166,0,0,1,2.175,2.175H234A2.009,2.009,0,0,1,236.093,791.9Z" transform="translate(-223.366 -773.936)"/>
      <path id="Path_4172" data-name="Path 4172" class="cls-1" d="M230.793,791.9a2.166,2.166,0,0,1,2.175,2.175H228.7A2.009,2.009,0,0,1,230.793,791.9Z" transform="translate(-222.335 -773.936)"/>
      <path id="Path_4173" data-name="Path 4173" class="cls-1" d="M225.493,791.9a2.166,2.166,0,0,1,2.175,2.175H223.4A2.009,2.009,0,0,1,225.493,791.9Z" transform="translate(-221.305 -773.936)"/>
      <path id="Path_4174" data-name="Path 4174" class="cls-1" d="M220.8,791.9a2.117,2.117,0,0,1,2.014,2.094H220.8Z" transform="translate(-220.8 -773.936)"/>
      <path id="Path_4175" data-name="Path 4175" class="cls-2" d="M253.536,853.48H244.03a2.6,2.6,0,0,1-.644-1.692,3.232,3.232,0,0,1,.242-1.208,2.729,2.729,0,0,1-.967-2.094,2.446,2.446,0,0,1,.644-1.692,2.6,2.6,0,0,1-.644-1.692,1.021,1.021,0,0,1,.081-.483,3.232,3.232,0,0,1-.242-1.208,8.01,8.01,0,0,1,3.061-4.269v-.4a2.739,2.739,0,1,1,5.478,0,2.364,2.364,0,0,1-.322,1.289,2.738,2.738,0,0,1,1.692,2.5,3.426,3.426,0,0,1-.161.886,2.552,2.552,0,0,1,.725,1.853,1.021,1.021,0,0,1-.081.483A2.677,2.677,0,0,1,254.1,848a2.73,2.73,0,0,0,0,3.705A3.094,3.094,0,0,1,253.536,853.48Z" transform="translate(-225.02 -782.512)"/>
      <path id="Path_4176" data-name="Path 4176" class="cls-2" d="M240.4,802v14.58h14.58V802Zm.967.967h12.566v12.566H241.367Z" transform="translate(-224.612 -775.9)"/>
      <path id="Path_4177" data-name="Path 4177" class="cls-2" d="M242.9,804.5v10.552h10.552V804.5Zm.967,1.047h8.538v8.539h-8.538Z" transform="translate(-225.098 -776.386)"/>
      <path id="Path_4178" data-name="Path 4178" class="cls-2" d="M228.006,802.355a1.874,1.874,0,0,0,1.853-1.853v-.4h5.88v10.713h-.161a10.618,10.618,0,0,0-8.377-7.572v-1.047A1.452,1.452,0,0,0,228.006,802.355Z" transform="translate(-222.045 -775.53)"/>
      <path id="Path_4179" data-name="Path 4179" class="cls-2" d="M222.753,800a5.236,5.236,0,0,0,0,4.028H220.9V800Z" transform="translate(-220.819 -775.511)"/>
    </g>
  </g>
</svg>
