<svg xmlns="http://www.w3.org/2000/svg" viewBox="0 0 41.543 100">
  <defs>
    <style>
      .cls-1 {
        fill: #f3c8cf;
      }

      .cls-2 {
        fill: #0b1823;
      }

      .cls-3 {
        fill: #0b1f51;
      }

      .cls-4 {
        fill: #171010;
      }

      .cls-5 {
        fill: #096eb0;
      }

      .cls-6 {
        fill: #686868;
      }

      .cls-7 {
        fill: #a8a8a8;
      }

      .cls-8 {
        fill: #4b2818;
      }

      .cls-9 {
        fill: #caa8b0;
      }

      .cls-10 {
        fill: #0a294b;
      }
    </style>
  </defs>
  <g id="p5" transform="translate(-164.94 -1782)">
    <path id="Path_2667" data-name="Path 2667" class="cls-1" d="M249.425,17.177l-1.125,6,.9,5.327,6.077,1.2s4.351-3.976,4.351-4.426c-.075-.45-.6-4.652-.6-4.652l.3-7.2-3-1.125-6.6,3Z" transform="translate(-65.171 1778.905)"/>
    <path id="Path_2668" data-name="Path 2668" class="cls-2" d="M249.584,12.012a15.774,15.774,0,0,1,.825,4.126c-.075,1.425-2.476,2.551-2.776,3.9-.375,1.425-.9,3.376-.9,3.376l-2.851-4.877s-.3-2.326.525-2.926,3.751-1.425,3.151-4.877.225-2.926.225-2.926-.6-4.8,3.3-6.3c0,0-.075-1.8,2.026-1.425a8.12,8.12,0,0,1,6.452,5.327c1.425,3.751-.6,3.151,2.251,6.3s.525,3.9.525,3.9l-2.7,3.676s0,.975-.675.6-2.176-1.651-2.1-2.851c.075-1.275-1.2-4.5-.9-5.927s-3.6.6-3.6.6Z" transform="translate(-64.054 1781.969)"/>
    <path id="Path_2669" data-name="Path 2669" class="cls-3" d="M251.354,106.65l-3.3,8.028-7.652-.75,1.576-2.4,5.552.075,3.451-5.7Z" transform="translate(-63.198 1755.528)"/>
    <path id="Path_2670" data-name="Path 2670" class="cls-2" d="M244.374,105.878s-.6,4.351-1.951,6a1.487,1.487,0,0,0,1.425,2.551c1.275-.3,3.526.525,3.976-1.876s.975-7.2.075-8.328C247.075,103.252,244.374,105.878,244.374,105.878Z" transform="translate(-63.57 1756)"/>
    <path id="Path_2671" data-name="Path 2671" class="cls-4" d="M248.074,47.6a87.14,87.14,0,0,1-2.776,9.678s-4.126,13.429-3.9,18.081c.3,4.652,1.876,16.805,1.876,16.805l4.577-.975.45-21.157,3.151-6.3,3.526-7.878a44.05,44.05,0,0,0,.975-7.352A28.69,28.69,0,0,1,248.074,47.6Z" transform="translate(-63.445 1770.089)"/>
    <path id="Path_2672" data-name="Path 2672" class="cls-5" d="M238.408,82.9s-3.376,17.031-2.551,17.706c.75.75.3-.225.3-.225s3.451-13.88,3.6-17.481" transform="translate(-62.031 1761.272)"/>
    <path id="Path_2673" data-name="Path 2673" class="cls-2" d="M241,105.125l-4.426-.225c-.375,0-.675.6-.675,1.275s.3,1.275.675,1.275l4.426.225c.375,0,.675-.6.675-1.275S241.377,105.125,241,105.125Z" transform="translate(-62.074 1755.777)"/>
    <path id="Path_2674" data-name="Path 2674" class="cls-2" d="M238.043,80.673s-10.428-5.4-13.429,14.18c-3.076,19.581,7.352,26.334,11.7,24.983,4.276-1.35,9.453-6.9,9.9-19.056C246.6,88.7,241.795,83.223,238.043,80.673Zm6.827,19.881c-.375,10.428-4.351,15.23-7.652,16.43-3.376,1.125-11.479-4.652-9.078-21.532s10.428-12.229,10.428-12.229C241.494,85.474,245.246,90.126,244.871,100.554Z" transform="translate(-59.116 1761.999)"/>
    <path id="Path_2675" data-name="Path 2675" class="cls-2" d="M269.84,78.091s-6.377-4.952-8.253,12.979,4.5,24.158,7.2,22.957,5.777-6.3,6.077-17.481S272.165,80.492,269.84,78.091Zm4.2,18.306c-.225,9.6-2.7,13.955-4.727,15s-7.052-4.276-5.552-19.731c1.425-15.455,6.452-11.179,6.452-11.179C272.015,82.518,274.266,86.794,274.041,96.4Z" transform="translate(-68.405 1762.63)"/>
    <path id="Path_2676" data-name="Path 2676" class="cls-2" d="M271.651,100.525l-2.7-.225c-.225,0-.45.525-.45,1.2s.225,1.2.45,1.2l2.7.225c.225,0,.45-.525.45-1.2S271.876,100.525,271.651,100.525Z" transform="translate(-70.216 1756.926)"/>
    <path id="Path_2677" data-name="Path 2677" class="cls-6" d="M233.627,76.432h-.075a9.323,9.323,0,0,1-3-.375c-.975-.375-2.176-.15-2.251-2.176S243.9,75.157,243.9,75.157s1.5,1.2.75,1.726" transform="translate(-60.176 1763.689)"/>
    <path id="Path_2678" data-name="Path 2678" class="cls-7" d="M227.4,54.7l.675,14.4s-.15,1.275.675,1.425,10.954.15,12.979.825,2.551.9,3.076.375c.45-.525,2.176-11.179,2.851-12.379.6-1.125,1.125-2.026.75-2.476C248.032,56.5,244.055,54.624,227.4,54.7Z" transform="translate(-59.951 1768.316)"/>
    <path id="Path_2679" data-name="Path 2679" class="cls-8" d="M273.426,43.9l-1.35.15c-.15.3.15.675-.375,1.726a6.1,6.1,0,0,1,1.576-.075c.3,0,.6-.3.675-1.05C274.026,43.747,273.426,43.9,273.426,43.9Z" transform="translate(-71.015 1771.016)"/>
    <path id="Path_2680" data-name="Path 2680" class="cls-3" d="M260,103.928l3.9-7.5,5.927.9,1.651-2.251-6.527-.675H263.6l-4.2,9.528Z" transform="translate(-67.943 1758.4)"/>
    <path id="Path_2681" data-name="Path 2681" class="cls-2" d="M268.246,86.576A1.021,1.021,0,0,1,268.771,88c-.375,1.2-2.1,5.552-.825,6.152s3.751-.075,4.8-2.626c1.125-2.551,1.726-4.8,1.125-6.152A6.45,6.45,0,0,0,272,83.2Z" transform="translate(-69.962 1761.197)"/>
    <path id="Path_2682" data-name="Path 2682" class="cls-5" d="M254.855,93.736l2.551-13.579,2.551-5.777-.975-1.275,3.751-12.3h-6.827V78.806c-1.35,3.376-4.652-2.326-4.652-2.326-1.275-2.7-2.7-5.777-2.776-6.077-.15-.6-.675,3.076-.975,3.3l2.626,5.7a13.4,13.4,0,0,0,2.4,3.826c1.35,1.275,1.425,1.651,1.425,1.651l-1.125,6.752a28.918,28.918,0,0,1-1.8-4.426c-2.176-6.452-2.7-11.779-4.126-13.654-.975-1.275-1.8-.525-2.176.15a3.086,3.086,0,0,0-1.951-.45A3.257,3.257,0,0,0,239.7,75.13l1.35.3s3-1.951,3.376,1.726-3.151,18.156-3.151,18.156l.9.525s3.6-13.88,3.826-18.531a43.146,43.146,0,0,1,2.551,5.7c.45,1.8,1.8,9.3,2.4,10.5,0,0-.45.675-.225,3l3.826.375a1.612,1.612,0,0,0,1.2-1.576l8.628-3.226V91.41Z" transform="translate(-63.023 1766.792)"/>
    <path id="Path_2683" data-name="Path 2683" class="cls-4" d="M268.129,68.681c-.525-4.877-3.376-4.877-.375-6.827s2.476-4.5,2.251-9.528c-.225-4.952-1.576-4.727-1.576-4.727a56.4,56.4,0,0,1-8.478.9,46.316,46.316,0,0,1-.6,5.327L257.1,54.2a10.862,10.862,0,0,1,.9,4.652,18.679,18.679,0,0,0,0,3.976h0a3.352,3.352,0,0,0,.45,2.326s3.9,6.977,5.4,9.6c1.425,2.626,1.275,3.151,2.851,2.851s3.376-2.851,3.376-2.851S268.654,73.558,268.129,68.681Z" transform="translate(-67.369 1770.089)"/>
    <path id="Path_2684" data-name="Path 2684" class="cls-9" d="M253.548,3s-3.076,2.926-1.876,10.728c0,0-1.651.375-1.576-2.626C250.1,8.177,249.722,3.45,253.548,3Z" transform="translate(-65.617 1781.228)"/>
    <path id="Path_2685" data-name="Path 2685" class="cls-1" d="M256.759,5.409c-.675-2.926-2.776-2.326-2.776-2.326s-3.076,2.926-1.876,10.728a6.441,6.441,0,0,0,5.777-1.951l.525-2.776C258.334,9.085,257.434,8.335,256.759,5.409Z" transform="translate(-66.052 1781.219)"/>
    <path id="Path_2686" data-name="Path 2686" class="cls-10" d="M266.978,42.681A39.483,39.483,0,0,0,264.8,38.1s.3-4.952-.9-5.627a4.992,4.992,0,0,1-1.2-1.275l.525-1.2-1.275-4.351-2.926-1.35a19.646,19.646,0,0,0-1.35,4.5c-.6,3-7.427,3.6-8.178,1.5s.075-5.7.075-5.7-1.125-.375-1.2.3a40,40,0,0,1-.6,3.976c-.225,1.275.075,2.7,0,4.576s1.726,4.276,1.726,4.276a4.922,4.922,0,0,1,.45,1.951c.075.6-.525,1.425-.15,2.1C250.7,43.731,267.353,43.956,266.978,42.681Z" transform="translate(-65.018 1775.908)"/>
    <path id="Path_2687" data-name="Path 2687" class="cls-8" d="M230.7,46.926s.825-.075,1.05.225c.3.3,1.275,3.451,3,4.051a15.97,15.97,0,0,0,5.027.3l1.05,1.125,2.776.3-.975-1.425s2.1,0,2.851-.075a6.1,6.1,0,0,0,4.727-1.8c2.476-2.1,2.551-3,5.777-3.3s1.8-.15,1.8-.15l-.45-1.576s-3.751.075-4.8.975-3.151,3.3-4.276,3.751-6,.525-6,.525-6.677.675-7.427-.3a10.919,10.919,0,0,1-1.425-2.4s-.825-1.35-1.125-1.425C231.9,45.575,230.85,45.275,230.7,46.926Z" transform="translate(-60.775 1770.838)"/>
    <path id="Path_2688" data-name="Path 2688" class="cls-1" d="M232.312,39.2s-3.076-.45-3.451,0-1.05,2.1-.525,2.7c.525.525,2.176,1.651,2.626.975s-1.125-.45-.9-.975c.225-.45,1.05-1.651,1.726-.975s.675,1.35.975,1.35.9-.15.975-.675a3.651,3.651,0,0,0,1.951-.15,6.534,6.534,0,0,0,3-2.851c.3-.825,3.751-6.227,3.751-6.227l.6-1.05s-.15-4.126-.675-4.877-2.176-.15-2.4-1.651a46.572,46.572,0,0,0-2.176,4.952C237.114,31.777,233.438,39.055,232.312,39.2Z" transform="translate(-60.137 1775.783)"/>
    <path id="Path_2689" data-name="Path 2689" class="cls-1" d="M267.6,36.976a2.525,2.525,0,0,0-.9.225,1.79,1.79,0,0,0-.825,1.35c.075.3-.225,2.026.825,1.425,0,0-.15.525.525.675s2.326.45,2.851-.75.15-1.5.375-1.8c.225-.375,1.2-.45,1.726-3.076s-.225-1.651-.525-4.426c-.375-2.776-.675-3.9-1.05-4.576s-.9-3.526-1.35-3.9c-.45-.45-1.05-1.576-1.576-1.425-.525.225-3.3.825-2.7,3.676s.75.9,1.2,1.951.15,2.326.525,3.3,1.8,3.6,1.876,4.877A4.928,4.928,0,0,1,267.6,36.976Z" transform="translate(-69.314 1776.811)"/>
  </g>
</svg>
