<svg xmlns="http://www.w3.org/2000/svg" viewBox="0 0 76.173 90">
  <defs>
    <style>
      .cls-1 {
        fill: #f3c8cf;
      }

      .cls-2 {
        fill: #0b1823;
      }

      .cls-3 {
        fill: #0a294b;
      }

      .cls-4 {
        fill: #171010;
      }

      .cls-5 {
        fill: #4b2818;
      }
    </style>
  </defs>
  <g id="p6" transform="translate(-253.827 -1792.001)">
    <path id="Path_2783" data-name="Path 2783" class="cls-1" d="M142.954,493.74a1.237,1.237,0,0,1,.689-1.809c1.464-.775,2.153-.517,1.981-2.24s-.689-2.929-.6-3.273.6-.861.345-1.378.258-1.292-.517-2.067-1.637-2.067-2.067-2.5a8.291,8.291,0,0,0-1.723-.775l-3.359,7.666,1.809,6.8Z" transform="translate(131.46 1314.354)"/>
    <path id="Path_2784" data-name="Path 2784" class="cls-2" d="M177.516,566.8a6.116,6.116,0,1,0,6.116,6.116A6.139,6.139,0,0,0,177.516,566.8Zm0,10.337a3.79,3.79,0,1,1,3.79-3.79A3.824,3.824,0,0,1,177.516,577.136Z" transform="translate(126.788 1302.28)"/>
    <path id="Path_2785" data-name="Path 2785" class="cls-2" d="M171.616,565.4a6.116,6.116,0,1,0,6.116,6.116A6.139,6.139,0,0,0,171.616,565.4Zm0,10.25a3.79,3.79,0,1,1,3.79-3.79A3.715,3.715,0,0,1,171.616,575.65Z" transform="translate(127.606 1302.474)"/>
    <path id="Path_2786" data-name="Path 2786" class="cls-3" d="M128.149,494.775V497.1s-1.378-.086-1.55,4.221c-.258,4.307-2.929,7.063.431,7.839l1.12,5.685,15.5,12.835,18.864-.6-.861-6.46a9.393,9.393,0,0,0-2.756-3.79c-1.809-1.292-2.412-3.962-3.015-4.565-.689-.6-.517-1.464-2.67-4.393s-3.273-3.79-4.824-4.307c-1.464-.517-1.723,0-3.1-2.5s-2.929-2.24-2.929-2.24l-.517-2.756s-5.254-2.153-6.546-2.067C134.093,494,128.149,494.775,128.149,494.775Z" transform="translate(133.172 1312.372)"/>
    <path id="Path_2787" data-name="Path 2787" class="cls-4" d="M140.7,531.576l1.378,10.853,33.077-1.723s1.12,11.542,6.977,18.692l1.292,1.034s2.756-5.341,5.685-5.082c0,0-2.153-3.1-3.876-11.284s-2.584-9.906-2.843-10.595,0-3.962-5.341-4.565c-5.254-.517-14.988-1.206-14.988-1.206a4.09,4.09,0,0,1-3.532,2.412C156.033,530.456,140.7,531.576,140.7,531.576Z" transform="translate(131.044 1307.7)"/>
    <path id="Path_2788" data-name="Path 2788" class="cls-2" d="M189.222,562.647s-2.756,4.479.431,4.737,13.351-.431,15.246-2.067-.775-3.618-4.135-3.7a11.043,11.043,0,0,1-6.719-3.015C194.046,558.34,189.222,562.647,189.222,562.647Z" transform="translate(124.471 1303.418)"/>
    <path id="Path_2789" data-name="Path 2789" class="cls-2" d="M146.807,574.813a21.707,21.707,0,1,1,21.707-21.707A21.726,21.726,0,0,1,146.807,574.813Zm0-40.485A18.692,18.692,0,1,0,165.5,553.021,18.675,18.675,0,0,0,146.807,534.329Z" transform="translate(133.206 1307.187)"/>
    <path id="Path_2790" data-name="Path 2790" class="cls-2" d="M141.607,574.713a21.707,21.707,0,1,1,21.707-21.707A21.726,21.726,0,0,1,141.607,574.713Zm0-40.485A18.692,18.692,0,1,0,160.3,552.921,18.675,18.675,0,0,0,141.607,534.229Z" transform="translate(133.927 1307.201)"/>
    <path id="Path_2791" data-name="Path 2791" d="M122.774,514.17s5-2.756,7.494-2.67,4.135.258,4.479.948c.345.775,1.034,3.7,1.034,3.7l-1.292.431A9.469,9.469,0,0,0,133.11,514c-.775-.861-2.5-.517-5.341.431-2.929.948-4.307,1.9-4.565,1.378C122.86,515.376,122.343,514.945,122.774,514.17Z" transform="translate(133.551 1309.946)"/>
    <path id="Path_2792" data-name="Path 2792" d="M121.356,510.761l3.618-.861s-.258.775,1.464,1.378c1.723.517-4.479,1.034-4.479,1.034S120.495,512.312,121.356,510.761Z" transform="translate(133.763 1310.168)"/>
    <path id="Path_2793" data-name="Path 2793" class="cls-5" d="M190.246,560.981a24.079,24.079,0,0,1-2.929-1.723s-3.445-10.853-5.168-15.849c-1.723-4.91-4.824-4.221-4.824-4.221l-36.264,1.981s.258-5.943.431-9.131,1.723-3.015,1.723-3.015l23.688-2.24V524.2s-18.433,1.809-22.913,2.153c-4.565.345-4.651,3.532-4.651,3.532l1.378,28.253H131.5l3.015,2.67,39.623-2.326-3.446,9.82h1.981l3.359-9.045-.258-3.531h0l-.861-12.4c3.876,0,4.824,1.981,4.824,1.981l5.771,15.677-3.359,1.034.086,1.723,10.337-1.12v-.948C192.485,561.842,190.849,561.153,190.246,560.981Zm-41.6-4.048-.948-11.543s17.744-.947,24.291-1.723l.861,12.232Z" transform="translate(132.319 1308.185)"/>
    <path id="Path_2794" data-name="Path 2794" d="M136.166,515s1.9,8.441,3.618,8.872c1.637.344,3.187.344,3.445,1.723A37.352,37.352,0,0,1,144,530.5c-.172,0-10.595,1.206-10.595,1.206l-4.91-14.04Z" transform="translate(132.735 1309.461)"/>
    <path id="Path_2795" data-name="Path 2795" class="cls-2" d="M140.167,479.628s1.292-1.809-2.067-2.24a9.45,9.45,0,0,0-9.647,5.168c-2.067,4.048,0,10.595,0,10.595l8.011-1.034s3.618,1.378,3.618.086a15.758,15.758,0,0,0-.172-2.326s-2.929-4.479.775-3.876C144.474,486.519,140.167,479.628,140.167,479.628Z" transform="translate(132.869 1314.685)"/>
    <circle id="Ellipse_153" data-name="Ellipse 153" class="cls-2" cx="1.637" cy="1.637" r="1.637" transform="translate(276.654 1858.657)"/>
    <circle id="Ellipse_154" data-name="Ellipse 154" class="cls-2" cx="1.637" cy="1.637" r="1.637" transform="translate(275.189 1858.313)"/>
  </g>
</svg>
