<svg xmlns="http://www.w3.org/2000/svg" viewBox="0 0 79.356 120">
  <defs>
    <style>
      .cls-1 {
        fill: #049904;
      }

      .cls-2 {
        fill: #3f2302;
      }

      .cls-3 {
        fill: #17c417;
      }
    </style>
  </defs>
  <g id="v1" transform="translate(-27 -366)">
    <path id="Path_2868" data-name="Path 2868" class="cls-1" d="M78.594,408.409c-1.1-.367-1.909.367-2.644,1.028a2.721,2.721,0,0,1-3.525.441c-.073-.073-.294,0-.367,0,.147.588.294,1.1.441,1.616.294-.073.588-.073,1.175-.22a7.926,7.926,0,0,0,.22,1.4c-.147.147-.367.22-.514.367a6.7,6.7,0,0,0-1.248-1.689,11.47,11.47,0,0,0-1.4-.955c.367-.147.588-.661.808-1.028a5.12,5.12,0,0,0-1.248-.441c-.367,0-.661.441-1.028.661-.294.147-.661.294-.881.147a12.643,12.643,0,0,1-1.542-1.1h.073c1.175-.22,2.35-.367,3.525-.661a1.372,1.372,0,0,0,.881-.808c.441-.881.514-2.13,1.175-2.717,1.1-.955,1.248-2.13,1.689-3.3a1.639,1.639,0,0,0-.22-.955c-.294-.441-.661-.881-1.028-1.4a5.992,5.992,0,0,1-1.248.808c-.514.147-1.1,0-1.616.147a1.93,1.93,0,0,0-1.028.661c-.588,1.1-1.175,1.469-1.836,1.248-.073-.22-.073-.441-.147-.734-.22-.073-.588-.147-.881-.22,0-.073-.073-.073-.073-.147l-.073.073c-.367-.073-.808-.22-1.248-.294a7.359,7.359,0,0,0-.881.808c-.22.22-.441.587-.367.808,0,.073.073.147.073.22-.22.147-.367.22-.588.367-.22-.294-.367-.661-.661-.808-.073,0-.073-.073-.147-.073-.441-.441-.881-.881-1.248-1.322.661-.661,1.248-.588,2.5.881.441-1.469,2.277-1.983,1.909-3.819a1.142,1.142,0,0,1,.441-.588,16.657,16.657,0,0,1,1.836-.441c.734-.147,1.4-.367,2.13-.514,0-.147-.073-.294-.073-.441a3.325,3.325,0,0,0-1.175-.22c-1.028.294-1.248-.588-1.322-1.175-.073-.294.588-.734.955-1.028.294-.22.661-.367,1.028-.588a1.618,1.618,0,0,0-1.175,0,11.379,11.379,0,0,0-3.231,1.248c-.881.661-1.4,1.836-2.864,1.322-.22-.073-.514.22-.441.22-.294-.734-.661-1.4-.881-2.056a1.79,1.79,0,0,1,0-.881c.147-.441.367-.808.514-1.248.367-.808-.588-1.836.367-2.57a3.584,3.584,0,0,1,.808-.294,3.124,3.124,0,0,0-.147.808l-.22.881c.367,0,.808.22,1.028.073.661-.294,1.248-.734,1.909-1.1-.661-.147-1.616.147-1.689-.881.588-.073,1.175,0,1.542-.294.294-.22.441-.808.588-1.175a4.293,4.293,0,0,0-1.322-.147c-.367.073-.588.587-.881.881a1.885,1.885,0,0,1-.881.367,14.781,14.781,0,0,1-1.689-.734,14.121,14.121,0,0,1,1.248-.955c-.808-1.1-.881-2.2.367-3.084-1.322-.808-2.056.367-2.938.661-.955.294-1.836.661-2.791.955-.514,1.836-1.763,2.277-3.158,1.1-.808.147-1.616.514-2.2.294a.442.442,0,0,0-.294-.073c-.22-.147-.441-.367-.661-.514-.367-.294-1.1-.147-1.836-.22,0,.073-.073-.441,0-.441.514-.22,1.1-.367,1.763-.588-.073-.955-.881-1.248-1.616-1.616-.808-.441-1.542-.881-2.277-1.248-1.4-.661-2.717-1.469-4.406-1.028-.441.147-1.1-.147-1.616-.22-.661-.147-1.248-.294-2.13-.441.22.661.294.955.441,1.542a11.5,11.5,0,0,0-2.791.073,2.25,2.25,0,0,1-2.424-.441.6.6,0,0,0-.514,0c0-.073,0-.147-.073-.147-.073.073-.147.147-.147.22-.22.073-.441.22-.661.294a.876.876,0,0,0-.147.955c.294,1.028.661,2.056.881,2.717-.955.22-1.983.367-3.011.587v.588c.661.073,1.322.147,2.13.294a5,5,0,0,0-.294,2.056c.147.955.294,2.5.955,2.791a2.652,2.652,0,0,1,.955.808,8.373,8.373,0,0,0-1.4-.734c-1.4-.661-2.717-1.469-4.406-1.028-.441.147-1.1-.147-1.616-.22-.661-.147-1.248-.294-2.13-.441.22.661.294.955.441,1.542a11.5,11.5,0,0,0-2.791.073,2.25,2.25,0,0,1-2.424-.441c-.22-.22-.955.073-1.4.367a.876.876,0,0,0-.147.955c.294,1.028.661,2.056.881,2.717-.955.22-1.983.367-3.011.587v.588c.661.073,1.322.147,2.13.294a5,5,0,0,0-.294,2.056c.147.955.294,2.5.955,2.791,1.542.661,1.175,2.35,2.35,3.158a1.575,1.575,0,0,1-1.175-.073c-1.1-.734-2.13-1.542-3.231-2.2a1.314,1.314,0,0,0-1.175-.073c-.955.294-1.836,1.175-2.717,1.1-1.4-.147-2.424.587-3.525,1.175a1.544,1.544,0,0,0-.514.808,11.756,11.756,0,0,0-.22,1.689,3.614,3.614,0,0,1,1.469.367,15.387,15.387,0,0,1,1.248,1.028,1.7,1.7,0,0,0,1.175.22c1.836-.514,2.5,0,2.2,1.909,1.028.22,2.056.367,3.084.588a1.362,1.362,0,0,0,.514.147c0,.955,0,1.983-.073,2.938-.955,0-1.248-.514-1.175-2.424-.955.514-2.056.22-3.011.514l-.147-.147c-.073.073-.073.147-.147.294a1.761,1.761,0,0,0-.734.734c-.073.147-.514.147-.734.073a12.077,12.077,0,0,1-1.616-1.028c-.661-.367-1.248-.734-1.909-1.175-.073.147-.22.22-.294.367a3.544,3.544,0,0,0,.661,1.028c.955.588.441,1.248.073,1.763-.22.22-.955.147-1.4.073a6.114,6.114,0,0,1-1.1-.294,1.708,1.708,0,0,0,.808.808c.514.294,1.1.588,1.616.881h-.22c-.955.073-1.028.808-.367,1.469.955.955,1.836,1.909,2.864,2.791a2.064,2.064,0,0,0,.808.367,4.138,4.138,0,0,1-.881.294c-.808.294-.881,1.763-2.056,1.542a3.937,3.937,0,0,1-.808-.367l.661-.441c.294-.147.514-.367.808-.514a3.9,3.9,0,0,0-.661-.808,15.925,15.925,0,0,0-2.2-.588c.367.588,1.248,1.028.588,1.836-.441-.367-.808-.808-1.322-.881-.367-.073-.881.294-1.248.441a6.271,6.271,0,0,0,.808,1.028c.294.147.808,0,1.248.073.294.073.734.147.808.367a6.836,6.836,0,0,1,.661,1.763c-.588-.073-1.028-.147-1.542-.22a2.144,2.144,0,0,1-.367,1.028c-.073-.294-.147-.661-.294-.734a4.275,4.275,0,0,0-1.4-.22,17.153,17.153,0,0,1-.294,1.909H3.833c0,.147.073.22.147.367a2.014,2.014,0,0,0,.514,1.322c.22-.147.514-.22.734-.367a4.21,4.21,0,0,1,1.028.294c.073.588-.441.955-.955,1.322a2.1,2.1,0,0,1-2.57-.147c-.588-.367-1.175-1.028-2.056-.294a1.992,1.992,0,0,0,.367,3.525,12.658,12.658,0,0,0,1.542.514c.588.22.881.514.514,1.175a1.329,1.329,0,0,0,.073,1.175,21.969,21.969,0,0,0,1.616,1.909c-.294.441-.588.808-.808,1.175a9.8,9.8,0,0,0,1.322.514c1.689.22,3.378.367,5.067.514.808.073,1.4.367,1.469,1.322,0,.22.441.514.661.661.294.147.588.147,1.175.367-1.322.808-2.424,1.4-3.452,2.056a.932.932,0,0,0,.073.441c1.836.147,3.6.294,5.435.367a5.523,5.523,0,0,1,1.1,0c.588.073,1.175,0,1.4.881.22.808-.22,1.1-.734,1.469-1.028.808-1.175,2.13-.22,2.423a9.338,9.338,0,0,0,2.5.147c.514,0,1.175-.22,1.542,0a2.436,2.436,0,0,0,2.791-.367c.588-.441.955-.514,1.4.147a1.239,1.239,0,0,0,1.028.294c.734-.294,1.469-.734,2.2-1.1-.073-.294-.147-.661-.22-.955,2.5,0,2.938-.22,3.892-1.763-.588-.147-1.1-.367-1.763-.514a5.51,5.51,0,0,1,.514-.587,14.128,14.128,0,0,1-.955-1.248c.073-.147.073-.22.147-.367h1.248c1.689.147,2.13,1.616,2.864,2.644.734,1.175,2.35,1.836,3.378,1.248a3.892,3.892,0,0,1-.441-.734,1.432,1.432,0,0,1,.073-.955c.147-.22.588-.441.734-.367a.776.776,0,0,1,.441.514l.367-.514a2.25,2.25,0,0,1,.073-1.249h.22l-.147-1.175h-.22a3.5,3.5,0,0,1-1.322-.588c.294-.22.588-.661.808-.661a4.517,4.517,0,0,0,1.028-.073l2.717-2.2c-.073-.147-.147-.367-.22-.514a4.215,4.215,0,0,1,.881-.073h0c.734.073,1.1.514,1.542,1.616l1.469,1.763a3.581,3.581,0,0,1,.514-.22c.147,1.322,1.028,1.469,2.056,1.322a22.49,22.49,0,0,0,2.35-.367,1.019,1.019,0,0,0,.514-.588,2.479,2.479,0,0,1,2.13-1.616,9.557,9.557,0,0,1,.588,1.248c-1.469.881-2.864,1.763-4.333,2.57a2.754,2.754,0,0,0-3.378,0,1.4,1.4,0,0,0,2.056.881,2.984,2.984,0,0,1,3.231.367c.734.734,2.35.955,2.13,2.57,0,.22.367.588.588.661a40.689,40.689,0,0,0,4.186.514c.514,0,.955-.441,1.689-.808,0,0,.294.294.294.367a10.291,10.291,0,0,1-1.175,1.469c.514.734,1.4.588,2.2.514.881-.073,1.763-.073,2.644-.22,1.542-.22,3.084-.22,4.186-1.542.294-.367.955-.441,1.542-.661s1.248-.441,2.056-.734a15.388,15.388,0,0,0-1.248-1.028,16.3,16.3,0,0,0,2.35-1.542,2.307,2.307,0,0,1,2.277-.955c.294.073.734-.661.955-1.1a1.07,1.07,0,0,0-.367-.881c-.808-.734-1.616-1.322-2.2-1.836.734-.661,1.469-1.4,2.2-2.13-.073-.147-.22-.367-.294-.514-.588.294-1.248.588-1.909.881a7.087,7.087,0,0,0-.881-1.836c-.661-.734-1.616-1.909-2.277-1.836-1.616.294-2.277-1.322-3.672-1.322a1.508,1.508,0,0,1,1.028-.588c1.322,0,2.644.147,3.892.147a1.487,1.487,0,0,0,1.028-.588c.588-.808.881-1.983,1.689-2.424,1.248-.661,1.689-1.836,2.35-2.864a1.112,1.112,0,0,0-.073-.955,14.672,14.672,0,0,0-.734-1.542,10.709,10.709,0,0,1-1.4.514c-.514.073-1.1-.22-1.616-.147a1.857,1.857,0,0,0-1.1.441c-.734.881-1.322,1.175-1.836.955,0-.073.073-.073.073-.147.22-.441.881-.661,1.322-.955.514-.367,1.1-.661,1.836-1.175-.588-.294-.881-.514-1.4-.734a9.933,9.933,0,0,0,1.909-2.056,2.212,2.212,0,0,1,2.056-1.4c.294,0,.588-.808.734-1.248.073-.22-.294-.661-.588-.808-.955-.514-1.909-.955-2.57-1.322.367-.514.661-1.028,1.028-1.542a4.788,4.788,0,0,0,1.836-1.248,4.3,4.3,0,0,1,2.277-2.13,1,1,0,0,0,.441-.808C79.328,408.776,78.888,408.555,78.594,408.409ZM8.386,427.943c0-.073.073-.073.073-.147.22.073.441.22.661.294,1.028-.587,1.909-.587,2.424-.073-.441.294-.808.588-1.322.881a2.092,2.092,0,0,1-1.469.22A2.032,2.032,0,0,1,8.386,427.943Zm-.367.881c-1.322.881-1.322.881-1.4-1.028C7.064,428.164,7.5,428.458,8.019,428.825ZM7.872,433.6c-.441-.147-.734-1.028-1.1-1.616.881-.588,1.469-1.248,2.13-1.248.514,0,1.028.734,1.616,1.175C10.075,433.158,9.267,433.966,7.872,433.6Zm3.3-2.35c-.294-.367-.955-.881-.881-1.028a5.174,5.174,0,0,1,1.175-1.4L12.352,430C11.911,430.44,11.544,430.808,11.177,431.248Zm1.4-12.338a.574.574,0,0,1-.294.294c0-.073-.073-.147-.073-.294.073-.073.147-.22.22-.294.073,0,.073.073.147.073Zm21.591-8.225a1.63,1.63,0,0,1,.073.661v.661c-.22-.294-.441-.661-.661-.955A4.094,4.094,0,0,1,34.163,410.685Zm-10.722,9.106a1.812,1.812,0,0,1,1.4-1.028c.588,0,.734.367.734.808l.661-1.028a2.433,2.433,0,0,1,.294,1.1,6.761,6.761,0,0,0,.588.367c.22.661.514,1.248.734,1.836-.073.073-.147.22-.294.294-.734-.441-1.469-.808-2.2-1.248-.294.881-1.542,1.689-2.277,1.248a.158.158,0,0,1-.147-.147A8.646,8.646,0,0,1,23.441,419.792Zm-1.4-16.891v.22c-.073-.073-.073-.147-.147-.147C21.972,402.9,21.972,402.9,22.046,402.9Zm-1.763,17.552c.147.147.22.294.367.441-.073,0-.22.073-.294.073l-.073-.073c-.147-.073-.22-.22-.367-.367C20.063,420.453,20.21,420.379,20.283,420.453Zm-3.745-4.92a2.755,2.755,0,0,1,.073-.734c.808.22,1.175.808,1.175,1.983l-.441-.22A8.085,8.085,0,0,1,16.538,415.532Zm1.469,8.886c-.294,0-.514-.661-.588-1.322l3.084.661c.073-.147.22-.22.294-.367-.073-.073-.147-.22-.22-.294.881.294,1.763.588,2.57.881a9.3,9.3,0,0,0,1.322.441,4.419,4.419,0,0,1,.955.661c-.073.147-.147.22-.22.367-1.1-.22-2.424.881-3.3-.367l.073-.073-.22-.22a.072.072,0,0,0-.073-.073h-.073a1.014,1.014,0,0,0-.294-.22C20.43,424.418,19.182,424.492,18.007,424.418Zm1.028,5.067,2.13-3.3c.808-.367,1.1.147,1.689.808a11.209,11.209,0,0,0-1.322-.073c.073.514.367,1.175.22,1.322A5.436,5.436,0,0,1,19.035,429.486Zm4.553,11.824c-.294-.22-.808-.147-1.175-.294a8.5,8.5,0,0,1-1.763-1.028c-.147-.147.441-.881.661-1.4.22,1.836.734,2.35,2.2,1.836v-1.322H22.339c.147-.514.22-.955.441-1.616.588.514,1.028.734,1.248,1.1.514.734.955,1.322,1.983,1.322.294,0,.588.661,1.1,1.248C25.791,441.236,24.836,442.117,23.588,441.309Zm3.3,1.1c1.469-.808,2.644-.367,3.378,1.248A3.8,3.8,0,0,1,26.893,442.411Zm5.875-2.056-.22-.441a9.725,9.725,0,0,1-1.469-.881A5.213,5.213,0,0,1,30.344,438a4.956,4.956,0,0,1,1.028-.147,2.676,2.676,0,0,1,1.1.147c.441.22,1.028.587,1.028.955C33.5,439.474,32.988,439.914,32.768,440.355Zm.367-8.225c-.147-.073-.294-.22-.441-.294.147-.294.367-.514.514-.808a.072.072,0,0,1,.073.073,4.105,4.105,0,0,1,.588.367A2.083,2.083,0,0,0,33.135,432.13ZM32.4,414.578q-.11,0-.22-.22c.734-.073,1.1-.367,1.248-.808.294.073.661.147.955.22a2.482,2.482,0,0,0,.441.881C33.943,414.651,33.135,414.651,32.4,414.578Zm22.032-8.739a2.212,2.212,0,0,1,1.836-.514,1.73,1.73,0,0,0-.734.367c-.441.294-.808.587-1.175.881h-.147A1.417,1.417,0,0,1,54.432,405.838Zm.441,14.982.22,1.175c-.514.22-.881-.22-1.1-.808A4.493,4.493,0,0,1,54.873,420.82Zm-3.819-12.852a3.428,3.428,0,0,0-.734.367,2.047,2.047,0,0,1-.441-1.983C50.32,406.94,50.687,407.454,51.054,407.968ZM44.665,399.6c0-.073.588,0,.881,0a.87.87,0,0,0-.073.587h-.734c-.073.294-.073.588-.147.881A5.058,5.058,0,0,1,44.665,399.6Zm-3.378,2.864a19.4,19.4,0,0,0,2.13-.147c-.661,1.028-1.175.955-2.277.147C41.213,402.533,41.213,402.46,41.287,402.46Zm1.983,2.056c-.073,0-.073.073-.147.073s-.22.073-.294.073l.073-.073A.55.55,0,0,1,43.27,404.516Zm-7.417,8.739v-.22a.072.072,0,0,0,.073.073ZM40.92,395.7c-.367-.073-.808-.073-.881-.22-.514-1.4-1.909-.881-2.864-1.4a3.431,3.431,0,0,1-1.028-1.028C38.276,392.913,40.7,394.308,40.92,395.7ZM37.174,413.99c0,.073-.588,0-.881,0a.87.87,0,0,0,.073-.588H37.1a.27.27,0,0,1,.073-.22c.073,0,.073,0,.147.073C37.248,413.476,37.248,413.77,37.174,413.99Zm0-.955c0-.22.073-.367.073-.588,0,.147.073.294.073.514A.227.227,0,0,1,37.174,413.035Zm4.92-2.056a2.714,2.714,0,0,0,.367-.808c-.588.294-1.175.588-1.689.881-.881,0-1.763.073-2.644.147a1.54,1.54,0,0,0-.808.294.27.27,0,0,1,.073-.22,1.234,1.234,0,0,0,.514-.588,2.013,2.013,0,0,0-.294-.514c0-.073.073-.147.073-.294a1.624,1.624,0,0,1,.955-.881,3.576,3.576,0,0,1,.881-.073.852.852,0,0,1,.294.734l.294-.441c.808.514,1.175.367,2.277-.294a1.818,1.818,0,0,1,1.1.881A3.094,3.094,0,0,1,42.095,410.979Zm3.158,22.987c-.367-.294-.808-.587-1.469-1.028a1.946,1.946,0,0,1,.367-.441,12.952,12.952,0,0,0,1.689,0c0,.073,0,.073-.073.147a7.633,7.633,0,0,1,.955.294C46.207,433.3,45.693,433.672,45.253,433.966Zm1.028-32.46a3.062,3.062,0,0,0-.367-1.028l.955-1.469c.808,0,1.763,0,2.644.073.294,0,.514.661.588,1.322l-3.084-.661c-.073.147-.22.22-.294.367.514.808,1.028,1.542,1.616,2.5-.367.147-1.028.514-1.1.441A4.894,4.894,0,0,1,46.281,401.505ZM48.19,420.82a2.666,2.666,0,0,0-.955-1.4,1.576,1.576,0,0,1,1.175.073c1.1.734,2.13,1.542,3.231,2.2a1.314,1.314,0,0,0,1.175.073c.147-.073.294-.073.441-.147a4.492,4.492,0,0,1-.367.881c-.073.147-.441.441-.514.367-1.028-.588-2.5-.073-3.3-1.175A3.351,3.351,0,0,0,48.19,420.82Zm.734,13.733c1.175-1.689,1.322-1.689,2.424-.441C50.687,434.7,50.1,435.581,48.925,434.553Zm2.13-3.745c-.073.073-.22.073-.514.22-.073-.514-.147-.881-.22-1.322h-.734a6.823,6.823,0,0,1-.294-.955c.955-.22,1.983-.367,3.011-.588v-.588a.662.662,0,0,1-.367-.073c0-.073,0-.22-.073-.22a11.471,11.471,0,0,0-1.175-.367v-.734a6.45,6.45,0,0,1,2.056-.073c.661.147.808,0,.881-.661,0-.514.22-1.322.441-1.4a6.1,6.1,0,0,1,1.616.073l.22,1.028A19.68,19.68,0,0,0,51.054,430.808Zm6.389-2.717a14.625,14.625,0,0,0-2.424,1.763c-.514.441-.734.955-.073,1.542a4,4,0,0,1,.808,1.322c0,.073-.441.294-.734.514a.855.855,0,0,0-.955-.808c0-1.175-1.1-1.1-1.616-1.4.588-1.175,1.1-2.2,1.689-3.231.22-.367.734-.588,1.175-.955.22-.147.514-.367.734-.514l.147.514a1.044,1.044,0,0,0,.441.147c.661,0,1.248-.073,1.909-.073A2.836,2.836,0,0,1,57.444,428.09Zm3.525,5.8c.367-.147.734-.367.808-.294,1.175.881,2.056-.294,3.158-.367a3.3,3.3,0,0,1,1.4.367C64.714,434.773,61.923,434.92,60.969,433.892Z" transform="translate(27.224 -13.4)"/>
    <g id="Group_1535" data-name="Group 1535" transform="translate(63.444 423.43)">
      <path id="Path_2869" data-name="Path 2869" class="cls-2" d="M58.286,520.356a6.239,6.239,0,0,1-1.836-4.627c-.147-3.3-.147-6.536-.22-9.841-.073-4.333-.147-8.739-.147-13.072,0-2.938-.073-5.875,0-8.739.073-3.378.22-6.756.367-10.135.147-3.084.147-6.242.588-9.327a4.868,4.868,0,0,1,2.277-3.525l-1.469-1.763c-1.1.441-1.763.22-2.277-1.028l-2.717,2.2a3.346,3.346,0,0,0,1.616-1.248c.073-.147.367-.147.808-.22-.22,1.1-.441,1.983-.588,2.644-.808.073-1.542.22-2.13.22l.147,1.175c.514,0,1.1-.073,1.909-.073-.147,1.028-.294,2.056-.514,3.011,0,.147-.588.367-.808.294-.441-.22-.734-1.1-.881-1.909l-.367.514c.073.073.073.147.147.22.147.367.073.734.22,1.1a23.239,23.239,0,0,1,1.248,8.078c0,4.847-.073,9.621-.147,14.468-.147,7.858-.367,15.643-.441,23.5,0,3.231-.955,5.875-3.672,7.785C52.338,519.181,55.2,519.842,58.286,520.356Zm-1.763-58.678c.367-.514.808-1.028,1.689-.588a2.362,2.362,0,0,1-.294.514c-.441.294-.881.514-1.248.808C56.671,462.119,56.45,461.752,56.524,461.678Z" transform="translate(-49.4 -457.786)"/>
      <path id="Path_2870" data-name="Path 2870" class="cls-2" d="M58.8,457.6Z" transform="translate(-51.897 -457.6)"/>
    </g>
    <g id="Group_1536" data-name="Group 1536" transform="translate(35.589 368.284)">
      <path id="Path_2871" data-name="Path 2871" class="cls-3" d="M51.842,385.587c-.588.073-.881.147-1.175.147a13.891,13.891,0,0,1-.367-1.689h.441a2.883,2.883,0,0,0,3.452-.367c.734-.661,1.4-1.4,2.5-1.1a3.073,3.073,0,0,1,.881.587c-.22.294-.367.734-.661.881a3.863,3.863,0,0,0-1.983,1.909c-.441.734-1.469,1.1-2.277,1.616a1.478,1.478,0,0,1-.588-.588A6.952,6.952,0,0,1,51.842,385.587Z" transform="translate(-21.784 -382.509)"/>
      <path id="Path_2872" data-name="Path 2872" class="cls-3" d="M66.448,393c.955.22,1.763.441,2.717.661-.147.294-.294.514-.367.661.22.734.367,1.248.514,1.836a7.972,7.972,0,0,1-1.836.294c-.514.073-2.277-1.4-2.277-1.909a1.318,1.318,0,0,1,.441-.734A2.793,2.793,0,0,1,66.448,393Z" transform="translate(-25.741 -385.296)"/>
      <path id="Path_2873" data-name="Path 2873" class="cls-3" d="M28.612,397.214c-.294.073-.514.073-.734.147,0,.147-.073.22,0,.294.441,1.322.294,1.469-1.028,1.175a3.052,3.052,0,0,1-2.424-1.542c-.441-.808-.147-1.1.661-1.175a20.936,20.936,0,0,1,2.13-.22C28.1,395.745,28.465,396.332,28.612,397.214Z" transform="translate(-14.857 -386.058)"/>
      <path id="Path_2874" data-name="Path 2874" class="cls-3" d="M45.6,383.4c.441.294.881.587,1.469,1.028q-.11,1.1-.22,2.864c-.294-.147-.734-.22-.734-.367C45.894,385.75,45.747,384.5,45.6,383.4Z" transform="translate(-20.535 -382.746)"/>
      <path id="Path_2875" data-name="Path 2875" class="cls-3" d="M62.222,398.327c-.514-.588-.955-1.028-1.322-1.469.734-1.322,1.909-.22,2.791-.514l.22.22C63.324,397.152,62.809,397.74,62.222,398.327Z" transform="translate(-24.599 -386.143)"/>
      <path id="Path_2876" data-name="Path 2876" class="cls-3" d="M25.339,400.6c.881.294,1.689.514,1.322,1.616-.073.294-.661.734-.808.661C24.972,402.363,25.119,401.555,25.339,400.6Z" transform="translate(-15.109 -387.314)"/>
      <path id="Path_2877" data-name="Path 2877" class="cls-3" d="M63.414,391c.734.073,1.248.147,1.983.22-.881,1.1-1.542,1.836-2.2,2.644-.073-.073-.22-.147-.294-.22C63.341,392.909,64.369,392.322,63.414,391Z" transform="translate(-25.13 -384.765)"/>
      <path id="Path_2878" data-name="Path 2878" class="cls-3" d="M29.9,400.944c.367-.808.734-1.616,1.175-2.644C31.369,400.43,31.148,401.017,29.9,400.944Z" transform="translate(-16.365 -386.703)"/>
      <path id="Path_2879" data-name="Path 2879" class="cls-3" d="M13.108,412.788l-1.542,1.763A1.281,1.281,0,0,1,13.108,412.788Z" transform="translate(-11.47 -390.542)"/>
      <path id="Path_2880" data-name="Path 2880" class="cls-3" d="M33.977,410.369c-.955-.294-1.175-.734-.514-1.469C33.609,409.341,33.83,409.855,33.977,410.369Z" transform="translate(-17.211 -389.519)"/>
      <path id="Path_2881" data-name="Path 2881" class="cls-3" d="M36.761,411.4c1.1-2.056.147-4.039.073-5.655,1.1-.441,1.983-.808,2.791-1.1a1.89,1.89,0,0,1,1.1.073c1.616,1.248,1.836,1.248,3.525.147.22-.147.514-.294,1.175-.661-.22,1.616-.441,2.864-.661,4.186,0,.22-.147.441-.073.588.441.955.073,1.248-.881,1.4a2.349,2.349,0,0,0-1.542.881,2.757,2.757,0,0,1-3.452.955c-.661.808-1.322,1.469-1.836,2.2a2.334,2.334,0,0,0-.147,1.028c.073.514.294.955.367,1.322a33.568,33.568,0,0,1-3.525.734c-.294.073-.734-.22-.955-.514a2.457,2.457,0,0,1,.22-3.672c.073-.073.073-.22.147-.441-.514.294-.955.514-1.689.955.661-1.322,1.1-2.35,1.616-3.3.073-.147.514-.22.808-.22.955-.147,1.248-.734.955-1.689a9.932,9.932,0,0,1-.294-2.13c.881-.294,1.248-.147,1.175.808C35.513,408.753,35.366,410.222,36.761,411.4Zm1.542-2.13c2.13.514,4.92-.955,5.361-2.864C41.975,407.358,40.286,408.239,38.3,409.267Zm.073-1.542c.441-.367.955-.661.955-.881a1.5,1.5,0,0,0-.734-.881,3.54,3.54,0,0,0-1.248.881C37.642,407.138,37.936,407.358,38.377,407.725Zm-5.288,4.333c.514.367.808.661,1.469,1.1-.073-.808-.147-1.175-.22-1.836C33.824,411.617,33.53,411.838,33.089,412.058Z" transform="translate(-16.764 -388.271)"/>
      <path id="Path_2882" data-name="Path 2882" class="cls-3" d="M80.334,417.64c-.955.367-1.909.734-2.938,1.1,0,.147-.073.294-.073.441.881.367,1.763.808,2.644,1.175-.514,1.322-1.1,1.4-2.277.147-.734-.734-1.322-.808-1.983-.22.514,1.175,1.028,2.2,1.4,3.3a1.977,1.977,0,0,1-.294,1.542c-.294.587-1.248.22-1.542-.588s-.661-1.248-1.542-.294c.367.073.588.073.955.147a7.831,7.831,0,0,1-.514,1.4c-.073.147-.367.441-.514.441-1.1-.514-2.5-.073-3.378-1.249a11.06,11.06,0,0,0-1.616-1.4,11.617,11.617,0,0,1-.294,1.542c-.073.22-.441.367-.661.514a3.449,3.449,0,0,1-.441-.661c-.147-.514-.147-1.1-.294-1.616a1.832,1.832,0,0,1,1.836-2.423c.734,0,1.616-.808,1.983.367a6.342,6.342,0,0,0,1.175-.734c.073.073.147.147.147.22l-.367.367c1.175.367,1.983-.147,1.836-1.175-.073-.661-.22-1.4.588-1.616a3.077,3.077,0,0,1,1.909.367C77.25,417.786,78.131,415.877,80.334,417.64Z" transform="translate(-26.187 -391.649)"/>
      <path id="Path_2883" data-name="Path 2883" class="cls-3" d="M51.741,434.285c-.147-.587-.22-1.028-.294-1.322-1.248,0-2.57.073-3.819,0-.367,0-.661-.367-1.028-.587.294-.441.514-.881.808-1.249a2.475,2.475,0,0,1,.881-.441,4.274,4.274,0,0,1-.367-.808,12.253,12.253,0,0,1,1.322-.367c.881-.22,1.542.073,1.616,1.028.073,1.028.955.808,1.542,1.028.073.073.441-.514.661-.734-.367-.22-.734-.441-1.248-.734v-.661a13.375,13.375,0,0,0,2.424.073c.147,0,.294-.441.441-.734.147-.514.22-1.322.441-1.4a7.106,7.106,0,0,1,2.13.147s.073.734-.073.808a14.624,14.624,0,0,0-4.7,5.435C52.328,433.992,52.108,434.065,51.741,434.285Z" transform="translate(-20.801 -394.415)"/>
      <path id="Path_2884" data-name="Path 2884" class="cls-3" d="M56,444.3c.588-1.175,1.1-2.2,1.689-3.231a3.785,3.785,0,0,1,1.175-.881,9.173,9.173,0,0,0,.881-.661,2.37,2.37,0,0,1,2.57-.587,2.961,2.961,0,0,1-1.248,2.423,14.625,14.625,0,0,0-2.424,1.763c-.514.441-.734.955-.073,1.542a4,4,0,0,1,.808,1.322c0,.073-.441.294-.734.514a.855.855,0,0,0-.955-.808C57.616,444.524,56.441,444.6,56,444.3Z" transform="translate(-23.298 -397.456)"/>
      <path id="Path_2885" data-name="Path 2885" class="cls-3" d="M16.482,440.711v-1.248c-.367-.147-.881-.147-1.028-.367s.147-.734.294-1.4A4.851,4.851,0,0,1,17,438.8c.514.661.881,1.4,1.983,1.322.294,0,.588.661,1.175,1.248-1.4.147-2.35.955-3.525.22-.367-.22-.881-.147-1.322-.294a5.084,5.084,0,0,1-1.616-1.028c-.147-.22.441-.955.808-1.4C14.573,440.784,15.014,441.152,16.482,440.711Z" transform="translate(-12.054 -397.168)"/>
      <path id="Path_2886" data-name="Path 2886" class="cls-3" d="M16.7,425.8a2.131,2.131,0,0,1-2.717,1.689c-.367-.147-.588-1.028-.881-1.542.734-.514,1.322-1.248,1.983-1.248C15.6,424.625,16.184,425.359,16.7,425.8Z" transform="translate(-11.903 -393.714)"/>
      <path id="Path_2887" data-name="Path 2887" class="cls-3" d="M19.2,414.6h1.322c.22.661.441,1.175.661,1.763a4.458,4.458,0,0,1,.367,1.322,3.457,3.457,0,0,1-.294,1.175c-.441-.294-1.1-.441-1.322-.808-.367-.808-1.028-1.542-.514-2.57C19.494,415.261,19.273,414.967,19.2,414.6Z" transform="translate(-13.523 -391.033)"/>
      <path id="Path_2888" data-name="Path 2888" class="cls-3" d="M39.938,446.67c-1.028.073-1.689.22-2.35.22a3.46,3.46,0,0,1-1.248-.294c-.073-.073-.22-.441-.147-.514.367-.22.734-.514,1.1-.441,1.028.147,1.542-.514,2.2-1.028a4.459,4.459,0,0,1,.734-.514l.22.22A19.909,19.909,0,0,0,39.938,446.67Z" transform="translate(-18.032 -398.868)"/>
      <path id="Path_2889" data-name="Path 2889" class="cls-3" d="M39.866,448.273c.661,0,1.248-.073,2.13-.073-.147,1.028-.294,2.056-.514,3.084,0,.147-.661.294-.808.147A3.674,3.674,0,0,1,39.866,448.273Z" transform="translate(-18.988 -399.957)"/>
      <path id="Path_2890" data-name="Path 2890" class="cls-3" d="M84.628,436.646c-1.983-.294-3.672,1.689-5.728-.147.514-.147.955-.441,1.175-.367.955.734,1.616.073,2.5-.22C83.159,435.691,84.041,435.251,84.628,436.646Z" transform="translate(-29.38 -396.629)"/>
      <path id="Path_2891" data-name="Path 2891" class="cls-3" d="M21.4,452.956a9.725,9.725,0,0,1-1.469-.881,5.213,5.213,0,0,1-.734-1.028,4.3,4.3,0,0,1,.955-.147,2.677,2.677,0,0,1,1.1.147c.441.22,1.028.588,1.028.955,0,.441-.441.881-.734,1.322A1.241,1.241,0,0,0,21.4,452.956Z" transform="translate(-13.523 -400.674)"/>
      <path id="Path_2892" data-name="Path 2892" class="cls-3" d="M45.9,437.523a15.606,15.606,0,0,1-1.4-1.028c.294-.367.661-.881,1.1-1.4a5.059,5.059,0,0,0,.955.808c-.073.073-.073.147-.147.22a8.318,8.318,0,0,0,1.1.294C46.85,436.863,46.336,437.23,45.9,437.523Z" transform="translate(-20.243 -396.478)"/>
      <path id="Path_2893" data-name="Path 2893" class="cls-3" d="M21.3,449.663c1.542-.734,2.424-.441,3.452,1.248A3.64,3.64,0,0,1,21.3,449.663Z" transform="translate(-14.081 -400.245)"/>
      <path id="Path_2894" data-name="Path 2894" class="cls-3" d="M21.154,438.1c-.441.514-.808.881-1.175,1.322-.294-.367-.955-.881-.881-1.028a5.173,5.173,0,0,1,1.175-1.4A8.168,8.168,0,0,1,21.154,438.1Z" transform="translate(-13.495 -396.982)"/>
      <path id="Path_2895" data-name="Path 2895" class="cls-3" d="M44.624,443.895c-1.469.294-2.056-.073-2.424-1.542C43.448,441.985,44.109,442.352,44.624,443.895Z" transform="translate(-19.632 -398.369)"/>
      <path id="Path_2896" data-name="Path 2896" class="cls-3" d="M51.4,438.715c1.1-1.689,1.248-1.689,2.424-.514C53.163,438.862,52.5,439.67,51.4,438.715Z" transform="translate(-22.076 -397.082)"/>
      <path id="Path_2897" data-name="Path 2897" class="cls-3" d="M69.3,418.5c1.1.441,1.909.734,2.864,1.028C70.989,420.263,70.108,420.042,69.3,418.5Z" transform="translate(-26.83 -392.069)"/>
      <path id="Path_2898" data-name="Path 2898" class="cls-3" d="M43.667,431.4c-.294-.22-.808-.367-.808-.587-.073-.588-.441-1.322.734-1.616.147.661.22,1.322.367,1.983A1.014,1.014,0,0,1,43.667,431.4Z" transform="translate(-19.778 -394.911)"/>
      <path id="Path_2899" data-name="Path 2899" class="cls-3" d="M20.169,449.422c-.367.147-.661.22-1.1.367-.147-.587-.22-1.028-.367-1.469a1.013,1.013,0,0,1,.294-.22,14.889,14.889,0,0,1,1.322.955C20.242,449.2,20.242,449.275,20.169,449.422Z" transform="translate(-13.391 -399.931)"/>
      <path id="Path_2900" data-name="Path 2900" class="cls-3" d="M34.769,429.273c-.147.661-.294,1.322-.441,2.13-.367-.22-.661-.367-1.028-.588.514-.588.955-1.1,1.322-1.616A.256.256,0,0,1,34.769,429.273Z" transform="translate(-17.269 -394.911)"/>
    </g>
  </g>
</svg>
