<svg xmlns="http://www.w3.org/2000/svg" viewBox="0 0 57.014 120">
  <defs>
    <style>
      .cls-1 {
        fill: #106610;
      }

      .cls-2 {
        fill: #17c417;
      }

      .cls-3 {
        fill: #3f2302;
      }
    </style>
  </defs>
  <g id="v2" transform="translate(-151.552 -366)">
    <path id="Path_2901" data-name="Path 2901" class="cls-1" d="M175.5,409.342a4.26,4.26,0,0,0-1.186-2.442c-.07-.07-.14-.209-.209-.279l1.814,1.326-.279-.488a13.879,13.879,0,0,0-3.908-3.908h0l2.861,1.745.14-.279-.419-.488.907.14-2.233-1.814,1.4.628.209-.489-4.4-2.3.768.07.14-.349-2.582-1.117h0l4.257,1.186.14-.349-4.117-1.605.419-.279-2.3-.419h3.071v-.488h-.14c-.349,0-.628-.07-.977-.07-.837-.07-1.745-.14-2.582-.209-.209,0-.349-.14-.558-.209-.07-.07-.14-.07-.209-.14a1.734,1.734,0,0,0-2.163-.907c-.279.07-.628.14-.907.209a8.113,8.113,0,0,1-1.256.279.713.713,0,0,1-.7-.279,6.947,6.947,0,0,1-.977-1.047l-.14-.14a10.446,10.446,0,0,1-.768-.907,1.226,1.226,0,0,0-.279-.349l.07-.14,1.4.489.628-.349-.07-.14A2.829,2.829,0,0,1,160,392.8h2.024l-.419-.488,1.117.7-.209-.837H163.7l-1.814-1.605h0l1.186.977.349-.209-.349-.907a1.84,1.84,0,0,1,1.117.488,2.827,2.827,0,0,0,.628.349h.07l.07-.07c.419-.349.7-.14,1.047.14a1.532,1.532,0,0,0,.837.349h.14v-.14a2.059,2.059,0,0,0-.768-1.535c-.14-.209-.349-.349-.488-.558l1.675,1.326.209-.209-.279-.488a2.413,2.413,0,0,1,.837.488c.07.07.14.07.209.14a.629.629,0,0,0,.349.07h.349l-.07-.209v-.14a.533.533,0,0,0-.14-.349c-.14-.14-.209-.279-.349-.419l1.326.558.14-.349-1.047-.768,1.884,1.047.209-.349-1.047-.837,1.675.628-.768-.977.977.14-.209-.279a1.807,1.807,0,0,0-.768-.489l-.558-.14c-2.442-.558-4.885-1.186-7.467-.419a15.829,15.829,0,0,1-1.745.419c-.419.07-.837.209-1.256.279a.8.8,0,0,1-.837-.279c-.349-.419-.768-.768-1.117-1.117-.209-.14-.349-.349-.558-.488l-.209-.209,1.535.07.07-.349-1.4-.488,2.163-.419-.07-.349-2.582.07h0l4.676-1.954-.977.14a2.852,2.852,0,0,1-2.442-.628l2.861-.907-.07-.488-2.652.14,4.606-.907-2.861-.14,3.768-.489v-.279l-1.117-.14,3.35.209v-.419l-2.373-.558v-.07l3.071-.14.07-.349L163,377.381v-.07l3.419-1.466H165.8a7.725,7.725,0,0,0-4.117,1.256,15.572,15.572,0,0,1,2.3-1.4c.209-.14.419-.209.628-.349l.488-.279h-.558a7.926,7.926,0,0,0-5.164,3c-.209.279-.349.488-.768.349l4.815-4.4-.209-.349-3.978,2.931h0l3.21-3.28-.558.209a8.242,8.242,0,0,0-3.21,2.582c-.07.07-.14.209-.279.279l1.745-2.791-.349-.279-1.954,2.373,1.117-2.373-.349.209a2.124,2.124,0,0,0-.558.558,10.325,10.325,0,0,0-.558.907c-.279.419-.558.907-.837,1.326a1.525,1.525,0,0,1-.349.209c-.07,0-.07.07-.14.07l-.07-.07,1.047-2.163.209.14-.907,1.256.488-1.256-.488.628a11.765,11.765,0,0,0-2.861,6.35.679.679,0,0,1-.488.768l2.233-7.467-.558.977a1.46,1.46,0,0,1-.279.419,3.759,3.759,0,0,0-.488.907c-.419,1.186-.768,2.442-1.186,3.629-.209.7-.419,1.326-.628,2.024-.07.14-.14.349-.209.489,0,.07-.07.07-.07.14l-.14-.07,1.326-5.373-.488-.14-1.535,4.606.558-3.838-.349.558a13.47,13.47,0,0,0-1.745,6.909h-.07l.558-5.583-.349.7a2.09,2.09,0,0,1-.279.558c-.14.349-.349.7-.488,1.047-.14.279-.209.558-.349.907a16.157,16.157,0,0,0-.907,2.582c-.209.837-.279,1.675-.419,2.442-.07.419-.14.907-.209,1.326-.07.209-.14.489-.209.7,0,.07-.07.14-.07.209h0a18.031,18.031,0,0,1,6.071-14.1l-.14-.209-.628.419a9.888,9.888,0,0,1,2.722-2.652l.558-.349-.628.14a7.031,7.031,0,0,0-3.21,2.024l1.605-2.3-.558.349a8.393,8.393,0,0,0-1.465,1.326c-.349.488-.768.977-1.186,1.675-.209.349-.488.768-.7,1.117h0l1.047-2.652-.907.907.07-.7-.279-.07-.628,1.4.14-.7-.349-.07-.628,1.465.14-2.163-.488-.07-.7,5.722h0l-.837-3.071-.349.07v1.186l-.488-.7.349,5.443h-.07l-.977-2.931-.419.14.7,3.35-.7-1.884-.419.14.977,3.838-.7-1.466-.419.14.768,4.536a3.614,3.614,0,0,1-1.117-2.233c-.07-1.4-.209-2.791-.349-4.117-.07-.558-.07-1.117-.14-1.675v-.07h-.07c-.488-.07-.558-.419-.628-.768-.07-.279-.07-.628-.419-.837l-.209-.14.14,2.722-1.117-5.025-.419.07v.558l-.7-3.419-.488.07.7,5.932-1.117-5.443-.279.07-.14.837-.907-3.7-.349.07v1.605l-.837-3.629-.488.07.837,5.513-3.629-3.489.419.768a15.212,15.212,0,0,0,3.489,4.117,3.036,3.036,0,0,1,.419.488c.07.07.07.14.14.209l-.07.07-5.583-4.187.558.768c.07.14.209.209.279.349a13,13,0,0,0,1.605,1.814c.768.628,1.605,1.186,2.442,1.745.419.279.768.558,1.186.837.14.07.209.209.349.349l.07.07h0l-5.653-3.768-.279.349,3,2.512-3.7-.977-.14.419,3.28,1.326-2.442-.349-.07.419,3.559,1.047a10.208,10.208,0,0,0-2.931-.279h-.7l.628.209c2.163.7,4.048,1.256,5.932,1.814.419.14.628.279.628.628l-5.862-1.605-.14.488,5.932,2.094-5.583-1.117.837,1.675-1.884-1.954-.279.279,1.814,2.791a8.37,8.37,0,0,0-3.838-2.931l-.768-.279.628.489a11.715,11.715,0,0,1,2.652,2.582c-.279-.209-.488-.419-.7-.558a11.516,11.516,0,0,0-3.14-2.024l-.558-.209.419.419c.419.419.837.768,1.256,1.117a3.987,3.987,0,0,1,.558.488c.7.628,1.326,1.186,1.814,1.675A8.987,8.987,0,0,1,133,388.546l.419.419h0c-.07-.07-.14-.07-.209-.14a2.955,2.955,0,0,1-.488-.349,8.755,8.755,0,0,0-3.419-2.861,18.172,18.172,0,0,0-1.745-.7c-.279-.07-.558-.209-.768-.279l-.14-.07-.14.419.07.07a1.525,1.525,0,0,1,.349.209l.837.419a6.626,6.626,0,0,1,1.186.7h.07a7.983,7.983,0,0,0-3.629-.907l-.558.07,4.117,1.675h0a.42.42,0,0,1-.279-.07c-.279-.07-.628-.07-.907-.14a11.332,11.332,0,0,0-1.465-.07,3.98,3.98,0,0,0-.907.07h-.558l.07.349,3.071.419-2.582.349.07.419,2.512.14v.349l3.908.768-3.14-.209,4.815,1.326-2.652-.279-.07.279,3.7,1.465-1.605-.279,2.163,1.117c-.349-.07-.7-.209-1.117-.279-.977-.209-1.954-.488-2.931-.768-.279-.07-.628-.209-.907-.279a4.606,4.606,0,0,0-1.884-.419,17.284,17.284,0,0,1-2.024-.14h-.209c-.209,0-.488-.07-.7-.07a1.932,1.932,0,0,1-.628-.07l-1.047-.07.768.279c.628.279,1.326.419,1.954.628a23.7,23.7,0,0,1,2.373.837v.07l-7.467-1.186.7.558h0l-3.071-.977.628.419a9.978,9.978,0,0,0,4.745,1.884,9.376,9.376,0,0,1-3.7-.07h-.14l-.07.488,2.373.558a7.559,7.559,0,0,1-3.35-.07l-.488-.14.419.349a4.526,4.526,0,0,0,2.652.768h.419l-1.954,2.233.349.349,1.186-.977-2.233,3.14.488.419.977-1.117-1.047,3,.349.14.907-1.605-.7,3.35.419.14,1.256-3.7.209,1.954h.488l.209-4.187.279,2.442.419-.07.14-2.512.279,1.465h.419v-.14a5.553,5.553,0,0,1,1.047-4.257,8.579,8.579,0,0,0-.419,4.606l.07.419,1.814-4.327.07.07-2.512,6,.349-.209c1.884-1.326,2.722-3.28,3.489-5.234a.992.992,0,0,0,.14-.419h.07l-1.256,4.466.419.209,1.675-2.652a8.544,8.544,0,0,0,.07,3.768l.14.558.7-4.815h.07l-.209,3.838.488.07.14-1.256c.14-1.186.279-2.3.488-3.489a1.294,1.294,0,0,1,.14-.488v-.14h.07a13.46,13.46,0,0,1,.07,3.35c-.07.7-.07,1.465-.07,2.163v.7l.488-1.326.07,2.233H133v-.14c0-.349.07-.7.07-1.047.07-.977.07-2.024.209-3a1.477,1.477,0,0,1,.209-.488.244.244,0,0,0,.07-.14l-.279,5.373h.349l.349-1.605.07,2.024h.488l.07-1.047c.07-.837.07-1.745.14-2.582a1.776,1.776,0,0,1,.14-.488v-.07l.07,3.838.419.07.419-2.861h0l.907,2.861h-.07c-.14,0-.279.07-.419.07-.349.14-.628.209-.977.349-.768.279-1.605.488-2.373.837a32.824,32.824,0,0,0-3.838,2.3,2,2,0,0,0-.558.907c-.07.14-.07.209-.14.349s-.07.209-.14.349a.533.533,0,0,1-.14.349,4.479,4.479,0,0,1-.7.907,13.972,13.972,0,0,0-1.117,1.675,6.9,6.9,0,0,0-.628,1.675c-.07.279-.14.488-.209.768l-.07.14.349.14.279-.349.209,3h.419l.349-3.629h0a8.2,8.2,0,0,0,1.256,4.815l.349.489-.349-1.954.419.419.14.14a3.225,3.225,0,0,0,.488.488l.209.209.488.488-.279-.628c-.14-.279-.279-.628-.419-.907a15.172,15.172,0,0,1-1.186-2.931l2.373,4.4.419-.209L130,416.949h0l.628.907.279-.209-1.326-2.722.07.07.07.07c.14.14.209.279.349.349l.209.209.349-.209-.07-.14a3.039,3.039,0,0,1-.488-2.442v-.279l1.047,3.768.349-.07-.07-.837a6.03,6.03,0,0,1,.14,3.7,5.071,5.071,0,0,0,.07,3.21l.07.209.349-.349.628,1.535-.07-.837a5.672,5.672,0,0,1,.07-1.535,5.691,5.691,0,0,0,0-1.884l1.047,2.094.419-.209-.14-.349a7.93,7.93,0,0,1-.768-3.419l1.117,2.791.419-.14v-.14a12.149,12.149,0,0,1-.558-5.164,11.617,11.617,0,0,0,1.047,4.4l.349.7-.558-3.629h.07l1.326,3-.14-1.047a4.712,4.712,0,0,1-.14-.977,13.208,13.208,0,0,1-.279-4.955c.14.14.209.279.349.419.07.14.209.279.279.419a4.48,4.48,0,0,0,.7.907,1.935,1.935,0,0,0,2.024.628l.279-.07-.837-.558,1.465.419-.628-.419a4.336,4.336,0,0,1-1.814-2.3l1.814,2.163-.209-.558a3.136,3.136,0,0,0-.419-.837c-.07-.14-.209-.279-.279-.419-.07-.07-.07-.209-.14-.279a2.2,2.2,0,0,1-.349-1.117,1.206,1.206,0,0,0-.07-1.117c0-.07-.07-.14-.07-.209v-.07l2.442,3.7.349-.209-1.047-2.442h0l1.814,1.814-1.256-2.652h0l.768,1.4.349-.14v-.209l-.488-1.675c.07,0,.14.07.209.07l.209.07-.07-.977h-.07a2.139,2.139,0,0,1-.628-1.326,1.52,1.52,0,0,1,.558.349l.14.14.07-.209a1.4,1.4,0,0,1,1.047-.907c.977-.14,2.931.7,6.7,5.234l.14.14c.07.07.209.14.279.279a1.525,1.525,0,0,1,.209.349c0,.07.07.14.07.209l.209.209h0a.69.69,0,0,0,.558.07l.14-.07-.488-.977c.768.349,1.186.7,1.326,1.4h.279c0-.837,0-1.745-.07-2.582a14.527,14.527,0,0,1,.14-4.257c.628.419,1.047.768,1.117,1.047a.759.759,0,0,1-.07.349l-.07-.07-.209-.209-.209-.209-.209-.209v.279c0,.7-.07,1.4-.14,2.094a36.092,36.092,0,0,0,0,6.141v.14h.488l.14-2.652.07,2.443h.419l.349-6.49c.14,1.047.279,2.094.349,3.21.07.977.14,2.024.14,3.071a8.444,8.444,0,0,0,.07,1.326v.14h.419l.14-.768.209.837.349-.07.14-2.094.279,2.722h.419l.07-1.884.349,2.233.488-.07V413.25l.209.837a9.273,9.273,0,0,0,1.186,3.28l.209.349V417.3a13.4,13.4,0,0,0-.209-1.535,4.8,4.8,0,0,1-.209-1.745,7.64,7.64,0,0,1,.768.7,10.2,10.2,0,0,0,3.419,2.3l.628.209-1.256-1.117.768.279.14-.279-2.512-1.675,1.326.349-1.605-1.256,2.163,1.117-.488-.488a6.112,6.112,0,0,0-1.675-1.326,6.038,6.038,0,0,1-1.605-1.326l2.722,1.884-.14-.349a1.035,1.035,0,0,1-.07-.488c-.07-.419-.14-.907-.768-1.117a.7.7,0,0,1-.07-.209,1.179,1.179,0,0,0,.14-.349c0-.209-.209-.279-.279-.419-.07,0-.07-.07-.14-.07-.209-.209-.488-.419-.7-.628l-.209-.209c-.419-.419-.907-.768-1.326-1.186l-.488-.419,3.908,2.233-.14-.349a9.071,9.071,0,0,0-2.582-3.419,2.367,2.367,0,0,1-.558-2.024l.628,2.024.349-.628.558,1.117v-.488a9.459,9.459,0,0,0-.14-1.4,3.827,3.827,0,0,1,.07-2.163l.558,1.465.279-.558.419,2.373.14-.558a8.579,8.579,0,0,0-.419-4.606,8.413,8.413,0,0,1,.907,4.606v.419l1.326-1.884-.14-.558.628,1.465.14-.209a4.2,4.2,0,0,0,.349-1.814l.07.489.558-.768.07,2.163.488-.209.488,2.024.349-.07v-1.256l.349,1.675.14-.419a2.218,2.218,0,0,0,.14-.977,2.366,2.366,0,0,1,.419-1.465l.209,3.14h.419l.14-2.861h.07l.768,5.164.419-.07-.14-3.629.7,3,.349-.07-.14-2.094.768,2.163.419-.14-1.4-6.141h0a23.392,23.392,0,0,1,2.163,7.258l.209,1.117.14-2.512.279,3.419.209-.768a13.291,13.291,0,0,0-.14-5.513,21.869,21.869,0,0,1,.837,3.7,25.008,25.008,0,0,0,.628,3.14l.279,1.047-.349-5.792h0a4.689,4.689,0,0,1,.7,1.954c.07.419.209.768.279,1.186l.279.768-.07-2.722.7.837Zm-9.63-8.025.07.488-.07-.488Zm-4.257-3.7.209-.209a4.23,4.23,0,0,1,2.652-.419c-.209.07-.349.14-.558.209-.14.07-.349.14-.488.209a5.3,5.3,0,0,1-.768.279,2.616,2.616,0,0,1-.768.07c-.14.07-.209-.07-.279-.14Zm3.7-.628c-.07.07-.279,0-.419-.07h0l-.768-.558a1.292,1.292,0,0,1,1.256.419l.07.07C165.377,396.851,165.377,396.921,165.307,396.99Zm-5.234-.489-.07.14-1.535-1.605h0Zm-4.187-15.841.209-.7.7.14-.907.558Zm1.186,8.723c-.628-.489-1.256-1.047-1.814-1.535l-.279-.209,2.442,1.675v.07h-.349Zm-.489.279a3.673,3.673,0,0,1-1.884-1.186l1.884,1.186Zm2.163,7.258-1.4-1.465h0a.529.529,0,0,0,.279.14c.837.489,1.605.907,1.745,1.954-.628.349-.837.349-1.4-.209l-.768-.768-.279-.279Zm-.209-7.956h-.14c-.14,0-.349.07-.349,0-.628-.558-1.326-1.117-1.954-1.675l-.209-.209a10.091,10.091,0,0,1,2.512,1.535l.14.349Zm-4.815.419,1.465.837a.42.42,0,0,1-.279.07C154.56,390.291,154.142,389.942,153.723,389.384Zm.558,9.421c-.488-.488-.907-1.047-1.326-1.535l-.349-.349.07-.07.349.349,1.465,1.465v.279h0C154.351,398.8,154.281,398.8,154.281,398.8Zm.488-1.256-.209-.419h0l1.047,1.256h-.07A1.523,1.523,0,0,1,154.77,397.549Zm-2.582-7.188,2.024.419v.07l-.488.349Zm1.465.907-.628.349c-.14.07-.209.14-.349.209a4.7,4.7,0,0,0-.768.488c-.628.489-1.047.558-1.535.14l1.535-.7-.14-.489Zm-2.233,14.027.07.07c.07.07.209.209.209.279-.07.488-.209,1.047-.279,1.535a3.022,3.022,0,0,1-.07.349Zm.07,5.094.14.558c-.14-.07-.209-.07-.209-.14A1.228,1.228,0,0,1,151.49,410.389Zm4.117-1.605a1.712,1.712,0,0,1,.07,1.535h0v-.7a4.224,4.224,0,0,0-.14-1.047C155.537,408.644,155.607,408.714,155.607,408.784Zm.419-6.769a4.7,4.7,0,0,1,1.047,2.024c.14.349.209.7.349,1.047C156.165,404.6,155.747,403.759,156.026,402.015Zm-3.908,2.512c.07.07.14.07.279.14a6.142,6.142,0,0,1,.7.419,5.371,5.371,0,0,1,1.814,2.233c.07.07.07.209.14.279-.209-.279-.419-.489-.628-.768-.14-.14-.209-.279-.349-.349v-.07l-.977-.977-.558-.558-.419-.349ZM133.9,411.994a7.355,7.355,0,0,1,.488.768l-.209.209-.07.07-.279-1.117Zm-1.047-3.838a.42.42,0,0,1-.07-.279v-.07h0c.07.07.07.14.14.14.558,1.047,1.117,2.024,1.675,3.071l.07.07a1.477,1.477,0,0,1,.209.488c0,.07-.07.209-.07.279h0c-.07,0-.14-.07-.209-.14C134.043,410.668,133.485,409.552,132.857,408.156Zm-.977,1.186h.07c0,.14.07.279.07.488.07.488.14.907.209,1.4a11.241,11.241,0,0,0,.7,1.954l.209.419.07-.907a1.18,1.18,0,0,1,.488.7c.07.488-.279,1.117-.977,1.814a8.493,8.493,0,0,0-.488-2.652A8.426,8.426,0,0,1,131.88,409.342Zm2.861-1.745.419,1.675A2.1,2.1,0,0,1,134.741,407.6Zm2.3.628h0c-.14-.07-.14-.14-.209-.209-.14-.279-.209-.488-.349-.768-.209-.419-.419-.907-.628-1.326-.14-.209-.07-.279-.07-.279a.306.306,0,0,1,.209-.07Zm-1.256,1.954.07-1.117C136.207,409.621,136.207,409.831,135.788,410.18Zm-.558-25.123.07-.07.7.7-.14.14Zm.558,13.12-.279,1.117h0a.629.629,0,0,0-.07-.349c-.07-.349-.07-.628.209-.837Zm1.954,7.607c.07.349.209.7.279,1.047,0,.14.07.209.07.349h-.07l-1.326-1.814a1.034,1.034,0,0,1,.628-.209C137.533,405.155,137.6,405.365,137.742,405.783Zm.489-4.606.14-.14.07.07-.419.837A.663.663,0,0,1,138.23,401.177Zm.279,1.047.628,1.675a.69.69,0,0,1-.558-.07,1.136,1.136,0,0,1-.209-.419c0-.14-.07-.209-.07-.349C138.161,402.713,138.091,402.434,138.51,402.224Zm1.117-10.747-.07-.907A.866.866,0,0,1,139.626,391.477Zm-2.3-6c.209.07.488.07.7.14a17.268,17.268,0,0,1,2.024.419.861.861,0,0,1,.349.558c.07.07.07.209.14.279l-.07.07a5.894,5.894,0,0,0-1.186-.349,2.89,2.89,0,0,1-2.024-1.047Zm3.14,4.4h0a9.128,9.128,0,0,0,.349,1.047h-.14c0-.07-.07-.07-.07-.14-.07-.209-.14-.349-.209-.558A.934.934,0,0,1,140.464,389.872Zm-1.745-7.746h0l-.279-.07Z" transform="translate(32.652 -5.1)"/>
    <path id="Path_2902" data-name="Path 2902" class="cls-2" d="M157.681,406.222c.07-1.256,1.047-1.535,1.535-2.3-.488.279-1.047.558-1.535.837,0-.07-.07-.07-.07-.14l1.256-1.047-.07-.07c-.628.279-1.256.628-1.884.907a4.448,4.448,0,0,1-.14-.489c-.558.419-1.117.907-1.884,1.466a8.432,8.432,0,0,0,.209-.977h-.07l-1.047.628c0-.07.07-.07.07-.14-1.465.768-2.442,1.4-2.442,1.4l-.209.209a18.092,18.092,0,0,0,6.42,5.094l.07-.07c-.279-.279-.488-.558-.837-.907,1.745.7,3.35,1.4,5.025,2.094.07-.07.07-.209.14-.279-.558-.279-1.047-.488-1.605-.768,0-.07,0-.07.07-.14.837.14,1.605.349,2.652.488-.279-.209-.419-.349-.628-.488h.907c0-.07,0-.07.07-.14-1.047-.349-2.094-.768-3.14-1.117a.528.528,0,0,1,.07-.279,14.654,14.654,0,0,0,5.583.558c-.7-.209-1.186-.349-1.745-.488v-.209a4.489,4.489,0,0,0,3.071-.628h-1.047c.7-.558,1.256-.977,1.745-1.4-1.047.419-2.024,1.186-3.21,1.256,0-.07-.07-.14-.07-.209,1.326-.977,2.582-1.884,3.908-2.861-2.512,1.047-4.606,3-7.327,3.559a15.225,15.225,0,0,0,5.373-3.978c-.837.628-1.745,1.186-2.582,1.814,0-.07-.07-.07-.07-.14.488-.419.977-.907,1.465-1.326a22.1,22.1,0,0,1-7.118,3c-.07-.07-.07-.14-.14-.209,1.884-.907,3.768-1.884,5.583-2.791,0-.07-.07-.07-.07-.14-.768.279-1.535.558-2.373.837,0-.07-.07-.07-.07-.14.628-.419,1.256-.907,1.814-1.326l-.07-.07c-.907.488-1.884.907-2.791,1.4-.07-.07-.07-.14-.14-.209l2.931-2.3c0-.07-.07-.07-.07-.14-1.465.907-3,1.814-4.466,2.722a.964.964,0,0,1-.209-.279c.7-.628,1.4-1.256,2.094-1.954l-.14-.14C159.5,404.9,158.658,405.524,157.681,406.222Zm-1.117.209a12.963,12.963,0,0,1-1.326.768c-.07-.07-.07-.14-.14-.209.488-.279.907-.488,1.4-.768A.256.256,0,0,0,156.564,406.431Z" transform="translate(22.832 -14.89)"/>
    <g id="Group_1538" data-name="Group 1538" transform="translate(175.697 397.054)">
      <path id="Path_2903" data-name="Path 2903" class="cls-3" d="M165.8,542.14c.14-.07.349-.07.488-.14A1.776,1.776,0,0,1,165.8,542.14Z" transform="translate(-157.216 -453.792)"/>
      <path id="Path_2904" data-name="Path 2904" class="cls-3" d="M161.874,502.762c-.209-.7-.488-1.4-.628-2.094-.07-.209.07-.419.14-.628-.209-1.117-.419-2.3-.628-3.419a12.372,12.372,0,0,1-1.675.07c.349-.209.628-.419.977-.628a1.749,1.749,0,0,0,.488-.279v.209c-.07-.209-.07-.488-.14-.7h0l-2.722.419v-.14c.907-.419,1.745-.768,2.652-1.186,0,.14.07.349.07.488a6.107,6.107,0,0,1-.14-1.117v.209c-.419,0-.907.07-1.535.14.558-.349.977-.7,1.4-.977-.07-.209-.07-.488-.14-.7v.07c-.279-.07-.488-.07-.837-.14a10.212,10.212,0,0,0,.628-.907.629.629,0,0,0-.07-.349h-1.465c0-.14-.07-.209-.07-.349l1.465-.419c.07.209.07.488.14.7-.209-1.186-.349-2.373-.488-3.559-.419.07-.837.07-1.4.14.349-.419.628-.7.977-1.117h-1.814c.279-.907,1.535-.349,2.024-.977h0c0-.209-.07-.419-.07-.7v-.14c-.628,0-1.186-.07-1.745-.07a.256.256,0,0,0-.07-.209c.558-.14,1.047-.279,1.675-.419,0-.14.07-.279.07-.419,0-.349-.07-.768-.07-1.117h0c-.14-.349-.488-.558-1.186-.628.349-.419.7-.768,1.047-1.256v-.209a14.069,14.069,0,0,0-1.605-.489,3.9,3.9,0,0,0,1.535-.488h0a6.385,6.385,0,0,0-.07-1.186c-.14-.14-.209-.349-.419-.558a1.528,1.528,0,0,0,.349-.209c-.07-1.326-.07-2.652-.14-3.978-.558-.14-1.047-.209-1.535-.349v-.419c.419-.07.907-.14,1.465-.279v.768c0-.7-.07-1.4-.07-2.094v.349c-.419-.419-.837-.768-1.4-1.256.488.07.907.14,1.326.209v-.907h0a2.119,2.119,0,0,0-.488-.349.885.885,0,0,0,.419-.07,3.022,3.022,0,0,1,.07-.349c0-.907-.07-1.814-.07-2.652a3,3,0,0,1,0-1.117v-1.186c-.07-6,.209-12.073.349-18.074s.349-11.933.558-17.935c0-.7.279-1.814.7-1.954,1.117-.349.768-.907.7-1.675a6.863,6.863,0,0,1,.07-2.931,1.964,1.964,0,0,0,.14-1.745,1.6,1.6,0,0,1,.279-2.024,1.179,1.179,0,0,0,.209-.7,1.291,1.291,0,0,1,.209-1.117c-.14.07-.349.14-.628.279a4.927,4.927,0,0,0-2.512,3.14c-.419,1.535-.907,1.675-3-.7-2.024-2.373-1.326,0-1.675.279a11.843,11.843,0,0,0,1.117,2.3c.419.488,1.117.768,1.535,1.256a4.216,4.216,0,0,1,.349,1.675,24.3,24.3,0,0,1,.488,4.466c-.14,3.14-.488,6.211-.7,9.351-.209,3-.349,5.932-.558,8.932-.14,1.745-.419,3.419-.419,5.164,0,8.3,0,16.609.07,24.913.07,3.28-.488,6.63.279,9.909a16.9,16.9,0,0,1,.14,4.606,49.96,49.96,0,0,1-.349,5.583c-.349,2.3.907,4.815-.907,6.909a10.345,10.345,0,0,0,7.048.489A1.24,1.24,0,0,0,161.874,502.762Zm-3.14-27.146v.209l-.07-.07A.216.216,0,0,0,158.734,475.615Z" transform="translate(-153.5 -415.6)"/>
      <path id="Path_2905" data-name="Path 2905" class="cls-3" d="M161.8,517c0,.349.07.628.07.977A4.945,4.945,0,0,0,161.8,517Z" transform="translate(-156.008 -446.238)"/>
    </g>
    <path id="Path_2906" data-name="Path 2906" class="cls-2" d="M153.484,392.777c.419.558.977-2.094,1.256-3.629h0a17.156,17.156,0,0,1,.628-5.443v-.14a20.6,20.6,0,0,1,1.675-4.048h0a21.542,21.542,0,0,1,1.814-2.582v-.07h0a17.048,17.048,0,0,1,1.884-2.024c-.349.209-.7.488-1.117.7a9.437,9.437,0,0,1,3.071-3.14,6.8,6.8,0,0,0-3.35,2.233l-.14-.14c.488-.7.907-1.326,1.4-2.024a6.3,6.3,0,0,0-1.4,1.326,13.622,13.622,0,0,0-1.186,1.605c-.349.489-.628,1.047-.977,1.605-.07,0-.07-.07-.14-.07.349-.837.628-1.605,1.047-2.582l-.768.768a8.579,8.579,0,0,1,.14-.907h-.07c-.209.558-.488,1.047-.7,1.605-.07,0-.07-.07-.14-.07.07-.279.07-.628.14-.907h-.07l-.628,1.465a.256.256,0,0,1-.209-.07c.07-.7.07-1.4.14-2.163h-.279c-.209,1.884-.488,3.768-.7,5.722H154.6c-.279-1.047-.558-2.024-.837-3.071h-.14v1.465c-.14-.209-.209-.349-.419-.628.14,1.814.209,3.489.349,5.094a.419.419,0,0,0-.279.07c-.349-.977-.628-1.954-.977-2.931-.07,0-.14.07-.209.07.279,1.256.558,2.582.837,3.838-.07,0-.07,0-.14.07-.279-.768-.628-1.535-.907-2.373-.07,0-.14.07-.209.07.349,1.4.7,2.722,1.047,4.117-.07,0-.07.07-.14.07-.279-.628-.558-1.186-.837-1.814a.244.244,0,0,0-.14.07c.279,1.605.558,3.14.837,4.885h0A27.641,27.641,0,0,0,153.484,392.777Z" transform="translate(22.771 -5.493)"/>
    <path id="Path_2907" data-name="Path 2907" class="cls-2" d="M164.975,413.289c-.488.488,2.233.7,3.768.768h0a20.924,20.924,0,0,1,5.513-.14h.14a18.241,18.241,0,0,1,4.257,1.117h0a27.744,27.744,0,0,1,2.861,1.465h.07a25.905,25.905,0,0,1,2.233,1.605c-.279-.349-.558-.628-.837-.977a8.861,8.861,0,0,1,3.559,2.582,6.931,6.931,0,0,0-2.652-3l.14-.14c.7.349,1.465.768,2.163,1.117a4.776,4.776,0,0,0-1.465-1.186,14.99,14.99,0,0,0-1.814-.977c-.558-.279-1.117-.488-1.675-.768,0-.07.07-.07.07-.14.837.209,1.675.419,2.722.7-.349-.279-.488-.419-.837-.7h.977v-.07c-.558-.14-1.117-.349-1.675-.488,0-.07,0-.07.07-.14h.977v-.14c-.488-.14-1.047-.279-1.535-.419v-.209a21.132,21.132,0,0,1,2.163-.14v-.279c-1.884,0-3.838.07-5.722.07a.256.256,0,0,0-.07-.209l2.931-1.256v-.14q-.628.1-1.465.209c.209-.209.349-.279.628-.558-1.814.349-3.419.7-5.025,1.047,0-.07-.07-.209-.07-.279.907-.419,1.814-.907,2.791-1.326,0-.07-.07-.14-.07-.209-1.256.419-2.442.907-3.7,1.326,0-.07-.07-.07-.07-.14.768-.419,1.465-.837,2.233-1.256,0-.07-.07-.14-.07-.209-1.326.558-2.652,1.047-3.978,1.605,0-.07-.07-.07-.07-.14l1.675-1.047a.244.244,0,0,0-.07-.14c-1.535.488-3.071.977-4.745,1.535h0A21.144,21.144,0,0,0,164.975,413.289Z" transform="translate(18.748 -16.793)"/>
    <path id="Path_2908" data-name="Path 2908" class="cls-2" d="M148.192,411.112c.209-.628-2.3.349-3.768.907h0a19.124,19.124,0,0,1-4.885,2.512h-.07a15.336,15.336,0,0,1-4.327.837h0a24.926,24.926,0,0,1-3.21-.07h-.07a18.583,18.583,0,0,1-2.722-.489c.419.209.768.349,1.186.558a8.444,8.444,0,0,1-4.327-.837,7.352,7.352,0,0,0,3.7,1.605.256.256,0,0,1-.07.209c-.837,0-1.605,0-2.442-.07a6.268,6.268,0,0,0,1.884.488,19.6,19.6,0,0,0,2.024.07c.628,0,1.256-.07,1.814-.07v.14c-.837.209-1.745.349-2.722.558.419.07.628.14,1.047.209a9.075,9.075,0,0,0-.837.419v.07c.558-.07,1.186-.209,1.745-.279v.14l-.837.419a.068.068,0,0,0,.07.07c.488-.07,1.047-.209,1.535-.279,0,.07.07.14.07.209l-1.884,1.047c.07.07.07.14.14.209,1.745-.837,3.419-1.675,5.164-2.512.07.07.07.14.14.209-.7.768-1.4,1.605-2.094,2.373l.07.07c.349-.279.768-.488,1.256-.837-.14.279-.14.419-.279.768,1.465-1.117,2.791-2.094,4.048-3.071l.209.209c-.628.837-1.256,1.605-1.884,2.443l.14.14c.907-.907,1.814-1.884,2.722-2.791.07,0,.07.07.14.07-.488.7-.977,1.4-1.465,2.024.07.07.14.07.14.14.977-1.047,1.884-2.094,2.861-3.14.07,0,.07.07.14.07l-1.047,1.675.14.14c1.186-1.117,2.373-2.233,3.629-3.419h0A17.945,17.945,0,0,0,148.192,411.112Z" transform="translate(30.506 -17.128)"/>
    <path id="Path_2909" data-name="Path 2909" class="cls-2" d="M162.722,421.063h.14c.209-.907.419-1.814.628-2.791h.279v5.234h.14c.14-1.256.349-2.442.488-3.7h.209l.209,3.14h.14c.07-.768.14-1.535.209-2.233h.14c.14.837.279,1.675.419,2.442h.14l-.419-6.281h.279a25.508,25.508,0,0,1,1.047,7.676l.419-1.884h.14l-.209,3.14a15.315,15.315,0,0,0,.7-6.63c.907,2.652.349,5.443.7,8.165.14-1.605.349-3.21.488-4.815h.209c.558,1.047.349,2.233.558,3.35.07-.7.209-1.4.279-2.233a5.149,5.149,0,0,0,.558.907,4.538,4.538,0,0,0-1.047-2.931c.07-.07.14-.07.14-.14l1.256,1.256a14.575,14.575,0,0,0-3.28-4.536c.07-.07.14-.14.209-.14.837.7,1.675,1.465,2.582,2.163l.07-.07a3.783,3.783,0,0,1-.419-.768,5.3,5.3,0,0,1,.768.279c-.7-.768-1.256-1.4-1.814-2.024l.14-.14c.488.349.977.628,1.465.977.07-.07.14-.14.14-.209-1.4-1.047-2.791-2.163-4.327-3.28.488.14.837.209,1.186.279,0-.07.07-.07.07-.14a17.138,17.138,0,0,0-7.676-2.931l-.07.279s0,1.186.07,2.791c0-.07,0-.07.07-.14v1.256l.7-.7c-.14.907-.209,1.605-.279,2.373a1.188,1.188,0,0,1,.488-.07c.07.7.14,1.4.14,2.094h.07c.07-.558.209-1.047.279-1.605h.14c0,.558.07,1.186.07,1.745.419-.768.14-1.814,1.186-2.512A26.161,26.161,0,0,1,162.722,421.063Zm-.279-4.4a11.306,11.306,0,0,0-.07-1.535h.279v1.535Z" transform="translate(20.233 -17.518)"/>
    <path id="Path_2910" data-name="Path 2910" class="cls-2" d="M148.584,402.993c-.837.907-1.814.489-2.652.768.558.14,1.117.209,1.675.349v.14H146v.07c.7.14,1.326.349,2.024.489a3.4,3.4,0,0,0-.209.489c.768,0,1.465.07,2.373.07-.349.279-.558.419-.837.628h.07c.419.07.837.14,1.186.209h-.14c1.605.349,2.791.558,2.791.558h.279a18.156,18.156,0,0,0-1.605-8.025c-.07,0-.07,0-.14.07a8.468,8.468,0,0,0,.07,1.256c-.837-1.675-1.675-3.28-2.442-4.815-.07.07-.14.07-.279.14.209.558.488,1.047.7,1.605-.07,0-.07.07-.14.07q-.733-.942-1.675-2.094c.07.349.07.489.14.768-.279-.209-.488-.419-.7-.558-.07,0-.07.07-.14.07.558.977,1.117,1.954,1.675,2.861-.07.07-.14.14-.209.14a13.448,13.448,0,0,0-3.908-4.048c.419.558.7,1.047,1.047,1.466l-.14.14a4.612,4.612,0,0,0-2.722-1.535,8.854,8.854,0,0,0,.837.7c-.837-.07-1.535-.07-2.233-.07,1.047.419,2.3.419,3.21,1.117a.256.256,0,0,1-.07.209c-1.605-.14-3.21-.209-4.815-.349,2.582.837,5.443.7,7.886,2.094a16.7,16.7,0,0,0-6.7-.488c1.047.14,2.094.209,3.14.349v.14c-.628,0-1.326.07-1.954.07a24.674,24.674,0,0,1,7.4,2.3c0,.07-.07.14-.07.209-2.024-.488-4.048-.977-6.071-1.535,0,.07,0,.14-.07.14.768.279,1.535.558,2.373.837v.14c-.768-.07-1.535-.14-2.233-.209v.14c1.047.279,2.024.489,3.071.768v.209c-1.256-.07-2.442-.14-3.7-.14v.14c1.745.279,3.419.558,5.164.837v.279c-.907.07-1.884.07-2.791.14v.14A10.511,10.511,0,0,0,148.584,402.993Zm.977.558c.488.07,1.047.209,1.535.279a.419.419,0,0,1-.07.279c-.488-.14-1.047-.209-1.535-.349A.256.256,0,0,0,149.561,403.551Z" transform="translate(26.276 -12.08)"/>
    <path id="Path_2911" data-name="Path 2911" class="cls-2" d="M146.206,416.994v.14c.907-.07,1.884-.07,2.791-.14,0,.07.07.209.07.279-1.675.419-3.35.907-5.094,1.326v.14c1.256-.14,2.442-.349,3.7-.488a.256.256,0,0,0,.07.209l-2.931,1.047v.14c.768-.14,1.465-.279,2.233-.419,0,.07,0,.14.07.14-.768.349-1.535.7-2.233,1.047,0,.07.07.07.07.14,1.954-.7,3.978-1.4,5.932-2.094,0,.07.07.14.07.209a23.756,23.756,0,0,1-7.118,3c.628,0,1.326-.07,1.954-.07v.14l-3.14.628a15.4,15.4,0,0,0,6.63-1.047c-2.3,1.535-5.164,1.745-7.676,2.791,1.605-.279,3.14-.488,4.745-.768,0,.07.07.14.07.209-.907.837-2.094.907-3.14,1.4.7-.07,1.4-.209,2.233-.279l-.768.768a4.638,4.638,0,0,0,2.582-1.745c.07.07.14.07.14.14-.279.489-.558.907-.907,1.535a12.345,12.345,0,0,0,3.489-4.4c.07.07.14.07.209.14-.488.977-.907,2.024-1.4,3,.07,0,.07,0,.14.07l.628-.628a3.13,3.13,0,0,1-.07.768q.837-1.256,1.465-2.3c.07,0,.07.07.14.07-.209.558-.349,1.117-.558,1.675.07,0,.209.07.279.07.628-1.605,1.326-3.28,2.024-5.025,0,.488.07.837.07,1.256h.14a17.806,17.806,0,0,0,.837-8.165h-.279s-1.117.349-2.722.837h.14c-.349.07-.7.209-1.117.279h-.07c.279.14.488.279.907.489-.907.14-1.605.209-2.373.349l.209.419c-.7.209-1.326.488-1.954.7v.07c.558-.07,1.047-.07,1.605-.14v.14c-.558.14-1.117.349-1.675.488.837.209,1.745-.279,2.722.488A9.087,9.087,0,0,1,146.206,416.994Zm4.187-1.465a12.025,12.025,0,0,0,1.465-.489c0,.07.07.14.07.279-.488.14-.977.279-1.535.419Z" transform="translate(25.793 -17.428)"/>
    <path id="Path_2912" data-name="Path 2912" class="cls-2" d="M138.87,404.081c.07.07.14.14.209.14-.628,1.4-1.326,2.791-1.954,4.187.07.07.14.14.209.14.768-.837,1.465-1.675,2.373-2.652a10.4,10.4,0,0,0-.768,4.257c.488-1.4.907-2.791,1.4-4.187.07,0,.209.07.279.07-.279,1.256-.558,2.512-.907,3.7.07,0,.14.07.279.07.488-1.466.907-2.931,1.4-4.466.07-.279.209-.489.279-.768.07,0,.14.07.279.07h0c1.605-2.791,3.768-.419,3.768-.419a14.674,14.674,0,0,0-7.258-5.094,8.441,8.441,0,0,1-1.256-.349c-.279-.07-.628-.209-.907-.279s-.628-.14-.907-.209c1.326.837,2.791,1.4,4.048,2.233-.07.07-.07.14-.14.209-2.3-.768-4.606-1.535-6.839-2.3a2.655,2.655,0,0,1,.349.419c-.07.07-.14.07-.14.14-.768-.419-1.465-.768-2.233-1.186a11.012,11.012,0,0,0,5.025,2.861,10.406,10.406,0,0,1-4.4-.7c0,.07-.07.14-.07.209.768.349,1.605.7,2.582,1.117a7.252,7.252,0,0,1-3.908-.628c.768.907,1.954,1.047,3.071,1.326-.837.7-1.605,1.326-2.373,1.884.07.07.07.14.14.209l1.465-.837c0,.07.07.07.07.14-.977.977-1.954,1.884-2.861,2.861.07.14.14.209.209.349l1.256-1.047c0,.07.07.07.07.14-.558.977-1.047,1.954-1.605,2.931.07,0,.07.07.14.07.488-.558.907-1.117,1.4-1.605l.07.07c-.488,1.117-.907,2.3-1.4,3.419a.244.244,0,0,1,.14.07c.628-1.186,1.256-2.3,1.884-3.489.07,0,.07.07.14.07-.07.7-.07,1.4-.14,2.024a.419.419,0,0,1,.279.07l1.047-4.4a.256.256,0,0,1,.209.07c-.07.907-.07,1.814-.14,2.722h.209c.209-.977.419-1.954.7-2.931h.14c0,.628.07,1.326.07,1.954h.209a5.6,5.6,0,0,1,2.442-4.606,8.337,8.337,0,0,0-1.535,4.955c.768-1.256,1.535-2.443,2.373-3.7.07.07.209.14.279.209l-3.35,5.234C136.427,408.128,137.614,406.035,138.87,404.081Z" transform="translate(29.57 -13.167)"/>
    <path id="Path_2913" data-name="Path 2913" class="cls-2" d="M161.481,399.222c.07-1.256,1.047-1.535,1.535-2.3-.488.279-1.047.558-1.535.837,0-.07-.07-.07-.07-.14l1.256-1.047-.07-.07c-.628.279-1.256.628-1.884.907a4.445,4.445,0,0,1-.14-.488c-.558.419-1.117.907-1.884,1.465a8.43,8.43,0,0,0,.209-.977h-.07l-1.047.628c0-.07.07-.07.07-.14-1.465.768-2.442,1.4-2.442,1.4l-.209.209a18.092,18.092,0,0,0,6.42,5.094l.07-.07c-.279-.279-.488-.558-.837-.907,1.745.7,3.35,1.4,5.025,2.094.07-.07.07-.209.14-.279-.558-.279-1.047-.488-1.605-.768,0-.07,0-.07.07-.14.837.14,1.605.349,2.652.488-.279-.209-.419-.349-.628-.488h.907c0-.07,0-.07.07-.14-1.047-.349-2.094-.768-3.14-1.117a.527.527,0,0,1,.07-.279,14.655,14.655,0,0,0,5.583.558c-.7-.209-1.186-.349-1.745-.488v-.209a4.489,4.489,0,0,0,3.071-.628h-1.047c.7-.558,1.256-.977,1.745-1.4-1.047.419-2.024,1.186-3.21,1.256,0-.07-.07-.14-.07-.209,1.326-.977,2.582-1.884,3.908-2.861-2.512,1.047-4.606,3-7.327,3.559a15.225,15.225,0,0,0,5.373-3.978c-.837.628-1.745,1.186-2.582,1.814,0-.07-.07-.07-.07-.14.488-.419.977-.907,1.465-1.326a22.1,22.1,0,0,1-7.118,3c-.07-.07-.07-.14-.14-.209,1.884-.907,3.768-1.884,5.583-2.791,0-.07-.07-.07-.07-.14-.768.279-1.535.558-2.373.837,0-.07-.07-.07-.07-.14.628-.419,1.256-.907,1.814-1.326l-.07-.07c-.907.489-1.884.907-2.791,1.4-.07-.07-.07-.14-.14-.209l2.931-2.3c0-.07-.07-.07-.07-.14-1.465.907-3,1.814-4.466,2.722a.964.964,0,0,1-.209-.279c.7-.628,1.4-1.256,2.094-1.954l-.14-.14C163.365,397.9,162.458,398.454,161.481,399.222Zm-1.117.14a12.969,12.969,0,0,1-1.326.768c-.07-.07-.07-.14-.14-.209.488-.279.907-.488,1.4-.768C160.294,399.222,160.364,399.291,160.364,399.361Z" transform="translate(21.684 -12.775)"/>
    <path id="Path_2914" data-name="Path 2914" class="cls-2" d="M164.573,388.475h-.279c-.419-1.465-.768-3-1.186-4.466h-.279c0,1.117-.07,2.233-.07,3.559a10.165,10.165,0,0,0-2.163-3.7c.558,1.4,1.117,2.722,1.675,4.117-.07.07-.14.07-.279.14-.558-1.117-1.186-2.3-1.745-3.419-.07.07-.14.07-.209.14.628,1.4,1.186,2.861,1.814,4.257.07.279.14.488.209.768-.07,0-.14.07-.279.07h0c.628,3.14-2.582,2.722-2.582,2.722a14.941,14.941,0,0,0,8.863-.837c.419-.209.768-.349,1.186-.558.279-.14.558-.209.837-.349l.837-.419c-1.535.279-3,.768-4.536.907,0-.07-.07-.14-.07-.279,2.233-.907,4.536-1.814,6.7-2.652a3.934,3.934,0,0,0-.488-.07V388.2c.837-.209,1.675-.349,2.512-.558a11.216,11.216,0,0,0-5.653,1.047,10.164,10.164,0,0,1,3.768-2.373c0-.07-.07-.14-.07-.209-.837.279-1.675.488-2.652.768a7.119,7.119,0,0,1,3.35-2.024c-1.186-.209-2.163.488-3.21.977.209-1.047.349-2.024.558-3a.256.256,0,0,1-.209-.07,14.617,14.617,0,0,0-.558,1.605c-.07,0-.14,0-.14-.07.14-1.326.209-2.722.349-4.048-.14,0-.279-.07-.419-.07-.07.558-.209,1.117-.279,1.605h-.14c-.209-1.117-.419-2.163-.7-3.28h-.14v2.163h-.14c-.419-1.186-.768-2.373-1.186-3.559a.256.256,0,0,0-.209.07c.279,1.326.558,2.582.768,3.908-.07,0-.14,0-.14.07-.419-.558-.837-1.117-1.256-1.605-.07.07-.14.07-.209.14.7,1.326,1.4,2.652,2.024,3.978a.244.244,0,0,0-.14.07c-.558-.7-1.117-1.4-1.675-2.163-.07.07-.14.07-.14.14.488.907.907,1.745,1.4,2.652l-.07.07c-.419-.488-.837-.977-1.326-1.465a.244.244,0,0,0-.14.07,5.483,5.483,0,0,1,1.117,5.025,9.294,9.294,0,0,0-2.024-4.815c.209,1.466.419,2.861.628,4.327a.629.629,0,0,0-.349.07c-.279-2.024-.558-4.117-.837-6.141C163.806,383.939,164.294,386.242,164.573,388.475Z" transform="translate(20.475 -6.913)"/>
  </g>
</svg>
